<svg xmlns="http://www.w3.org/2000/svg" viewBox="0 0 1201 1201"><defs><style>.cls-1{fill:#fff;}</style></defs><g id="artwork"><path d="M544.70143,616.35869c-73.519,0-114.00781-44.80664-114.00781-126.1665,0-39.227,9.14453-72.76416,26.44434-96.98633,20.01855-28.02881,50.29785-42.84375,87.56347-42.84375,37.25489,0,67.43946,14.83447,87.29,42.8999,17.06934,24.13282,26.0918,57.65088,26.0918,96.93018,0,39.05713-9.02149,69.687-26.81445,91.03906C611.84548,604.53985,582.72,616.35869,544.70143,616.35869Zm0-235.99658c-75.82177,0-84.00781,76.80762-84.00781,109.83008,0,31.75635,6.772,55.90625,20.12793,71.77832,13.61719,16.18311,35.10937,24.38818,63.87988,24.38818,29.09864,0,49.87647-7.95947,63.52051-24.333,13.1792-15.815,19.86133-39.9834,19.86133-71.8335,0-33.04-7.11768-60.56738-20.584-79.60645C593.31423,390.53106,572.18581,380.36211,544.70143,380.36211Z"/><path d="M885.50075,349.40978v46.92q7.08031,9.24006,13.60986,18.85a12.8118,12.8118,0,0,0,1.39014.07,14.99922,14.99922,0,0,0,15-15v-13.89A456.60353,456.60353,0,0,0,885.50075,349.40978Zm91.02,152.32q-2.53491-7.08-5.31006-14.09-1.96509-4.99494-4.06982-9.96c-.56006-1.32-1.12012-2.64-1.7002-3.95a182.35122,182.35122,0,0,1-29.12012,8.28c1.08008,2.43994,2.15039,4.88995,3.18994,7.35q1.4253,3.375,2.79,6.76,2.84987,7.05,5.43018,14.2a430.25168,430.25168,0,0,1-33.52,363.37,431.75429,431.75429,0,0,1-132.48,140.06q-11.03979,7.34994-22.53027,14.03a429.66231,429.66231,0,0,1-429.10987.63q-11.47485-6.615-22.48974-13.91a428.75528,428.75528,0,0,1-192.6001-358.11,429.41348,429.41348,0,0,1,575.73975-403.41q7.14038,2.58,14.20019,5.46c2.06982.82007,4.14014,1.68,6.2002,2.55q3.97485,1.68,7.8999,3.43994a182.02349,182.02349,0,0,1,8.31982-29.10986q-2.26464-1.00526-4.54-1.96009-4.66479-1.97991-9.35986-3.82995-7.00488-2.79017-14.08008-5.33008a459.27591,459.27591,0,0,0-550.89013,665.29,459.11093,459.11093,0,0,0,854.73046-233.1A456.62282,456.62282,0,0,0,976.52077,501.72979Zm-171.68018-186.23h46.81006a456.98539,456.98539,0,0,0-36.81982-30H800.75075a14.999,14.999,0,0,0-15,15c0,.40991.02.82007.06006,1.22Q795.51539,308.34966,804.84059,315.49981Z"/><path class="cls-1" d="M1000.25075,285.49981h-84.75v-84.75a15,15,0,1,0-30,0v84.75H814.83083a456.98539,456.98539,0,0,1,36.81982,30h33.8501v84.75a14.9934,14.9934,0,0,0,13.60986,14.93,12.8118,12.8118,0,0,0,1.39014.07,14.99922,14.99922,0,0,0,15-15v-84.75h84.75a15,15,0,0,0,0-30Zm-199.5,30h4.08984q-9.32958-7.155-19.02978-13.78A14.98138,14.98138,0,0,0,800.75075,315.49981Zm99.75-215a200.06759,200.06759,0,0,0-187.04,129.03,196.358,196.358,0,0,0-8.52,28.90991,200.26366,200.26366,0,0,0-4.43994,42.06006c0,110.46,89.54,200,200,200a199.81634,199.81634,0,0,0,200-200C1100.50075,190.03985,1010.96071,100.49981,900.50075,100.49981Zm64.93994,373.23a182.35122,182.35122,0,0,1-29.12012,8.28,184.67976,184.67976,0,0,1-35.81982,3.49c-102.01025,0-185-82.99-185-185a184.06867,184.06867,0,0,1,3.54-36.07007,182.02349,182.02349,0,0,1,8.31982-29.10986c26.41016-69.95008,94.06006-119.82007,173.14014-119.82007,102.00976,0,185,82.99,185,185C1085.50075,379.66979,1035.51051,447.37981,965.44069,473.72979Zm34.81006-188.23h-84.75v-84.75a15,15,0,1,0-30,0v84.75h-84.75a14.999,14.999,0,0,0-15,15c0,.40991.02.82007.06006,1.22a14.98138,14.98138,0,0,0,14.93994,13.78h84.75v84.75a14.9934,14.9934,0,0,0,13.60986,14.93,12.8118,12.8118,0,0,0,1.39014.07,14.99922,14.99922,0,0,0,15-15v-84.75h84.75a15,15,0,0,0,0-30Zm-214.43994,16.22a14.98138,14.98138,0,0,0,14.93994,13.78h4.08984Q795.511,308.34478,785.81081,301.71978Zm214.43994-16.22h-84.75v-84.75a15,15,0,1,0-30,0v84.75H814.83083a456.98539,456.98539,0,0,1,36.81982,30h33.8501v84.75a14.9934,14.9934,0,0,0,13.60986,14.93,12.8118,12.8118,0,0,0,1.39014.07,14.99922,14.99922,0,0,0,15-15v-84.75h84.75a15,15,0,0,0,0-30Z"/><path d="M1052.53053,148.46978a214.8974,214.8974,0,0,0-361.79,104.51,216.94414,216.94414,0,0,0-5.23975,47.52,214.99344,214.99344,0,0,0,215,215,216.11615,216.11615,0,0,0,47.23-5.18,211.415,211.415,0,0,0,28.79-8.59,215.11046,215.11046,0,0,0,76.00976-353.26Zm-87.08984,325.26a182.35122,182.35122,0,0,1-29.12012,8.28,184.67976,184.67976,0,0,1-35.81982,3.49c-102.01025,0-185-82.99-185-185a184.06867,184.06867,0,0,1,3.54-36.07007,182.02349,182.02349,0,0,1,8.31982-29.10986c26.41016-69.95008,94.06006-119.82007,173.14014-119.82007,102.00976,0,185,82.99,185,185C1085.50075,379.66979,1035.51051,447.37981,965.44069,473.72979Z"/><path d="M1015.25075,300.49981a15.00559,15.00559,0,0,1-15,15h-199.5a14.98138,14.98138,0,0,1-14.93994-13.78c-.04-.3999-.06006-.81006-.06006-1.22a14.999,14.999,0,0,1,15-15h199.5A15.00559,15.00559,0,0,1,1015.25075,300.49981Z"/><path d="M915.50075,200.74981v199.5a14.99922,14.99922,0,0,1-15,15,12.8118,12.8118,0,0,1-1.39014-.07,14.9934,14.9934,0,0,1-13.60986-14.93v-199.5a15,15,0,1,1,30,0Z"/><path d="M740.56081,692.87981a155.14882,155.14882,0,0,0-102.33008-50.68005c-1.57031-.13-3.1499-.25-4.74023-.35a14.99618,14.99618,0,0,0-15.87989,14.13c-2.50976,44.29-9.66015,72.53-21.27,83.91-8.4497,8.29-19.93994,8.4-39.52978,7.89-3.91016-.1-7.96-.2-12.14014-.2-4.18994,0-8.23975.1-12.1499.2-19.58985.51-31.08008.4-39.54-7.89-11.6001-11.37994-18.75-39.61-21.25977-83.91a14.99621,14.99621,0,0,0-15.88037-14.13c-1.58984.1-3.16992.22-4.73.35a155.15021,155.15021,0,0,0-102.33984,50.68005,158.45229,158.45229,0,0,0-41.16992,106.69v241.6a15.00539,15.00539,0,0,0,7.50976,13,459.63553,459.63553,0,0,0,459.1499-.68,14.99743,14.99743,0,0,0,7.47022-12.97v-240.95A158.45233,158.45233,0,0,0,740.56081,692.87981Zm-402.96,106.69a128.52151,128.52151,0,0,1,33.38965-86.53,125.39564,125.39564,0,0,1,71.90039-39.59c3.91992,44.73,13.06982,72.14,29.08984,87.86,17.93994,17.59,39.99023,17.02,61.31006,16.46,3.73-.09,7.58008-.19,11.37988-.19,3.79,0,7.64014.1,11.37012.19,21.31982.56,43.36963,1.13,61.31006-16.46,16.02-15.72,25.16992-43.13,29.08984-87.86a125.39285,125.39285,0,0,1,71.8999,39.59,128.47236,128.47236,0,0,1,33.39014,86.53v232.21a429.71436,429.71436,0,0,1-414.12988.62Z"/><path d="M698.239,838.18194H612.87917a15,15,0,0,1,0-30H698.239a15,15,0,0,1,0,30Z"/></g></svg>