<svg xmlns="http://www.w3.org/2000/svg" viewBox="0 0 1200 1200"><defs><style>.cls-1,.cls-2{fill:#32b2ae;}.cls-1,.cls-3{opacity:0.44;}.cls-4{fill:none;}.cls-5{fill:#fff;}</style></defs><g id="shadows"><polygon points="103.09 870.38 156.317 905.048 109.427 923.606 104.368 920.311 103.09 870.38"/><path class="cls-1" d="M161.85273,837.34912c1.79136.17537,224.811-342.04575,224.811-342.04575l46.19922-12.34023L429.049,522.83369l28.76-6.11733L223.70783,877.63059C215.57453,851.07078,195.02688,837.56928,161.85273,837.34912Z"/><polygon class="cls-2" points="429.049 522.834 210.114 855.531 223.708 877.631 457.809 516.716 429.049 522.834"/><g class="cls-3"><path class="cls-2" d="M1085.54258,780.39873a.031.031,0,0,1-.01.02c-.13989.22-.28.43994-.42993.66015a.94625.94625,0,0,1-.12012.17994c-2.78,4.07006-15.47,21.59985-35.78,32.13989l-.24.12012c-.1499.06982-.2998.13989-.45.22a40.83061,40.83061,0,0,1-5.21,2.17993c-.19995.07007-.38989.14013-.59009.21a4.05105,4.05105,0,0,1-.46.1499c-.12988.05029-.26.09009-.38989.13013-.16016.05005-.33008.1001-.5.15014-.34009.09986-.69019.2-1.03.29981-18.99,5.26-38.3-1.71-39.16992-2.02979a.08691.08691,0,0,1-.06006-.03027l-1.14014-.75977h-.01l-14.87988-9.90014-10.55005-7.01-17.1499-11.3999-3.11011-2.07007-.81006-.54-14.59985-9.71h-.01l-3.92017-2.61011-14.61987-9.71-3.13013-2.08984-.77978-.51-403.52-268.26-10.79-28.24L489.9625,430.27861l-1.80993-4.73975,2.4801-.83007,43-14.3,2.1499,1.43994L965.84263,700.14873l2.07007,1.39013,2.07983,1.39991,14.32007,9.60009c-.41016.62989-.82007,1.25-1.24,1.87989-10.28,15.44995-20.72,29.46-29.42017,39.44995-.83984.97-1.6499,1.87012-2.40991,2.72-10.65991,11.75-14.32983,12.31006-14.94995,12.31006a.35538.35538,0,0,1-.1001-.01l5.06006,3.36011c3.32007-1.93995,7.8501-5.8,14.21-12.89014.36011-.3999.72022-.79981,1.09009-1.22,9.01-10.21,19.90991-24.75,30.67993-40.93994.41992-.63013.83008-1.26,1.24-1.88013l14.33008,9.61011,2.07007,1.38989,2.07983,1.39014,13.77,9.23,62.74,42.07007Z"/></g><path class="cls-2" d="M1042.26255,816.28886c-.12988.04-.27.07984-.3999.11988-.16016.05005-.33008.1001-.5.15014-.34009.09986-.69019.2-1.03.29981a76.26057,76.26057,0,0,1-17.23,3,.16969.16969,0,0,1-.1001,0,69.43819,69.43819,0,0,1-16.27-1.04l-21.78-14.48975-10.55005-7.02-17.27978-11.5-3.71-2.47021c-.01026,0-.01026,0-.02-.00977l-.06006-.04-14.73-9.8-3.79-2.52h-.01l-14.72-9.81006-3-1.99-.56006-.37989-.18994-.12011-.04-.03L512.87266,490.22881l-10.79-28.24,3.16992,2.07983L932.61265,744.3687h.01l2.10986,1.39014,2.11011,1.38989,14.3999,9.43994c-10.65991,11.75-14.32983,12.31006-14.94995,12.31006a.35538.35538,0,0,1-.1001-.01l5.06006,3.36011c3.32007-1.93995,7.8501-5.8,14.21-12.89014l14.39014,9.43994,2.11987,1.39014,2.11011,1.37988,26.3501,17.28,39.19995,25.72,2.61987,1.71Z"/><polygon class="cls-1" points="457.809 287.073 436.213 356.172 452.3 376.098 457.809 287.073"/><path class="cls-1" d="M481.22209,564.00076l-2.30035,18.35249s17.58643,27.46749,16.68938,27.93219-28.69336-26.01987-28.69336-26.01987Z"/><polygon class="cls-1" points="303.344 380.481 333.962 378.875 350.945 402.821 303.344 380.481"/><path d="M1035.11265,660.38872l-.02-.01-14.72-9.79981-3.8-2.53027-14.72-9.78979-3.79-2.52c.97.6499,1.37988,1.98,1.31006,3.87988-.25,6.15991-5.64014,18.34009-13.59009,32.65015-.79,1.42993-1.61987,2.88989-2.47,4.36987-4.58008,7.99-9.8501,16.5-15.3999,24.90014-6.39014,9.7-13.14014,19.25977-19.6001,27.71-1.03,1.34985-2.06006,2.66992-3.06006,3.96-3.67993,4.65991-7.23,8.90991-10.52,12.55-5.78,6.3999-10.79,10.93994-14.35986,12.59985a5.29619,5.29619,0,0,1-3.2002.64014,2.36243,2.36243,0,0,1-.6499-.21l.56006.37989,2.99,2,14.73,9.8h.01l3.79,2.52,14.73,9.80981c.02.02.04.02.06006.03027.00976.00977.00976.00977.02.00977a2.13668,2.13668,0,0,0,.84985.32007,5.32668,5.32668,0,0,0,3.13989-.6499h.01026c3.60986-1.67994,8.68994-6.3,14.55981-12.82007,9.84009-10.91992,21.90015-27.16992,32.90015-43.87012,16.79-25.43994,31.13989-51.88989,31.5498-62.0498C1036.49253,662.3687,1036.08262,661.03886,1035.11265,660.38872Zm-14.86011-6.87988c-.53,4.01977-2.52,10.11987-7.1001,19.57006-5.71,11.77979-14.43994,26.71973-24.67993,42.23975-.40991.62012-.82007,1.25-1.24,1.88013-10.77,16.18994-21.66992,30.73-30.67993,40.93994-.36987.42016-.73.82007-1.09009,1.22-6.35986,7.09009-10.88989,10.95019-14.21,12.89014l-5.06006-3.36011a.35538.35538,0,0,0,.1001.01c.62012,0,4.29-.56006,14.94995-12.31006.76-.84985,1.57007-1.75,2.40991-2.72,8.7002-9.99,19.14014-24,29.42017-39.44995.41992-.62989.82983-1.25,1.24-1.87989a391.272,391.272,0,0,0,23.77-40.49023c8.92993-18.11987,7.27-21.62988,7.1001-21.90991Z"/><rect x="966.63983" y="774.82577" width="4.99935" height="37.97599" transform="translate(-228.60854 1160.92588) rotate(-56.36101)"/><g class="cls-3"><path class="cls-2" d="M1084.54038,781.9349v.01074c-19.00067,28.57074-49.68514,42.79714-74.18982,36.41349a42.46,42.46,0,0,1-10.37467-4.17345A93.74279,93.74279,0,0,1,999.386,803.532c0-19.84829,5.93279-41.63848,18.01344-61.43313,17.41282-28.53865,43.21564-45.80126,67.334-47.95776a43.44955,43.44955,0,0,1,4.74205,5.3C1104.82845,719.58979,1103.55178,753.37484,1084.54038,781.9349Z"/></g></g><g id="artwork"><rect x="715.18182" y="302.45287" width="4.99935" height="552.67785" transform="translate(-161.75087 855.67695) rotate(-56.36165)"/><path d="M954.76621,786.24834a4.92349,4.92349,0,0,1-2.82031-.8711l2.76953-4.16211h0c.03955-.0039,3.70117.77539,17.45655-15.02539,8.69531-9.9873,19.14306-23.99316,29.418-39.43554,10.27686-15.44434,19.16114-30.49317,25.01709-42.375,9.30665-18.88282,7.10987-21.90821,7.08643-21.93653l2.80078-4.13574c2.92383,1.94531,5.019,6.78125-4.81689,27.085-5.93653,12.25391-15.13672,27.918-25.90625,44.10449-10.77491,16.19532-21.67383,30.74219-30.68994,40.96C963.95762,783.06377,958.19248,786.24834,954.76621,786.24834Z"/><path d="M1022.43516,822.37334a50.31531,50.31531,0,0,1-12.71484-1.59473,45.00738,45.00738,0,0,1-10.97413-4.416c-.90771-.50879-1.85791-1.08887-2.8164-1.71973l-22.91651-15.25293,2.77051-4.16211,22.90576,15.24609c.84864.5586,1.6958,1.07618,2.5083,1.53125a40.05479,40.05479,0,0,0,9.773,3.93262c23.9292,6.23145,53.1211-8.1084,71.16944-34.90039l.31885-.48828c18.03027-27.085,20.09814-59.81543,5.02832-79.59277a41.07447,41.07447,0,0,0-4.47608-5.00293,40.36164,40.36164,0,0,0-5.31885-4.22754l-22.90429-15.24512,2.7705-4.16211,22.90577,15.24609a45.37824,45.37824,0,0,1,5.98535,4.75879,46.199,46.199,0,0,1,5.02051,5.60938c16.21582,21.28222,14.37207,56.041-4.43018,84.75293v.00488l-.41846.63965C1070.4708,807.6165,1045.49864,822.37138,1022.43516,822.37334Z"/><path d="M917.72373,761.60088a4.92391,4.92391,0,0,1-2.8208-.8711l2.76953-4.16211a.67481.67481,0,0,0,.10059.00586c.668,0,4.82861-.6416,17.35352-15.02734,8.69433-9.98633,19.14062-23.99024,29.41552-39.43164,10.27784-15.44531,19.16358-30.4961,25.02051-42.37891,9.30859-18.88672,7.11133-21.91211,7.08789-21.94043l2.80078-4.13574c2.92481,1.94531,5.01953,6.78418-4.82324,27.09766-5.94043,12.26074-15.14551,27.92968-25.91943,44.12207-10.772,16.18945-21.66748,30.72851-30.6792,40.94043C926.91123,758.41826,921.149,761.60088,917.72373,761.60088Z"/><path d="M941.25254,772.24883a16.11571,16.11571,0,0,1-2.3999,1.15991h-.01a2.24858,2.24858,0,0,1-.24.08008,7.26888,7.26888,0,0,1-2.36011.43994,4.878,4.878,0,0,1-2.8-.86988l-.02-.01025,1.38013-2.07983h.01l.10986-.17017,1.27-1.90991Z"/><path d="M1020.25254,653.50884l-5.06982-3.37012v-.01l-.01026-.01,1.40015-2.07007,1.3999-2.06982a5.46365,5.46365,0,0,1,2.40015,4.60009A14.46134,14.46134,0,0,1,1020.25254,653.50884Z"/><rect x="741.29901" y="223.93704" width="4.99935" height="580.67045" transform="translate(-96.38506 848.64289) rotate(-56.36173)"/><path d="M451.7545,379.08818a3.01226,3.01226,0,0,1-2.41846-1.21777l-.00049-.001-36.39062-48.60254a3.03265,3.03265,0,0,1,.36035-4.041l44.52685-41.59571a3.03624,3.03624,0,0,1,5.09668,2.49317l-8.13867,90.19922a3.0155,3.0155,0,0,1-2.19434,2.64843A3.08914,3.08914,0,0,1,451.7545,379.08818Zm-33.752-51.4082,32.26807,43.09668,7.21631-79.98145Z"/><path d="M351.17491,405.37334a3.04512,3.04512,0,0,1-1.29151-.28907L286.693,375.42705a3.036,3.036,0,0,1-.85937-4.89356l23.00586-23.05078a3.03511,3.03511,0,0,1,4.564.30371l40.18408,52.708a3.0381,3.0381,0,0,1-2.41259,4.87891Zm-59.82862-33.28516,53.40625,25.06445-33.9624-44.54687ZM312.38047,351.012l-.00293.00293Z"/><path d="M495.08213,613.39287a3.04272,3.04272,0,0,1-2.06933-.81055l-27.71729-25.79687a3.02405,3.02405,0,0,1-.45947-3.9043l20.12939-30.2168a3.03661,3.03661,0,0,1,5.53614,1.27539l7.58691,56.00977a3.0348,3.0348,0,0,1-3.00635,3.44336ZM469.92393,584.263l22.47217,20.915-6.15186-45.415Zm-1.22363-1.13965.00244.00293Z"/><path d="M109.87169,783.00356l17.37982,1.70283a45.07009,45.07009,0,0,1,35.88856,23.37191l8.58557,15.20675,17.3798,1.70286A45.07012,45.07012,0,0,1,224.994,848.35982l8.58557,15.20675-9.83,14.064-8.58557-15.20675a45.07009,45.07009,0,0,0-35.88856-23.37191l-17.3798-1.70285-8.58557-15.20676a45.07013,45.07013,0,0,0-35.88856-23.37191l-17.37982-1.70282Z"/><path d="M138.29453,915.00224l-1.86914-4.63672,85.61231-34.499L453.60313,520.28935l-23.3169,5.5586a3.03634,3.03634,0,0,1-3.72119-3.29688l4.15869-36.42871-94.37451,25.208a3.03508,3.03508,0,0,1-3.78808-2.49414l-7.65479-52.28809L102.51914,798.03252l3.06983,92.251-4.99707.166-3.09033-92.87109a3.02627,3.02627,0,0,1,.49365-1.76075L323.55235,449.46513a3.03665,3.03665,0,0,1,5.54883,1.2168l8.08789,55.249,95.0288-25.38281a3.036,3.036,0,0,1,3.8003,3.27832l-4.168,36.50879,25.37939-6.05078a3.03634,3.03634,0,0,1,3.24659,4.61328L225.88682,879.11845a3.01565,3.01565,0,0,1-1.40869,1.15528Z"/><rect x="58.50172" y="653.50096" width="361.86884" height="4.99963" transform="translate(-440.93196 498.6288) rotate(-56.92452)"/><rect x="99.70471" y="661.28563" width="432.0571" height="4.99963" transform="translate(-412.79667 566.09839) rotate(-56.92452)"/><polygon points="109.14 926.403 101.925 921.704 100.592 890.473 105.588 890.26 106.811 918.919 109.713 920.809 136.45 910.356 138.27 915.012 109.14 926.403"/><rect x="126.86503" y="855.32445" width="4.99963" height="64.33215" transform="translate(-684.91987 511.57152) rotate(-56.92603)"/><path d="M138.29453,915.00224l-1.86914-4.63672,85.61231-34.499L453.60313,520.28935l-23.3169,5.5586a3.03634,3.03634,0,0,1-3.72119-3.29688l4.15869-36.42871-94.37451,25.208a3.03508,3.03508,0,0,1-3.78808-2.49414l-7.65479-52.28809L102.51914,798.03252l3.06983,92.251-4.99707.166-3.09033-92.87109a3.02627,3.02627,0,0,1,.49365-1.76075L323.55235,449.46513a3.03665,3.03665,0,0,1,5.54883,1.2168l8.08789,55.249,95.0288-25.38281a3.036,3.036,0,0,1,3.8003,3.27832l-4.168,36.50879,25.37939-6.05078a3.03634,3.03634,0,0,1,3.24659,4.61328L225.88682,879.11845a3.01565,3.01565,0,0,1-1.40869,1.15528Z"/><rect x="126.86503" y="855.32445" width="4.99963" height="64.33215" transform="translate(-684.91987 511.57152) rotate(-56.92603)"/><line class="cls-4" x1="102.41052" y1="869.93708" x2="156.31888" y2="905.04416"/><path d="M221.53135,878.85967l-8.58594-15.20606a42.82259,42.82259,0,0,0-33.95507-22.11328l-18.67383-1.83008-9.2251-16.33887a42.82079,42.82079,0,0,0-33.95508-22.1123L99.75645,799.556l.4873-4.97656,17.37989,1.70313a47.6953,47.6953,0,0,1,37.82129,24.62988l7.94677,14.0752,16.08594,1.57617a47.70175,47.70175,0,0,1,37.82178,24.63086l8.58545,15.20605Z"/><path d="M103.9752,899.889l-1.76563-4.67773a37.5315,37.5315,0,0,0,24.15186-34.94141,37.15537,37.15537,0,0,0-26.27734-35.6709l1.47851-4.77539a42.1295,42.1295,0,0,1,29.79883,40.44629A42.5569,42.5569,0,0,1,103.9752,899.889Z"/><path d="M138.00791,897.10576l-2.624-4.25586a50.37943,50.37943,0,0,0-29.16455-93.207,51.22756,51.22756,0,0,0-5.67822.63183l-.832-4.92968a56.05631,56.05631,0,0,1,6.23535-.69434,55.37923,55.37923,0,0,1,32.06347,102.45508Z"/><path d="M179.37364,896.93681h-5a42.7251,42.7251,0,0,1,51.28955-41.82129l-1.002,4.89844a37.72571,37.72571,0,0,0-45.28759,36.92285Z"/><path class="cls-4" d="M223.79007,877.75383a.46629.46629,0,0,1-.24674.20385l-29.92277,12.05916-18.80736,7.57453-18.49644,7.45653h0l-17.4343-11.41981-10.0208-6.52313-11.29415-7.09211-8.669-5.66478-2.23167-1.44836c-.17157-5.08551-3.98339,5.19744-4.25161-2.96722-.34339-10.35326-.74049-22.26227-1.11584-33.40944v-.01074c-.20378-6.0618-.39709-11.87679-.56865-17.10171-.3971-11.85531-.68653-20.62079-.72949-21.91893a.49391.49391,0,0,1,.08565-.30044l.03222-.05363-.11787-.07511,17.38061,1.70591a45.05777,45.05777,0,0,1,35.88778,23.378l8.58305,15.20269,8.65821.84762,8.72239.85829a44.99745,44.99745,0,0,1,35.43726,22.59485Z"/><path class="cls-5" d="M941.25254,772.24883a16.11571,16.11571,0,0,1-2.3999,1.15991h-.01a2.24858,2.24858,0,0,1-.24.08008,7.26888,7.26888,0,0,1-2.36011.43994,4.878,4.878,0,0,1-2.8-.86988l-.02-.01025,1.38013-2.07983h.01l.10986-.17017,1.27-1.90991Z"/><path class="cls-5" d="M1020.25254,653.50884l-5.06982-3.37012v-.01l-.01026-.01,1.40015-2.07007,1.3999-2.06982a5.46365,5.46365,0,0,1,2.40015,4.60009A14.46134,14.46134,0,0,1,1020.25254,653.50884Z"/><path d="M1068.11265,679.33867l-2.77,4.17017-10.55005-7.03-16.01-10.64991-2.36011-1.56-2.72-1.81006-13.44995-8.95-5.06982-3.37012v-.01l-.01026-.01-13.43994-8.93994-2.35986-1.56006-2.71-1.8-.01026-.02L551.97251,341.92876l-43.99,12.43994-2.15991.61011,3.6,6.35009,26.68,47.06983a3.02041,3.02041,0,0,1,.18994,2.59009,2.966,2.966,0,0,1-.51.85986,2.996,2.996,0,0,1-1.36.92993l-41.15,13.69019-2.37.79,1.92,4.91992v.01l12.42993,31.87988,9.52,24.42017,402.8999,268.07983h.01026l2.68994,1.79,2.34985,1.57007,13.47,8.96,5.06006,3.36011,13.46,8.97h.01l2.67993,1.79h.01026l2.34985,1.57006h.01l16.01,10.64991,10.55005,7.02-1.26,1.88989-.12012.19018-1.38989,2.07984-10.55-7.02-20.78-13.82984-.09985-.06005-.03-.02-.16016-.11011-18.5-12.30982-.02-.01025-18.23-12.13989-.22-.13989-.07007-.04L511.48252,492.30888a2.99548,2.99548,0,0,1-1.13989-1.42016l-24.8501-63.74a3.03286,3.03286,0,0,1,1.87012-3.98l43.21-14.37989-30.33008-53.52a3.03594,3.03594,0,0,1,1.81006-4.42017l49.41992-13.98a3.0177,3.0177,0,0,1,2.5.39014l445.48,296.3999,18.52,12.32007.22.1499,18.3,12.18017,21.07007,14.00977Z"/></g></svg>