<svg xmlns="http://www.w3.org/2000/svg" viewBox="0 0 3600 2400"><defs><style>.cls-1,.cls-3{fill:#32b2ae;}.cls-1,.cls-2{opacity:0.44;}.cls-4,.cls-5,.cls-6,.cls-7{fill:none;}.cls-5,.cls-6,.cls-7{stroke:#000;stroke-miterlimit:10;stroke-width:5px;}.cls-5,.cls-7{stroke-linecap:round;}.cls-7{stroke-dasharray:19.15742 31.92904;}</style></defs><g id="shadows"><path class="cls-1" d="M1029.63629,738.31725a72.63206,72.63206,0,0,0,.78028,7.8501H381.31647v-12.02h648.25C1029.54645,735.52721,1029.57624,736.91735,1029.63629,738.31725Z"/><path class="cls-1" d="M1581.63629,734.14733v12.02H1181.76618a76.31687,76.31687,0,0,0,.86035-11.49c0-.18005,0-.3501-.01026-.53Z"/><path class="cls-1" d="M2965.42112,728.338c-.37043-.49827-.74085-.98344-1.13685-1.46892-.28062-.35749-.56187-.71513-.8556-1.07262-.30619-.396-.62548-.77921-.94477-1.16242-.613-.75332-1.2516-1.48139-1.86461-2.20946-1.26469-1.46861-2.54185-2.89918-3.88262-4.29109a120.09967,120.09967,0,0,0-87.10267-37.357H2767.65252v33.41044a56.01326,56.01326,0,0,1-56.01613,56.01629H2304.273c-.56188,0-1.13685-.01263-1.69873-.02541-.68971-.02557-1.37943-.05114-2.05605-.10228-.37043-.02557-.72776-.05113-1.08571-.08949-1.2385-.08933-2.46515-.24258-3.69118-.4214-.9192-.15326-1.839-.30651-2.75824-.49812-.15341-.03835-.31929-.06376-.4858-.10211-.47207-.10212-.94477-.21718-1.41747-.33208-.53631-.12768-1.06015-.26815-1.584-.40862-.52321-.14062-1.034-.29372-1.55779-.44713q-1.55186-.47894-3.06506-1.03442c-.49827-.17882-.99654-.38306-1.49418-.57482q-2.2422-.90035-4.36842-1.99229c0,.01279.0131.01279.0131.02557a55.95479,55.95479,0,0,0,49.93714,30.69008H2736.324a56.01067,56.01067,0,0,0,56.00366-56.01614V705.464h101.994A119.60789,119.60789,0,0,1,2966.162,729.334C2965.91939,729.00212,2965.6768,728.67,2965.42112,728.338Zm-819.17133-47.56149a119.996,119.996,0,0,0-87.07711,37.357c-1.30273,1.39191-2.60546,2.82248-3.88262,4.29109-.63858.72807-1.25159,1.45614-1.85151,2.20946-1.82656,2.235-3.602,4.5212-5.28762,6.87129-1.67316,2.34994-3.26961,4.78936-4.77689,7.25419-1.50665,2.49041-2.93722,5.01932-4.26552,7.62462-1.34077,2.59268-2.55432,5.24927-3.71674,7.95669a114.74558,114.74558,0,0,0-4.9041,13.89568,110.18862,110.18862,0,0,0-2.74577,11.97963,119.87708,119.87708,0,0,0-1.801,20.90729V1853.46621a60.45336,60.45336,0,0,1,24.67516,6.34746V825.81087a121.41928,121.41928,0,0,1,1.80038-20.91991,110.92346,110.92346,0,0,1,2.75887-11.97978,113.39645,113.39645,0,0,1,4.9041-13.89553c1.16241-2.69479,2.376-5.364,3.71674-7.9439,1.3283-2.60546,2.74577-5.13422,4.25305-7.62462,1.51974-2.465,3.1031-4.90441,4.78935-7.25435q2.52844-3.52489,5.27453-6.87113c.613-.75349,1.226-1.4814,1.86461-2.20947,1.27716-1.48155,2.57989-2.89918,3.88262-4.29124a119.99594,119.99594,0,0,1,87.0771-37.357h77.35745V680.77648Z"/><rect class="cls-1" x="2007.11285" y="1056.18979" width="990.10267" height="29.6487"/><path class="cls-1" d="M904.19577,1253.80116c-7.22894,4.93-16.47526,5.73444-25.08363,7.50971-30.17918,6.207-53.7044,28.59567-81.1509,41.13749a167.66379,167.66379,0,0,1-87.24236,13.806c-3.25714-.35764-37.52348-5.67068-41.27826-6.8967a.34037.34037,0,0,1-.20455-.45976c.76642-1.72414,4.55987-10.97078,2.1839-18.91468a197.1742,197.1742,0,0,1-4.61038-21.25215l8.42939,3.43565a55.66045,55.66045,0,0,0,7.24141,1.28994c.44713,1.86477.9323,3.7038,1.443,5.40237,2.376,7.93128-1.41747,17.17792-2.1839,18.90206a.35383.35383,0,0,0,.20455.47254c3.75478,1.21324,38.02113,6.53906,41.27826,6.88392a167.533,167.533,0,0,0,87.24236-13.80619c27.44651-12.54166,50.97172-34.93034,81.1509-41.13733q.88117-.17235,1.76234-.34486,5.4797,1.456,10.74112,3.33338A.3649.3649,0,0,1,904.19577,1253.80116Z"/><path class="cls-1" d="M732.53228,1265.95976c-5.18535,6.97325-23.79337,5.23633-23.79337,5.23633C716.03145,1269.76568,724.16712,1267.965,732.53228,1265.95976Z"/><path class="cls-1" d="M861.66654,1244.01821s-46.18237-1.36665-65.8761,4.751c-14.50838,4.49563-39.8346,11.59657-63.25816,17.19054-8.36516,2.00523-16.50083,3.80592-23.79337,5.23633a58.5441,58.5441,0,0,0-.613-10.08961,63.57167,63.57167,0,0,0-17.5485-34.72594l25.09673-6.89671c.63858-.90673,13.76753,20.83043,17.34395,35.31355,14.38054-4.17634,28.26344-9.119,39.9113-12.10747,26.50111-6.79458,57.2933-11.32841,86.668-9.60428Z"/><path class="cls-1" d="M708.73891,1271.19609c-24.66207,4.81493-5.18536-7.3563-.613-10.08961A58.5441,58.5441,0,0,1,708.73891,1271.19609Z"/><path class="cls-1" d="M659.27446,1170.13429c1.77543.49811,2.95032,1.18783,4.34223,1.48155-11.63477,6.56463-12.10747,4.02309-16.82012,2.66922-9.17025-2.61824-41.827-68.95394-40.61349-94.82925,2.00492-42.66985,68.25144-106.413,115.26383-118.2907-45.44151,18.50622-100.96,75.12258-102.78594,114.13993C617.44742,1101.16756,650.10484,1167.50342,659.27446,1170.13429Z"/><g class="cls-2"><path class="cls-3" d="M1343.46266,590.022a25.21209,25.21209,0,0,1-4.9939,14.38085c-22.42641-32.08229-117.94538-56.19511-232.37918-56.19511-114.42134,0-209.95278,24.11282-232.37981,56.19511a25.20669,25.20669,0,0,1-4.99328-14.38085,3.4266,3.4266,0,0,1,.01248-.35765c.42156-38.91507,106.54072-70.43533,237.36061-70.43533,130.83236,0,236.939,31.52026,237.36061,70.43533A3.42933,3.42933,0,0,1,1343.46266,590.022Z"/><path class="cls-3" d="M868.71624,590.35406V590.022a3.34415,3.34415,0,0,1,.01278-.3576"/><path class="cls-3" d="M1343.45,589.6644a3.34675,3.34675,0,0,1,.01277.3576v.33206"/></g><path class="cls-4" d="M868.729,618.64319a3.34433,3.34433,0,0,0-.01278.35761v.33206"/><path class="cls-4" d="M1343.46276,619.33286v-.33206a3.34694,3.34694,0,0,0-.01277-.35761"/><path class="cls-1" d="M1143.93173,357.1188a43.063,43.063,0,0,1,4.38088,9.93628c-20.12839-4.2274-66.0295-2.567-66.0295,4.96818a45.30442,45.30442,0,0,0-6.6153,23.55086,15.75373,15.75373,0,0,1-12.60573,15.38978c-87.34526,18.03352-155.699,76.79566-175.12455,151.03723-12.27335,8.493-19.10629,17.84191-19.20856,27.6632.37042-93.718,77.20466-172.238,180.68032-193.60488a15.75319,15.75319,0,0,0,12.60511-15.38978,45.30478,45.30478,0,0,1,6.61593-23.55087C1068.63033,347.46347,1143.93173,347.46347,1143.93173,357.1188Z"/><path class="cls-1" d="M1343.45019,589.66433a23.58633,23.58633,0,0,0-2.87362-10.80473c.90674.67693,1.77481,1.36665,2.61794,2.05621v.01278Q1343.42461,585.27736,1343.45019,589.66433Z"/><path class="cls-1" d="M765.51984,1156.09614a21.47734,21.47734,0,0,1-1.22021-8.29576c.30065-4.55267,2.62-8.96578,7.02777-10.70306a12.00248,12.00248,0,0,1,9.44111.315c-4.26864,1.79439-6.51281,6.13817-6.8069,10.6207a21.44909,21.44909,0,0,0,1.21873,8.29008c3.81875,11.23652,12.14061,25.21026,22.54373,31.53927.4725.28731.93738.54534,1.38307.77742-2.52426,1.763-6.07379,2.02166-11.04353-1.00426C777.66041,1181.30656,769.33856,1167.33282,765.51984,1156.09614Z"/><path d="M810.0049,1052.70616s-17.97216,44.09441-10.26073,61.05955,19.90111,20.35381,13.62881,25.58073c-4.81176,4.0098-12.81732,9.43331-17.16186,10.37345a2.28274,2.28274,0,0,1-2.66181-1.53085c-1.49147-4.61071-6.53811-15.70471-20.42294-14.9415-17.49464.96162-33.17539,27.09621-22.72156,57.41234,0,0-24.40212,30.68078-54.82434,34.35415a14.16138,14.16138,0,0,1-14.19591-7.457c-5.47308-10.34474-16.20143-28.92116-28.29156-40.75385Q741.55111,1132.23925,810.0049,1052.70616Z"/><path d="M621.9216,1134.01776c9.39454-4.51771,20.30943-9.09144,30.96246-8.2947,8.89093.66495,12.84817,5.35688,17.69776,11.34944a3.71026,3.71026,0,0,1-.68356,5.33637c-7.21749,5.26465-25.57036,16.93823-38.96417,10.63526"/><path d="M707.04771,1254.37026s-10.89794-5.99387-21.251-1.63469-17.4367,7.62855-18.52649,13.62242,22.88566,6.53876,22.88566,6.53876l19.07139-3.26938Z"/><path class="cls-1" d="M857.07,1005.59171a250.60086,250.60086,0,0,1-37.22914,29.9751c12.04324-22.93793,11.59673-37.306,11.59673-37.306a227.39406,227.39406,0,0,0-26.08016-17.3438l-.11475-.98328c10.14059-6.769,17.995-11.99272,25.22394-15.72193C852.10166,967.28964,875.07809,987.57113,857.07,1005.59171Z"/><path class="cls-5" d="M690.57961,1226.38287s18.87348,17.31146,18.16075,44.81551"/><path class="cls-5" d="M666.8049,1268.73743a197.46,197.46,0,0,0,4.61005,21.25118c2.38649,7.93954-1.41179,17.18184-2.17542,18.90919a.33814.33814,0,0,0,.20063.46461c3.75,1.22077,38.02326,6.53941,41.27837,6.88688a167.51209,167.51209,0,0,0,87.23821-13.80556c27.447-12.53561,50.98073-34.92482,81.15228-41.13336,8.61658-1.77307,17.85382-2.57665,25.09239-7.5062a.36425.36425,0,0,0-.08232-.637c-40.16077-14.40557-90.67485-9.32622-131.19335,1.06942-27.74254,7.11776-68.17545,25.30638-97.6929,17.92706-9.1437-2.28591-12.57182-2.286-2.28713-13.71344,8.53443-9.48269,27.29835-6.37524,33.438-5.04287"/><path d="M3033.45554,798.01982v-.06376c0-2.05637-.08917-4.087-.23011-6.0793v-.179c-.08918-2.03049-.22949-4.06129-.4596-6.06652a158.06357,158.06357,0,0,0-3.33322-20.97089c-.88117-3.90819-1.91574-7.73967-3.07816-11.54559-.52383-1.71135-1.07262-3.35879-1.622-5.04473-1.13685-3.308-2.38782-6.57741-3.71612-9.80851a165.09413,165.09413,0,0,0-9.22138-18.69782q-3.96525-6.8391-8.53166-13.29514c-.77889-1.07293-1.53222-2.10735-2.32421-3.18012-1.188-1.59645-2.40091-3.14177-3.62694-4.67446-2.49071-3.078-5.045-6.02832-7.73967-8.90193q-1.99245-2.14539-4.08717-4.24011a164.5003,164.5003,0,0,0-17.8416-15.45362c-2.08225-1.57089-4.22748-3.07785-6.38581-4.55956-1.09881-.72791-2.197-1.443-3.33384-2.17111-2.19637-1.43042-4.457-2.78413-6.73066-4.12521q-3.42832-1.9541-6.98573-3.76756c-2.3504-1.18783-4.72575-2.35009-7.13976-3.44843-1.21293-.54925-2.42648-1.07277-3.67807-1.59645-3.69055-1.57089-7.39482-2.98852-11.20073-4.26568a163.496,163.496,0,0,0-52.58065-8.62084H2146.24979a163.32155,163.32155,0,0,0-123.88468,56.65487c-1.71182,1.96688-3.38435,3.99752-5.01947,6.06652-2.40091,3.06522-4.72512,6.25812-6.96016,9.54051q-1.6482,2.43281-3.21847,4.95524c-2.08162,3.33353-4.0616,6.79459-5.91311,10.294q-2.2609,4.27206-4.26614,8.71017a163.53965,163.53965,0,0,0-14.55952,67.63859V1869.97983c12.72048-11.81375,28.251-17.11385,43.51267-16.51362V801.1234a119.87708,119.87708,0,0,1,1.801-20.90729,110.18862,110.18862,0,0,1,2.74577-11.97963,114.74558,114.74558,0,0,1,4.9041-13.89568c1.16242-2.70742,2.376-5.364,3.71674-7.95669,1.3283-2.6053,2.75887-5.13421,4.26552-7.62462,1.50728-2.46483,3.10373-4.90425,4.77689-7.25419,1.68563-2.35009,3.46106-4.63625,5.28762-6.87129.59992-.75332,1.21293-1.48139,1.85151-2.20946,1.27716-1.46861,2.57989-2.89918,3.88262-4.29109a119.996,119.996,0,0,1,87.07711-37.357h102.04508v33.41044a55.99263,55.99263,0,0,0,30.72859,50.01369c1.41747.71513,2.86052,1.37928,4.35532,1.96672.49764.19176.99591.396,1.49418.57482q1.51351.55541,3.06506,1.03442c.52384.15341,1.03458.30651,1.55779.44713.52383.14047,1.04767.28094,1.584.40862.4727.1149.9454.23,1.41747.33208.16651.03835.33239.06376.4858.10211.91921.19161,1.839.34486,2.75824.49812,1.226.17882,2.45268.33207,3.69118.4214.358.03836.71528.06392,1.08571.08949.67662.05114,1.36634.07671,2.05605.10228.56188.01278,1.13685.02541,1.69873.02541h407.36342a56.01326,56.01326,0,0,0,56.01613-56.01629V680.77648H2869.634a120.09967,120.09967,0,0,1,87.10267,37.357c1.34077,1.39191,2.61793,2.82248,3.88262,4.29109.613.72807,1.2516,1.45614,1.86461,2.20946.31929.38321.63858.76642.94477,1.16242.29373.35749.575.71513.8556,1.07262.396.48548.76642.97065,1.13685,1.46892.80446,1.03442,1.584,2.09441,2.33731,3.16733,1.68562,2.34994,3.28208,4.78936,4.78935,7.25419,1.53285,2.49041,2.96279,5.01932,4.26552,7.62462,1.3283,2.59268,2.57989,5.24927,3.70427,7.95669a117.03039,117.03039,0,0,1,4.9041,13.89568c1.11128,3.908,2.03049,7.91834,2.75887,11.97963a118.67592,118.67592,0,0,1,1.82594,20.90729V2010.55709c13.21875-7.4843,28.7748-10.63885,43.5133-7.663V801.1234C3033.51978,800.076,3033.51978,799.02868,3033.45554,798.01982Zm-489.49775-68.34093H2413.13852a7.24788,7.24788,0,1,1,0-14.49575h130.81927a7.24788,7.24788,0,1,1,0,14.49575Zm48.99174,2.5799a9.815,9.815,0,1,1,9.79636-9.83424A9.81635,9.81635,0,0,1,2592.94953,732.25879Z"/><path class="cls-1" d="M1895.05742,2145.57858c-8.314-35.28783-9.70593-76.22092-33.46126-105.60842-.0898-.10227-.179-.217-.26878-.31929,12.60573-5.01947,27.12721-1.74986,40.37153,14.63622,23.75533,29.40029,25.14723,70.3206,33.46188,105.62121a55.92878,55.92878,0,0,0,4.08654,11.52,28.70858,28.70858,0,0,1-9.51448,4.03572C1910.88162,2179.781,1898.87643,2161.7729,1895.05742,2145.57858Z"/><path class="cls-1" d="M2059.63291,2121.83635c7.10047-32.18473,15.82358-63.87118,21.45607-96.38767,6.52612-37.574,13.9465-77.07651,6.18126-115.09764-3.78035-18.55719-12.79719-32.92526-24.45752-42.59346,28.63386-.47239,56.99957,19.89827,64.56089,56.92318,7.76462,38.00834.34424,77.52364-6.18188,115.098-5.63186,32.51649-14.355,64.18984-21.45607,96.37457-2.86114,12.97585-2.89918,32.04378,2.1708,46.32267C2060.2453,2204.86432,2053.5402,2149.49955,2059.63291,2121.83635Z"/><path class="cls-1" d="M2171.62714,2207.89134c-.98344-11.23908,11.22567-27.38227,18.67163-34.841,18.16151-18.1612,36.68035-46.30989,33.92148-73.33452a40.16922,40.16922,0,0,0-4.47006-14.59787c1.09818-.54941,2.20946-1.06015,3.35941-1.53284,20.85552-8.55693,39.15735,10.34513,41.2134,30.44764,2.75887,27.02463-15.77244,55.17332-33.92086,73.33452a86.35875,86.35875,0,0,0-15.01975,20.57521c-.67662.37043-1.36633.75333-2.05605,1.14932C2200.70813,2216.35878,2173.87464,2233.4985,2171.62714,2207.89134Z"/><path class="cls-1" d="M2271.565,2298.09712h-55.22476c36.99964-32.23555,51.53359-62.41473,49.74569-80.89522C2311.99955,2198.82337,2324.83539,2243.10247,2271.565,2298.09712Z"/><path class="cls-1" d="M2912.6615,2156.281c2.28617-39.75789-7.35615-83.32169,14.07435-116.89832,13.755-21.57144,40.80556-34.52172,65.76135-30.16671a68.01792,68.01792,0,0,0-26.19491,23.57635c-21.418,33.56385-11.77508,77.14075-14.06125,116.89864-.575,10.08977-2.79691,21.45638-11.36662,26.80761-9.86,6.156-20.49881,1.28995-30.57579-6.01538A57.135,57.135,0,0,0,2912.6615,2156.281Z"/><path class="cls-1" d="M2892.0866,2298.46755h-54.75207c-6.67953-4.32944-12.66934-9.97471-18.45523-15.50461-18.25007-17.44591-37.07573-35.76052-45.85-59.43915-8.76115-23.67863-4.18882-54.35607,17.12694-67.8938,11.06042-7.02439,24.49618-8.1101,37.33141-5.05751-19.38692,14.21466-23.33377,43.52546-14.87881,66.34817,8.77425,23.69173,27.59929,41.99324,45.85,59.45225,9.20828,8.79951,18.91483,17.89274,31.13705,21.45607C2890.42654,2298.07155,2891.25657,2298.28888,2892.0866,2298.46755Z"/><path class="cls-1" d="M3159.37071,2108.93689c-27.56063,22.97612-38.31485,81.802-68.80022,96.5024-12.91256,6.2324-20.86925,3.38436-25.5688-4.32975,29.336-32.3506,39.79593-107.33271,91.63634-93.04135C3157.58281,2108.32388,3158.48954,2108.6176,3159.37071,2108.93689Z"/><path class="cls-5" d="M1843.96775,2119.44649c2.93229,29.78367,33.00322,134.59054,69.40954,178.40675"/><path class="cls-5" d="M2023.47852,1933.89451s-10.17347,222.36306-40.22984,366.09707"/><path class="cls-5" d="M2181.44251,2120.57922s-61.50033,114.41922-114.08758,179.41106"/><path class="cls-5" d="M2224.5236,2241.8445s-24.3727,26.40376-70.68758,58.14681"/><ellipse class="cls-5" cx="1960.40994" cy="2227.06882" rx="12.65471" ry="25.69665" transform="translate(-152.31369 143.93619) rotate(-4.04775)"/><ellipse class="cls-5" cx="3037.32242" cy="2252.26894" rx="25.69665" ry="12.65471" transform="translate(-602.10459 3278.23867) rotate(-52.30145)"/><ellipse class="cls-5" cx="2052.74102" cy="1969.98556" rx="17.61957" ry="8.67703" transform="translate(-642.95619 2879.82366) rotate(-62.47179)"/><ellipse class="cls-5" cx="2159.17599" cy="2259.54311" rx="14.06081" ry="8.00106" transform="translate(-800.18051 1254.66246) rotate(-27.54574)"/><ellipse class="cls-5" cx="2988.78708" cy="2080.46191" rx="8.00106" ry="14.06081" transform="translate(-292.42783 500.96874) rotate(-9.13638)"/><path class="cls-5" d="M3021.62592,2064.17217s-33.5644,142.9642-25.912,234.29568"/><path class="cls-5" d="M3172.47539,2168.09649s-29.553,75.52436-77.86156,131.93638"/><path class="cls-5" d="M2876.616,2201.0091s26.02024,60.65583,71.08495,96.64195"/><g class="cls-2"><path class="cls-3" d="M2139.98639,1362.97729a182.298,182.298,0,0,0,100.79981,163.11,182.32027,182.32027,0,1,1,119.67041-341.40991,183.22749,183.22749,0,0,0-38.18018-4C2221.59626,1180.67736,2139.98639,1262.29723,2139.98639,1362.97729Z"/><path class="cls-3" d="M2597.84626,1840.50744a182.29843,182.29843,0,0,0,100.80029,163.10986,182.32127,182.32127,0,1,1,119.71972-341.39013,182.47629,182.47629,0,0,0-220.52,178.28027Z"/></g><path d="M2712.04645,1851.68737v4.91992a70.4361,70.4361,0,0,1-12.36035-14.72,69.78876,69.78876,0,0,0,9.09033,4.81983A5.46653,5.46653,0,0,1,2712.04645,1851.68737Z"/><path class="cls-1" d="M2829.31647,1804.69738a70.15821,70.15821,0,0,1-42.05029,64.27979,5.469,5.469,0,0,0-3.26953,4.85009.43147.43147,0,0,0-.02051.16993l.02051,127.48a180.21089,180.21089,0,0,1-22.27051,4.47021l-.00977-154.22021a.93666.93666,0,0,1,.00977-.16993,5.48144,5.48144,0,0,1,3.27051-4.85009,70.15966,70.15966,0,0,0,31.38964-101.48A70.04823,70.04823,0,0,1,2829.31647,1804.69738Z"/><path d="M2282.81647,1495.23742c.46.25.93994.48975,1.41992.7a12.80273,12.80273,0,0,0,1.18994-.7Z"/><path class="cls-1" d="M2370.80622,1344.02721a76.57221,76.57221,0,0,0-32.87989-59.19995,76.3736,76.3736,0,0,1-11.14013,108.53,56.96245,56.96245,0,0,0-20.77979,37.46l-.39014,6.56006h-.8999a10.94007,10.94007,0,0,1,0,21.88013,10.94,10.94,0,0,1,0,21.87988h-13.64013a13.37848,13.37848,0,0,1-5.64991,14.1001h20.49024a24.37193,24.37193,0,0,1-11.56006,2.92993,24.04365,24.04365,0,0,1-10.12012-2.23,13.16236,13.16236,0,0,1-4.31006,1.40991c-.02.27-.02978.54-.02978.82007a13.42505,13.42505,0,0,0,26.8501,0,13.56539,13.56539,0,0,0-.33008-2.92993h13.63965a10.94007,10.94007,0,0,0,0-21.88013,10.93494,10.93494,0,0,0,0-21.86987h.89013l.39991-6.57007a56.887,56.887,0,0,1,20.77-37.44995A76.39817,76.39817,0,0,0,2370.80622,1344.02721Z"/><path class="cls-1" d="M1094.08649,797.08727c1.43994,4.53,2.81006,9.15,4.27,13.75-.26025-.03-.53027-.06006-.79-.09a76.54628,76.54628,0,0,1-59.35986-111.43006,76.57672,76.57672,0,0,0,55.87988,97.77Z"/><path class="cls-1" d="M1179.07624,757.80724a76.7752,76.7752,0,0,1-43.96973,47.72.01.01,0,0,0-.01025.01,51.03163,51.03163,0,0,1-9.21973-7.05993,40.13762,40.13762,0,0,0,14.30957-5.17005A76.83433,76.83433,0,0,0,1179.07624,757.80724Z"/><path class="cls-1" d="M1005.63288,1345.09521s-18.74382,13.74748-22.34641,41.21729,19.49338,100.81066,19.49338,100.81066C1000.6861,1452.25549,1001.42829,1405.76232,1005.63288,1345.09521Z"/><path class="cls-1" d="M1031.52524,1162.6348s46.637,47.039,44.22472,110.56181l-12.86537,11.2572s-9.247-91.26375-39.80225-114.58224Z"/><path class="cls-1" d="M672.5295,1423.82588s57.7623,78.07066,173.88141,57.73852"/><path class="cls-1" d="M752.49058,1551.39339s65.81832,30.391,92.63868-27.57562"/><path d="M1580.09626,1672.94738a38.35881,38.35881,0,0,1-36.41016,26.31982H401.5362a38.31982,38.31982,0,0,1-38.31983-38.31982V140.00732a38.34612,38.34612,0,0,1,26.31983-36.4,38.13249,38.13249,0,0,0-1.91993,12V1653.93443a20.93287,20.93287,0,0,0,20.93288,20.93287H1568.08649A38.14758,38.14758,0,0,0,1580.09626,1672.94738Z"/><path class="cls-1" d="M667.08388,1691.37014c-5.3535-25.36057-13.1656-47.95548-29.45674-113.93459-12.86033-52.08434-19.04456-122.08125-16.50784-176.08362,1.75-37.25384,6.41941-97.97394,50.29565-111.36332a70.01926,70.01926,0,0,1-1.97479,19.3738c-2.62117,11.36208-7.609-5.58288-21.63394,17.81043-38.43145,132.01876,34.71142,361.51307,34.71142,361.51307Z"/><path class="cls-1" d="M1189.19635,760.96728a76.44274,76.44274,0,0,1-24.48,38.01c.06983-2.78992-1.74023-6.9-3.91015-10.78a76.491,76.491,0,0,0,20.15039-37.50989C1183.91657,754.04723,1186.84626,757.83727,1189.19635,760.96728Z"/></g><g id="artwork"><path d="M3237.09993,978.86215q-3.17622,5.91025-6.43295,11.76683l-.24131-.13415,6.43311-11.76683Z"/><rect class="cls-6" x="2079.70413" y="876.11912" width="85.22724" height="85.22724" rx="4.68325"/><rect class="cls-6" x="2853.62249" y="876.11912" width="85.22724" height="85.22724" rx="42.61358"/><line class="cls-6" x1="2989.97593" y1="1056.18979" x2="2025.91433" y2="1056.18979"/><line class="cls-5" x1="2798.01779" y1="918.73274" x2="2679.0441" y2="918.73274"/><line class="cls-5" x1="2896.23611" y1="1241.19372" x2="2551.20616" y2="1241.19372"/><line class="cls-5" x1="2831.20742" y1="1316.27494" x2="2551.20616" y2="1316.27494"/><line class="cls-5" x1="2876.61602" y1="1391.35615" x2="2551.20616" y2="1391.35615"/><line class="cls-5" x1="2759.63793" y1="1466.43736" x2="2551.20616" y2="1466.43736"/><circle class="cls-5" cx="2279.01451" cy="1347.80816" r="182.2905"/><line class="cls-5" x1="2279.01451" y1="1207.8265" x2="2279.01451" y2="1228.71101"/><line class="cls-5" x1="2381.2489" y1="1250.17337" x2="2366.48132" y2="1264.94095"/><line class="cls-5" x1="2176.78012" y1="1250.17337" x2="2191.5477" y2="1264.94095"/><path class="cls-5" d="M1069.82621,659.77822c-113.75616-5.19319-200.925-34.4355-201.10972-69.75624a3.4266,3.4266,0,0,1,.01248-.35765c.42156-38.91507,106.54072-70.43533,237.36061-70.43533,130.83236,0,236.939,31.52026,237.36061,70.43533a3.42933,3.42933,0,0,1,.01247.35765c-.18574,35.40664-87.76789,64.70526-201.93735,69.79371"/><path class="cls-5" d="M868.71624,590.35406V590.022a3.34415,3.34415,0,0,1,.01278-.3576"/><path class="cls-5" d="M1343.45,589.6644a3.34675,3.34675,0,0,1,.01277.3576v.33206"/><path class="cls-5" d="M1343.45019,589.66433c-.42157-38.91507-106.52825-70.43533-237.36061-70.43533-130.81989,0-236.93905,31.52026-237.36061,70.43533.37042-93.718,77.20466-172.238,180.68032-193.60488a15.75319,15.75319,0,0,0,12.60511-15.38978,45.30478,45.30478,0,0,1,6.61593-23.55087c-.00063-9.65159,75.30077-9.65159,75.3014,0a43.78309,43.78309,0,0,1,6.23239,22.593v.94508a15.75717,15.75717,0,0,0,12.60574,15.40257C1266.258,417.41355,1343.07976,495.94637,1343.45019,589.66433Z"/><line class="cls-5" x1="1106.08958" y1="349.88143" x2="1106.08958" y2="102.02199"/><path class="cls-5" d="M2240.30641,1448.31341a10.9452,10.9452,0,0,1,10.94568-10.93243h53.46181a10.9389,10.9389,0,0,1,0,21.87779h-53.46181A10.94218,10.94218,0,0,1,2240.30641,1448.31341Z"/><path class="cls-5" d="M2240.30641,1470.204a10.94544,10.94544,0,0,1,10.94568-10.9452h53.46181a10.93882,10.93882,0,0,1,0,21.87763h-53.46181A10.93922,10.93922,0,0,1,2240.30641,1470.204Z"/><path class="cls-5" d="M2252.018,1430.8155a57.29333,57.29333,0,0,0-20.89482-37.54843,76.54519,76.54519,0,1,1,95.65991.08949,56.94982,56.94982,0,0,0-20.78007,37.45894"/><path d="M2291.40542,1484.06459a13.423,13.423,0,1,1-26.15625-4.26583,24.36586,24.36586,0,0,0,25.78582,1.09849A13.69348,13.69348,0,0,1,2291.40542,1484.06459Z"/><line class="cls-5" x1="2277.98049" y1="1437.38097" x2="2277.98049" y2="1367.74559"/><path class="cls-5" d="M2252.41181,1437.381l-.39393-6.56119a57.2929,57.2929,0,0,0-20.89418-37.54858,76.545,76.545,0,1,1,95.65928.08933,56.95237,56.95237,0,0,0-20.77945,37.45925l-.39,6.56119"/><path class="cls-5" d="M1097.56763,810.752a76.54273,76.54273,0,0,1-39.24652-135.87177,56.95233,56.95233,0,0,0,20.77945-37.45925l.39-6.56118"/><path class="cls-5" d="M1132.69227,630.85981l.39393,6.56118a57.29291,57.29291,0,0,0,20.89419,37.54859,76.56412,76.56412,0,0,1-18.876,130.55869"/><circle class="cls-5" cx="2279.01451" cy="1352.40777" r="15.33782"/><path class="cls-5" d="M2225.74432,1315.01026a57.64842,57.64842,0,0,1,37.92864-36.45476"/><line class="cls-5" x1="2424.25369" y1="1718.72451" x2="2121.83736" y2="1718.72451"/><line class="cls-5" x1="2346.24749" y1="1793.80572" x2="2121.83736" y2="1793.80572"/><line class="cls-5" x1="2466.86731" y1="1868.88693" x2="2121.83736" y2="1868.88693"/><line class="cls-5" x1="2377.90179" y1="1943.96815" x2="2121.83736" y2="1943.96815"/><path class="cls-5" d="M1144.79767,619.88726a10.94518,10.94518,0,0,1-10.94567,10.93242h-53.46181a10.9389,10.9389,0,0,1,0-21.87779H1133.852A10.94218,10.94218,0,0,1,1144.79767,619.88726Z"/><path class="cls-5" d="M1144.79767,597.99669a10.94542,10.94542,0,0,1-10.94567,10.9452h-53.46181a10.93882,10.93882,0,0,1,0-21.87763H1133.852A10.93922,10.93922,0,0,1,1144.79767,597.99669Z"/><path d="M1093.69867,584.13607a13.423,13.423,0,1,1,26.15624,4.26584,24.36584,24.36584,0,0,0-25.78582-1.0985A13.694,13.694,0,0,1,1093.69867,584.13607Z"/><line class="cls-5" x1="1107.1236" y1="630.81969" x2="1107.1236" y2="700.45507"/><circle class="cls-5" cx="1106.08958" cy="715.7929" r="15.33782"/><path class="cls-5" d="M837.72741,1038.62051a103.16707,103.16707,0,0,1,19.09167,27.21531l6.62452,17.01653a13.19513,13.19513,0,0,0,6.3979,7.01653c8.03277,4.0141,16.237,7.4256,24.25794,11.32992,2.063,1.00476,2.14451,5.32243-.64447,7.53248-4.36378,3.458-5.54893,4.58669-9.95087,7.96272a9.48088,9.48088,0,0,0-2.59955,2.596c-1.72933,2.98785,2.14824,9.72951,3.233,12.64231,6.77137,18.18214,14.98427,34.49683,9.46375,54.24123-3.8919,13.91953-13.60777,24.73813-25.37217,32.71164-2.02924,1.37535-7.20377,3.202-8.4975,5.10723-1.661,2.4461.05613,9.60605.48536,12.47916.33048,2.21213.73265,4.58921,1.30074,6.952"/><path class="cls-5" d="M792.83346,1146.75691s-9.81678-16.43967-21.98856-11.82692c-8.76645,3.32223-8.66894,14.92979-6.92547,22.41183,2.75857,11.83806,29.23775,54.11144,37.74035,24.84"/><path class="cls-1" d="M739.16067,1120.14632c-70.66483,50.14138-81.66164,56.53981-87.54918,55.69684,11.13713-6.38581,32.04379-20.71552,74.85427-51.08646,93.99922-66.69334,92.27493-121.87945,92.27493-121.87945s-58.94089-47.14008-106.08112-37.98277c-2.05606.396-4.16325.90673-6.296,1.53253a91.89658,91.89658,0,0,1,18.99154-6.14307c47.13961-9.17008,106.0805,37.98278,106.0805,37.98278S833.15989,1053.45282,739.16067,1120.14632Z"/><path class="cls-5" d="M805.23889,979.92808c20.8253-13.88839,32.0308-21.28238,47.95813-22.60965,23.25671-1.93806,55.2347,21.31865,34.88507,41.66828-16.95142,16.95142-50.27157,42.18623-74.661,48.09883"/><path class="cls-5" d="M810.00466,1052.70615s-17.97192,44.09442-10.26049,61.05956,19.90111,20.35381,13.62881,25.58073c-4.80921,4.00768-12.80685,9.43068-17.15495,10.372a2.2907,2.2907,0,0,1-2.67089-1.53606c-1.4942-4.61476-6.54266-15.69764-20.42077-14.9348-17.49464.96162-33.17539,27.09621-22.72156,57.41234,0,0-25.007,38.50662-60.05056,35.11531,0,0-19.76962-31.85273-37.26127-48.972"/><path class="cls-5" d="M666.8049,1268.73743a197.46,197.46,0,0,0,4.61005,21.25118c2.38649,7.93954-1.41179,17.18184-2.17542,18.90919a.33814.33814,0,0,0,.20063.46461c3.75,1.22077,38.02326,6.53941,41.27837,6.88688a167.51209,167.51209,0,0,0,87.23821-13.80556c27.447-12.53561,50.98073-34.92482,81.15228-41.13336,8.61658-1.77307,17.85382-2.57665,25.09239-7.5062a.36425.36425,0,0,0-.08232-.637c-40.16077-14.40557-90.67485-9.32622-131.19335,1.06942-27.74254,7.11776-68.17545,25.30638-97.6929,17.92706-9.1437-2.28591-12.57182-2.286-2.28713-13.71344,8.53443-9.48269,27.29835-6.37524,33.438-5.04287"/><path class="cls-5" d="M904.77253,1253.40359a225.51544,225.51544,0,0,1,22.01941-25.07127,245.22292,245.22292,0,0,1,34.11587-28.7888c12.89745-8.90326,27.166-15.983,41.42345-22.42187,6.07884-2.74528,11.59866-5.77562,18.27087-7.25833,12.24773-2.72172,47.62982,84.37329,40.82557,130.6425-49.514,17.817-74.67519,70.65567-78.14123,85.80668"/><path class="cls-5" d="M1005.63268,1345.09525c-3.22563,37.24217-4.21189,74.75751-3.74748,112.12325.99578,80.1182,14.12317,161.32856,19.45154,242.37266"/><path class="cls-5" d="M671.415,1289.98861c-43.87624,13.38938-48.54568,74.10948-50.29565,111.36332-2.53672,54.00237,3.64751,123.99928,16.50784,176.08362,16.29114,65.97911,23.90055,96.86956,29.254,122.23012"/><path class="cls-5" d="M1022.86282,1168.75621c3.69156-2.89362,8.133-7.05621,10.11382-8.43626,20.01834-13.947,45.24055-27.77859,62.43651-45.05153,15.66854-15.73867,36.57958-33.51351,44.93774-54.56046,5.57029-14.02673,5.18807-30.532,7.17007-45.306,5.65749-42.1713,2.13106-84.38489,5.9706-126.47337,1.14555-12.55489,4.16562-23.8971-2.43978-35.45655"/><path class="cls-5" d="M1062.29426,1286.01235c35.87272-31.51975,69.24937-65.71027,101.87091-100.54517,25.55825-27.29236,72.32787-56.83808,66.62337-98.68893-1.69152-12.40971-17.52407-213.01873-19.49906-230.2796-1.89949-16.601-1.05839-27.5691.71283-47.05259,1.52372-16.76086-17.41467-45.11116-30.63067-57.21769"/><path class="cls-5" d="M1155.15588,873.2217s-32.81911-13.003-46.12416-36.22275c-7.00221-12.22012-10.74594-26.72832-15.09034-40.37394-2.21331-6.95194-14.70927-29.5682-4.84523-35.30638,7.708-4.484,15.12528,7.73739,20.93416,15.93188,3.07671,4.34026,4.049,5.883,6.88578,10.39861,6.5798,10.474,20.59459,23.244,33.89506,22.1298,13.8018-1.15616,16.0823-13.46445,9.82157-21.11272"/><path class="cls-5" d="M831.43114,998.26266s1.72411,55.18866-92.27406,121.883c-90.05452,63.89618-83.19858,56.76147-92.36587,54.14224s-41.82617-68.95666-40.61343-94.82924c2.05671-43.87756,72.02869-110.00745,119.17474-119.17473S831.43114,998.26266,831.43114,998.26266Z"/><line class="cls-7" x1="2096.72401" y1="1347.80816" x2="1581.68162" y2="1347.80816"/><path class="cls-5" d="M2214.14249,2299.98729H1862.06094s-100.30824-131.04368-70.93074-235.777c10.04179-35.79986,43.00285-58.22764,70.46265-24.24559,23.7562,29.39875,25.14987,70.32587,33.46663,105.618,3.81607,16.19327,15.82386,34.19847,34.67056,29.886,26.31173-6.02062,30.05688-42.55759,30.71855-63.82521,2.253-72.41656-28.06471-147.78856,4.63271-217.40179,29.528-62.86544,108.75178-49.72464,122.19467,16.11151,7.76249,38.01684.34143,77.52695-6.18114,115.10158-5.64371,32.51163-14.36556,64.19793-21.45658,96.37519-6.12228,27.78136.668,83.50126,42.80409,60.35937a43.40785,43.40785,0,0,0,13.76387-12.69007c21.08216-29.104,30.28075-85.26608,66.80628-100.24015,20.85307-8.549,39.14729,10.352,41.20269,30.45289,2.76332,27.02409-15.761,55.17258-33.92091,73.33561-7.4454,7.46246-19.64484,23.59859-18.66192,34.849,2.241,25.60411,29.07816,8.46255,41.69061,1.198C2274.15609,2174.05594,2292.64812,2233.0225,2214.14249,2299.98729Z"/><path class="cls-5" d="M3163.78947,2299.98744q-125.9412,0-251.88216-.01992c-7.49866-.01091-15.11545-.038-22.31439-2.13689-12.22526-3.56438-21.9297-12.66131-31.13368-21.4618-18.2525-17.45233-37.08067-35.76066-45.85114-59.44222s-4.1911-54.35174,17.12236-67.897c19.50372-12.39512,46.41939-6.26881,64.34071,8.32092,14.08628,11.46763,31.39482,28.76771,46.80422,19.151,8.5714-5.34924,10.7856-16.725,11.36506-26.812,2.284-39.75838-7.35459-83.33083,14.06661-116.90281,15.00019-23.50877,45.79421-36.776,72.445-28.56681,55.24555,17.01714,33.4933,73.65445,25.9434,113.12594-3.74156,19.56309-19.55156,110.01653,25.87978,88.09132,41.18146-19.87588,46.35161-120.30611,105.63985-103.96792,48.6426,13.40454,15.08891,108.31982-.08223,137.12278Z"/><path class="cls-5" d="M2712.05785,2005.94374l-.01277-154.25558a5.47194,5.47194,0,0,0-3.26954-4.98093,70.428,70.428,0,0,1-41.99307-60.7418c-.06386-1.35379-.0894-2.72036-.07663-4.07415a70.17138,70.17138,0,0,1,40.5882-63.11732.53819.53819,0,0,1,.75352.47255l-.01277,62.24885a10.89581,10.89581,0,0,0,10.89419,10.89419h35.901a10.88492,10.88492,0,0,0,10.89419-10.88142v-62.2744a.50423.50423,0,0,1,.728-.45977,70.17418,70.17418,0,0,1-1.456,127.93327,5.489,5.489,0,0,0-3.26954,4.85322.67475.67475,0,0,0-.01277.166l.01277,154.21726"/><line class="cls-5" x1="2202.68548" y1="2299.99719" x2="2995.71395" y2="2299.99719"/><circle class="cls-5" cx="2736.87575" cy="1825.33894" r="182.2905"/><path class="cls-5" d="M672.5295,1423.82588s57.7623,78.07066,173.88141,57.73852"/><path class="cls-5" d="M752.49058,1551.39339s65.81832,30.391,92.63868-27.57562"/><rect class="cls-5" x="362.90007" y="102.02199" width="1218.78156" height="1597.57012" rx="38.31485"/><line class="cls-5" x1="1183.33335" y1="734.36058" x2="1575.90948" y2="734.36058"/><line class="cls-5" x1="372.90117" y1="734.36058" x2="1028.44987" y2="734.36058"/></g></svg>