<svg xmlns="http://www.w3.org/2000/svg" viewBox="0 0 1201 1201"><g id="artwork"><path d="M768.55153,947.44831a345.91408,345.91408,0,1,1,135.05225-27.27149A344.79243,344.79243,0,0,1,768.55153,947.44831Zm0-663.897a316.94839,316.94839,0,1,0,224.1167,92.832A314.87377,314.87377,0,0,0,768.55153,283.55133Z"/><path d="M768.55153,377.95758a15.00012,15.00012,0,0,1-15-15V339.49665a15,15,0,0,1,30,0v23.46093A15.00012,15.00012,0,0,1,768.55153,377.95758Z"/><path d="M649.79421,409.78473a14.994,14.994,0,0,1-13.00489-7.50293l-11.73-20.31787a15.00005,15.00005,0,0,1,25.98145-14.999l11.73,20.31787a15.00384,15.00384,0,0,1-12.97656,22.502Z"/><path d="M562.8196,496.731a14.926,14.926,0,0,1-7.48584-2.01221l-20.31787-11.73046a14.99987,14.99987,0,1,1,15-25.98047l20.31787,11.73047A15.00175,15.00175,0,0,1,562.8196,496.731Z"/><path d="M531.00905,615.50006H507.54811a15,15,0,0,1,0-30h23.46094a15,15,0,0,1,0,30Z"/><path d="M542.53005,746.005a15.00212,15.00212,0,0,1-7.51416-27.99317l20.31787-11.73047a14.99987,14.99987,0,0,1,15,25.98047l-20.31787,11.73047A14.92664,14.92664,0,0,1,542.53005,746.005Z"/><path d="M638.03591,841.53815a15.00471,15.00471,0,0,1-12.97608-22.50293l11.73-20.31738a14.99987,14.99987,0,1,1,25.98047,15l-11.73,20.31738A14.9953,14.9953,0,0,1,638.03591,841.53815Z"/><path d="M768.55153,876.503a15.00012,15.00012,0,0,1-15-15v-23.46a15,15,0,0,1,30,0v23.46A15.00012,15.00012,0,0,1,768.55153,876.503Z"/><path d="M899.06667,841.53815a14.99363,14.99363,0,0,1-13.00391-7.50293l-11.73047-20.31738a14.99987,14.99987,0,1,1,25.98047-15l11.73047,20.31738a15.00471,15.00471,0,0,1-12.97656,22.50293Z"/><path d="M994.5735,746.005a14.92841,14.92841,0,0,1-7.48633-2.0127l-20.31738-11.73047a14.99987,14.99987,0,0,1,15-25.98047l20.31738,11.73047A15.00211,15.00211,0,0,1,994.5735,746.005Z"/><path d="M1029.555,615.50006H1006.094a15,15,0,0,1,0-30H1029.555a15,15,0,0,1,0,30Z"/><path d="M974.28346,496.731a15.00175,15.00175,0,0,1-7.51367-27.99267l20.31738-11.73047a14.99987,14.99987,0,1,1,15,25.98047l-20.31738,11.73046A14.93277,14.93277,0,0,1,974.28346,496.731Z"/><path d="M887.30885,409.78473a15.00394,15.00394,0,0,1-12.97656-22.50244l11.73047-20.31787a14.99987,14.99987,0,0,1,25.98047,15l-11.73047,20.31787A14.99419,14.99419,0,0,1,887.30885,409.78473Z"/><path d="M851.64284,698.59089a14.95337,14.95337,0,0,1-10.60645-4.39356l-83.09131-83.09082a15.00035,15.00035,0,0,1-4.39355-10.60645V434.31794a15,15,0,0,1,30,0V594.28669l78.69775,78.69775a15,15,0,0,1-10.60644,25.60645Z"/><path d="M356.42018,449.31794h-128.791a15,15,0,0,1,0-30h128.791a15,15,0,0,1,0,30Z"/><path d="M356.42018,615.50006H100.49977a15,15,0,0,1,0-30H356.42018a15,15,0,0,1,0,30Z"/><path d="M356.42018,781.68171H190.238a15,15,0,0,1,0-30H356.42018a15,15,0,0,1,0,30Z"/></g></svg>