<svg xmlns="http://www.w3.org/2000/svg" viewBox="0 0 1200 1200"><g id="artwork"><path d="M600.00047,520.23207a14.99869,14.99869,0,0,1-11.48926-5.35645L418.438,312.24574a15,15,0,1,1,22.97851-19.28711L600.00047,481.9l158.583-188.94092A14.99988,14.99988,0,1,1,781.562,312.24574L611.48972,514.87513A14.99753,14.99753,0,0,1,600.00047,520.23207Z"/><path d="M600.00047,520.23207a15.00012,15.00012,0,0,1-15-15V102.569a15,15,0,0,1,30,0V505.23207A15.00012,15.00012,0,0,1,600.00047,520.23207Z"/><path d="M950.00047,1115.00013h-700c-90.98145,0-165-74.01855-165-165V916.66664c0-100.17139,81.49511-181.66651,181.666-181.66651a181.66988,181.66988,0,0,1,151.667,81.76319V766.66664c0-100.17139,81.49512-181.66651,181.666-181.66651,100.17188,0,181.667,81.49512,181.667,181.66651v.09668a181.66989,181.66989,0,0,1,151.667-81.76319c100.17188,0,181.667,81.49512,181.667,181.66651v83.33349C1115.00047,1040.98158,1040.98191,1115.00013,950.00047,1115.00013Zm-683.334-350c-83.6289,0-151.666,68.03711-151.666,151.66651v33.33349c0,74.43946,60.56054,135,135,135h700c74.43945,0,135-60.56054,135-135V866.66664c0-83.6294-68.03711-151.66651-151.667-151.66651s-151.667,68.03711-151.667,151.66651a15,15,0,0,1-30,0v-100c0-83.6294-68.03711-151.66651-151.666-151.66651-83.62989,0-151.667,68.03711-151.667,151.66651v150a15,15,0,0,1-30,0C418.33347,833.03724,350.29637,765.00013,266.66648,765.00013Z"/></g></svg>