<svg xmlns="http://www.w3.org/2000/svg" viewBox="0 0 3600 2400"><defs><style>.cls-1,.cls-5{fill:#32b2ae;}.cls-1,.cls-4{opacity:0.44;}.cls-10,.cls-11,.cls-12,.cls-13,.cls-14,.cls-15,.cls-16,.cls-17,.cls-18,.cls-19,.cls-2,.cls-20,.cls-3,.cls-6,.cls-7,.cls-8,.cls-9{fill:none;stroke:#000;stroke-miterlimit:10;}.cls-16,.cls-2{stroke-width:5px;}.cls-6{stroke-width:4.77705px;}.cls-7{stroke-width:5.06265px;}.cls-8{stroke-width:5.47535px;}.cls-9{stroke-width:4.80978px;}.cls-10{stroke-width:4.84664px;}.cls-11{stroke-width:4.30578px;}.cls-12{stroke-width:7px;}.cls-13,.cls-14{stroke-width:5.5995px;}.cls-14{stroke-dasharray:14.17768 23.62947;}.cls-15{stroke-width:5px;}.cls-16{stroke-linecap:round;}.cls-17{stroke-width:0.99802px;}.cls-18{stroke-width:4.99012px;}.cls-19{stroke-width:4.76761px;}.cls-20{stroke-width:9.98024px;}</style></defs><g id="Layer_4" data-name="Layer 4"><path d="M1232.81,792.489l-3.32,3.74,11.21,9.96,3.33-3.73Zm29.9,26.58007-3.32,3.73,11.21,9.97,3.32-3.74Zm29.9,26.57007-3.31995,3.73975,11.21,9.9602,3.32-3.73ZM1322.5,872.209l-3.32,3.74,11.21,9.97,3.32-3.74Zm29.9,26.58007-3.32,3.74,11.21,9.96,3.31995-3.74Zm-557.16,9.94-3.63995,14.55,4.85,1.21,3.64-14.55Zm587.06,16.63012-3.33,3.74,11.22,9.97,3.32-3.74ZM785.54,947.52905l-3.64,14.56006,4.85,1.21,3.64-14.55Zm626.65,4.40992-3.32,3.74,11.21,9.9602,3.32-3.74023Zm29.9,26.57006-3.32,3.74,11.21,9.97,3.32-3.74Zm-666.24994,7.83008-3.64014,14.55,4.85,1.21,3.64-14.55Zm696.1499,18.75-3.33,3.73,11.21,9.97,3.33-3.74Zm-705.85,20.05982-3.64,14.55,4.8501,1.2102,3.63989-14.55005Zm735.74,6.51025-3.32,3.73975,1.62,1.44018q1.635-1.875,3.32-3.74ZM756.43994,1063.949l-3.63989,14.55005,4.85,1.22,3.64-14.55982Zm-9.71,38.81005-3.62988,14.55005,4.84985,1.21,3.63013-14.55Zm2092.57007,38.75-4.98.40992,1.24,14.95019,4.99-.41015Zm-2102.27.05005-3.64,14.55005,4.86,1.22,3.63-14.55Zm-9.7,38.81006-3.64014,14.54981,4.8501,1.21,3.63989-14.54981Zm2115.28992,1-4.98.41992,1.25,14.93995,4.98-.40992ZM717.63,1219.169l-3.64,14.56006,4.8501,1.21,3.63989-14.54981Zm2128.30994,2.06006-4.98.41992,1.25,14.95019,4.98-.42016Zm-2138.01,36.75-3.63989,14.55,4.85,1.21,3.64-14.55005Zm2141.34009,3.1101-4.99.41992,1.25,14.95,4.98-.41993Zm-2151.04,35.7-3.63989,14.55,4.84985,1.21,3.64014-14.55Zm2154.36011,4.16993-4.9801.41015,1.24,14.94995,4.9801-.42016Zm3.31982,39.8601-4.98.40992,1.24,14.94995,4.99-.40992ZM2859.23,1380.679l-4.98.42016,1.25,14.93994,4.98-.41015Zm3.32007,39.8601-4.98.41993,1.25,14.95019,4.98-.42016Zm3.33,39.85987-4.99.42016,1.25,14.94995,4.98-.41992Zm-714.39,28.47021-.09-.05005-2.4,4.3899.09.05,13.08,7.1399,2.4-4.3899Zm717.71,11.3999-4.99.40992.22,2.64013c1.66016-.15014,3.32007-.29,4.99-.42016Zm-682.68994,7.71-2.39,4.39013,13.17,7.17993,2.39-4.38989Zm35.12,19.1499-2.39,4.39013,13.16,7.19,2.4-4.3899Zm35.12,19.16015-2.4,4.3899,13.17,7.18017,2.39-4.39013Zm35.11,19.14991-2.39,4.39013,13.17,7.17993,2.39-4.38989Zm35.12,19.16015-2.4,4.37989,13.17,7.18994,2.4-4.3899Zm35.11,19.14991-2.39,4.39013,13.17,7.17993,2.39-4.39013Zm35.12,19.1499-2.4,4.39013,13.17,7.18995,2.4-4.3899Zm35.11,19.16015-2.39,4.3899,13.17,7.17993,2.39-4.38989Zm35.12,19.14991-2.39,4.39013,13.16,7.17993,2.4-4.38989Zm35.12,19.16015-2.4,4.38989,13.17,7.17994,2.39-4.3899Zm35.11,19.1499-2.39,4.39014,13.17,7.17993,2.39-4.39013Z"/></g><g id="shadows"><path class="cls-1" d="M807.96484,489.02772a23.20685,23.20685,0,0,1-3.69147,2.83728l-.00991.00986a16.78048,16.78048,0,0,1-5.69426.59765c-12.48915-.84348-21.64-15.71168-20.45679-33.20451.8354-12.32891,6.591-22.67767,14.30362-27.40629a16.67708,16.67708,0,0,1,5.67425-.59745,8.59193,8.59193,0,0,1,1.32186.17708c-5.78563,5.40839-9.88614,14.28038-10.57253,24.52808C787.70006,472.83141,796.16636,487.2568,807.96484,489.02772Z"/><polyline class="cls-1" points="2852.026 877.189 2919.307 822.865 2911.484 816.97 2849.132 867.077 2852.026 877.189"/><rect class="cls-1" x="1627.33002" y="1175.66498" width="341.34478" height="10.2216"/><path class="cls-1" d="M1956.7,1061.35913c-.21-.26-.43-.51-.64-.76-.44-.51-.88-1-1.34-1.48a41.40886,41.40886,0,0,0-30.03-12.88012h-35.16v11.52a19.30964,19.30964,0,0,1-19.31006,19.31006H1729.78a19.15784,19.15784,0,0,1-8.71-2.08007,19.285,19.285,0,0,0,17.22,10.59008H1878.73a19.30959,19.30959,0,0,0,19.31-19.31006v-11.52h35.16a41.2391,41.2391,0,0,1,24.77,8.23C1957.57,1062.429,1957.14,1061.88916,1956.7,1061.35913ZM1675.3,1046.239a41.36921,41.36921,0,0,0-30.02,12.88012c-.45.48-.9.97-1.34,1.48-.22.25-.43.5-.64.76-.63.76978-1.24,1.55982-1.82,2.36988s-1.13,1.6499-1.65,2.5c-.52.8601-1.01,1.73-1.47,2.63012-.46.8899-.88,1.80982-1.28,2.74a39.38124,39.38124,0,0,0-1.69,4.79,38.05591,38.05591,0,0,0-.95,4.12988,41.763,41.763,0,0,0-.62,7.21v575.05h-.01c-2.17-1-4.33-2.01-6.48-3.05v4.3q7.41,3.78,14.99,7.26h.01v-575.05a41.763,41.763,0,0,1,.62-7.21,38.06015,38.06015,0,0,1,.95-4.13012,39.38547,39.38547,0,0,1,1.69-4.7898c.4-.93017.82-1.8501,1.28-2.74.46-.90014.95-1.77,1.47-2.63012.52-.84986,1.07-1.68995,1.65-2.5s1.19-1.59986,1.82-2.36988c.21-.26.42-.51.64-.76.44-.51.89-1,1.34-1.48022a41.36993,41.36993,0,0,1,30.02-12.87988h26.67v-8.51Z"/><circle class="cls-2" cx="599.60682" cy="1699.8497" r="398.94"/><path class="cls-1" d="M2776.31,1993.969c-24.94,81.53-39.89,146.51-40.6,221.74-6.35.87011-11.54,2.33007-14.72,4.63012.12-75.29,14.42-139.88012,38.75-220.19018v-.00977A98.25527,98.25527,0,0,1,2776.31,1993.969Z"/><path class="cls-1" d="M2995.05005,1984.429a29.82822,29.82822,0,0,1,6.6,2.49c-6.70007,34.87011-12.15,72.63012-15.43,107.97021-2.27,24.43994-4.8999,48.87988-5.55005,73.42993-.32983,12.36988-.1909,20.038.119,32.528,9.24535-2.88918,13.881.78186,14.75108,1.902-.17-11.12012.08-22.25.36987-33.26.65015-24.55,3.28-48.99,5.55005-73.42994,3.28-35.34008,8.73-73.09008,15.43-107.96C3010.16992,1984.5791,3002.62,1984.12891,2995.05005,1984.429Z"/><path d="M1312.27,513.3291c0,220.33008-178.61,398.93994-398.94,398.93994a397.75378,397.75378,0,0,1-288.57-123.49q5.18994,4.96509,10.58008,9.73c1.18994,1.05,2.37988,2.1001,3.58984,3.15015q5.0702,4.3949,10.31006,8.62988,1.20007.98988,2.43,1.95c.99.79,1.98,1.58007,2.99,2.35009.87.68994,1.75,1.36988,2.63,2.05.15991.11987.33.25.5.36987,1.15991.90992,2.34,1.79,3.52,2.66993,1.15991.88012,2.32995,1.74,3.51,2.59008q1.55988,1.155,3.1499,2.28c.97.71,1.95007,1.39991,2.93005,2.07984.29993.22021.61.44018.92.65014.74.52,1.49,1.04,2.24,1.55005.71.5,1.42993.99,2.1499,1.47.55.37989,1.11011.76,1.67,1.12989q1.32.90014,2.67005,1.77c.24.17016.49.34008.75.5,1,.66015,2,1.32006,3.01,1.94995,1.16992.76025,2.34,1.51025,3.52,2.24023.68994.45,1.38989.88989,2.08,1.30982,1.06995.67016,2.15,1.33007,3.23,1.98,1.37.84008,2.74,1.66015,4.13,2.48022,1.16992.68994,2.34,1.37988,3.52,2.05982.35.19995.71.40991,1.07.6101,1.25.72,2.5,1.42993,3.76,2.12989q2.085,1.18506,4.19006,2.32006a.07589.07589,0,0,1,.04.02c1.2699.68995,2.54992,1.36988,3.82983,2.04.21008.11988.43006.24.65015.34986.88989.47021,1.77991.93017,2.66992,1.39013.59009.31006,1.17993.61988,1.78.91993,1.3.66992,2.61,1.33007,3.91992,1.97q2.01013,1.01989,4.05005,1.99,2.32508,1.125,4.67,2.22,2.18994,1.03527,4.4,2.02,4.42493,2.01012,8.8999,3.89013,2.235.94484,4.48,1.86988c2.76,1.13012,5.54,2.22,8.33008,3.29.01,0,.01.01.02.01.13989.05.28.11011.41992.15992.26.10009.52.19018.78.29,1.36.52,2.72,1.02,4.08008,1.52q2.29487.85509,4.59985,1.6499c1.53.54,3.08008,1.08008,4.62012,1.6001s3.09,1.04,4.65,1.54c1.48.49,2.96.96,4.45,1.41993.2.06006.4.12011.6.18994,2.9.89013,5.81,1.76025,8.74,2.59009.34.10009.68.19995,1.03.29,1.33.3899,2.67.75,4.01,1.11011q2.355.6449,4.73,1.25a.9921.9921,0,0,1,.14.04c1.45.36987,2.89.73975,4.35,1.07984.25.07006.49.13012.74.17993,1.47.37011,2.94.71,4.42,1.05005,1.47.34008,2.94.67993,4.42,1,1.16.25,2.32.5,3.49.74,1.02.22,2.05.43994,3.08.64013,1.15.23,2.3.46,3.45.66992.07.02.15.03.22.05,1.42.27,2.84.53,4.26.79.41.06983.82.1499,1.23.22,1.02.17993,2.03.35987,3.05.53.61.09986,1.22.19995,1.84.3,1.31.21973,2.61.41992,3.92.61987.24.04.49.08008.75.11011,1.13.17993,2.26.34986,3.4.5.54.08985,1.09.16992,1.64.23975,1.49.2102,2.98.41015,4.47.59009a.17284.17284,0,0,0,.1.01c1.23.16992,2.44995.32006,3.68.44995.61.08007,1.23.15014,1.85.22,1.25.14013,2.51.28,3.76.41015q.45.045.9.08985c1.45.15014,2.9.29,4.36.41015q.31494.045.63.06006c1.12.09986,2.24.19995,3.37.27979.68.06006,1.37.12011,2.06.17016q14.925,1.11,30.16,1.11988a401.73222,401.73222,0,0,0,58.61-4.27979q2.07-.30029,4.14-.63013c.28-.04.55-.09008.83-.13989q8.13-1.29016,16.14-2.92016c.8-.15992,1.61-.32984,2.41-.5.4-.07984.8-.15992,1.2-.25q2.715-.56984,5.42-1.19,2.355-.54015,4.71-1.10009,3.105-.75,6.18-1.5398.81-.21019,1.62-.42016,5.01-1.30482,9.96-2.75c.93-.26,1.85-.53,2.77-.80982q4.365-1.29017,8.69-2.70019c1.2-.37989,2.4-.77,3.6-1.17994,1.58-.52,3.15-1.06,4.72-1.60009,1.33-.47,2.66-.93994,3.99-1.41993.36005-.11987.73-.25,1.09-.38989.61-.22021,1.23-.44018,1.84-.67016q11.61-4.27479,22.86-9.24c.92-.39991,1.83-.81006,2.75-1.23,1.04-.46,2.07-.92994,3.1-1.40992l.21-.09008c.72-.33008,1.44-.65992,2.15-1.01.91-.41993,1.82-.84986,2.72-1.28q2.475-1.16969,4.92-2.3899.48-.22521.96-.48c1.35-.65991,2.69-1.34008,4.02-2.03a.59138.59138,0,0,0,.08-.04c.56-.29,1.13-.57007,1.68-.87012q.12-.0597.24-.11988c1.22-.63012,2.44-1.27,3.65-1.91992.42-.22.83-.44018,1.25-.67993q2.265-1.18506,4.51-2.45019c1.55-.84986,3.08-1.71,4.61-2.58985.58-.33008,1.15-.66015,1.72-.99023,1.22-.7,2.44-1.40991,3.65-2.12988.36-.21.71-.42994,1.07-.64991,1.22-.71,2.42-1.43994,3.63-2.18994.01,0,.01,0,.02-.01025.62-.37989,1.25-.75977,1.87-1.15991,1.22-.74,2.43-1.5,3.64-2.27.22-.12989.43-.26.64-.39991,1.51-.96,3.02-1.92993,4.51-2.90991,1.56-1.02,3.11-2.06006,4.65-3.1001.43-.28.85-.58007,1.27-.87011.19-.11988.38-.24.56-.37989.63-.41992,1.26-.8601,1.89-1.3a3.28361,3.28361,0,0,0,.33-.23c.79-.54,1.58-1.09008,2.36-1.65014.17-.10987.35-.23.52-.35987,1.15-.81005,2.3-1.62988,3.44-2.46q1.935-1.39525,3.85-2.82006c.78-.57984,1.57-1.15992,2.35-1.75s1.55-1.16993,2.32-1.76c.58-.45,1.16-.8899,1.73-1.33985,1.38-1.06006,2.76-2.13013,4.12-3.2102,1.47-1.16993,2.94-2.34986,4.39-3.5398,89.59-73.14013,146.78-184.46,146.78-309.14013q0-15.22486-1.12-30.18018c-.06-.69971-.11-1.38965-.17-2.08984-.09-1.12012-.18-2.23-.28-3.33985-.01-.16992-.03-.3501-.05-.52-.13-1.52-.27-3.03027-.43-4.54l-.06-.56982c-.13-1.34033-.28-2.67041-.43-4-.07-.62012-.14-1.23047-.22-1.8501-.12-1.12012-.26-2.24023-.4-3.3501-.17-1.3999-.36-2.79-.56-4.18017-.13-1.02-.27-2.04-.43-3.04981-.09-.72021-.2-1.43994-.31-2.16015-.13-.91992-.27-1.83008-.43-2.73975-.08-.56006-.17-1.12012-.25995-1.68017-.16-1.01026-.33-2.02-.5-3.02-.13-.75977-.26-1.52-.4-2.27979-.15-.92041-.32-1.83008-.49-2.74023-.1-.56983-.2-1.12989-.31-1.68995q-.33-1.78491-.69-3.56982c-.04-.23-.09-.47021-.14-.71045-.25-1.26953-.5-2.53955-.77-3.80957-.11-.53027-.22-1.06006-.34-1.58008-.19-.93017-.39-1.85009-.6-2.77-.23-1.05029-.46-2.09033-.71-3.12988-.05-.25-.11-.51025-.17-.77-.32-1.39014-.65-2.78027-.99-4.16016-.06-.25976-.12-.50976-.19-.77-.26-1.1001-.54-2.19971-.82-3.29981-.17-.68018-.34-1.36035-.52-2.04-.36-1.39014-.73-2.77-1.11-4.1499q-.43506-1.65015-.9-3.30029c-.16-.58008-.33-1.14991-.49-1.73-.35-1.23-.71-2.46973-1.08-3.7002-.06-.21973-.13-.44971-.2-.67969q-.39-1.29053-.78-2.58008c-.25-.83984-.51-1.68017-.77-2.50976-.44-1.38037-.88-2.77051-1.33-4.15039q-.51-1.58935-1.05-3.17969-1.785-5.34009-3.71-10.6001c-.5-1.37011-1-2.73-1.52-4.08007-.1-.26026-.19-.52-.29-.77979q-1.68007-4.41064-3.46-8.77c-.62-1.5-1.24-2.99023-1.87-4.49023-.63-1.48975-1.27-2.98-1.92-4.46q-.96-2.22-1.97-4.43018c-.66-1.46973-1.33-2.93994-2.02-4.3999q-1.095-2.34009-2.22-4.66992-.975-2.03981-1.99-4.04981c-.64-1.31006-1.3-2.62012-1.97-3.92041-.3-.59961-.61-1.18994-.92-1.77978-.46-.89014-.92-1.77979-1.39-2.66993-.11-.22021-.23-.43017-.35-.6499q-1.005-1.9204-2.04-3.83008a.07791.07791,0,0,1-.02-.04q-1.14-2.09985-2.32-4.18994c-.62-1.13037-1.26-2.24023-1.89-3.35986-.43-.76025-.87-1.51025-1.31-2.26025-.41-.69971-.82-1.41016-1.23-2.10987-.29-.49023-.58-.98-.88-1.47021-.53-.90967-1.07-1.81006-1.63-2.71973-.73-1.22021-1.48-2.43994-2.23-3.6499-.46-.74024-.92-1.48047-1.4-2.22022-.73-1.18017-1.47-2.35009-2.24-3.52-.63-1.00976-1.29-2.00976-1.95-3.00976-.16-.25-.32-.5-.5-.75-.58-.89014-1.17-1.79-1.77-2.67041-.37-.56006-.75-1.11963-1.13-1.66992-.48-.72022-.97-1.43995-1.47-2.14991-.51-.75-1.03-1.5-1.55-2.24023-.21-.30957-.43-.60986-.65-.91992-.68-.98-1.37-1.96-2.08-2.92969q-1.125-1.59009-2.28-3.15039-1.275-1.76954-2.59-3.50977c-.88-1.18017-1.76-2.35986-2.67-3.52-.12-.16992-.25-.33984-.37-.5-.68-.87988-1.36-1.76025-2.05-2.62988-.77-1.01025-1.56-2-2.35-2.99023q-.95993-1.22974-1.94995-2.43018-4.23-5.23461-8.63-10.30957c-1.05-1.21-2.1-2.40039-3.15-3.59033q-4.77-5.38476-9.73-10.57959A397.7532,397.7532,0,0,1,1312.27,513.3291Z"/><path d="M2654.71,841.88916c.1.48975.21.97.32,1.45A53.171,53.171,0,0,1,2642.3,854.009c-20.32,12.48-37.35,7.54-53.83,2.76-16.15-4.67993-31.4-9.10009-49.83,2.21-18.44,11.32006-21.39,26.91992-24.53,43.43017-3.19,16.85986-6.5,34.2898-26.82,46.76978l-2.61-4.26978c18.43-11.31006,21.39-26.91015,24.52-43.43017,3.2-16.8501,6.5-34.28,26.82-46.76,20.32-12.47,37.36-7.53,53.84-2.75,16.14,4.67993,31.39,9.10009,49.83-2.22a46.53387,46.53387,0,0,0,14.08-12.92994.77017.77017,0,0,1,.02.14991c.15.94995.31,1.88012.49,2.8C2654.41,840.489,2654.56,841.199,2654.71,841.88916Z"/><path d="M3211.81006,714.64893c0,220.32007-178.61011,398.94018-398.94006,398.94018a397.81129,397.81129,0,0,1-288.78-123.69995A397.58225,397.58225,0,0,0,2799.54,1100.249c220.33,0,398.94-178.60987,398.94-398.93995a397.56063,397.56063,0,0,0-110.13-275.21A397.77712,397.77712,0,0,1,3211.81006,714.64893Z"/><path d="M3312.27,1914.019c0,220.33008-178.61011,398.94-398.93994,398.94A397.7559,397.7559,0,0,1,2624.58,2189.28906a397.36533,397.36533,0,0,0,272.06,110.32007c1.12.01978,2.24.01978,3.36.01978a396.93756,396.93756,0,0,0,208.57007-58.80982c114.21-70.17016,190.36987-196.25,190.36987-340.13012A397.53461,397.53461,0,0,0,3188.78,1625.449,397.75456,397.75456,0,0,1,3312.27,1914.019Z"/><path class="cls-2" d="M3298.93994,1900.689c0,143.88012-76.15991,269.96-190.36987,340.13012A396.93756,396.93756,0,0,1,2900,2299.62891c-1.12,0-2.24,0-3.36-.01978a396.99871,396.99871,0,0,1-231.65-76.53c-99.37-72.55-163.93-189.93017-163.93-322.39013,0-220.32984,178.61-398.93994,398.94-398.93994S3298.93994,1680.35913,3298.93994,1900.689Z"/><path d="M2212.27,1313.3291c0,220.33008-178.61,398.93994-398.94,398.93994a397.75378,397.75378,0,0,1-288.57-123.49A397.53453,397.53453,0,0,0,1800,1698.939c220.33,0,398.94-178.60987,398.94-398.93994a397.5167,397.5167,0,0,0-110.16-275.24A397.7542,397.7542,0,0,1,2212.27,1313.3291Z"/><path class="cls-2" d="M2198.94,1299.999c0,155.09008-88.5,289.51-217.75,355.52h-.01q-7.41,3.78-14.99,7.26h-.01q-8.00994,3.69-16.21,7.01a395.48117,395.48117,0,0,1-90.99,24.81006q-6.11994.92982-12.32,1.6399c-.15.02-.3.04-.44995.05A402.86329,402.86329,0,0,1,1800,1698.939c-3.46,0-6.9-.04-10.34-.12989q-17.175-.43506-33.99-2.31005-6.195-.67494-12.32-1.56006a396.03812,396.03812,0,0,1-90.99005-24.21q-9.38992-3.75-18.54-7.95h-.01q-7.59-3.48009-14.99-7.26h-.01c-129.25-66.01-217.75-200.42993-217.75-355.52,0-220.33008,178.61-398.93995,398.94-398.93995S2198.94,1079.669,2198.94,1299.999Z"/><path d="M1011.88,1713.179c0,220.33007-178.61,398.94018-398.94006,398.94018A397.75383,397.75383,0,0,1,324.37,1988.62891a397.51525,397.51525,0,0,0,275.24,110.16015c220.33,0,398.94-178.6101,398.94-398.93994a397.53381,397.53381,0,0,0-110.16-275.24A397.75342,397.75342,0,0,1,1011.88,1713.179Z"/><path class="cls-1" d="M2795.42,719.479q-2.08493,2.04015-4.29,3.94995c-3.66-3.69019-9.96-6.05982-15.84-7.57007a25.75843,25.75843,0,0,1,8.38-6.42969c2.78-1.3501,6.23-4.59033,9.86-9.03027A32.51717,32.51717,0,0,1,2795.42,719.479Z"/><path class="cls-1" d="M2811.03,700.55908a46.16086,46.16086,0,0,0-1.62006-4.47021,114.02974,114.02974,0,0,0-5.64-10.71973c7.59-13.06982,13.86-28.68017,13.86-39.91015,0,0-7.9-7.89991-6.71-11.8501,1.18-3.94971,13.03-29.62012,13.03-29.62012q10.185-8.45948,22.12006-7.57959C2846.55005,600.60889,2839.28,658.73877,2811.03,700.55908Z"/><path class="cls-2" d="M799.00936,494.66385c5.03,43.57,5.88,83.75.06,118.51"/><path class="cls-2" d="M913.67822,610.48926a78.60774,78.60774,0,0,1,1.30768-20.1709"/><path class="cls-2" d="M958.80768,444.182s.61959,52.241,2.12727,57.36757-10.05808,5.9068-10.05808,5.9068"/><path d="M2865.71,609.769a37.59284,37.59284,0,0,1,4.12012,8.73c.01.12988.01.26025.01.39013L2853.16992,598.709a27.29945,27.29945,0,0,1,5.16016,3.05029A67.885,67.885,0,0,1,2865.71,609.769Z"/><path d="M2960.82007,912.77905S2945.37,859.939,2940.65,852.06909c-4.72009-7.88012-27.17-36.22-46.85-41.73-19.69006-5.52-33.86011-12.2102-42.91-9.85009,0,0-11.80993-77.15992-9.85-102.75025,0,0,27.82-55.75976,29.72-75.72949a28.499,28.499,0,0,0-.92993-3.51025c-.15015-2.62989-1.83008-5.69971-4.12012-8.73a30.45951,30.45951,0,0,0-7.37988-8.00976c-1.68006-1.59033-3.28-2.99024-4.57007-4.08008,1.1499-7.18017-5.08008-16.43017-13.07007-15.33008a15.306,15.306,0,0,0-4.96,1.66992c-24.07-11.60986-66.95-20.41992-66.95-20.41992-2.55-.58984-3.78-1.41015-4.25-2.36035a3.478,3.478,0,0,1,.23-2.96c.93-2.25977,2.83-4.75977,1.36-6.83984a2.44432,2.44432,0,0,0-.8-.81006.71235.71235,0,0,0-.37-.1001c-.52,0-1.02.57031-1.75,1.43018a20.22638,20.22638,0,0,1-4.7,4.34033c-2.54,1.6499-6.22,3.13965-11.76,3.61963-17.16,1.5-37.1-5.12989-43.11-6.31983a1.78949,1.78949,0,0,1-.25-.07031c-5.53-1.58984,1.68-17.83984-6.58-7.17969a13.394,13.394,0,0,1-3.75,3.31006c-9.82,5.92969-26.57.81983-26.57.81983-9.38,9.83007-3.81-12.60987-3.81-12.60987,4.4-26.8501,15.52-54.02,37.46-71.73,8.32-6.71,22.58-11.33984,31.93-16.22021,24.83956-12.96949,49.40165-14.56332,77.941-9.55389,44.69312,7.84485,85.45324,34.24208,99.4811,80.282,20.25,66.4502-24.21209,136.00189-3.21209,202.80194,6.88,21.91015,23.37,38.26,36.88989,56.15014C2969.34009,814.269,2988.14,875.429,2960.82007,912.77905Z"/><path d="M2703.38,553.52881c-5.53-1.58984,1.68-17.83984-6.58-7.17969a13.394,13.394,0,0,1-3.75,3.31006c3.64-4.05029,8.21-9.06006,9.6-10.21C2704.27,538.09912,2702.45,547.249,2703.38,553.52881Z"/><path d="M2758.5,556.29932c1.77-1.68018,3.46-3.24024,4.7-4.34033A20.22638,20.22638,0,0,1,2758.5,556.29932Z"/><path d="M2764.76,558.27881c-.1.97022-.18,1.97022-.23,2.96A3.478,3.478,0,0,1,2764.76,558.27881Z"/><path d="M2765.32,550.62891a.7034.7034,0,0,0-.36-.1001A.24118.24118,0,0,1,2765.32,550.62891Z"/><path d="M434.48476,1641.72773a18.96652,18.96652,0,0,1-1.02-2.18995l.07007-4.33007C433.85476,1637.26776,434.18472,1639.42768,434.48476,1641.72773Z"/><path class="cls-1" d="M905.32,1778.63916c-2.62,1.87988-5.06,3.65991-7.17,5.21l-7.94-21.18017A89.78955,89.78955,0,0,1,905.32,1778.63916Z"/><path class="cls-1" d="M922.69,1816.12891a93.31084,93.31084,0,0,1-10.28,5.77l-3.45-9.21.69-2.11988s3.88-3,9.1-7.04A116.46592,116.46592,0,0,1,922.69,1816.12891Z"/><path class="cls-1" d="M926.14,1858.509l-8.1-21.59985c2.51-2.41015,4.99-4.70019,7.34-6.86011A133.00627,133.00627,0,0,1,926.14,1858.509Z"/><path class="cls-1" d="M905.39,1726.919,931.2,1762.009c-2.69,1.36011-5.85,3.21-9.2,5.32007-.57-.79-1.1-1.6101-1.62-2.43994C913.16,1753.27905,910.15,1739.60913,905.39,1726.919Z"/><path class="cls-1" d="M937.25,1770.239a31.01719,31.01719,0,0,1-4.36,3.21c.27-.24,1.9-1.66993,4.18-3.44995Z"/><path class="cls-1" d="M959.46,1800.449c-5.71-5.14991-12.01-9.60987-18.1-14.28.71-.54,1.35-1.02,1.92-1.44995.97-.73,1.93-1.53,2.86-2.37989Z"/><path d="M793.66,1351.13916H777.35v536.23975c-7.34,5.27-14.55,10.3501-21.42011,14.98022V1332.689A396.496,396.496,0,0,1,793.66,1351.13916Z"/><path d="M816.31,2035.249a394.38235,394.38235,0,0,1-44.3,24.8H755.92993V2008.679a95.61992,95.61992,0,0,0,16.4801-11.22c1.69007-1.41993,3.34-2.8899,4.94-4.3899V2035.249Z"/><path class="cls-1" d="M831.85,1746.459l40.41,60.16992c-1.93,1.74023-3.93,3.51025-6.11,5.38012l-38.02-56.6101a11.12715,11.12715,0,0,1,2.03-14.23975A11.09781,11.09781,0,0,0,831.85,1746.459Z"/><path class="cls-1" d="M970.38,1848.509q-5.4,13.455-11.74,26.40992c-.19.40014-.39.80005-.59,1.19018L932.77,1889.989a15.323,15.323,0,0,1-20.49-5.53l-17.83-29.65992c2.34-1.17016,4.62-2.43994,6.81-3.8l14.74,24.52a15.323,15.323,0,0,0,20.49,5.53l25.28-13.88012c.2-.3899.4-.79.59-1.18994Q966.57507,1857.354,970.38,1848.509Z"/><path class="cls-1" d="M726.30005,2018.509c-9.54,2-19.56006,3.27-29,.80005a21.25267,21.25267,0,0,0,3.55.42994A123.00312,123.00312,0,0,0,726.30005,2018.509Z"/><path class="cls-1" d="M777.33,1993.0791q-2.385,2.25-4.92,4.37989a88.48111,88.48111,0,0,1-36.37,18.82006c-.13.03-.25.06006-.38.09009,2.22-.65014,4.43006-1.41015,6.66-2.29C755.72,2008.759,776.68,1993.55908,777.33,1993.0791Z"/><path class="cls-1" d="M789.27,1980.36914a145.15275,145.15275,0,0,1-11.89,12.66992Z"/><polygon class="cls-1" points="897.954 656.489 903.729 683.474 878.343 686.648 865.65 658.088 874.995 634.233 897.954 656.489"/><polygon class="cls-1" points="951.913 793.254 925.037 713.977 903.729 683.474 878.343 686.648 878.343 721.554 914.332 801.871 948.707 841.917 951.913 793.254"/><path class="cls-1" d="M1075.85,697.21924l-13.89.10986-.03-.10986-3.95-12.79-.03-.09033c-10.55-34.04981-42.29-60.15967-81.58-69.21v-2.56006c45.62,5.58008,83.76,33.72021,95.5,71.75l.01.02Z"/><path class="cls-1" d="M1075.85,697.21924h-55.73L979.72,890.969q-8.025,1.6201-16.14,2.92016c-.28.04981-.55.09986-.83.13989l.38-1.84008,43.01-207.8501h65.74Z"/><path class="cls-1" d="M807.69,489.1792a23.20691,23.20691,0,0,1-3.72,2.79981l-.01.00976a16.78076,16.78076,0,0,1-5.7.54c-12.48-.96973-21.48-15.92969-20.12-33.40967.96-12.31982,6.82-22.60986,14.58-27.26025a16.67686,16.67686,0,0,1,5.68-.54,8.591,8.591,0,0,1,1.32.19043c-5.84,5.34961-10.03,14.17969-10.82,24.41992C787.59,472.77881,795.91,487.28906,807.69,489.1792Z"/><path d="M822.87,446.519c-.71.6001-1.09.89014-1.09.89014a34.80963,34.80963,0,0,0-1.92-5.02A26.72,26.72,0,0,1,822.87,446.519Z"/><path class="cls-2" d="M950.50974,844.60911c-55.45728-61.41651-133.486-167.17237-149.91186-230.94629,56.17725,25.81372,86.496,19.489,112.65069-3.17333,18.77584,47.2683,43.86063,145.709,37.61473,211.38641a131.207,131.207,0,0,0-.15546,22.828"/><polyline class="cls-2" points="799.35 611.659 790.62 613.809 777.21 617.109"/><path class="cls-3" d="M670.72,2000.679l-30-31.5398q10.68018,11.11487,21.37012,22.22C664.96,1994.34912,667.80005,1997.53906,670.72,2000.679Z"/><path class="cls-3" d="M697.30005,2019.30908c-12.53-2.5-23.1001-14.8601-23.87012-15.77,5.65015,5.83008,11.76,11.16993,19.25,14.24A35.70009,35.70009,0,0,0,697.30005,2019.30908Z"/><path class="cls-3" d="M735.66,2016.36914a78.45083,78.45083,0,0,1-9.36,2.13989C729.49,2017.83911,732.62,2017.08911,735.66,2016.36914Z"/><path class="cls-1" d="M545.96,1817.959A55.2121,55.2121,0,0,1,474.29,1847.55908L429.2,1829.239a18.53968,18.53968,0,0,1-11.46-15.2l5.83008-1.2a17.17461,17.17461,0,0,0,9.01,9.47l41.31994,18.5a51.34624,51.34624,0,0,0,67.23-24.4602C542.85876,1815.30176,544.47656,1815.73462,545.96,1817.959Z"/><path class="cls-1" d="M481.8501,2081.12891l-26.52-8.7898L450,2041.05908h7.3501v-40.77l-3.96009-83.95a44.85673,44.85673,0,0,0-15.36-31.78,45.03055,45.03055,0,0,1,35.62,41.91993c1.89,40.02,6.94007,80.01,8.36,119.97C482.42,2057.919,476.84009,2070.11914,481.8501,2081.12891Z"/><path class="cls-2" d="M439.5,1775.749c4.87-33.45,6.61-66.99-12.99-93.28a81.7246,81.7246,0,0,0-16.05-16.1c-.83-.64-1.66-1.31-2.48-2.01q-2.325-1.98-4.6-4.27c-.47-.47-.93-.94-1.39-1.43-.38-.4-.76-.8-1.13-1.21a5.62465,5.62465,0,0,1-.41-.44c-.4-.44-.8-.89-1.2-1.34a132.9,132.9,0,0,1-11.57-160.29c.34-.52.68-1.03,1.03-1.55.78-1.16,1.58-2.31,2.41-3.44.28-.38.55-.75.83-1.12.14-.2.29-.41.46-.61.36-.5.74-.99,1.12-1.48.47-.61.95-1.21,1.43-1.81l.36-.45c.12-.14.23-.28.35-.42"/><path class="cls-2" d="M471.75,1439.009c.18-.03.35-.06.53-.09,2.56-.44,5.11-.79,7.66-1.07q.9-.105,1.8-.18c.4-.04.79-.07,1.18-.11,1.77-.15,3.53-.26,5.29-.33a123.56032,123.56032,0,0,1,35.32,3.58h.01q3.645.9,7.2,2.03h.01q3.57,1.11,7.05,2.45h.01q4.35,1.65,8.57,3.63c0,.01.01,0,.01,0,1.12.53,2.24,1.07,3.34,1.63.56.28,1.11.56,1.66.85.59.31,1.18.6,1.78.89,1.19.57,2.4,1.12,3.62,1.65,0,0,0,.01.01,0,1.84.8,3.7,1.55,5.56,2.31a103.23336,103.23336,0,0,1,11.85,5.42c.47.26.93.53,1.39.82.68.4,1.34.82,1.99,1.27.83.57,1.63,1.16,2.41,1.79a63.40783,63.40783,0,0,1,5,4.51c.97.97,1.92,1.98,2.86,3.02,0,0,.01,0,0,.01.62.69,1.23,1.4,1.85,2.13.61.73,1.21,1.48,1.8,2.24.89,1.13,1.75,2.3,2.61,3.49.29.4.57.81.85,1.22.56.81,1.11,1.63,1.66,2.46.54.83,1.08,1.68,1.6,2.54.53.86,1.05,1.72,1.56,2.59q1.935,3.285,3.68,6.74c.47.91.93,1.83,1.39,2.75a185.08158,185.08158,0,0,1,15.67,49c.06.35.11.7.17,1.05,1.58,10.17,2.93,26.59,4.33,38.98q.195,1.71.39,3.3"/><path class="cls-1" d="M463.37,1649.84912a15.02756,15.02756,0,0,1-9.82,5.60987c-10.73,1.18017-20.87012-10.98-22.64-27.16993-1.76-15.97,5.27991-29.89013,15.77991-31.37988-4.90991,5.77979-7.53992,15.36987-6.38989,25.83985,1.78,16.18994,11.90991,28.35009,22.63989,27.16992A2.96253,2.96253,0,0,0,463.37,1649.84912Z"/><polygon points="810.7 747.659 810.98 753.949 729.73 757.569 729.45 751.269 810.7 747.659"/><path d="M1071.88,684.33887l-.01-.02c-12.85-41.63965-57.35-71.41992-108.66-72.73l-51.84-1.31006,1.88.21c4.19,10.56055,8.7,23.67041,13.1,38.40039.24.79.48,1.58008.71,2.37988,2.58,8.75,5.11,18.03028,7.52,27.66993q.645,2.61034,1.29,5.25,1.98,8.17528,3.8,16.62011c.19.85987.37,1.73.55,2.6001q.9,4.21509,1.74,8.46973c.21,1.04.41,2.09033.61,3.14013.21,1.04.41,2.08985.6,3.14014.3,1.58985.6,3.17993.88,4.76978.2,1.09008.39,2.19018.58,3.28.11.6101.22,1.22.32,1.84008.16.90992.31,1.82984.46,2.75.18,1.06006.35,2.11011.52,3.16993.17005,1.05.34,2.1101.5,3.15991.54,3.48022,1.05005,6.9602,1.51,10.42016.11.75.21,1.49.3,2.23q.39,2.985.75,5.95c.17,1.46.34,2.91992.5,4.38012.18,1.68994.36005,3.37989.52,5.05982.52,5.27.94,10.5,1.24,15.65014.06,1.01.11,2.02.16,3.03.06,1,.1,2,.14,3,.04.81983.07,1.6399.1,2.46q.015.405.03.81006c.02.88989.05005,1.77979.07,2.66992v.01c.02.57984.03,1.15992.04,1.73,0,.1399.01.28.01.41993v.05c.01.62011.02,1.24.02,1.8601.02.98.02,1.94995.02,2.91992,0,7.66993-.31,15.08008-.98,22.09986a129.86739,129.86739,0,0,0-.55,14.88012c.02.8899.04,1.77.08,2.65015.03.73975.07,1.46973.11,2.21.01.24.02.47.04.69995.05.79.11,1.59009.17,2.37989.03.42993.06.87011.1,1.3l-.3-1.3899C895.05,783.189,817.02,677.439,800.6,613.65918l-1.68-.5-40.14,7.29C702.79,630.60889,660.63,674.25928,656.8501,725.969L650.62,811.28906c34.6,24.78,70.61,45.6399,106.91,61.46.01,0,.01.01.02.01,70.1,30.55,141.23,42.32007,205.19995,27.24l16.97-9.03,40.4-193.74976h55.73ZM926.54,858.53906a7.104,7.104,0,1,1-7.33,6.85987A7.11177,7.11177,0,0,1,926.54,858.53906ZM724.96,762.77905l-.73-16.29,91.25006-4.05.72,16.29ZM958.61,894.65918,953.25,874.269a143.72978,143.72978,0,0,1-4.26-24.95l4.99-.40014a138.60907,138.60907,0,0,0,4.11,24.08008l5.04,19.18994-.38,1.84008Q960.68,894.359,958.61,894.65918Z"/><path d="M2968.09009,1984.019q-13.23011,60.75-20.96009,117.87012l-157.94,5.82984q7.68-57.28492,21.02-118.30005a118.86818,118.86818,0,0,0-33.74,4.04c-25.3,82.60009-40.36,148.18017-40.78,224.56005,12.25-1.37011,29.59-1.49,48.17-.81005.55-21.28,1.73-44.26,4.11-69.33985l152.92-5.79c-2.89,28.29-3.9801,55.92993-4.2301,82.47a209.4506,209.4506,0,0,0,20.09009-6.24c2.05432-3.25512,13.24379-21.45961,23.155-16.611-.30994-12.48022.43505-21.01914.76488-33.379.65015-24.55,3.28-48.99,5.55005-73.42993,3.28-35.34009,8.73-73.1001,15.43-107.97021C2991.42993,1981.56909,2979.27,1983.31909,2968.09009,1984.019Z"/><path d="M3037,2284.169a33.80261,33.80261,0,0,1-8.64,3.03Q3032.68,2285.744,3037,2284.169Z"/><path class="cls-1" d="M2976.11,1838.019c-1.67,16.19-11.73,28.41993-22.46,27.32007a15.42073,15.42073,0,0,1-10.47009-6.28,12.56869,12.56869,0,0,0,1.39014.22c10.73,1.11011,20.78992-11.11987,22.46-27.32006,1.04-10.03-1.39-19.24-5.94995-25.04981C2971.05005,1809.019,2977.71,1822.519,2976.11,1838.019Z"/><path d="M3026.24,2287.56909c.16992.05982.34009.11988.52.16993.53-.17994,1.07007-.36011,1.6-.54C3027.65991,2287.34912,3026.95,2287.469,3026.24,2287.56909Z"/><path d="M1981.17,1086.65918v-.02c0-.7102-.03-1.41015-.07995-2.1001v-.06005c-.03-.7-.08-1.39991-.16-2.08985a53.90376,53.90376,0,0,0-1.15-7.23c-.3-1.3501-.66-2.67016-1.06006-3.98022-.18-.58985-.37-1.15992-.56-1.74-.38995-1.1399-.81994-2.27-1.28-3.37989a56.75587,56.75587,0,0,0-3.18-6.44995q-1.365-2.3551-2.94-4.58008c-.27-.36987-.53-.73-.8-1.10009-.41-.55005-.83-1.07984-1.25-1.60987-.86-1.06006-1.74-2.08007-2.67-3.07006-.46-.49-.93-.98-1.41-1.46a56.7855,56.7855,0,0,0-6.15-5.33007c-.72-.54-1.46-1.06006-2.2-1.56983-.38-.25-.76-.5-1.15-.75-.76-.49023-1.54-.9602-2.32-1.42016-.79-.45-1.59-.87989-2.41-1.30005-.81-.40992-1.63-.80982-2.46-1.18994-.42-.18995-.84-.36988-1.27-.55005-1.27-.5398-2.55-1.03-3.86-1.47a56.35,56.35,0,0,0-18.13-2.97H1675.3a56.305,56.305,0,0,0-42.71,19.53c-.59.67994-1.17,1.37989-1.73,2.09009-.83,1.05982-1.63,2.15991-2.4,3.2898q-.57.84009-1.11,1.7102c-.72,1.1499-1.4,2.33985-2.04,3.55005q-.77994,1.47-1.47,3a56.36816,56.36816,0,0,0-5.02,23.31983v567.79q7.41,3.78,14.99,7.26h.01v-575.05a41.763,41.763,0,0,1,.62-7.21,38.05591,38.05591,0,0,1,.95-4.12988,39.38124,39.38124,0,0,1,1.69-4.79c.4-.93017.82-1.85009,1.28-2.74.46-.90014.95-1.77,1.47-2.63012.52-.8501,1.07-1.68995,1.65-2.5s1.19-1.6001,1.82-2.36988c.21-.26.42-.51.64-.76.44-.51.89-1,1.34-1.48a41.36921,41.36921,0,0,1,30.02-12.88012h35.18v11.52a19.301,19.301,0,0,0,19.3,19.31006H1870.22A19.30964,19.30964,0,0,0,1889.53,1057.759v-11.52h35.16a41.40886,41.40886,0,0,1,30.03,12.88012c.46.48.9.97,1.34,1.48.21.25.43.5.64.76.64.76978,1.25,1.55982,1.82,2.36988.58.81005,1.13,1.6499,1.65,2.5.53.8601,1.02,1.73,1.47,2.63012.46.8899.89,1.80982,1.28,2.74a41.13255,41.13255,0,0,1,1.69,4.79c.38,1.34986.7,2.73.95,4.12988a40.79414,40.79414,0,0,1,.63,7.21v575.05q7.59-3.48009,14.99-7.26h.01v-567.79C1981.19,1087.36914,1981.19,1087.009,1981.17,1086.65918Zm-168.76-23.56006h-45.1a2.5,2.5,0,0,1,0-5h45.1a2.5,2.5,0,0,1,0,5Zm16.89.8899a3.385,3.385,0,1,1,3.38-3.3899A3.38435,3.38435,0,0,1,1829.3,1063.989Z"/><path d="M2151.49,1488.86914q-1.185,2.205-2.4,4.38989l-.09-.05,2.4-4.3899Z"/><path class="cls-2" d="M955.018,895.17194A402.00548,402.00548,0,0,1,900,898.939q-15.22494,0-30.16-1.11988c-.69-.05-1.38-.1101-2.06-.17016-1.13-.07984-2.25-.17993-3.37-.27979q-.315-.015-.63-.06006c-1.46-.12011-2.91-.26-4.36-.41015q-.45006-.04468-.9-.08985c-1.25-.13012-2.51-.27-3.76-.41015-.62-.06983-1.24-.1399-1.85-.22-1.23-.12989-2.45-.28-3.68-.44995a.17284.17284,0,0,1-.1-.01c-1.49-.17994-2.98-.37989-4.47-.59009-.55-.06983-1.1-.1499-1.64-.23975-1.14-.15014-2.27-.32007-3.4-.5-.26-.03-.51-.07007-.75-.11011-1.31-.19995-2.61-.40014-3.92-.61987-.62-.1001-1.23-.20019-1.84-.3-1.02-.17016-2.03-.3501-3.05-.53-.41-.07007-.82-.15014-1.23-.22-1.42-.26-2.84-.52-4.26-.79-.07-.02-.15-.03-.22-.05-1.15-.21-2.30005-.43994-3.45-.66992-1.03-.20019-2.06-.42016-3.08-.64013-1.17-.24-2.33-.49-3.49-.74-1.48-.32007-2.95-.65992-4.42-1-1.48-.34009-2.95-.67994-4.42-1.05005-.25-.04981-.49-.10987-.74-.17993q-2.175-.52479-4.35-1.07984a.9921.9921,0,0,0-.14-.04c-1.58-.41015-3.16-.82007-4.73-1.25-1.34-.36011-2.68-.73-4.01-1.11011-.35-.09008-.69-.18994-1.03-.29-2.93-.82984-5.84-1.7-8.74-2.59009-.2-.06983-.4-.12988-.6-.18994-1.49-.47-2.97-.93994-4.45-1.41993-1.56-.5-3.10992-1.02-4.65-1.54s-3.09009-1.06006-4.62012-1.6001q-2.30988-.8097-4.59985-1.6499c-1.36011-.5-2.72009-1-4.08008-1.52-.26-.09986-.52-.18995-.78-.29-.13989-.04981-.28-.10987-.41992-.15992-.01,0-.01-.01-.02-.01q-4.18506-1.6051-8.33008-3.29-2.25-.92982-4.48-1.86988-4.485-1.89-8.8999-3.89013-2.205-1.0049-4.4-2.02-2.34007-1.095-4.67-2.22c-1.35-.64991-2.69995-1.31983-4.05005-1.99-1.30994-.64991-2.61987-1.30005-3.91992-1.97-.6001-.3-1.18994-.60987-1.78-.91993-.89-.46-1.78-.91992-2.66992-1.39013-.22009-.10987-.44007-.23-.65015-.34986-1.27991-.67016-2.55993-1.35009-3.82983-2.04a.07589.07589,0,0,0-.04-.02q-2.1-1.155-4.19006-2.32006c-1.26-.7-2.51-1.40992-3.76-2.12989-.36-.20019-.72-.41015-1.07-.6101-1.18-.67994-2.3501-1.36988-3.52-2.05982-1.39-.82007-2.76-1.64014-4.13-2.48022-1.07995-.64991-2.16-1.30982-3.23-1.98-.69006-.41993-1.39-.85987-2.08-1.30982-1.18006-.73-2.3501-1.48-3.52-2.24023-1.01-.6399-2.01-1.2898-3.01-1.94995-.26-.15992-.51-.32984-.75-.5q-1.35-.86976-2.67005-1.77c-.55993-.36988-1.12-.75-1.67-1.12989-.72-.48-1.43994-.97-2.1499-1.47-.75-.51-1.5-1.03-2.24-1.55005-.31006-.21-.62012-.42993-.92-.65014-.98-.67993-1.96008-1.36988-2.93005-2.07984q-1.58991-1.125-3.1499-2.28c-1.18006-.85009-2.3501-1.72-3.51-2.59008q-1.77009-1.31983-3.52-2.66993c-.17-.11987-.34009-.25-.5-.36987-.88-.68017-1.76-1.36011-2.63-2.05-1.01-.77-2-1.56006-2.99-2.35009q-1.22991-.95985-2.43-1.95-5.235-4.23009-10.31006-8.62988c-1.21-1.05-2.3999-2.1001-3.58984-3.15015q-5.38514-4.7699-10.58008-9.73a397.79453,397.79453,0,0,1-123.69995-288.78C501.06006,279.669,679.67,101.05908,900,101.05908a397.79475,397.79475,0,0,1,288.78,123.7002q4.965,5.18994,9.73,10.57959c1.05,1.18994,2.1,2.38037,3.15,3.59033q4.395,5.06982,8.63,10.30957.99,1.20044,1.94995,2.43018c.79.99023,1.58,1.98,2.35,2.99023.69.86963,1.37,1.75,2.05,2.62988.12.16016.25.33008.37.5.9,1.16016,1.79,2.33985,2.67,3.52.87,1.16016,1.74,2.33008,2.59,3.50977q1.155,1.56006,2.28,3.15039c.71.96973,1.4,1.94971,2.08,2.92969.22.31006.44.61035.65.91992.52.74023,1.04,1.49023,1.55,2.24023.5.71.99,1.42969,1.47,2.14991.38.55029.76,1.10986,1.13,1.66992.6.88037,1.19,1.78027,1.77,2.67041.18.25.34.5.5.75.66,1,1.32,2,1.95,3.00976.77,1.16993,1.51,2.33985,2.24,3.52.48.73975.94,1.48,1.4,2.22022.75,1.21,1.5,2.42969,2.23,3.6499.56.90967,1.1,1.81006,1.63,2.71973.3.49023.59.98.88,1.47021.41.69971.82,1.41016,1.23,2.10987.44.75.88,1.5,1.31,2.26025.63,1.11963,1.27,2.22949,1.89,3.35986q1.17,2.08521,2.32,4.18994a.07791.07791,0,0,0,.02.04q1.035,1.905,2.04,3.83008c.12.21973.24.42969.35.6499.47.89014.93,1.77979,1.39,2.66993.31.58984.62,1.18017.92,1.77978.67,1.30029,1.32,2.61035,1.97,3.92041.67,1.33984,1.34,2.68994,1.99,4.04981q1.125,2.32544,2.22,4.66992c.68,1.46,1.35,2.93017,2.02,4.3999.67,1.47021,1.32,2.95019,1.97,4.43018s1.29,2.97021,1.92,4.46c.63,1.5,1.25,2.99023,1.87,4.49023q1.77,4.3645,3.46,8.77c.1.25977.18995.51953.29.77979.52,1.35009,1.02,2.71,1.52,4.08007q1.935,5.26466,3.71,10.6001.54,1.58936,1.05,3.17969c.45,1.37988.89,2.77,1.33,4.15039.26.82959.52,1.66992.77,2.50976q.39,1.28981.78,2.58008c.07.23.14.46.2.67969.37,1.23047.73,2.47022,1.08,3.7002.16.58007.33,1.1499.49,1.73q.465,1.65014.9,3.30029c.38,1.37988.75,2.75976,1.11,4.1499.18.67969.35,1.35986.52,2.04.28,1.1001.56,2.19971.82,3.29981.07.26025.13.51025.19.77.34,1.37989.67,2.77.99,4.16016.06.25977.12.52.17.77.25,1.03955.48,2.07959.71,3.12988.21.91993.41,1.83985.6,2.77.12.52.23,1.04981.34,1.58008.27,1.27.52,2.54.77,3.80957.05.24024.1.48047.14.71045q.36,1.78491.69,3.56982c.11.56006.21,1.12012.31,1.68995.17.91015.34,1.81982.49,2.74023.14.75977.27,1.52.4,2.27979.17,1,.34,2.00976.5,3.02.09.56.18,1.12011.25995,1.68017.16.90967.30005,1.81983.43,2.73975.11.72021.22,1.43994.31,2.16015.16,1.00977.3,2.02979.43,3.04981.2,1.39013.39,2.78027.56,4.18017.14,1.10987.28,2.23.4,3.3501.08.61963.15,1.23.22,1.8501.15,1.32959.3,2.65967.43,4l.06.56982c.16,1.50977.3,3.02.43,4.54.02.16992.04.3501.05.52.1,1.10987.19,2.21973.28,3.33985.06.70019.11,1.39013.17,2.08984q1.11,14.95532,1.12,30.18018c0,124.68017-57.19,236-146.78,309.14013-1.45,1.18994-2.92,2.36987-4.39,3.5398-1.36,1.08007-2.74,2.15014-4.12,3.2102-.57.45-1.15.88989-1.73,1.33985-.77.59008-1.54,1.16992-2.32,1.76s-1.57,1.17016-2.35,1.75q-1.92,1.42493-3.85,2.82006c-1.14.83008-2.29,1.64991-3.44,2.46-.17.12989-.35.25-.52.35987-.78.56006-1.57,1.11011-2.36,1.65014a3.28361,3.28361,0,0,1-.33.23c-.63.43995-1.26.88013-1.89,1.3-.18.1399-.37.26-.56.37989-.42.29-.84.59008-1.27.87011-1.54,1.04-3.09,2.08008-4.65,3.1001-1.49.98-3,1.95-4.51,2.90991-.21.1399-.42.27-.64.39991-1.21.77-2.42,1.53-3.64,2.27-.62.40014-1.25.78-1.87,1.15991-.01.01025-.01.01025-.02.01025q-1.815,1.125-3.63,2.18994c-.36.22-.71.43994-1.07.64991-1.21.72-2.43,1.42993-3.65,2.12988-.57.33008-1.14.66015-1.72.99023-1.53.87989-3.06,1.74-4.61,2.58985-1.49.83007-3,1.65014-4.51,2.45019-.42.23975-.83.46-1.25.67993-1.21.64991-2.43,1.2898-3.65,1.91992q-.11994.06006-.24.11988c-.55.3-1.12.58008-1.68.87012a.59138.59138,0,0,1-.08.04c-1.33.69-2.67,1.35987-4.02,2.03q-.48.2549-.96.48c-1.63.81006-3.27,1.59986-4.92,2.3899-.9.43017-1.81.8601-2.72,1.28-.78.37011-1.57.74-2.36,1.10009-1.03.48-2.06.95-3.1,1.40992-.92.41992-1.83.82006-2.75,1.23q-11.25,4.96508-22.86,9.24c-.61.23-1.23.44995-1.84.67016-.36.13989-.73.27-1.09.38989-1.33.48-2.66.95-3.99,1.41993-1.57.54-3.14,1.08007-4.72,1.60009-1.2.40992-2.4.80005-3.6,1.17994q-4.32,1.40991-8.69,2.70019c-.92.27979-1.84.54981-2.77.80982q-4.95,1.43994-9.96,2.75-.81.21019-1.62.42016-3.075.79469-6.18,1.5398-2.355.55517-4.71,1.10009-2.7.61488-5.42,1.19c-.4.09008-.8.17016-1.2.25-.8.17016-1.61.34008-2.41.5q-5.66244,1.14313-11.36524,2.12984"/><circle class="cls-2" cx="2799.54287" cy="701.31267" r="398.94"/><path class="cls-1" d="M2783.68,835.83911,2741.21,877.189l-57.29-46.31983,4.69-3.69018,51.08,41.31006,38.52-37.51c.01-.01.36-.33985.94-.87989Z"/><g class="cls-4"><circle class="cls-5" cx="2770.71524" cy="923.22258" r="7.10075"/><circle class="cls-5" cx="2766.1104" cy="986.41504" r="7.10075"/><circle class="cls-5" cx="2766.17688" cy="1049.00183" r="7.10075"/></g><polygon class="cls-1" points="2737.25 927.499 2737.25 935.309 2675.81 935.309 2675.81 910.169 2683.4 910.169 2683.4 927.499 2737.25 927.499"/><path class="cls-1" d="M2893.53238,990.50082l-70.09972,28.00608a3.00651,3.00651,0,0,1-4.00515-1.96206l-10.02369-34.90313a3.00653,3.00653,0,0,1,1.80413-3.63358h0a3.00652,3.00652,0,0,1,3.97529,1.97376l1.97531,6.87773a21.22353,21.22353,0,0,0,28.26727,13.85245l44.89359-17.92089a3.00652,3.00652,0,0,1,3.84349,1.53032l.98289,2.12542A3.00652,3.00652,0,0,1,2893.53238,990.50082Z"/><path d="M810.212,491.59411a1.13418,1.13418,0,0,0-1.47494-1.679,17.56073,17.56073,0,0,1-10.47821,2.61431c-12.4754-.97323-21.48342-15.93038-20.12-33.40773s12.582-30.85657,25.05744-29.88335c8.5926.67033,15.54029,7.97457,18.58719,18.167,0,0,34.41683-26.36647,52.76654-79.73559,0,0,70.62774,43.70834,128.634,15.55877s24.49336-36.86378-1.50656-63.00461S950.82283,257.80452,890.86205,270.538s-59.1515,38.28725-82.3316,47.16766-45.99709,16.36443-53.734,57.58532-5.0851,94.08783,18.12208,119.50248C789.12577,512.54237,803.19758,500.48348,810.212,491.59411Z"/><path class="cls-2" d="M2986.88791,2240.17535c12.8273,9.59946,26.07141,13.78012,21.67854,23.66407-3.652,8.21705-12.94542,5.42494-30.12917-5.02153"/><path class="cls-2" d="M2977.52428,2215.90665c10.02242,1.96015,19.058,6.99219,27.84265,11.981,6.86549,3.89892,14.78747,6.83874,11.41657,16.77865-2.65992,7.84052-19.48854,2.56747-26.0232-1.66759"/><path class="cls-2" d="M2978.00975,2258.39526c5.41307,4.01845,12.04091,6.75379,16.58707,11.86429,4.49693,5.05517,6.99978,13.27329-2.07284,14.61-6.85449,1.00987-16.79381-3.0374-29.18618-11.95365"/><path class="cls-2" d="M2984.21655,2293.79509c-.78747,3.398-4.92,4.42884-7.4361,4.64976-5.309.46614-10.81306-1.14791-15.89776-2.72369a221.2773,221.2773,0,0,1-23.96887-9.36892c-15.11982-6.70279-26.56247,5.14889-46.07354,19.18791"/></g><g id="artwork"><path d="M2745.12,765.519l4.05,5.17994-8.92,30.16015s-34.3,9.86988-49.41,22.93994c-11.58,10.02-22.46,26.51-26.01,33.98.39.96.77,1.8899,1.15,2.78l-2.3.98-2.3.98a111.99288,111.99288,0,0,1-6.35-19.17993c.26-.30005.51-.6101.75-.91015.16-.18994.31-.37989.47-.56983a1.783,1.783,0,0,0,.16-.22c.17-.20019.32-.40014.47-.61011a48.31366,48.31366,0,0,0,5.25-8.75c.24-.5.46-1.01.68-1.51.2-.46.4-.92993.58-1.3999.78-1.90014,1.44-3.83008,2.02-5.77.12006-.38012.23-.77.34-1.16015.99-3.45,1.76-6.93994,2.45-10.43994.11-.53.21-1.06006.31-1.58008.21-1.05982.41-2.11988.61-3.16992,3.13-16.51,6.09-32.10987,24.53-43.42994,1.54-.94995,3.06-1.78,4.56-2.52,16.43-8.05,30.47-3.98,45.26.31006.88.25,1.76.51,2.65.76978Z"/><path d="M2654.72,835.38916c-.14.22-.28.43994-.43.65991-.17.26-.34.51-.52.77a101.72056,101.72056,0,0,1,1.18-37.35009c1.69-7.99,5.03-16.87989,8.9-27.16993,8.05-21.38989,18.06-48.02,15.91-77.17016l4.98-.36963c.08,1.0498.14,2.09961.19,3.1499,7.91,8.25977,32.53,30.48975,62.63,23.27979l2.25,10.01-3.56,4.37011,5.51,9.07007-6.48,7.11987,1.81,5.68995c-.74-.21-1.49-.41993-2.23-.6399-14.49-4.21-29.43-8.54-46.65-1.02-.29.12989-.58.26-.88.39991q-.36.16515-.72.33007a59.57042,59.57042,0,0,0-5.58,3.04c-20.32,12.47-23.62006,29.89991-26.82,46.76q-.195,1.01991-.39,2.04-.39,2.06983-.81,4.10987c-.21,1.01-.42,2.02-.65,3.02-.11.51-.23,1.01-.35,1.5-.11.5-.24,1-.36,1.5-.17.67016-.34,1.33007-.53,1.99-.16.59008-.33,1.16992-.51,1.75-.19.64013-.39,1.28-.61,1.91015-.06.18994-.13.37988-.19.56983-.12.3601-.25.71-.38,1.06005-.15.39991-.3.81006-.45,1.2-.03.07006-.06.15014-.09.22-.16.41015-.33.82006-.5,1.22021a45.42354,45.42354,0,0,1-3.27,6.34985C2654.99,834.979,2654.86,835.189,2654.72,835.38916Z"/><line class="cls-2" x1="2834.52939" y1="812.32323" x2="2850.69733" y2="800.94609"/><line class="cls-2" x1="2908.59077" y1="819.06859" x2="2849.13211" y2="867.0771"/><path class="cls-2" d="M2838.5766,578.887c-2.54563-49.24735-27.19831-90.33222-67.92032-98.25716-51.93787-10.10766-99.54,31.55578-112.40911,97.68321s13.8681,131.67773,65.806,141.78539a77.11045,77.11045,0,0,0,26.61569.57677"/><path class="cls-2" d="M2656.36972,587.9479c1.59232-13.0269,4.5054-39.12725,6.30167-50.08345,4.40071-26.84167,15.52088-54.0126,37.46065-71.72324,8.31809-6.71393,22.57764-11.34341,31.92887-16.22615,24.83477-12.96744,50.3914-13.98412,75.32381-10.42235a154.33016,154.33016,0,0,1,56.72077,20.94306,110.24137,110.24137,0,0,1,45.37662,57.59339c22.72166,65.64036-24.20742,138.62346-3.21668,205.415,6.88627,21.91169,23.3785,38.26585,36.89077,56.15951,26.181,34.67034,44.98016,95.82151,17.66189,133.17172"/><path class="cls-2" d="M2710.603,575.37616s-22.23552,52.66306-18.72465,55.00364l3.51087,2.34058"/><path class="cls-2" d="M2749.18117,772.24966A180.87815,180.87815,0,0,1,2740.21,802.189"/><path class="cls-2" d="M2849.309,800.95353c-5.04926-34.3464-9.0468-69.02061-8.67732-103.78248"/><path class="cls-2" d="M2594.49,1041.989l65.79-174.7a102.45422,102.45422,0,0,1,79.93-65.1"/><path class="cls-2" d="M2851.07,800.949a102.44354,102.44354,0,0,1,97.99,72.55l52.18,171.03"/><path class="cls-2" d="M2689.71973,825.44583l49.96573,40.40178,38.52084-37.51191a.22084.22084,0,0,0-.02677-.33868l-38.3467-27.05093"/><polygon class="cls-6" points="2895.143 988.661 2877.862 951.319 2806.209 979.001 2817.905 1019.74 2895.143 988.661"/><path class="cls-2" d="M2894.72156,989.3877c13.26391,12.822,24.611,26.196,33.52588,40.27075"/><path class="cls-2" d="M2792.95048,700.90441q-3.77154,5.25707-8.3439,10.73651s-7.14229-1.19038-11.30863,2.38076a14.69917,14.69917,0,0,0-1.05959,1.03093"/><path class="cls-2" d="M2819.36512,737.06445c32.8038-56.34748,51.01139-111.28564,51.5441-117.67808.59519-7.14229-21.42686-23.80763-29.75953-24.40282s-19.0461,11.30862-19.0461,11.30862-12.499,26.78358-10.71344,29.75954a74.07838,74.07838,0,0,0,5.95191,7.73747s-.96219,16.678-13.71687,40.14544"/><path class="cls-2" d="M2800.18853,731.05037s-20.243-16.89779-33.657-16.58387c-6.05057.14159-12.51942,1.53084-15.97446,7.11541-1.15157,1.86135-3.58965,9.441,1.60053,8.82908,3.9322-.4636,10.26377-2.48938,14.84615-2.92188s15.91249,7.92946,15.91249,7.92946"/><path class="cls-2" d="M2755.89147,729.85779s-19.48357,3.38367-2.731,14.5643c0,0,14.42842-1.91658,21.33165,3.627"/><path class="cls-2" d="M2753.16048,744.42209s-15.28661,7.74056-4.86747,14.68982c0,0,11.7288-2.44944,18.81792,2.19023"/><path class="cls-2" d="M2869.45718,953.15975l-30.25412-120.08808a213.49588,213.49588,0,0,0-9.19482-28.21118c-4.16439-10.072-8.14667-20.47255-7.06308-31.58119,1.85959-19.06408-9.21943-67.41964-13.53571-77.19361-4.31763-9.777-19.00988-34.13209-24.8761-31.54152s-4.25735,12.43667,4.60627,27.2164,7.54338,22.373,5.08559,33.74007"/><path class="cls-2" d="M2748.293,759.11191s-9.1357,11.17468,6.74023,11.934c0,0,6.33358,2.45324,12.29775,12.6299s5.68118,17.475,17.44329,30.93892c8.49493,9.72406,8.35246,29.97162,10.35449,43.25392,3.27107,21.70166,6.74342,43.37224,10.10333,65.06018l8.0867,52.19888"/><rect class="cls-2" x="2683.40318" y="902.35884" width="61.44336" height="25.13592"/><path class="cls-2" d="M2778.24528,827.97636s20.99161,23.30868,17.21421,45.4455c-5.07778,51.58282-13.23622,169.97474-.09731,225.53908"/><circle cx="2773.01766" cy="919.10975" r="7.10075"/><circle cx="2768.41282" cy="982.30221" r="7.10075"/><circle cx="2768.4793" cy="1044.889" r="7.10075"/><path class="cls-2" d="M2711.825,657.68759h28.19051a0,0,0,0,1,0,0v.61285a14.09524,14.09524,0,0,1-14.09524,14.09524h0a14.09524,14.09524,0,0,1-14.09524-14.09524v-.61285A0,0,0,0,1,2711.825,657.68759Z" transform="translate(-48.79895 1082.00082) rotate(-22.25653)"/><path class="cls-2" d="M624.95868,1588.69528c-12.00886-48.55058-79.2577-96.54952-79.27245-96.56,3.03034,2.1628-8.07751,30.06932-9.13265,32.73414-15.66953,39.57444-47.71556,69.27783-91.76538,70.26118"/><path class="cls-2" d="M580.588,1592.60281s18.56319,54.06684,14.89975,56.16057l-3.66345,2.09373"/><path class="cls-2" d="M542.99582,1812.57123q-.0583-.1443-.11632-.28871a132.7709,132.7709,0,0,1-9.31728-45.68292l-.66372-23.01A11.297,11.297,0,0,1,544.153,1731.946a78.565,78.565,0,0,0,14.99974-1.46533c51.93787-10.10766,76.534-62.02388,65.806-141.78539-8.98024-66.7668-60.47124-107.79086-112.40911-97.6832-42.8473,8.33854-67.90418,53.38858-68.13739,106.031"/><path class="cls-2" d="M432.82209,1774.62705q1.59909-.0435,3.20645-.04359l105.45381,39.331,0,.00005a51.4024,51.4024,0,0,1-67.58634,25.17685l-41.31261-18.49818a17.23,17.23,0,0,1-9.03422-21.92644Z"/><path class="cls-2" d="M322.25,1986.359l9.84-84.76c5.58-48.08,44.04-85.99,91.75-89.93"/><path d="M620.69995,1549.29907c-.05994-.35009-.10986-.69995-.16992-1.05a185.08172,185.08172,0,0,0-15.67-49c-.45-.91993-.91-1.83985-1.39-2.75q-1.73986-3.45008-3.67993-6.74c-.51-.86987-1.02-1.74-1.56006-2.59008-.52-.85987-1.05994-1.71-1.6-2.54-.54992-.82984-1.1-1.6499-1.66-2.46-.28-.40992-.55994-.81983-.85-1.22-.85-1.18995-1.72-2.35987-2.61-3.49-.59-.76-1.18994-1.51-1.8-2.24-.60986-.73-1.22-1.43995-1.85-2.12989.01-.01,0-.01,0-.01-.93006-1.05-1.88-2.05-2.86-3.02a61.97183,61.97183,0,0,0-5-4.52c-.78-.62988-1.58-1.22-2.40991-1.78-.65015-.44995-1.31006-.86987-1.99-1.27-.46009-.29-.92017-.56006-1.39014-.82007a103.27436,103.27436,0,0,0-11.85-5.41992c-1.87-.76-3.73-1.51-5.55994-2.31006-.01.01-.01,0-.01,0-1.22-.52979-2.43-1.06983-3.62-1.64991-.6-.29-1.19006-.58007-1.78-.89013-.54992-.2898-1.1-.56983-1.66-.84986-1.1-.56005-2.22-1.10009-3.34-1.63012,0,0-.01.01-.01,0q-4.21489-1.96473-8.56994-3.62989h-.01q-3.48011-1.31982-7.05005-2.45h-.01q-3.555-1.11-7.2-2.03h-.01A124.2736,124.2736,0,0,0,488.21,1437.229c-1.76.07006-3.52.18017-5.28992.33007-.39.04-.78.06983-1.18.10987q-.9.07507-1.8.18017c-2.54993.27979-5.09985.62989-7.65991,1.06983a23.165,23.165,0,0,0-4.84009-13.10987c-6.32995-8.6499-17.79993-15.18994-30.68994-17.51-13.53-2.43994-26.65991.09009-36.01,6.93995a49.27537,49.27537,0,0,0-18.74,30.02c-2.40991,12.11988-.16992,24.01,6.14,32.63013a29.3175,29.3175,0,0,0,7.18006,7.02979l-.36011.45019c-.48.59986-.96,1.19995-1.42993,1.80982-.38.49-.76.98022-1.12,1.48022-.17.19995-.31994.40991-.46008.60986-.27991.37012-.54993.74-.82995,1.12012-.83,1.12988-1.63,2.27979-2.41,3.43994-.35.52-.68994,1.03-1.03,1.54981-31.80395,48.30762-29.04736,114.25952,11.05017,159.67407.177.20337.34143.41333.5199.616.4.45019.8.90014,1.2,1.34008a5.59931,5.59931,0,0,0,.41.43995c.24011.27.49011.54.74011.81005.12988.13013.25.27.38989.40015.46.48975.92.96,1.39,1.42993q2.28,2.295,4.6,4.27c.17.1399.34009.2898.51.42993a17.35116,17.35116,0,0,0,1.73,1.66993l16.29,16.01.05.05,6.1499,6.05005c4.72-8.14013,7.47-14.57006,8.8501-19.79,3.99-15.07006-3.32007-20.09008-7.08008-27.05a18.98659,18.98659,0,0,1-1.02-2.18995l-.05994-.1499c-1.63-4.36011-1.86-11.64013-1.53-18.83008v-.01a28.05067,28.05067,0,0,1,.19006-3.35009c.18994-2.89991.45-5.69995.72-8.19995,1.12-.6399,2.21-1.22,3.24-1.71a22.82074,22.82074,0,0,1,8.8-10.3601l-.04-1.80005c1.1499-.02979,2.28-.06983,3.3999-.12988,4.05,3.17993,11.8,9.52,13.37012,12.66015,3.71,7.3999,33.71-19.7102,37.1499-22.84009,18.87012-17.13012,30.86011-40.57006,39.47009-64.22.84-2.30005,9.92005-26.33008,7.55994-28.43017,2.07007,1.48,67.41,48.74023,79.22,96.52l.08008-.40992.73-3.75C624.22,1571.90918,622.43994,1559.979,620.69995,1549.29907ZM417.25,1466.729a128.50658,128.50658,0,0,0-19.65991,19.35009L395.67,1484.499l-1.95007-1.58985a133.94053,133.94053,0,0,1,20.43-20.1001c17.21-13.64013,36.98-22.72,57.17005-26.26l.42993,2.46.43994,2.46C452.81006,1444.86914,433.82007,1453.59912,417.25,1466.729Z"/><path class="cls-2" d="M2825.62116,1018.37056c9.49654,30.53038,21.375,56.04838,36.15325,75.4642"/><path class="cls-2" d="M798.62346,425.07823c16.88337-59.32974,74.04828-109.53627,126.756-103.82289,60.64163,6.57355,72.53553,94.19125,70.60314,141.52257C994.069,509.64962,977.21107,593.723,914.9859,590.31836c-44.45686-2.43248-99.8772-45.24317-115.23764-93.47013"/><path class="cls-2" d="M814.95451,484.50668c-4.5345,5.40782-10.458,8.50932-16.6957,8.02271-12.4754-.97323-21.48342-15.93038-20.12-33.40773s12.582-30.85657,25.05744-29.88335c8.5926.67033,17.47607,11.38656,20.48615,22.15581"/><path class="cls-7" d="M650.61955,811.293l6.22959-85.32029c3.77911-51.71429,45.9398-95.36615,101.9264-105.52079l40.14391-7.28939"/><path class="cls-8" d="M911.37408,610.27787l51.83566,1.31591c51.30814,1.30122,95.80836,31.08519,108.66086,72.7219l3.98253,12.90356"/><polyline class="cls-2" points="818.584 658.49 860.89 673.955 873.688 632.644 911.662 669.195 924.355 643.809"/><polyline class="cls-2" points="865.65 658.088 878.343 686.648 903.729 683.474 897.954 656.489"/><polyline class="cls-2" points="878.343 686.648 878.343 721.554 914.332 801.871"/><polyline class="cls-2" points="903.729 683.474 925.037 713.977 951.913 793.254"/><path class="cls-2" d="M2853.72986,597.877c1.30226-7.21253-4.97734-16.63533-13.03613-15.52377-3.941.54359-7.8356,3.00772-11.03412,6.44178"/><path d="M2765.32,550.62891a.7034.7034,0,0,0-.36-.1001A.24118.24118,0,0,1,2765.32,550.62891Z"/><path class="cls-9" d="M2821.47292,1816.71926c-2.94269-.00071-5.76891,4.54652-7.22929,6.5629a86.0855,86.0855,0,0,0-8.38115,14.73184c-2.11814,4.63406-4.21026,9.44353-5.16123,14.47552-1.20371,6.36945.81626,9.4975,6.80056,12.04011"/><path class="cls-2" d="M2825.9585,1944.64574c0,16.02409,1.137,29.73541-4.48558,43.64853l38.47037,39.34945a24.88843,24.88843,0,0,0,33.45171,1.94917l58.06131-46.97975c-5.04926-34.3464-9.0468-69.0206-8.67733-103.78248"/><path class="cls-2" d="M462.59369,1604.94538c-4.20732-5.55212-9.76252-8.72188-15.48554-8.09313-10.72627,1.17842-17.98021,15.25383-16.20213,31.43829s11.91486,28.34927,22.64112,27.17084c5.36314-.58921,9.85819-4.40267,12.7902-10.09188"/><path class="cls-10" d="M755.92993,1902.68937V1332.689a396.496,396.496,0,0,1,37.7301,18.45019H777.35v534.968"/><path class="cls-10" d="M777.35,1993.13421V2035.249h38.96a394.38235,394.38235,0,0,1-44.3,24.8H755.92993v-49.72286"/><path class="cls-6" d="M458.22,2041.429,401.77,2046.27905q-11.71509-6.72-22.9-14.18994l-4.55994-25.82007,83.04-5.98Z"/><path class="cls-11" d="M925.52175,1831.10391a133.10448,133.10448,0,0,1,.62234,27.40673"/><path class="cls-11" d="M890.205,1762.66909a89.89226,89.89226,0,0,1,15.19168,16.07307"/><path class="cls-11" d="M942.9588,1787.39012c5.58284,4.22511,11.284,8.34805,16.49747,13.05483"/><path class="cls-11" d="M905.38565,1726.91618c4.75983,12.695,7.77656,26.35914,14.99149,37.97541q.78344,1.26137,1.62409,2.45971"/><line class="cls-6" x1="455.33" y1="2071.88904" x2="451.37" y2="2042.17904"/><path class="cls-6" d="M457.354,2000.29241l-3.96418-83.95611a45.018,45.018,0,0,0-49.4474-42.67137h-.0001a45.018,45.018,0,0,0-40.17176,50.52982l10.54177,82.07271"/><path class="cls-6" d="M866.156,1812.01537l-38.026-56.61644a11.11479,11.11479,0,0,1,4.2-15.73975c30.38-16.02,58.62-32.7102,74-53.43017a8.3011,8.3011,0,0,1,13.7.60009l67.51,108.26q-1.65006,6.705-3.51,13.32984a394.73211,394.73211,0,0,1-25.39,66.5c-.19.40014-.39.80005-.59,1.19018L932.77,1889.989a15.323,15.323,0,0,1-20.49-5.53l-17.28152-28.73859"/><path class="cls-2" d="M1179.34,697.21924l-27.18,111.91992A397.18435,397.18435,0,0,1,979.72,890.969l40.4-193.74976Z"/><polygon points="460.248 2043.401 400.906 2048.693 391.067 2038.974 459.359 2033.432 460.248 2043.401"/><path class="cls-12" d="M923.99249,533.12821a32.92181,32.92181,0,0,1,31.61871,0s12.47223-7.89781,20.39631-1.9428"/><path class="cls-2" d="M959.41716,550.78394c-4.56727,3.63672-9.63562,3.09033-15.00861,0"/><path class="cls-2" d="M2779.48568,1785.05377c-1.23911,4.4019-3.25136,13.15284-4.157,17.80658-12.8691,66.12743-11.71786,141.78539,65.806,141.78539,47.88808,0,89.69145-25.33994,106.91412-80.9943"/><path class="cls-2" d="M2940.78969,1855.32836c2.96964,5.66966,7.48986,9.45325,12.85678,10.00691,10.73384,1.10734,20.7898-11.12436,22.46061-27.32025s-5.67623-30.22293-16.41007-31.33026c-5.72706-.59082-11.26114,2.61568-15.43159,8.19555"/><path class="cls-2" d="M2667.993,2224.49121c5.3244-34.489,8.14105-65.09643,17.7865-96.87573"/><path class="cls-2" d="M3108.80954,2125.72427c10.5214,43.69658,14.62843,84.55735,16.94015,119.65165"/><path class="cls-13" d="M2950.63,1983.199l11.58-.32c29.85-.82,66.82,1.21,90.64,21.64a129.6403,129.6403,0,0,1,21.37,23.36"/><path class="cls-13" d="M2776.47491,1993.46289c-24.975,81.51767-39.96332,146.45987-40.75672,221.56294"/><path class="cls-13" d="M2810.2097,1989.41472q-13.27529,60.98077-21.02074,118.30766l157.93754-5.83512q7.6738-57.0802,20.962-117.87011"/><path class="cls-13" d="M2980.27135,2199.48343c-.11029-10.42363.1233-20.84275.39865-31.16439.65-24.55,3.28-48.99,5.55-73.43,3.28-35.34,8.69-72.6,15.39-107.46"/><line class="cls-13" x1="2787.14038" y1="2173.52612" x2="2794.63458" y2="2173.22998"/><line class="cls-14" x1="2818.24561" y1="2172.29639" x2="2919.77295" y2="2168.28272"/><line class="cls-13" x1="2931.57849" y1="2167.81616" x2="2939.07263" y2="2167.51978"/><path class="cls-2" d="M1981.18,1087.729v567.79q-7.41,3.78-14.99,7.26h-.01q-8.00994,3.69-16.21,7.01a395.48117,395.48117,0,0,1-90.99,24.81006q-6.11994.92982-12.32,1.6399v2.71a4.99541,4.99541,0,0,1-5,5H1760.67a4.99541,4.99541,0,0,1-5-5V1696.499q-6.195-.67494-12.32-1.56006a396.03812,396.03812,0,0,1-90.99005-24.21q-9.38992-3.75-18.54-7.95h-.01q-7.59-3.48009-14.99-7.26h-.01v-567.79a56.06652,56.06652,0,0,1,6.5-26.31983c.63-1.2102,1.31-2.40015,2.04-3.55005q.54-.87012,1.11-1.7102c.76-1.12989,1.56-2.23,2.4-3.2898.56005-.7102,1.14-1.41015,1.73-2.09009a56.305,56.305,0,0,1,42.71-19.53h249.38a56.35,56.35,0,0,1,18.13,2.97c1.31.43994,2.59.93017,3.86,1.47.43.18017.85.3601,1.27.55005.83.38012,1.65.78,2.46,1.18994.82.42016,1.62.85009,2.41,1.30005.78.46,1.56.92993,2.32,1.42016.39.25.77.5,1.15.75.74.50977,1.48,1.02979,2.2,1.56983a56.7855,56.7855,0,0,1,6.15,5.33007c.48.48.95.97,1.41,1.46.93.99,1.81,2.01,2.67,3.07006.42.53.84,1.05982,1.25,1.60987.27.37011.53.73022.8,1.10009q1.575,2.22,2.94,4.58008a56.75587,56.75587,0,0,1,3.18,6.44995c.46,1.10987.89,2.24,1.28,3.37989.19.58007.38,1.15014.56,1.74A56.49964,56.49964,0,0,1,1981.18,1087.729Z"/><path class="cls-2" d="M1966.18,1087.729v575.05q-8.00994,3.69-16.21,7.01a395.48117,395.48117,0,0,1-90.99,24.81006q-6.11994.92982-12.32,1.6399v2.71a4.99541,4.99541,0,0,1-5,5H1760.67a4.99541,4.99541,0,0,1-5-5V1696.499q-6.195-.67494-12.32-1.56006a396.03812,396.03812,0,0,1-90.99005-24.21q-9.38992-3.75-18.54-7.95h-.01v-575.05a41.19561,41.19561,0,0,1,1.58-11.33985,39.38124,39.38124,0,0,1,1.69-4.79c.39-.93017.82-1.85009,1.28-2.74.45-.90014.94-1.77,1.47-2.63012.52-.8501,1.07-1.68995,1.65-2.5.57-.81006,1.18-1.6001,1.82-2.36988.21-.26.42-.51.64-.76.44-.51.89-1,1.34-1.48a41.36921,41.36921,0,0,1,30.02-12.88012h249.39a41.40886,41.40886,0,0,1,30.03,12.88012c.45.48.9.97,1.34,1.48.21.25.43.5.64.76.63.76978,1.24,1.55982,1.82,2.36988s1.13,1.6499,1.65,2.5c.52.8601,1.01,1.73,1.47,2.63012.46.8899.88,1.80982,1.28,2.74a41.13255,41.13255,0,0,1,1.69,4.79A41.57491,41.57491,0,0,1,1966.18,1087.729Z"/><rect class="cls-2" x="1652.35637" y="1203.49997" width="90.99154" height="90.99154" rx="5"/><rect class="cls-2" x="1755.66968" y="1203.49997" width="90.99154" height="90.99154" rx="5"/><rect class="cls-2" x="1652.35637" y="1113.58436" width="29.38269" height="29.38269" rx="1.61458"/><rect class="cls-2" x="1919.17011" y="1113.58436" width="29.38269" height="29.38269" rx="14.69133"/><rect class="cls-2" x="1858.98299" y="1203.49997" width="90.99154" height="90.99154" rx="5"/><rect class="cls-2" x="1652.35637" y="1305.86545" width="90.99154" height="90.99154" rx="5"/><rect class="cls-2" x="1755.66968" y="1305.86545" width="90.99154" height="90.99154" rx="5"/><rect class="cls-2" x="1858.98299" y="1305.86545" width="90.99154" height="90.99154" rx="5"/><rect class="cls-2" x="1652.35637" y="1408.23093" width="90.99154" height="90.99154" rx="5"/><rect class="cls-2" x="1755.66968" y="1408.23093" width="90.99154" height="90.99154" rx="5"/><rect class="cls-2" x="1858.98299" y="1408.23093" width="90.99154" height="90.99154" rx="5"/><rect class="cls-2" x="1652.35637" y="1510.59642" width="90.99154" height="90.99154" rx="5"/><rect class="cls-2" x="1755.66968" y="1510.59642" width="90.99154" height="90.99154" rx="5"/><rect class="cls-2" x="1858.98299" y="1510.59642" width="90.99154" height="90.99154" rx="5"/><path class="cls-2" d="M1743.35,1617.959v76.98a396.03812,396.03812,0,0,1-90.99005-24.21v-52.77a4.99545,4.99545,0,0,1,5-5H1738.35A5.00185,5.00185,0,0,1,1743.35,1617.959Z"/><path class="cls-2" d="M1846.66,1617.959v80.99a4.99541,4.99541,0,0,1-5,5H1760.67a4.99541,4.99541,0,0,1-5-5v-80.99a5.00181,5.00181,0,0,1,5-5H1841.66A5.00181,5.00181,0,0,1,1846.66,1617.959Z"/><path class="cls-2" d="M1949.97,1617.959v51.83007a395.48117,395.48117,0,0,1-90.99,24.81006V1617.959a5.00181,5.00181,0,0,1,5-5h80.99A4.99541,4.99541,0,0,1,1949.97,1617.959Z"/><path d="M1681.73905,1499.22248l61.60886-62.55669v56.65492a5.90177,5.90177,0,0,1-5.90177,5.90177Z"/><path d="M1681.73905,1396.857l61.60886-62.55668v56.65491a5.90177,5.90177,0,0,1-5.90177,5.90177Z"/><path d="M1784.60048,1294.49151l61.60885-62.55669v56.65492a5.90177,5.90177,0,0,1-5.90177,5.90177Z"/><path d="M1888.36568,1499.22248l61.60885-62.55669v56.65492a5.90177,5.90177,0,0,1-5.90176,5.90177Z"/><path d="M1784.60048,1601.588l61.60885-62.55669v56.65492a5.90177,5.90177,0,0,1-5.90177,5.90177Z"/><path d="M1846.21,1641.39893v56.65014a5.898,5.898,0,0,1-5.9,5.89991H1784.6l5.06-5.1399Z"/><line class="cls-2" x1="1966.1789" y1="1175.66498" x2="1633.81196" y2="1175.66498"/><line class="cls-2" x1="1900" y1="1128.2757" x2="1858.98299" y2="1128.2757"/><path class="cls-2" d="M2899.97692,1679.12406a5.66114,5.66114,0,0,1-.11164.782c-5.11274-.881-10.275-1.53877-15.4376-2.02292-5.10017-.48384-10.29986-.81892-15.54909-.94314,0-.09907.01227-.19844.01227-.29781.48414-6.01847,7.5656-13.82566,16.14066-13.14307C2893.619,1664.19379,2900.44864,1673.09318,2899.97692,1679.12406Z"/><path d="M2957.80005,1794.37891c-12.74-14.73-54.68-16.98-82.43-18.46973-5.64-.30005-10.5-.57007-14.59-.90015a51.80747,51.80747,0,0,1-30.64-13.22c-12.58-11.52-31.27-16.95-47.61-13.85009l-.65-3.39991-.29,1.04c-.04,0-.08.02-.12006.02-.26.06006-.5.11988-.76.17993-.63.1399-1.27.28-1.89.43995-.33.09008-.66.19018-.98.28-.55.1499-1.09.31005-1.63.49-.34.1101-.69.23-1.03.35009-.51.17993-1.02.36988-1.52.55982-.35.14013-.69.27-1.02.42016-.5.21-1,.42994-1.49.64991-.32.15991-.65.31005-.97.47-.51.25-1,.51-1.5.78-.29.15991-.59.32006-.87.48q-.84.49511-1.65,1.02c-.21.13012-.43.26-.64.40014-.74.49-1.47,1.00977-2.18,1.55982-.14.1101-.28.23022-.42.35009-.56.43995-1.12.89991-1.65,1.36988-.24.22021-.47.44018-.71.66015-.43.39991-.85.80005-1.27,1.22-.25.26-.49.53-.74.79-.38.40992-.75.82984-1.11,1.25-.25.29-.49.57984-.73.87989-.34.42993-.69.88012-1.02,1.33007-.22.31006-.45.61988-.67.93995-.33.47-.65.97-.96,1.46-.2.32007-.4.63012-.59.94995-.33.56006-.64,1.14013-.95,1.72021-.15.27979-.3.56006-.45.84986-.44.88012-.86,1.78-1.25,2.72-.47,1.12011-6.39,16.04-5.21,16.17016.58.05005,219.54,19.57007,219.54,19.57007l.05994-.36011-3.88989-.3601A13.86113,13.86113,0,0,0,2957.80005,1794.37891Z"/><path d="M2967.51,1764.39893c-1-19.75977-5.48-40.21-17.26-56.5-12.90991-17.84986-32.61-26.00977-53.38-29.58985-4.12-.71-8.27991-1.24-12.44007-1.63012-4.10986-.3899-8.29993-.65992-12.52991-.76-21.21008-.54-43.32995,3.04-60.02,16.66015-.0147.012-.028.02515-.0426.03711q-1.451,1.18689-2.80871,2.44873c-.37409.34717-.72266.7146-1.08661,1.06983-.5307.51806-1.07007,1.02929-1.58,1.56372-.40893.42846-.79278.87646-1.18878,1.31518-.43646.4834-.88269.95948-1.30389,1.45459-.4057.47681-.7884.97095-1.18042,1.45826-.38422.47753-.77735.94824-1.149,1.4353-.39258.5144-.76453,1.04394-1.14356,1.56836-.34576.47851-.69909.95117-1.034,1.43774-.37586.54566-.7334,1.10449-1.09607,1.65967-.31464.48169-.63556.95874-.94074,1.44727-.35772.5725-.6994,1.15551-1.04461,1.73657-.28894.48633-.58295.96924-.86353,1.46093-.34033.59668-.66675,1.20191-.99536,1.80616-.2655.48828-.53491.97387-.79315,1.46679-.3244.61914-.63709,1.24561-.95062,1.87134-.24524.48975-.49335.9773-.7323,1.47071-.30872.63745-.60767,1.28-.9065,1.92309-.228.49072-.458.98-.6806,1.47363-.29553.65528-.58307,1.31446-.86963,1.97412-.212.48829-.42535.97535-.63281,1.46583-.2829.66845-.55933,1.33911-.83441,2.011-.20069.49-.402.97949-.59888,1.471q-.40476,1.0111-.798,2.02466c-.19311.49585-.38641.991-.57635,1.48755q-.38763,1.01367-.76648,2.02758-.28263.75513-.56238,1.50928-.36739.99573-.72864,1.9895-.30011.82508-.59722,1.64844-.32035.88989-.6374,1.77686c-.09509.26611-.19207.53369-.2868.79931l.00189-.00024c-.19708.55346-.39605,1.10864-.59186,1.66015l.99128-1.71655a61.5321,61.5321,0,0,1,50.64874,15.29663,46.788,46.788,0,0,0,27.65991,11.91992c4.02.33008,8.86011.59009,14.46008.8899,28.6,1.53,71.80994,3.8601,85.94007,20.18017a19.05887,19.05887,0,0,1,4.41992,8.76A201.11878,201.11878,0,0,0,2967.51,1764.39893Z"/><path class="cls-2" d="M2717.96484,2224.07569c5.96785-16.59741,80.799-6.51319,93.30109-5.38086,38.45221,3.48266,81.40607,20.989,143.12714-.218,14.0957-4.84326,13.18858-23.67381,40.83575-16.8211"/><path class="cls-2" d="M3013.31,2229.439l86.47-135.37a.55469.55469,0,0,1,.06-.08,3.2891,3.2891,0,0,1,3.23-1.4,42.23153,42.23153,0,0,0,42.18-64.41.30844.30844,0,0,0-.52,0l-20.17,31.58a6.5504,6.5504,0,0,1-9.05,1.99l-18.21-11.63a6.5504,6.5504,0,0,1-1.99-9.05l20.17-31.57a.31756.31756,0,0,0-.23-.48,42.22108,42.22108,0,0,0-41.03,18.86c-.44.68-.87,1.38-1.28,2.09a42.39308,42.39308,0,0,0,1.62,44.41,3.27491,3.27491,0,0,1,.04,3.58l-89.09,139.49"/><path d="M2995.81006,2203.239l-.26.26c-.01-.25-.01-.5-.01-.75A2.07381,2.07381,0,0,1,2995.81006,2203.239Z"/><path class="cls-15" d="M535.76189,1783.84913s51.47669,13.04711,18.44494,43.79579"/><path class="cls-16" d="M2747.26423,2140.7681c-35.346,10.11726-66.69428-17.84125-66.69428-17.84125l-.34324-1.87426c-.462-2.52268,2.88613-6.78922,3.9711-8.96171,6.27171-12.55814,8.13657-26.387,12.828-39.53081a137.40683,137.40683,0,0,1,20.33423-37.151,122.35046,122.35046,0,0,1,92.89-47.83l12.26-.38"/><path class="cls-16" d="M3030.59251,2147.49232q-3.46785-.73156-6.88225-1.81122a83.21206,83.21206,0,0,1-2.11692-31.07026"/><path class="cls-16" d="M3101.8372,2093.50825q4.31373,8.96411,8.279,18.09035c2.67764,6.15808,9.68375,6.34515-.31807,12.72849-8.56835,5.46847-16.45092,12.13724-25.71134,16.32041a98.35671,98.35671,0,0,1-16.33672,5.72674"/><path class="cls-16" d="M3039.16184,2189.67322c2.98642,27.4393,6.34811,62.83119,7.17046,89.50023"/></g><g id="Layer_5" data-name="Layer 5"><circle class="cls-1" cx="611.96953" cy="1978.87252" r="7.08672"/><circle class="cls-1" cx="609.85554" cy="2032.61867" r="7.08672"/><path class="cls-17" d="M671.28453,2000.20274l-29.94073-31.47748q10.65907,11.09292,21.32789,22.17607C665.5359,1993.88542,668.37037,1997.06906,671.28453,2000.20274Z"/><path class="cls-1" d="M939.43373,1817.04556c-4.81048,4.8103-15.72887,14.00206-26.31789,24.59121-10.589,10.59889-26.63727,17.77487-41.28826,21.05816-1.42717.31944-4.63084,7.25566-5.39934,8.4335-15.78875,24.20209-33.324,47.18638-49.65171,71.01932-8.73271,12.75478-17.20593,25.91866-27.1562,37.76533l-.02.02L777.73383,1992.578l-.02991.03a.03094.03094,0,0,0-.02.01c-.64874.479-21.56735,15.649-34.94078,20.95851-2.22557.87814-4.43129,1.63665-6.64688,2.28551-3.034.71855-6.15785,1.46707-9.34149,2.13566a122.75954,122.75954,0,0,1-25.39967,1.22755,21.2102,21.2102,0,0,1-3.543-.42908,35.63189,35.63189,0,0,1-4.611-1.527c-7.47519-3.064-13.573-8.3933-19.212-14.21186a.223.223,0,0,1-.03983-.04995l-2.42526-2.545-.23951-.2595c-2.91416-3.13368-5.74863-6.31732-8.61284-9.30141q-10.674-11.09326-21.32789-22.17607l18.38365-15.92867c7.10593,7.38553,10.36949,10.77871,17.47541,18.17423,9.1819,9.54093,17.91461,21.19778,30.53952,26.36772,12.81472,5.24962,27.09638,2.31524,39.98091-.71855h.01a95.50908,95.50908,0,0,0,18.86256-11.2977c18.82279-14.38144,32.376-34.03272,46.518-52.7257,17.42552-23.04422,36.01872-45.19032,52.92519-68.62416.81839-1.12765,4.34144-7.91426,5.78859-8.16377,14.78074-2.6047,31.1483-9.02217,42.22641-19.10207,10.32952-9.40156,20.87865-17.57532,26.32788-22.3459C940.68127,1815.13918,940.43176,1816.04753,939.43373,1817.04556Z"/><circle cx="612.40365" cy="1974.25373" r="7.08672"/><circle cx="610.28966" cy="2027.99989" r="7.08672"/><path class="cls-18" d="M713.56086,1936.65863l-18.59319-22.25594-.56887-.67866-26.288-31.4677-.25949-.30939-28.19418-33.76316a102.23271,102.23271,0,0,0-73.41318-37.0909"/><path class="cls-19" d="M628.20989,1923.15532l39.64149-41.20846.2595.30945L694.3988,1913.724l-52.38506,54.30715"/><path class="cls-19" d="M932.89665,1773.45172a.29526.29526,0,0,1,.03992-.02994,30.96332,30.96332,0,0,0,4.35139-3.20366,20.33238,20.33238,0,0,0,1.74654-1.72658c2.3753-2.66472,3.75257-5.93824.08982-8.55307-1.11778-.79841-4.01205.11977-7.87441,2.06591-2.68468,1.35732-5.83844,3.20366-9.18182,5.30949-5.45919,3.44319-11.4174,7.555-16.64705,11.28766-2.61482,1.87628-5.05,3.65277-7.15583,5.1997-4.49111,3.31344-7.4752,5.6089-7.4752,5.6089-7.45524,6.88637-12.60505,11.89645-18.36365,17.1261-1.92618,1.73656-3.92223,3.50306-6.09793,5.36937-2.13577,1.84634-4.45118,3.78251-7.04605,5.88834-5.74862,4.68073-13.71285,8.9423-18.49339,14.57115-4.01205,4.74062-5.03,12.49527-10.25969,16.22788-24.0424,17.176-54.12285,40.27028-78.784,56.54805-18.57323,12.25574-50.38026,30.839-48.13471,58.01515"/><path class="cls-19" d="M895.97973,1829.27122s8.45327-3.47313,16.51792-7.49547c7.83458-3.89682,14.14091-10.73019,23.61466-9.50913,2.715.34993,6.09319,2.007,3.3214,4.7788-2.90425,2.90425-8.04407,7.41532-13.9923,12.86453-2.34536,2.15574-4.82046,4.44121-7.3255,6.84645q-2.48508,2.38029-4.99012,4.88034a65.65693,65.65693,0,0,1-11.75672,9.18182c-2.18568,1.35732-4.46117,2.62481-6.79655,3.79249a100.55064,100.55064,0,0,1-22.745,8.084c-1.42718.31937-4.63083,7.25564-5.39931,8.43331-15.78875,24.1921-33.324,47.18658-49.65171,71.0194-13.24378,19.34171-25.85881,39.6016-44.00289,54.84143A88.30871,88.30871,0,0,1,736.4755,2015.772c-13.71285,3.25356-29.35189,7.19575-43.26435,1.497-12.625-5.16977-21.35772-16.82669-30.53954-26.3678q-10.65891-11.093-21.32778-22.1761"/><path class="cls-19" d="M888.19515,1812.34473c1.9661-2.59487,3.4332-6.49714,6.80652-10.29961a70.31174,70.31174,0,0,1,7.62491-6.60692c2.75454-2.16572,5.94822-4.571,9.20178-6.96621,6.6169-4.88034,13.52323-9.7507,17.54527-12.57511,2.18567-1.517,3.523-2.44516,3.523-2.44516s.01125-.00794.03953-.02968c4.51256-3.47,8.67729-7.26156,13.98986-9.50321,2.07994-.87764,4.926-2.20748,7.19752-1.30554,3.19418,1.26837,2.6105,5.213,1.22568,7.5646-2.19822,3.73288-5.69536,6.73767-8.85815,9.6262-.92816.84832-1.88626,1.64674-2.85434,2.3753-.56888.42915-1.20761.9082-1.91621,1.44713-5.66873,4.29147-15.38938,11.78655-22.56586,17.32611-3.31652,2.56-6.752,4.7133-8.77623,8.5333-2.33939,4.41487-3.51711,9.822-5.06719,14.5756"/><path class="cls-18" d="M632.63108,2097.01118c5.06-47.8353,16.20791-95.8203,5.60889-143.24642-4.00924-18.04159-11.224-33.20758-21.62851-48.41411"/><path class="cls-18" d="M586.17829,2057.237c6.78439-49.21588,12.191-96.07532,2.844-145.43734a228.224,228.224,0,0,0-45.24532-99.06559"/><line class="cls-20" x1="693.72887" y1="1911.43596" x2="641.3438" y2="1965.7431"/></g></svg>