<svg xmlns="http://www.w3.org/2000/svg" viewBox="0 0 1200 1200"><defs><style>.cls-1{fill:#fff;}</style></defs><g id="artwork"><path d="M294.71629,783.89753a15,15,0,0,1-11.53809-24.5752,410.21394,410.21394,0,0,1,630.41992-1.61426A14.99975,14.99975,0,0,1,890.604,776.97565a380.21624,380.21624,0,0,0-584.334,1.49707A14.96689,14.96689,0,0,1,294.71629,783.89753Z"/><path d="M781.28465,962.04889a15.00282,15.00282,0,0,1-13.90137-9.35742,181.68907,181.68907,0,0,0-335.66211-2.36719,15.00014,15.00014,0,1,1-27.63086-11.68554,211.68639,211.68639,0,0,1,391.08594,2.75976,15.0089,15.0089,0,0,1-13.8916,20.65039Z"/><path d="M469.83738,456.68341q-8.81982,2.01-17.58008,4.3-8.31006,2.175-16.56982,4.6a578.22991,578.22991,0,0,0-244.05029,144.35,15.00129,15.00129,0,1,1-21.11963-21.31,606.81521,606.81521,0,0,1,192.85009-129.07q25.45459-10.695,51.58985-18.99,7.59009-2.415,15.24023-4.62,7.84424-2.265,15.73975-4.31A195.8573,195.8573,0,0,0,469.83738,456.68341Z"/><path d="M599.0576,412.24341q8.685,0,17.33984.24a19.35927,19.35927,0,0,1-35.94971.04Q589.73192,412.23847,599.0576,412.24341Z"/><path d="M1029.52732,611.75342a14.98025,14.98025,0,0,1-21.21,0,578.122,578.122,0,0,0-246.8999-146.46q-8.25-2.415-16.56983-4.57-8.76049-2.27994-17.60009-4.27a196.14986,196.14986,0,0,0,23.87011-25.11q7.90431,2.04006,15.75,4.29,7.64941,2.18994,15.25,4.59,27.315,8.61,53.90967,19.86005a606.909,606.909,0,0,1,193.5,130.46A14.99253,14.99253,0,0,1,1029.52732,611.75342Z"/><path class="cls-1" d="M583.41746,336.9234v-141.43a15,15,0,0,1,30,0v141.43a15,15,0,0,1-30,0Z"/><path class="cls-1" d="M617.76756,405.31342a19.355,19.355,0,1,1-19.3501-19.36A19.21867,19.21867,0,0,1,617.76756,405.31342Z"/><path class="cls-1" d="M598.41746,100.00342c-116.03027,0-210.08984,94.05-210.08984,210.08a210.085,210.085,0,1,0,420.16992,0C808.49754,194.05341,714.43748,100.00342,598.41746,100.00342Zm152.70019,331.34a194.99351,194.99351,0,0,1-305.18017.29,194.08734,194.08734,0,0,1-42.60986-121.55c0-107.57,87.52-195.08,195.08984-195.08,107.56006,0,195.08008,87.51,195.08008,195.08A194.07625,194.07625,0,0,1,751.11765,431.34339Z"/><path d="M757.56736,150.9234a225.10834,225.10834,0,0,0-342.60986,289.64,226.24027,226.24027,0,0,0,20.73,25.02q1.77026,1.845,3.56982,3.65a225.06516,225.06516,0,0,0,318.31006,0q1.95043-1.95,3.8501-3.94a226.51835,226.51835,0,0,0,20.70019-25.07,225.18907,225.18907,0,0,0-24.55029-289.3Zm-30.31982,305.53a195.09736,195.09736,0,0,1-323.91992-146.37c0-107.57,87.52-195.08,195.08984-195.08,107.56006,0,195.08008,87.51,195.08008,195.08a194.07625,194.07625,0,0,1-42.37989,121.26A196.14986,196.14986,0,0,1,727.24754,456.45343Z"/><path d="M613.41746,195.49341v141.43a15,15,0,0,1-30,0v-141.43a15,15,0,0,1,30,0Z"/><path d="M617.76756,405.31342a19.355,19.355,0,1,1-19.3501-19.36A19.21867,19.21867,0,0,1,617.76756,405.31342Z"/><path d="M600.00047,1117.38581a49.12842,49.12842,0,1,1,49.12793-49.12891A49.18446,49.18446,0,0,1,600.00047,1117.38581Zm0-68.25684a19.12842,19.12842,0,1,0,19.12793,19.12793A19.1502,19.1502,0,0,0,600.00047,1049.129Z"/></g></svg>