<svg xmlns="http://www.w3.org/2000/svg" viewBox="0 0 3600 2400"><defs><style>.cls-1,.cls-4{fill:#32b2ae;}.cls-1,.cls-3{opacity:0.44;}.cls-2,.cls-5,.cls-6,.cls-7{fill:none;stroke:#000;stroke-linecap:round;stroke-linejoin:round;}.cls-2,.cls-5,.cls-6{stroke-width:5px;}.cls-5{stroke-dasharray:14.69381 24.48969;}.cls-6{stroke-dasharray:15 25;}.cls-7{stroke-width:5.46832px;}</style></defs><g id="shadows"><path class="cls-1" d="M3195.34009,1127.39733v23.91992H1810.22l-1.27517-27.36885c2.14,1.89,9.12288,10.96492,12.20289,10.96492l1360.2064.92183C3188.044,1135.83515,3195.34009,1134.08727,3195.34009,1127.39733Z"/><path d="M3181.04,402.00732H2869.95a2.03509,2.03509,0,0,0-1.95,2.65c1.3,4.15991,3.06006,9.28,5.1,14.80994a2.04531,2.04531,0,0,0,1.92,1.32995H3164.7a14.32481,14.32481,0,0,1,14.3,14.31006v673.35a14.3247,14.3247,0,0,1-14.3,14.30993H1840.87a14.32685,14.32685,0,0,1-14.31-14.30993v-673.35a14.327,14.327,0,0,1,14.31-14.31006h623.51a2.04207,2.04207,0,0,0,.13-4.07995c-14.28-.94007-26.93-5.97-35.62-14.16a2.07144,2.07144,0,0,0-1.4-.54992H1824.52a18.40264,18.40264,0,0,0-18.38,18.39V839.30724l14.57-.3999a5.013,5.013,0,0,1,4.56,2.65991,4.95223,4.95223,0,0,1-.37,5.27l-18.76,25.93994v80.9701l2.47,6.94006a4.97454,4.97454,0,0,1-1.13,5.15991,5.11108,5.11108,0,0,1-1.34.99v238.05005a18.39406,18.39406,0,0,0,18.38,18.37988H3181.04a18.394,18.394,0,0,0,18.37988-18.37988v-784.49A18.40261,18.40261,0,0,0,3181.04,402.00732Zm14.30005,802.88a14.32293,14.32293,0,0,1-14.30005,14.30005H1824.52a14.32284,14.32284,0,0,1-14.3-14.30005v-73.81006a16.34688,16.34688,0,0,0,14.3,8.43994H3181.04a16.335,16.335,0,0,0,14.30005-8.43994Z"/><path d="M3008.70219,1053.32873c-53.81092,7.42029-129.78724-44.98633-133.40186-43.55054,0,0-3.47316,16.922-5.23644,19.34647s-6.6123,7.05313,1.76328,13.22461,45.62489,28.21249,62.81687,32.8411,57.527,15.4287,61.274,11.24091S3008.70219,1053.32873,3008.70219,1053.32873Z"/><path d="M743.65438,1778.7995c2.87684,30.72536,6.78449,67.38731,10.90273,91.06718,2.32307,13.35706,6.03924,64.08694,23.10075,67.41981,51.9242,10.14306,116.15283-8.71479,166.24746-25.12845a25.29064,25.29064,0,0,0,17.17742-20.88355c3.43647-27.194,5.91428-78.8476,4.097-121.43736l-4.0813-34.43549c-13.90314,19.57471-91.95331,82.23-100.95734,81.18213-12.81225-1.491-119.87726-60.519-118.65088-63.48853Z"/><polygon points="2612.12 1276.457 2392.61 1276.457 2397.79 1266.407 2421.06 1221.227 2584.5 1221.227 2606.54 1265.297 2612.12 1276.457"/><circle cx="2502.36499" cy="1180.37225" r="18.1029"/><path class="cls-2" d="M774.30973,2025.10892c66.97033-2.688,132.19685-10.24037,195.437-23.33314l9.53592,85.61242a96.54436,96.54436,0,0,1-86.90149,107.55249l-.00019,0a96.54436,96.54436,0,0,1-104.15543-80.01863Z"/><path class="cls-1" d="M961.1,1735.39733c-13.9,19.57984-91.95,82.23-100.96,81.18994-12.81-1.49-119.88-60.52-118.65-63.49l-2.1495-16.57457c32.3,18.48,115.29952,59.26451,123.84951,60.2545,6.74.79,67.0134-50.63344,95.2634-76.45351Z"/><path d="M746.28609,1533.84477a4.26016,4.26016,0,0,0-7.74069-.85583c-5.27952,9.00349-15.22543,19.36373-28.99,5.15392-14.08235-14.53785-21.6297-40.50668-23.06739-60.18582a35.80922,35.80922,0,0,1,1.511-13.8579c2.39044-7.20188,7.97179-13.33153,15.7942-14.285,30.3413-3.69171,35.26771,61.69794,67.69092,43.86476,24.56277-13.50982-33.15751-73.68767,24.56048-85.97281,58.16912-12.38207,133.73329-46.66075,164.08309-100.83935,20.59249-36.76046-10.75293-139.11556-65.77318-108.5709-23.59067,13.09649-44.59163,24.47633-72.28311,19.06792-20.71384-4.04561-42.11939-11.594-63.2723-5.88615-30.2168,8.15437-55.4942,27.41216-86.29667,34.63482-89.044,20.87931-134.98938,134.57271-103.05634,232.82822s60.18151,157.20882,169.49077,147.38327C738.93682,1626.32394,771.11388,1612.56119,746.28609,1533.84477Z"/><path class="cls-1" d="M574.36,2140.88732c-.18006,4.31006-.30994,8.01-.32,9.03-.02,17.32984-128.03-76.01-128.37-97.59009a17.77818,17.77818,0,0,1,1.55994-6.97c.55.66992,1.11011,1.33008,1.66,1.98,29.97,35.49,56.6,56.42017,123.18006,92.32007C572.83008,2140.06725,573.59009,2140.47717,574.36,2140.88732Z"/><path d="M1096.41,1905.4674c-27.59,16.23-20.4,116.35986-8.56,209.47l.13-.13013c-2.61,10.38013-8.02,18.5-18.37,19.72-32.31,3.8-37.31995-85.8999-38.43995-104.53979-2.98-49.28027,5.43995-97.98,9.05-146.97022,3.57-48.37988,4.7-96.93994,9.53-145.23a36.04821,36.04821,0,0,0-8.77-27.51l-1.65-.05981c22.79-6.21,45.14-17.33008,67.07-31.9502,21.99-14.66992,41.71-43.31982,60.7-61.54a124.682,124.682,0,0,1,7.68,11.47021c24.11,40.08984,47.41,115.87988,57.86,152.43994,3.66,12.79,5.74,20.78,5.74,20.78C1241.27,1810.06725,1130.88,1885.18737,1096.41,1905.4674Z"/><path class="cls-1" d="M1247.34,1763.48742l-14.7,17.1499c-10.45-36.56006-33.75-112.3501-57.86-152.43994,2.92-2.41016,7.9-6.66016,7.9-6.66016S1229.08,1675.79723,1247.34,1763.48742Z"/><g class="cls-3"><path class="cls-4" d="M668.97,2217.53722c-22.36987,0-34.68994-28.7998-42-48.7L628.9,2138.52721c5.26,14.3501,14.15,35.3,30.34,35.3,26.75,0,29.48-89.98,15.07007-217.55005-14.4-127.57006-34.97-183.11987-22.63013-201.63989l-.16992-.06006,14.57007-2.51-.05.47c7.1499,41.34009,16.14,94.79,23.85,163.14014C709.88,2092.68737,706.09009,2217.53722,668.97,2217.53722Z"/></g><g class="cls-3"><path class="cls-4" d="M1543.31,1238.03722s-60.19,60.48-62.78,61.63013c-1.64.73-4.55-.8501-6.47-2.12012-2.53,4.78-5.46,11.37012-6.22,17.42005-1.4,11.20007,0,33.13-20.07,42.93-20.06,9.79-35.45,5.12988-35.45,5.12988s34.05-1.3999,41.52-27.05993c7.46-25.66,3.27-34.05994,19.13-48.52991l4.04,2.56995,1.22-1.56995,61.34-52.71008Z"/></g><g class="cls-3"><polygon class="cls-4" points="1418.383 1266.632 1443.037 1278.261 1446.758 1273.144 1424.43 1262.911 1418.383 1266.632"/></g><g class="cls-3"><path class="cls-4" d="M1975.0424,959.13268s-1.64564,14.81078,6.58257,16.45642,65.27714,10.4224,65.82569,14.26223-82.83066-10.4224-82.83066-10.4224l-3.29128-13.71368Z"/></g><g class="cls-3"><path class="cls-4" d="M2012.89217,1020.02144s8.22524,15.90213,3.84221,24.13163c-2.11683,3.97451-4.49737,5.079-4.12572,9.925.39442,5.14282,3.98746,9.94341,1.11446,16.19641-1.599,3.48024,6.62412,12.01585,3.042,17.069-2.729,3.84963-7.16423.69788-7.16423-1.49631s-2.74274-12.61659-6.58257-13.16514,14.26223-11.51949-3.29129-20.29625c0,0,22.49045-13.16514.54855-30.71865Z"/></g><path class="cls-1" d="M2109.30794,1068.57665s4.45271-13.882-.26132-24.88357c-.896-2.09113,7.83751-1.05291,8.19959-.94436,6.13836,1.84029,10.52588,7.34488,16.8393,8.68935,5.17864,1.10282,11.56907-.00372,16.82528-.52844,12.79387-1.27719,25.48368-3.666,38.09524-6.11628,23.68786-4.60231,47.59029-11.43033,71.677-13.55432,1.08254-.09546,2.16526-.18177,3.25226-.22281C2290.2469,1030.02333,2109.30794,1068.57665,2109.30794,1068.57665Z"/><path class="cls-1" d="M2371.82,999.78722l-11.69,4.38013c-8.34-10.65015-16.48-21.5-24.29-32.55005a212.82338,212.82338,0,0,1-15.95-25.39c-1.33-2.57-15.04-27.84-15.04-27.93006l5.91-5.8999,17.9,22.94995c12.31,18.73,26.38,47.32007,37.67,58.61C2368.13,995.75732,2369.96,997.7373,2371.82,999.78722Z"/><path d="M2437.14,1003.28722s-.82.81006-2.3,2.1001c-4.66,4.08-15.82,12.94995-27.93006,15.91992-13.49,3.31006-24.81994-10.18994-35.09-21.52-1.86-2.04992-3.69-4.0299-5.49-5.83-11.29-11.28992-25.36-39.88-37.67-58.61-.47-.72-.94-1.41992-1.4-2.1-12.62-18.64-19.54-27.66-19.54-36.67,0-9.02,31.44-16.23,31.44-16.23,3.1,10.08008,22.62006,68.53,67.9,104.62A134.6939,134.6939,0,0,0,2437.14,1003.28722Z"/><path class="cls-1" d="M2581.12,890.28722l-1.74,14.75s-106.48,88.21009-144.54,100.3501c1.48-1.29,2.3-2.1001,2.3-2.1001a134.6939,134.6939,0,0,1-30.08-18.31994c7.94.15,37.91-1.35,78.61-28.74C2533.4,924.12731,2581.12,890.28722,2581.12,890.28722Z"/><path class="cls-1" d="M2601.67107,677.66264s137.35616,86.66443,299.73769-20.9378l-8.66621-5.25854c-86.91833,53.32495-180.63562,60.355-280.9226,22.05847Z"/><path class="cls-1" d="M2752.81225,552.15912c-8.43817,18.63149-29.6809,32.27619-49.376,35.40658-2.24615.357-23.91787,2.91565-24.74039.82192l-3.069-7.81194c1.689,4.29927,35.44641-6.11708,39.15748-7.49545C2728.4453,568.00625,2740.9975,560.61988,2752.81225,552.15912Z"/><path class="cls-1" d="M2600.2,432.32726a55.8044,55.8044,0,1,1-2.27-15.8A55.83949,55.83949,0,0,1,2600.2,432.32726Z"/><path class="cls-1" d="M2605.71,444.96728a55.84145,55.84145,0,0,1-92.12,42.46008l1.37-7.62012a55.86415,55.86415,0,0,0,82.97-63.28A55.47218,55.47218,0,0,1,2605.71,444.96728Z"/><path class="cls-1" d="M2731.08,398.29723a55.86588,55.86588,0,1,1-13.97-36.93994A55.83949,55.83949,0,0,1,2731.08,398.29723Z"/><path class="cls-1" d="M2742.34,408.06725a55.84647,55.84647,0,0,1-97.76,36.9,55.83737,55.83737,0,0,0,72.53-83.61A55.76673,55.76673,0,0,1,2742.34,408.06725Z"/><path class="cls-1" d="M2826.6,423.90734c-2,5.30994-4.56,8.45-7.37,10.09a29.86654,29.86654,0,0,0,1.57-3.52c6.52008-17.32,3.39-41.85-2.57-58.88a32.87348,32.87348,0,0,0-6.31-11.07007c-4.63-5.16992-11.54-8.2799-18.45-6.22991a18.21572,18.21572,0,0,0-5.96,3.1c2.77-4.45007,6.66-8.16,11.76-9.67,6.9-2.05,13.82,1.06,18.45,6.23a32.87522,32.87522,0,0,1,6.31006,11.06994C2829.99,382.05724,2833.12,406.58727,2826.6,423.90734Z"/><path class="cls-1" d="M2872.6455,335.98987l-18.79146-7.02259a579.79548,579.79548,0,0,0-78.06-20.82c-99.01-18.73-166.15.41-210.43,27.52a212.51845,212.51845,0,0,0-54.16185,47.39859l22.32061-1.83363s51.15916-60.81183,134.17212-66.60343,199.81028,32.81908,199.81028,32.81908Z"/><path class="cls-1" d="M2793.44,248.60729c-44.67,1.46-89.89,9.41-133.66,17.82-49.89,9.58-102.58,22.48-148.45,46.35q-9.42,4.89-18.43,10.44c-19.24,11.86-42.71,27.29-40.56,52.37,1.9,22.27,17.37994,35.62,36.24,40.82007-31.26,8.38989-71.37-4.07007-74.51-40.82007-2.15-25.07995,21.32-40.51,40.56-52.37q9-5.55,18.43-10.44c45.87-23.87,98.56-36.77,148.45-46.35,43.77-8.41,88.99-16.36,133.66-17.82,24.38-.79,49.4-2.9,74.02-1.53C2817.2,247.52728,2805.24,248.21728,2793.44,248.60729Z"/><path class="cls-1" d="M2673.17418,301.15341a179.6286,179.6286,0,0,1,94.62191-7.94619q.29177.05482.58391.11009a579.794,579.794,0,0,1,78.05994,20.82l1.33008.49c20.03,7.49,42.91992.92,55.16992-16.61,4.58008-6.56,7.09009-13.93,5.39014-22.27a35.0528,35.0528,0,0,1,6.03992,10.07c9.27,24.3-17.18006,40.78-33.51,53.24l-27.01-10.09a579.79587,579.79587,0,0,0-78.06-20.82c-39.99986-7.56688-74.79808-8.95282-104.98876-6.12939Z"/><path class="cls-1" d="M2829.88937,392.34458a81.31956,81.31956,0,0,1,17.52012,22.87343,87.23291,87.23291,0,0,1,10.0155,41.56946,103.45756,103.45756,0,0,1-6.75486,34.96029"/><path class="cls-1" d="M3033.0745,866.9964c25.88484-25.86214,42.44111-60.64465,39.20778-98.03044-4.27342-49.412-58.31182-72.04581-76.30395-114.998-11.16682-26.66023-3.40839-53.46578-6.37845-81.082-3.68687-34.28128-28.80648-61.9678-52.435-85.6939-17.12222-17.19294-39.57139-29.43826-52.89231-49.47525-19.30943-29.04478-21.581-68.70617-12.98079-101.824-7.38777,28.44913-15.45485,51.41269-5.8444,81.965,9.50005,30.20132,30.69934,52.107,54.4768,71.87361,24.00991,19.96,42.29535,47.18583,49.38533,77.7747,9.31039,40.1686-6.40017,81.2981,23.69045,115.427,25.3795,28.78555,62.194,61.9649,62.06461,103.2319-.07008,22.349-9.8644,46.71507-25.80962,62.66095Z"/><path class="cls-1" d="M2509.73832,753.16759c-2.37463-1.03347-3.65169-33.96515-3.3223-36.89177a90.056,90.056,0,0,1,13.91776-39.26749c14.2314-21.54913,39.84451-37.246,38.10921-66.34023-1.47091-24.66159-24.23534-40.30924-34.64847-61.08062-10.76932-21.48189-12.18887-50.88351-6.73966-74.46929-1.48221,19.0057.92257,40.46658,10.6412,57.25039,11.48564,19.83539,29.83665,35.65073,38.69537,57.04,11.30917,27.30584-1.66643,50.25232-18.368,71.94108-9.76539,12.68139-21.19484,26.56762-25.12159,42.4603-3.44954,13.96123,4.81937,42.83226-12.95121,49.36447A.27557.27557,0,0,1,2509.73832,753.16759Z"/><path class="cls-1" d="M2593.42927,146.2875c39.21822,8.92839,77.24542-9.73847,116.35282-9.09076,29.346.486,74.28722,14.7314,91.08055,41.12091"/><path class="cls-1" d="M935.13978,1357.08677a14.41593,14.41593,0,0,1,3.39445,5.77723c1.2974,5.43162-3.31665,10.68208-8.46071,12.8574-30.00671,12.68924-63.78344,21.12109-94.92435,30.87386-25.54791,8.00115-56.64031,8.4871-49.25062,44.90875,1.92287,9.47709,5.70735,18.53811,7.10171,28.10726.58063,3.98481.71744,8.17442-.77611,11.9141-4.03348,10.09939-19.27359,11.9581-27.47021,4.81093,5.74024.00122,10.6152-4.86559,12.29243-10.35533s.79075-11.4241-.58626-16.99672c-2.3612-9.55554-6.13525-18.83812-6.97487-28.6539-.84473-9.899,2.059-20.09829,10.64814-25.83784,5.753-3.84436,12.61843-5.57395,19.31586-7.31206,45.14562-11.71619,87.45545-29.20082,124.49843-58.04067a2.71378,2.71378,0,0,1,4.60005.34583l5.92217,6.82327C934.69314,1356.5661,934.91735,1356.82513,935.13978,1357.08677Z"/><path class="cls-1" d="M882.19,1387.41735c3.29-1.40015,6.55-2.6001,9.76-3.64014a331.73711,331.73711,0,0,1-40.48,17.1001C859.42,1397.42736,869.18,1392.94738,882.19,1387.41735Z"/><path class="cls-1" d="M935.24,1356.60729c-.09.07007-.19.15-.28.22-3.14-3.63-6.31-7.04-8.92-9.74q.615-.525,1.23-1.05005C930.28,1349.89733,933.02,1353.56725,935.24,1356.60729Z"/><path d="M1636.21,1052.30724c-.26-.86-.53-1.72-.82-2.56994v-.01c-.26-.80994-.54-1.6-.82-2.39-.28-.80005-.58-1.59-.88-2.38-9.02-23.39-25.72-41.16-47.67-50.49-17.59-7.48-37.54-7.36-57.58.11h-.01c-.79.29-1.58.6001-2.37.92-.79.30993-1.58.64-2.37.98a114.44346,114.44346,0,0,0-13.21,6.75c-23.31,13.84-43.38,36.6-53.71,60.89a85.97818,85.97818,0,0,0-4.54,15.48,85.20157,85.20157,0,0,0-8.13-13.93994c-15.87-21.08008-40.83-38.33008-66.79-46.15-28.8-8.68006-55.59-5.24012-75.42,9.68994-19.19,14.44006-31.39,36.9801-34.36,63.47009-3.27,29.12988,5.23,58.86987,22.73,79.54993,33.04,39.04992,84.4,65.82995,130,89.4l1.44.75c.66.34,1.31.67993,1.96,1.01.74.38989,1.48.77,2.21,1.13989,6.23,3.23011,12.23,6.3501,18.14,9.48011.52.26989,1.03.53991,1.54.81994.71.37012,1.42.75,2.13,1.13.29.15.58.31006.87.46008.55005-.64014,1.12-1.28,1.69-1.92.56-.64,1.14-1.28,1.72-1.92-.64-.35-1.28-.68994-1.92-1.03l-2.64-1.40991c-5.18-2.75-10.42-5.48-15.81-8.27q-2.79-1.455-5.64-2.91992c-.65-.34009-1.3-.67017-1.95-1.01-45.55-23.55-97.18-50.2301-129.93-88.94006-16.62-19.65-24.69-47.9701-21.57-75.77,2.81-25.1,14.32-46.42005,32.39-60.02991a66.26076,66.26076,0,0,1,29.29-12.33008,79.40343,79.40343,0,0,1,12.94-1.04,99.60789,99.60789,0,0,1,28.75,4.48c24.97,7.52,48.98,24.11011,64.24,44.37012,3.37,4.48,7.02,11.27991,10.84,20.18994a2.49547,2.49547,0,0,0,4.76-.58008c1.56-9.56994,3.47-17.03991,5.67-22.21,9.92-23.34,29.23-45.22,51.65-58.54.59-.34985,1.18-.68994,1.76-1.01989a108.35559,108.35559,0,0,1,9.78-4.96009c.79-.35,1.58-.68994,2.36-1.01.79-.33,1.58-.63989,2.37-.93994h.01c19.14-7.34,38.13-7.6,54.75-.53a80.11871,80.11871,0,0,1,31.64,24.19007,89.106,89.106,0,0,1,12.95,22.56994c.32.78.62,1.58008.9,2.38.30005.79.59,1.59.85,2.39.05.13.09.26.13.39.31.91.61,1.84.89,2.77.77,2.51989,1.43,5.06994,2,7.65a111.82812,111.82812,0,0,1-5.74,66.28,98.24629,98.24629,0,0,1-8.38995,15.94995c-25.30005,38.83-62.81,72.08-99.09,104.24-6.79,6.02-13.21,11.71-19.6,17.48-4.67,4.22-9.43,8.48-14.38,12.88q-4.275,3.80986-8.75,7.76c-.46-.24-.91-.48011-1.37-.71009q-2.23508-1.16985-4.43-2.31994-.57,1.14-1.17,2.22009c-.41.74-.82,1.47-1.24,2.16992.8.41992,1.61.84,2.43,1.27.66.35,1.34.69995,2.01,1.05.99.51,1.98,1.02991,2.98,1.54993a2.47109,2.47109,0,0,0,1.15.28,2.51728,2.51728,0,0,0,1.66-.62c8.71-7.68,16.71-14.82007,24.46-21.82007,6.37-5.75,12.78-11.43994,19.57-17.45q7.335-6.49512,14.7-13.07007h.01c.8-.73,1.6-1.43994,2.4-2.16992,1.01-.9,2.02-1.81006,3.03-2.71,29.83-26.91,58.86-55.13013,79.82-87.30005a103.47815,103.47815,0,0,0,8.82-16.76A116.71116,116.71116,0,0,0,1636.21,1052.30724Z"/><g class="cls-3"><path class="cls-4" d="M1460.01,1264.3673c-2.67,2.43994-5.42,5.30005-8.05,8.2-.58.64-1.16,1.28-1.72,1.92-.46-.25-.92-.49-1.38-.74-1.05-.55994-2.11-1.13-3.17-1.69007q-8.325-4.40991-16.97-8.86987h-.01c-1.86-.97009-3.74-1.94006-5.61-2.92017h-.01c-46.7-24.13989-97.8-50.50988-130.93-89.65991-32.68-38.63-31.39-107.34009,11.23-139.41,11.42-8.6,24.7-12.88,38.6-13.71a68.85824,68.85824,0,0,0-7.81,3.37,66.26076,66.26076,0,0,0-29.29,12.33008c-18.07,13.60986-29.58,34.92993-32.39,60.02991-3.12,27.79992,4.95,56.12,21.57,75.77,32.75,38.71,84.38,65.39,129.93,88.94006.65.33984,1.3.66992,1.95,1.01q2.85,1.47,5.64,2.91992c5.39,2.79,10.63,5.52,15.81,8.27,2.6-2.91,5.25-5.72,7.9-8.22C1456.88,1262.72729,1458.45,1263.53722,1460.01,1264.3673Z"/><path class="cls-4" d="M1488.59,1279.4873c-.47.42-.93.83-1.39,1.24a.02153.02153,0,0,0-.02.02c-3.28,2.9-6.4,5.67-9.35,8.26-.01-.01-.02-.01-.03-.02-.94-.48-1.9-.98-2.87-1.48q-2.16-1.14-4.43-2.31995.6-1.08014,1.17-2.22009a61.5641,61.5641,0,0,0,4.1-10.25q2.28,1.21489,4.49,2.38c2.03,1.08008,4.02,2.12,5.96,3.14C1487.02,1278.65734,1487.81,1279.07726,1488.59,1279.4873Z"/></g><path d="M1528.87,997.10729l.43,2.49c-.79.30005-1.58.61-2.37.93994-.78.32007-1.57.66-2.36,1.01l-.44-2.52-.44-2.54992-35.91-206.74c-.04-.25-.08-.5-.11-.74-.02-.12-.04-.23011-.05-.34a1.47744,1.47744,0,0,1-.01-.21008.01872.01872,0,0,1,0-.02991,2.50593,2.50593,0,0,1,2.25-2.5,1.20932,1.20932,0,0,1,.19-.01,2.49994,2.49994,0,0,1,2.54,2.2c.01.09.02.18994.04.29.02.15991.04.31995.07.48v.01l35.73,205.68994Z"/><path d="M1769.23,1093.77721c-.23.13013-.47.25-.71.36011s-.48.22-.72.30994a12.18844,12.18844,0,0,1-1.48.4801q-.345.0749-.69.1499c-.2.04-.4.07007-.6.1001a3.95421,3.95421,0,0,1-.48.05994,11.64046,11.64046,0,0,1-1.31.06994c-.36,0-.73-.02-1.09-.04992a12.381,12.381,0,0,1-4.31-1.23011c-.19-.08984-.39-.19995-.58-.30993a.03659.03659,0,0,1-.03-.01,4.96287,4.96287,0,0,1-.49-.29993,13.70957,13.70957,0,0,1-1.4-1.04c-.15-.13-.3-.26-.45-.4l-1.84-1.74-58.63-50.73-59.03,10.23-4.99.87-.07.01-2.48-4.64.8-.14,5.04-.87,61.04-10.59a2.44392,2.44392,0,0,1,1.08.05005,1.722,1.722,0,0,1,.21.07.94835.94835,0,0,1,.21.09h.01a2.78471,2.78471,0,0,1,.37.22,2.18881,2.18881,0,0,1,.18005.14014L1756.36,1086.4873a.49768.49768,0,0,1,.08.06994l1.88,1.77a7.18122,7.18122,0,0,0,2.99,1.69995,7.36467,7.36467,0,0,0,1.31.25c.23.02.46.03.68.03a6.47383,6.47383,0,0,0,1.38-.13989c.14-.03.29-.06006.43-.1001a6.4628,6.4628,0,0,0,.75-.23,7.3882,7.3882,0,0,0,.95-.43994,2.49,2.49,0,0,1,3.22.71,1.26938,1.26938,0,0,1,.18.27A2.50033,2.50033,0,0,1,1769.23,1093.77721Z"/><g class="cls-3"><path class="cls-4" d="M1615.7,1023.25732a80.11871,80.11871,0,0,0-31.64-24.19007c-16.62-7.06994-35.61-6.80993-54.75.53h-.01c-.79.30005-1.58.61-2.37.93994-.78.32007-1.57.66-2.36,1.01a108.35559,108.35559,0,0,0-9.78,4.96009l-.45-2.61q4.81494-2.70008,9.79-4.87012c.79-.33984,1.57-.66992,2.37-.99.78-.31994,1.58-.62988,2.37-.92993h.01c18.43-6.95,38.02-8.05005,56.16-.34009a82.14323,82.14323,0,0,1,25.66,17.14014Z"/><path class="cls-4" d="M1635.88,1060.97729l-2.46.43c-.57-2.58008-1.23-5.13013-2-7.65-.28-.93006-.58-1.86-.89-2.77Z"/></g><path class="cls-1" d="M1810.14115,973.20793l-67.94752-21.92238a2.77607,2.77607,0,0,0-2.52269.44008l-56.57573,43.55127a2.75029,2.75029,0,0,1-4.42942-2.1707l-.15642-71.3992a2.76486,2.76486,0,0,0-1.19295-2.26845l-58.90285-40.34416a2.75562,2.75562,0,0,1,.704-4.889l67.84977-22.20587a2.74494,2.74494,0,0,0,1.77961-1.83839l20.18187-68.48536a2.75063,2.75063,0,0,1,4.85965-.85057l7.70509,10.55053-15.83063,53.74981a2.53824,2.53824,0,0,1-1.6427,1.69158l-62.26649,20.37738a2.52686,2.52686,0,0,0-.64533,4.48809l54.05293,37.02951a2.51143,2.51143,0,0,1,1.09513,2.07282l.14669,65.52259a2.53042,2.53042,0,0,0,4.06764,2.00455l51.92138-39.9726a2.50989,2.50989,0,0,1,2.3076-.40093l53.75959,17.33643,5.12368,14.39323A2.75248,2.75248,0,0,1,1810.14115,973.20793Z"/></g><g id="artwork"><path class="cls-2" d="M2753.02714,550.53984a118.2072,118.2072,0,0,1-48.34265,25.79735C2625.7377,597.238,2563.938,533.20362,2532.8174,461.48659"/><path class="cls-2" d="M2601.09676,430.42326c1.8119,25.89724,5.21415,64.43185,9.44733,65.01539l6.38376.88"/><path class="cls-2" d="M2643.36289,513.81929h43.0529a0,0,0,0,1,0,0v.936a21.52643,21.52643,0,0,1-21.52643,21.52643h0a21.52643,21.52643,0,0,1-21.52643-21.52643v-.936a0,0,0,0,1,0,0Z" transform="translate(37.10425 1212.11578) rotate(-25.79859)"/><path class="cls-2" d="M2639.77,1384.66735h-276.1a16.35029,16.35029,0,0,1-16.14-18.97009,16.72865,16.72865,0,0,1,1.61-4.86l43.47-84.38,5.18-10.04993,23.27-45.18H2584.5l22.04,44.06994,5.58,11.16,42.27,84.55993a16.30264,16.30264,0,0,1-14.62,23.65015Z"/><path d="M1968.14,974.47729l-45.22-260.33a14.67607,14.67607,0,0,0-16.97-11.94006l-79.39,13.79-20.42,3.54992-303.95,52.8a14.66123,14.66123,0,0,0-11.95,16.96l35.82,206.19007.44,2.53991.43,2.5c.79-.33,1.58-.63989,2.37-.93994h.01c19.14-7.34,38.13-7.6,54.75-.53a80.11871,80.11871,0,0,1,31.64,24.19007l12.15,22.71,1.24,2.31994.46-.07995,5.02-.87,60.59-10.51,59.56,51.55005,1.89,1.77a9.73474,9.73474,0,0,0,15.54-3.02l33.99-60.27,5.82-10.32007,14.6-2.53991,96.74-16.84,2.29-.4,2.3-.95008.75-.30993c-5.43-5.04-7.34-12.01-4.54-16.59,1.31-2.15,7.05-8.63013,25.67-1.8,4.05,1.48,8.61,2.86,13.51,4.13l2.6-1.06995,2.31-.95007a14.98924,14.98924,0,0,0-.05-4.74Zm-162-20.73,2.47,6.94006a4.97454,4.97454,0,0,1-1.13,5.15991,5.11108,5.11108,0,0,1-1.34.99,4.9903,4.9903,0,0,1-3.78.28l-61.83-19.93994-51.48,39.62988a5.01117,5.01117,0,0,1-8.06-3.96l-.13-64.96-53.6-36.72a5.00626,5.00626,0,0,1,1.27-8.88013l61.74-20.21,18.36-62.31006a5.00121,5.00121,0,0,1,8.84-1.53991l38.3,52.47,50.37-1.39,14.57-.3999a5.013,5.013,0,0,1,4.56,2.65991,4.95223,4.95223,0,0,1-.37,5.27l-18.76,25.93994-19.31,26.70008Z"/><path d="M1928.05,996.33727a2.495,2.495,0,0,1-2.03,2.89l-112.46,19.56994-39.19,69.48a12.037,12.037,0,0,1-5.14,5.5c-.23.13013-.47.25-.71.36011s-.48.22-.72.30994a12.18844,12.18844,0,0,1-1.48.4801q-.345.0749-.69.1499c-.2.04-.4.07007-.6.1001a3.95421,3.95421,0,0,1-.48.05994,11.64046,11.64046,0,0,1-1.31.06994c-.36,0-.73-.02-1.09-.04992a11.65955,11.65955,0,0,1-4.31-1.23011c-.19-.08984-.39-.19995-.58-.30993a.03659.03659,0,0,1-.03-.01,4.96287,4.96287,0,0,1-.49-.29993,10.80352,10.80352,0,0,1-1.4-1.04c-.15-.13-.3-.26-.45-.4l-1.84-1.74-58.63-50.73-59.03,10.24-4.99.86-.07.01-2.48-4.64.8-.14,5.04-.87,61.04-10.59a2.44392,2.44392,0,0,1,1.08.05005,1.722,1.722,0,0,1,.21.07.94835.94835,0,0,1,.21.09h.01a2.78471,2.78471,0,0,1,.37.22,2.18881,2.18881,0,0,1,.18005.14014L1756.36,1086.4873a.49768.49768,0,0,1,.08.06994l1.88,1.77a7.18122,7.18122,0,0,0,2.99,1.69995,6.568,6.568,0,0,0,1.31.25c.23.02.46.03.68.03a7.18085,7.18085,0,0,0,1.38-.13989c.14-.03.29-.06006.43-.1001a6.4628,6.4628,0,0,0,.75-.23,7.3882,7.3882,0,0,0,.95-.43994,7.15662,7.15662,0,0,0,3.07-3.31006c.03-.06006.06-.13.09-.18994l39.81-70.59009a2.50961,2.50961,0,0,1,1.75-1.23l113.62994-19.78a2.48335,2.48335,0,0,1,2.73,1.51A1.91606,1.91606,0,0,1,1928.05,996.33727Z"/><path d="M1970.66,979.59728a2.498,2.498,0,0,1-4.78.57007,2.47144,2.47144,0,0,1-.16-1.33008,12.34153,12.34153,0,0,0-.05-3.92993l-45.22-260.33008a12.18371,12.18371,0,0,0-14.07-9.90991l-403.77,70.13989a12.16587,12.16587,0,0,0-10.02,13.30005c.01.09.02.18994.04.29.02.15991.04.31995.07.48v.01l35.74,205.68994.44,2.53.43,2.49h-.01c-.79.30005-1.58.61-2.37.93994-.78.32007-1.57.66-2.36,1.01l-.44-2.52-.44-2.54992-35.91-206.74c-.04-.25-.08-.5-.11-.74a5.42632,5.42632,0,0,1-.06005-.55.01872.01872,0,0,1,0-.02991,17.17574,17.17574,0,0,1,14.15-18.54l403.76-70.13a17.19288,17.19288,0,0,1,19.86,13.98l45.22,260.31994A17.23047,17.23047,0,0,1,1970.66,979.59728Z"/><path class="cls-2" d="M2880.85722,339.05869,2853.854,328.96728a579.79548,579.79548,0,0,0-78.06-20.82c-99.01-18.73-166.15.41-210.43,27.52-55.63,34.06-75.21,80.7-76.63,80.7-31.28,8.47-71.51-3.97-74.66-40.78-2.15-25.07995,21.32-40.51,40.56-52.37q9-5.55,18.43-10.44c45.87-23.87,98.56-36.77,148.45-46.35,43.77-8.41,88.99-16.36,133.66018-17.82,37.51793-1.21922,76.53954-5.56145,113.28763,4.47557,16.85408,4.60336,39.22815,15.21216,45.909,32.7305C2923.63905,310.11638,2897.19115,326.59543,2880.85722,339.05869Z"/><path class="cls-2" d="M2829.88937,392.34458a81.31956,81.31956,0,0,1,17.52012,22.87343,87.23291,87.23291,0,0,1,10.0155,41.56946,103.45756,103.45756,0,0,1-6.75486,34.96029"/><path class="cls-2" d="M2679.214,301.68537a205.31016,205.31016,0,0,0,63.60051,48.74633c13.20242,6.40364,27.115,11.11746,40.57318,16.24462,2.33308-7.95346,7.45034-16.44925,15.8822-18.95121,6.90431-2.04869,13.81838,1.05994,18.44627,6.23018a32.74243,32.74243,0,0,1,6.31371,11.07257c5.96046,17.02869,9.08711,41.55749,2.57011,58.87874-9.80517,26.06067-33.22138,0-33.22138,0"/><circle class="cls-2" cx="2545.02" cy="432.37823" r="56.38875"/><circle class="cls-2" cx="2675.53325" cy="397.85537" r="56.38875"/><path class="cls-2" d="M2579.51956,397.36629c13.65509-10.69587,30.42072-14.67585,50.12363-12.31428"/><line class="cls-2" x1="2723.52309" y1="366.23449" x2="2788.3982" y2="354.39459"/><path class="cls-2" d="M2486.66209,303.38777a478.85958,478.85958,0,0,1,18.545-85.00133c9.16033-29.214,19.71112-59.71719,38.44949-84.33883,23.27479-30.58234,48.75352-32.97031,84.85332-27.41649,59.48457,9.15147,100.6662,6.101,146.42356,9.15147s64.0603,62.53506,70.16128,85.41374c4.82856,18.1071,7.74637,39.08034,8.75341,47.04109"/><path class="cls-2" d="M2593.42927,146.2875c39.21822,8.92839,77.24542-9.73847,116.35282-9.09076,29.346.486,74.28722,14.7314,91.08055,41.12091"/><path d="M2485.9821,306.32417c43.17225-20.419,89.59884-31.07666,135.532-39.89687,43.77-8.41,88.99-16.36,133.66-17.82,29.71925-.96578,65.50439-2.87918,97.78957,3.14761l-.69954-14.83761c-33.22-6.38-80.59-10.48-144.44-5.22-121.41,10.02-193.86,42.33-218.87,55.42Z"/><path d="M2597.604,411.97729a56.4319,56.4319,0,1,0,3.8,20.4A56.39492,56.39492,0,0,0,2597.604,411.97729Zm-52.58,64.78991a44.43134,44.43134,0,0,1-44.31-41.82983c-.06-.8501-.08-1.70007-.08-2.56006a44.385,44.385,0,1,1,44.39,44.38989Z"/><path d="M2731.71409,392.9873a56.39036,56.39036,0,0,0-112.57,4.87,57.33771,57.33771,0,0,0,.69,8.85,56.39473,56.39473,0,0,0,112.09-8.85C2731.92405,396.21728,2731.854,394.59728,2731.71409,392.9873Zm-56.18,49.26a44.44858,44.44858,0,0,1-43.97-38.32,43.48358,43.48358,0,0,1-.42-6.07007,44.3879,44.3879,0,0,1,86.41-14.3,43.99194,43.99194,0,0,1,2.37,14.30005A44.44251,44.44251,0,0,1,2675.53409,442.24731Z"/><path d="M2597.604,411.97729a56.39878,56.39878,0,1,1-107.37,33.78l1.13-8.6,9.35-2.22,85.05-20.15015Z"/><path d="M2731.92405,397.85729a56.39473,56.39473,0,0,1-112.09,8.85l11.73-2.77991,85.99-20.37012,10.74-2.54992,3.42,11.98C2731.854,394.59728,2731.92405,396.21728,2731.92405,397.85729Z"/><path class="cls-2" d="M2513.84645,474.78523c-2.36538,24.02364-2.68314,49.78562,7.81839,72.11193,10.34205,21.98533,35.23695,37.93378,36.77814,63.77065,1.517,25.43088-18.27939,42.46891-33.30145,60.155-21.32857,25.111-21.71909,51.37461-15.77894,82.94365"/><path class="cls-2" d="M2871.31663,335.79729c-8.62935,33.13708-6.372,72.84682,12.956,101.91954,13.32092,20.037,35.77009,32.28231,52.89231,49.47525,23.62851,23.7261,48.74812,51.41262,52.435,85.6939,2.97006,27.61618-4.78837,54.42173,6.37845,81.082,17.99213,42.95221,72.03053,65.586,76.30395,114.998,3.23333,37.38579-13.32294,72.1683-39.20778,98.03044"/><path class="cls-2" d="M2675.24236,581.42542c8.43312,16.24393,14.96369,37.62879,12.347,55.87639-3.01566,21.03027-31.58733,23.58936-54.51681,29.29963a152.28212,152.28212,0,0,0-53.75615,25.47318c-42.9084,31.617-79.22918,72.47182-118.36373,108.45974-20.1577,18.53691-40.732,36.97089-63.16937,52.74333-24.09418,16.93691-52.82627,24.27972-80.35384,33.84855-25.74586,8.95035,2.9275,35.5639,10.7511,48.46543,14.03865,23.15049,45.41474,86.426,78.17048,86.426,5.814,0,119.18662-66.86079,174.41945-119.18662"/><path class="cls-2" d="M2582.224,873.7611a395.89691,395.89691,0,0,0,2.13636,68.79986c3.73757,31.8804,21.32912,60.9963,22.435,93.31236.89374,26.11621-9.80234,52.84268-19.91336,76.435q-4.35216,10.155-9.1269,20.15825"/><path class="cls-2" d="M2892.12611,876.2416s-12.77115,118.82836-19.183,144.4756c-.76836,3.07344-2.68844,7.34089-5.47318,12.472a5.5913,5.5913,0,0,0,1.38586,7.01423c31.23093,25.30462,72.35622,40.883,122.57957,47.51779a5.55186,5.55186,0,0,0,5.74364-3.1424,394.634,394.634,0,0,0,35.09707-209.8293c-14.71408-136.03986-57.298-165.11182-84.00422-191.81809-31.38839-31.38632-78.74313-37.58493-120.33206-45.458-6.79669-1.2867-9.83892-3.91133-11.772-10.46237-9.64322-32.68051-13.73783-66.44475-17.80864-100.17432-5.40929-44.81979,12.36408-91.95784,12.36408-91.95784"/><path class="cls-1" d="M686.49,1477.95715a35.7106,35.7106,0,0,1,1.51-13.85987c2.39-7.19995,7.97-13.33008,15.79-14.28,5.84-.71,10.73,1.1399,15.06006,4.46-7.62012,1.1001-13.05,7.15015-15.40015,14.24a35.66383,35.66383,0,0,0-1.51,13.8501c1.44006,19.67993,8.9801,45.6499,23.07007,60.18994.64.66016,1.28,1.27,1.9,1.83008-4.8,1.78-10.62.71-17.35-6.24C695.47,1523.60729,687.92993,1497.63732,686.49,1477.95715Z"/><path class="cls-2" d="M2601.67107,677.66264s137.35616,86.66443,299.73769-20.9378"/><path class="cls-2" d="M2874.85755,1015.20333s76.25088,47.04841,133.84463,38.12543"/><path class="cls-2" d="M2339.16431,880.3479c3.71914,12.07938,31.00608,93.64083,97.97413,122.93935"/><path class="cls-2" d="M2676.57633,653.2047q.198,3.69618.49811,7.48292"/><path class="cls-5" d="M2680.07975,684.988c5.08563,29.93811,15.70361,60.557,35.12591,82.04492,24.83533,27.47632,67.55866,22.91052,90.25885-4.62353,22.58741-27.3971,26.751-67.17859,26.43836-102.81922"/><path class="cls-2" d="M2831.63419,647.35424q-.12836-3.79906-.29761-7.49329"/><path class="cls-2" d="M2875.02836,1045.17944c.3363,1.5769-74.92176,75.30908-87.03394,85.4945"/><path class="cls-2" d="M2983.0579,1087.94116c-2.18091,4.835-19.59173,24.28628-36.98815,42.10837"/><path d="M2117.51807,980.088a62.78825,62.78825,0,0,1-16.43164-1.89161c-5.48877-1.50683-11.69873-6.86523-17.70411-12.04687-4.02661-3.47461-8.19018-7.06738-11.6206-8.98633-12.21021-6.8291-24.25464-10.54883-35.79834-11.05664-21.8-.97656-45.16553,5.77441-67.58423,19.47461a2.49971,2.49971,0,1,1-2.60742-4.26563c23.27075-14.22167,47.62012-21.21386,70.41138-20.2041,12.33032.542,25.12182,4.47461,38.01953,11.68848,3.87231,2.166,8.03711,5.75977,12.44629,9.56348,5.5852,4.82031,11.36059,9.80371,15.76074,11.01074,50.937,13.99316,206.61719-60.80567,208.18359-61.5625a2.5,2.5,0,1,1,2.17554,4.50195C2306.88379,919.15734,2180.0144,980.088,2117.51807,980.088Z"/><path d="M2049.76,991.20727a2.50091,2.50091,0,0,1-2.5,2.5c-2.86,0-50.91-3.87-83.98-12.47-4.9-1.27-9.46-2.65-13.51-4.13-18.62-6.83008-24.36-.35-25.67,1.8-2.8,4.58-.89,11.54993,4.54,16.59l.04.03991c12.66,11.69007,57.89,25.02,83.33,21.9701a2.503,2.503,0,0,1,.6,4.97,75.0883,75.0883,0,0,1-8.7.48c-27.44,0-66.16-12.42-78.48-23.63-.05-.04-.09-.08-.14-.12a27.06829,27.06829,0,0,1-3.74-4.27991c-4.23-6.1001-5.02-13.2301-1.72-18.63013,4.85-7.92993,16.68-9.37988,31.66-3.88989a148.26832,148.26832,0,0,0,14.35,4.34c.82995.21,1.66.42,2.50995.62.82.19995,1.65.3999,2.48.59,31.98,7.4,73.8,10.75,76.43,10.75A2.50091,2.50091,0,0,1,2049.76,991.20727Z"/><path d="M1986.30273,1053.94445a73.90061,73.90061,0,0,1-15.67163-1.7041,87.10337,87.10337,0,0,0-9.03125-1.42383c-10.32544-1.25781-21.00219-2.55859-23.7102-17.001a16.41477,16.41477,0,0,1,2.562-13.01269c5.43506-7.64063,16.531-9.38379,17.00073-9.4541a2.50108,2.50108,0,0,1,.8357.0166l38.03686,7.19629a19.25979,19.25979,0,0,1,14.63672,12.23535,15.56723,15.56723,0,0,1-2.40967,15.88281c-3.52856,4.23438-9.8208,6.64551-18.70166,7.16407C1988.66943,1053.9132,1987.48218,1053.94445,1986.30273,1053.94445Zm-28.49267-37.58105c-1.82349.35351-9.59619,2.13476-13.29517,7.35351a11.4552,11.4552,0,0,0-1.71069,9.17676c2.033,10.84375,9.31787,11.73145,19.40039,12.96a90.80094,90.80094,0,0,1,9.55029,1.51465c10.3501,2.38476,27.41724,2.75879,32.95581-3.88965a10.67037,10.67037,0,0,0,1.57471-10.91113,14.4151,14.4151,0,0,0-10.80542-9.0791Z"/><path d="M1979.41992,1080.71008a105.93956,105.93956,0,0,1-13.09717-.93067c-16.22338-2.02734-25.616-5.97656-25.616-20.16113,0-10.65527,10.54565-13.81055,16.12182-13.99121a2.50039,2.50039,0,0,1,.16529,4.998,18.54126,18.54126,0,0,0-6.04859,1.44433c-3.5249,1.57129-5.23852,4.041-5.23852,7.54883,0,8.5,3.17773,12.94238,21.23633,15.20019,10.69165,1.33692,24.12133,2.04395,33.15576-4.416,3.57153-2.55274,6.21728-6.957,2.93164-11.66113-3.113-4.458-10.43384-4.65528-18.91065-4.88477-1.42578-.03809-2.87329-.07715-4.32983-.13769a2.50021,2.50021,0,0,1,.208-4.9961c1.43188.05957,2.85522.09766,4.25683.13574,9.42017.25489,18.31812.49512,22.87476,7.01953,4.291,6.14454,2.5957,13.79-4.12305,18.59278C1996.24927,1079.3009,1987.731,1080.71008,1979.41992,1080.71008Z"/><path class="cls-2" d="M1961.66461,1077.045s-9.80542,2.58037-3.61252,12.38579,21.67513,11.35364,40.76989,6.19289,9.59026-23.66592,2.73083-23.1866"/><path class="cls-2" d="M2009.73656,1087.6033c46.4722,7.09992,92.02946.37692,98.46123-19.88766,2.78452-8.77318,2.86658-18.46011-2.032-26.53687"/><path class="cls-2" d="M2107.27146,1070.50756c92.31134-19.5321,180.69266-42.61413,261.63055-68.735"/><path class="cls-2" d="M920.9916,1342.03148c21.51813,16.9128,37.677,46.97494,43.88211,73.39551l4.255,26.41053a19.33048,19.33048,0,0,0,7.00879,12.01993c9.23729,12.42339,24.56067,17.75415,40.60831,26.63162,2.93444,1.62332-7.51051,5.68347-8.79747,6.27287-6.87179,3.14712-13.66514,6.47925-20.49462,9.71737a13.88912,13.88912,0,0,0-4.52179,2.91876c-3.39589,3.74771.08463,14.59648.74255,19.10219,4.10681,28.12522,10.85271,54.019-3.1269,80.60147-9.85543,18.74029-27.099,31.24786-46.40166,39.05031-3.32952,1.34585-11.30289,2.37073-13.74189,4.70178-3.13136,2.99276-2.874,13.77621-3.14282,18.02344-.828,13.0805-.8246,30.29395,12.17434,37.06807,61.89529,32.25532,120.796,17.766,176.96864-19.68242,21.98753-14.66135,41.7044-43.31563,60.69654-61.53274,35.12594,46.09833,71.2843,184.69125,71.2843,184.69125,2.883,8.65039-107.50443,83.76806-141.976,104.04882-35.35381,20.79976-12.08545,192.8336,3.39441,297.8573"/><path class="cls-1" d="M1455.3,1261.90734c-2.65,2.5-5.3,5.30994-7.9,8.22-5.18-2.75-10.42-5.48-15.81-8.27q-2.79-1.455-5.64-2.91992c-.65-.34009-1.3-.67017-1.95-1.01-45.55-23.55-97.18-50.2301-129.93-88.94006-16.62-19.65-24.69-47.9701-21.57-75.77,2.81-25.1,14.32-46.42005,32.39-60.02991a66.26076,66.26076,0,0,1,29.29-12.33008,66.43032,66.43032,0,0,0-9.83,6.14c-42.62,32.08-43.91,100.78991-11.23,139.42,31.8,37.58,80.15,63.37988,125.28,86.73,1.85.97,3.7,1.91992,5.54,2.86987Q1449.67,1258.98737,1455.3,1261.90734Z"/><path d="M1431.59,1261.85729c-.84.38-1.8.82007-2.87,1.33008h-.01c-.57.25989-1.18.54993-1.82.84985q-.495.22523-1.02.48c-1.8.8501-3.8,1.80005-5.94,2.84009-12.44,6.06006-29.77,15.04-41.54,23.45-14.51,10.37012-14.12,25.18006-13.63,43.94007.16,6.08.32,12.37-.04,18.91l-.21,3.82c-1.31,24.24011-2.03,37.6-16.62,53.64-13.6,14.96-154.27,198.15991-170.26,219a2.50013,2.50013,0,0,1-3.97-3.04c26.12-34.03,157.08-204.52,170.53-219.31982,13.39-14.73023,14.04-26.7002,15.33-50.55017l.21-3.82c.35-6.34009.19-12.53.03-18.51-.49-18.63-.95-36.22,15.73-48.13,13.02-9.30994,32.13-19.05005,44.77-25.13.99-.47,1.93-.91,2.83-1.3501h.01c1.00995-.47,1.96-.91992,2.85-1.32983Q1428.80006,1260.40734,1431.59,1261.85729Z"/><path d="M653.42993,1756.56725c-6.21,10.32007-2.16992,33.71,5.09009,75.59009,5.19995,30,12.32007,71.06983,18.28,123.83985,7.78,68.90014,17.3,188.44018-6.31006,214.87011-3.23,3.62012-7.02,5.46-11.25,5.46-14.67993,0-23.55005-14.72-29.15991-27.90991a737.8307,737.8307,0,0,0,4.05993,77.92993,2.73868,2.73868,0,0,1-2.42,3.02c-.1.01-.19995.01-.29993.01a2.73641,2.73641,0,0,1-2.72009-2.42993c-5.49-49.84009-4.24-98.49023-3.11987-121.70019a272.84295,272.84295,0,0,0,12.33-53.81983,2.50192,2.50192,0,0,0-5-.18994c-.02.50977-4.43005,38.08984-18.3,67.85986a248.08992,248.08992,0,0,1-24.75989,30.78,2.48086,2.48086,0,0,1-2.9701.49c-89.62-47.12011-114.61-68.78-154-118.78a2.47121,2.47121,0,0,1-.34-2.52c7.3999-17.3999,14.43994-36.37988,21.8999-56.47,12.92005-34.85986,26.29-70.8999,41.69006-97.90991,17.02-29.86011,31.54993-54.28,50.45008-74.13013,21.09-22.12988,45.40991-35.90991,76.55993-43.35009,9-2.15992,19-3.81983,29.58-5.58985,30.24-5.04,64.51-10.76,84.48-30.06006,35.01-33.85009-.04993-93.35009-.40991-93.95a2.50049,2.50049,0,0,1,4.29-2.57007,137.25622,137.25622,0,0,1,14.10986,35.88013c6.2301,26.80982,1.22009,49.02-14.5199,64.23-21.07995,20.38989-56.17,26.24-87.12,31.3999A.50244.50244,0,0,1,653.42993,1756.56725Z"/><path class="cls-2" d="M738.93642,1723.35164s7.38971,99.187,15.62069,146.515c2.32307,13.35706,6.03924,64.08694,23.10075,67.41981,51.9242,10.14306,116.15283-8.71479,166.24746-25.12845a25.29064,25.29064,0,0,0,17.17742-20.88355c5.54782-43.90188,8.59714-151.55241-4.89029-181.89911"/><path class="cls-2" d="M1040.97684,1710.27334a36.03429,36.03429,0,0,1,8.7721,27.51293c-4.82914,48.2952-5.956,96.8487-9.52688,145.23537-3.6151,48.98541-12.02906,97.682-9.057,146.96184,1.12448,18.64491,6.13131,108.34291,38.44117,104.54174,10.35179-1.21785,15.7685-9.34,18.37074-19.721"/><path class="cls-1" d="M960.13,2157.41735a96.21985,96.21985,0,0,1-67.75,37.52q-4.56.42-9.05.41992a96.54718,96.54718,0,0,1-95.1-80.43994l-13.92-89.81006q10.47-.42,20.87994-1.01l11.25,72.60987a96.55761,96.55761,0,0,0,95.11,80.44018q4.48508,0,9.05005-.42016A96.084,96.084,0,0,0,960.13,2157.41735Z"/><path class="cls-6" d="M781.81611,2069.79294a1328.28637,1328.28637,0,0,0,190.92924-19.513"/><path class="cls-7" d="M446.828,2047.92964s-4.84584,18.7549-4.32009,32.4243"/><path class="cls-7" d="M573.52914,2141.6929c-2.54038.81685-3.39306,36.33678-1.90271,54.45988"/><path d="M1231.97876,1783.547a2.50036,2.50036,0,0,1-1.7478-4.28809c.87964-.85937,88.28222-86.55859,115.95605-136.17968,12.22778-21.92578,22.35425-60.01465,32.14722-96.85059,12.793-48.11914,26.02124-97.876,44.99438-117.40723,12.02954-12.38281,22.69165-21.0664,38.65259-26.085,21.40845-6.73144,31.93067-20.19336,45.25269-37.23632q1.76294-2.25586,3.58325-4.56934c4.17676-5.292,9.22168-10.498,14.10058-15.5332,8.74048-9.02149,17.77832-18.34864,22.69361-28.87891,2.02929-4.34668,2.4126-8.05957,1.00049-9.6875-1.29493-1.49316-4.45679-1.61621-8.67554-.33691a2.50025,2.50025,0,0,1-1.45166-4.78516c8.05151-2.44434,12.00537-.34473,13.905,1.84668,2.84668,3.2832,2.75879,8.63769-.24756,15.07812-5.27051,11.291-14.60571,20.92579-23.63355,30.24219-5.01245,5.17383-9.74707,10.06055-13.7666,15.15235q-1.81751,2.30273-3.5686,4.55078c-13.30835,17.02539-24.80151,31.72949-47.69238,38.92675-14.95679,4.70313-25.08008,12.97559-36.56592,24.79981-18.063,18.59375-31.12085,67.709-43.74878,115.208-10.32642,38.84082-20.08008,75.52832-32.61255,98.001-28.02588,50.25293-115.94287,136.45508-116.82764,137.32032A2.495,2.495,0,0,1,1231.97876,1783.547Z"/><path d="M1516.7876,1329.48644a2.73438,2.73438,0,0,1-1.93335-4.668c.165-.165.59033-.58007,1.23511-1.209,24.502-23.89355,40.3916-41.09473,44.74145-48.43359,1.7395-2.93555,5.19165-10.27246-.30737-14.99512-3.87012-3.32422-9.23413-1.84863-17.39356,4.78027a2.73419,2.73419,0,1,1-3.44824-4.24414c3.79517-3.085,15.34375-12.46777,24.40479-4.68457,5.99438,5.14844,6.53588,13.34766,1.44848,21.93067-5.87988,9.92187-28.05786,32.42871-45.62768,49.56152-.61939.60449-1.02784,1.00293-1.18628,1.16113A2.72854,2.72854,0,0,1,1516.7876,1329.48644Z"/><path d="M1496.43262,1309.129a2.73458,2.73458,0,0,1-1.51905-5.00976c6.12354-4.082,11.81006-10.0127,17.30957-15.748,2.22217-2.31738,4.52-4.71387,6.76636-6.89551,5.12818-4.97851,11.85083-11.57226,18.37378-18.415,1.029-1.0791,2.28369-2.22558,3.61182-3.43945,4.41821-4.03711,9.9165-9.06055,9.30395-13.69727-.59424-4.498-6.89477-7.63867-11.91479-7.38086a2.73374,2.73374,0,1,1-.30469-5.459c7.52612-.44727,16.62769,4.4541,17.64087,12.123.98584,7.46582-5.68018,13.55664-11.03662,18.45117-1.25659,1.14746-2.44361,2.23242-3.34229,3.17578-6.58764,6.91016-13.35913,13.55176-18.52246,18.56543-2.17651,2.11328-4.33935,4.36816-6.6289,6.75684-5.70337,5.94726-11.60108,12.09765-18.22339,16.51367A2.72227,2.72227,0,0,1,1496.43262,1309.129Z"/><path d="M1358.55,1621.53722c-3.34,8.2002-9.15,21.43018-15.54,31.30005A512.37229,512.37229,0,0,1,841.69,2269.2174q-10.62,0-21.3-.44019a512.07112,512.07112,0,0,1,21.42-1023.67993q10.62,0,21.3.43994a511.76537,511.76537,0,0,1,417.3,247.51l6.95-9.07006a510.77656,510.77656,0,0,0-45.4-54.18995q-7.185-8.78979-14.79-17.31005a517.06513,517.06513,0,1,0-712.57995,745.10009A514.14392,514.14392,0,0,0,651.61,2251.91735c256.88,121.37988,563.52,11.5398,684.9-245.34009A512.7161,512.7161,0,0,0,1358.55,1621.53722Z"/><path d="M1636.21,1052.30724c-.26-.86-.53-1.72-.82-2.56994v-.01c-.26-.80994-.54-1.6-.82-2.39-.28-.80005-.58-1.59-.88-2.38-9.02-23.39-25.72-41.16-47.67-50.49-17.59-7.48-37.54-7.36-57.58.11h-.01c-.79.29-1.58.6001-2.37.92-.79.30993-1.58.64-2.37.98a114.44346,114.44346,0,0,0-13.21,6.75c-23.31,13.84-43.38,36.6-53.71,60.89a85.97818,85.97818,0,0,0-4.54,15.48,85.20157,85.20157,0,0,0-8.13-13.93994c-15.87-21.08008-40.83-38.33008-66.79-46.15-28.8-8.68006-55.59-5.24012-75.42,9.68994-19.19,14.44006-31.39,36.9801-34.36,63.47009-3.27,29.12988,5.23,58.86987,22.73,79.54993,33.04,39.04992,84.4,65.82995,130,89.4l1.44.75c.66.34,1.31.67993,1.96,1.01.74.38989,1.48.77,2.21,1.13989,6.23,3.23011,12.23,6.3501,18.14,9.48011.52.26989,1.03.53991,1.54.81994.71.37012,1.42.75,2.13,1.13.29.15.58.31006.87.46008.55005-.64014,1.12-1.28,1.69-1.92.56-.64,1.14-1.28,1.72-1.92-.64-.35-1.28-.68994-1.92-1.03l-2.64-1.40991c-5.18-2.75-10.42-5.48-15.81-8.27q-2.79-1.455-5.64-2.91992c-.65-.34009-1.3-.67017-1.95-1.01-45.55-23.55-97.18-50.2301-129.93-88.94006-16.62-19.65-24.69-47.9701-21.57-75.77,2.81-25.1,14.32-46.42005,32.39-60.02991a66.26076,66.26076,0,0,1,29.29-12.33008,79.40343,79.40343,0,0,1,12.94-1.04,99.60789,99.60789,0,0,1,28.75,4.48c24.97,7.52,48.98,24.11011,64.24,44.37012,3.37,4.48,7.02,11.27991,10.84,20.18994a2.49547,2.49547,0,0,0,4.76-.58008c1.56-9.56994,3.47-17.03991,5.67-22.21,9.92-23.34,29.23-45.22,51.65-58.54.59-.34985,1.18-.68994,1.76-1.01989a108.35559,108.35559,0,0,1,9.78-4.96009c.79-.35,1.58-.68994,2.36-1.01.79-.33,1.58-.63989,2.37-.93994h.01c19.14-7.34,38.13-7.6,54.75-.53a80.11871,80.11871,0,0,1,31.64,24.19007,89.106,89.106,0,0,1,12.95,22.56994c.32.78.62,1.58008.9,2.38.30005.79.59,1.59.85,2.39.05.13.09.26.13.39.31.91.61,1.84.89,2.77.77,2.51989,1.43,5.06994,2,7.65a111.82812,111.82812,0,0,1-5.74,66.28,98.24629,98.24629,0,0,1-8.38995,15.94995c-25.30005,38.83-62.81,72.08-99.09,104.24-6.79,6.02-13.21,11.71-19.6,17.48-4.67,4.22-9.43,8.48-14.38,12.88q-4.275,3.80986-8.75,7.76c-.46-.24-.91-.48011-1.37-.71009q-2.23508-1.16985-4.43-2.31994-.57,1.14-1.17,2.22009c-.41.74-.82,1.47-1.24,2.16992.8.41992,1.61.84,2.43,1.27.66.35,1.34.69995,2.01,1.05.99.51,1.98,1.02991,2.98,1.54993a2.47109,2.47109,0,0,0,1.15.28,2.51728,2.51728,0,0,0,1.66-.62c8.71-7.68,16.71-14.82007,24.46-21.82007,6.37-5.75,12.78-11.43994,19.57-17.45q7.335-6.49512,14.7-13.07007h.01c.8-.73,1.6-1.43994,2.4-2.16992,1.01-.9,2.02-1.81006,3.03-2.71,29.83-26.91,58.86-55.13013,79.82-87.30005a103.47815,103.47815,0,0,0,8.82-16.76A116.71116,116.71116,0,0,0,1636.21,1052.30724Z"/><path d="M1480.26,1275.09728a66.04077,66.04077,0,0,1-4.16,10.18994c-.38.75-.77,1.5-1.17,2.2201-.16.29992-.32.58-.48.87-.25.43994-.5.88-.75,1.3a52.6594,52.6594,0,0,1-4.71,6.78992c-5.69,6.82995-7.18,15.43-8.76,24.53-1.75,10.08-3.56,20.51989-11.51,28.48a53.34538,53.34538,0,0,1-29.42,14.58h-.04a54.3561,54.3561,0,0,1-8.55.68006,53.40478,53.40478,0,0,1-11.87-1.33,2.50239,2.50239,0,0,1,1.11-4.88013c15.89,3.64014,34.07-1.41992,45.23-12.58984,6.84-6.84009,8.43-16.05005,10.13-25.80005,1.62-9.3501,3.29-19.01,9.84-26.87012a48.47366,48.47366,0,0,0,4.11-5.90991c.42-.69995.83-1.42993,1.24-2.16992q.6-1.08014,1.17-2.22009a61.5641,61.5641,0,0,0,4.1-10.25c1.16-3.99,1.66-7.76,1.05-10.66a5.74188,5.74188,0,0,0-3.01-4.29c-3.23-1.61987-8.36,1.63013-13.8,6.6001-2.67,2.43994-5.42,5.30005-8.05,8.2-.58.64-1.16,1.28-1.72,1.92-.57.64-1.13995,1.2799-1.69,1.92-1.86,2.12988-3.61,4.19995-5.18,6.04993-3.28,3.86-6.1,7.20007-8.37,9.47009-8.94,8.93994-30.84,26.28992-34.03,27.34985a2.49859,2.49859,0,0,1-1.64-4.72c2.5-1.1499,22.89-16.92993,32.13-26.16992,2.12-2.12012,4.89-5.39,8.09-9.16.52-.62,1.05005-1.24,1.59-1.87.94-1.11,1.9-2.24,2.87-3.36.43-.51.87-1.01,1.31-1.51.12-.14.25-.29.37-.43006.57-.6499,1.14-1.29,1.71-1.92993,2.6-2.91,5.25-5.72,7.9-8.22,7.45-7.03,14.83-11.57007,20.75-8.61011a10.19462,10.19462,0,0,1,4.81,5.07007,12.932,12.932,0,0,1,.85,2.65991,18.09611,18.09611,0,0,1,.27,1.86011A32.53118,32.53118,0,0,1,1480.26,1275.09728Z"/><path class="cls-2" d="M1266.1735,978.78956a59.63944,59.63944,0,0,0-57.498,61.92041"/><path class="cls-2" d="M1176.1955,1041.89784a92.173,92.173,0,0,1,88.79022-95.58826"/><path class="cls-2" d="M1140.54853,1043.21937a127.864,127.864,0,0,1,123.1156-132.55676"/><path class="cls-2" d="M1978.95664,701.53082a59.63935,59.63935,0,0,0-61.92044-57.498"/><path class="cls-2" d="M1915.8484,611.55279a92.173,92.173,0,0,1,95.58827,88.79016"/></g></svg>