<svg width="1439" height="900" viewBox="0 0 1439 900" fill="none" xmlns="http://www.w3.org/2000/svg">
<g clip-path="url(#clip0)">
<rect y="0.634766" width="1438.71" height="899.11" fill="white"/>
<rect x="-0.644531" y="0.188965" width="1440" height="899.757" fill="#FBFBFB"/>
<g opacity="0.65">
<path d="M1438.71 1.07959H0.166016V900.077H1438.71V1.07959Z" stroke="#90CEE6" stroke-width="1.79959" stroke-linecap="round" stroke-linejoin="round"/>
<path d="M539.623 1.08057V900.081" stroke="#90CEE6" stroke-width="1.79959" stroke-linecap="round" stroke-linejoin="round"/>
<path d="M719.441 1.08057V900.081" stroke="#90CEE6" stroke-width="1.79959" stroke-linecap="round" stroke-linejoin="round"/>
<path d="M734.479 1.08057V75.7761" stroke="#90CEE6" stroke-width="1.79959" stroke-linecap="round" stroke-linejoin="round"/>
<path d="M749.512 1.08057V60.7979" stroke="#90CEE6" stroke-width="1.79959" stroke-linecap="round" stroke-linejoin="round"/>
<path d="M764.549 1.08057V45.8999" stroke="#90CEE6" stroke-width="1.79959" stroke-linecap="round" stroke-linejoin="round"/>
<path d="M779.582 1.08057V30.9572" stroke="#90CEE6" stroke-width="1.79959" stroke-linecap="round" stroke-linejoin="round"/>
<path d="M794.621 1.08057V15.8634" stroke="#90CEE6" stroke-width="1.79959" stroke-linecap="round" stroke-linejoin="round"/>
<path d="M899.262 1.08057V900.081" stroke="#90CEE6" stroke-width="1.79959" stroke-linecap="round" stroke-linejoin="round"/>
<path d="M1079.07 1.08057V900.081" stroke="#90CEE6" stroke-width="1.79959" stroke-linecap="round" stroke-linejoin="round"/>
<path d="M1258.89 1.08057V900.081" stroke="#90CEE6" stroke-width="1.79959" stroke-linecap="round" stroke-linejoin="round"/>
<path d="M0.917969 360.76H1437.97L1259.63 541.259L1437.97 720.395H0.917969" stroke="#90CEE6" stroke-width="1.79959" stroke-linecap="round" stroke-linejoin="round"/>
<path d="M1437.97 180.942H0.917969" stroke="#90CEE6" stroke-width="1.79959" stroke-linecap="round" stroke-linejoin="round"/>
<path d="M1437.97 540.578H0.917969" stroke="#90CEE6" stroke-width="1.79959" stroke-linecap="round" stroke-linejoin="round"/>
<path d="M90.1448 121.354C106.875 121.354 120.438 107.791 120.438 91.0608C120.438 74.3303 106.875 60.7676 90.1448 60.7676C73.4143 60.7676 59.8516 74.3303 59.8516 91.0608C59.8516 107.791 73.4143 121.354 90.1448 121.354Z" stroke="#90CEE6" stroke-width="1.79959" stroke-linecap="round" stroke-linejoin="round"/>
<path d="M629.754 360.76H629.451C579.84 360.76 539.622 320.506 539.622 270.851V270.851C539.622 221.195 499.405 180.942 449.794 180.942H449.49" stroke="#90CEE6" stroke-width="1.79959" stroke-linecap="round" stroke-linejoin="round"/>
<path d="M1438.16 120.187H1437.76C1372.22 120.187 1319.08 67.0505 1319.08 1.50268V1.50244" stroke="#90CEE6" stroke-width="1.79959" stroke-linecap="round" stroke-linejoin="round"/>
<path d="M1079.33 1.08447C1078.39 23.5482 1069.03 44.8342 1053.11 60.711C1044.77 69.0648 1034.87 75.6896 1023.97 80.2047C1013.07 84.7198 1001.39 87.0363 989.587 87.021H989.281C966.131 87.0201 943.875 78.0823 927.154 62.0714C910.434 46.0605 900.539 24.2128 899.535 1.08448L1079.33 1.08447Z" stroke="#90CEE6" stroke-width="1.79959" stroke-linecap="round" stroke-linejoin="round"/>
<path d="M359.807 720.213C382.935 721.216 404.784 731.109 420.795 747.83C436.806 764.551 445.744 786.808 445.743 809.958V810.264C445.742 833.414 436.804 855.67 420.794 872.391C404.783 889.111 382.935 899.006 359.807 900.01V720.213Z" stroke="#90CEE6" stroke-width="1.79959" stroke-linecap="round" stroke-linejoin="round"/>
<path d="M540.176 1.42041V1.42059C540.176 25.1748 549.612 47.9562 566.409 64.7529C583.206 81.5497 605.987 90.9861 629.741 90.9861H719.32L809.46 1.50457" stroke="#90CEE6" stroke-width="1.79959" stroke-linecap="round" stroke-linejoin="round"/>
<path d="M1258.48 90.9839L1168.34 1.50244" stroke="#90CEE6" stroke-width="1.79959" stroke-linecap="round" stroke-linejoin="round"/>
<path d="M179.986 1.08057V900.081" stroke="#90CEE6" stroke-width="1.79959" stroke-linecap="round" stroke-linejoin="round"/>
<path d="M359.805 900.081V1.08057" stroke="#90CEE6" stroke-width="1.79959" stroke-linecap="round" stroke-linejoin="round"/>
<path d="M299.454 360.89C299.454 294.658 245.762 240.966 179.529 240.966" stroke="#90CEE6" stroke-width="1.79959" stroke-linecap="round" stroke-linejoin="round"/>
<path d="M179.986 450.645L90.4512 361.11L0.916086 450.645L90.4512 540.181L179.986 450.645Z" stroke="#90CEE6" stroke-width="1.79959" stroke-linecap="round" stroke-linejoin="round"/>
<path d="M0.310547 361.11L89.8456 450.645L0.310547 540.181" stroke="#90CEE6" stroke-width="1.79959" stroke-linecap="round" stroke-linejoin="round"/>
<path d="M0.310547 386.873L64.0869 450.65L0.310547 514.426" stroke="#90CEE6" stroke-width="1.79959" stroke-linecap="round" stroke-linejoin="round"/>
<path d="M0.00390625 412.326L38.3274 450.65L0.465801 488.511" stroke="#90CEE6" stroke-width="1.79959" stroke-linecap="round" stroke-linejoin="round"/>
<path d="M90.4512 361.115V121.358" stroke="#90CEE6" stroke-width="1.79959" stroke-linecap="round" stroke-linejoin="round"/>
<path d="M179.986 1.08057V900.081" stroke="#90CEE6" stroke-width="1.79959" stroke-linecap="round" stroke-linejoin="round"/>
<path d="M359.805 900.081V1.08057" stroke="#90CEE6" stroke-width="1.79959" stroke-linecap="round" stroke-linejoin="round"/>
<path d="M1423.73 1.19385C1424.11 2.62195 1423.73 119.366 1423.73 119.366" stroke="#90CEE6" stroke-width="1.79959" stroke-linecap="round" stroke-linejoin="round"/>
<path d="M1408.66 1.19385C1409 2.4813 1408.72 97.4898 1408.67 116.191" stroke="#90CEE6" stroke-width="1.79959" stroke-linecap="round" stroke-linejoin="round"/>
<path d="M1393.57 1.19385C1393.89 2.39422 1393.68 85.0662 1393.6 111.402" stroke="#90CEE6" stroke-width="1.79959" stroke-linecap="round" stroke-linejoin="round"/>
<path d="M1378.49 1.19385C1378.79 2.29675 1378.63 72.1776 1378.54 103.946" stroke="#90CEE6" stroke-width="1.79959" stroke-linecap="round" stroke-linejoin="round"/>
<path d="M1363.41 1.19385C1363.68 2.19262 1363.57 59.5925 1363.48 94.016" stroke="#90CEE6" stroke-width="1.79959" stroke-linecap="round" stroke-linejoin="round"/>
<path d="M1348.33 1.19385C1348.56 2.05981 1348.51 45.3258 1348.44 79.2533" stroke="#90CEE6" stroke-width="1.79959" stroke-linecap="round" stroke-linejoin="round"/>
<path d="M1333.25 1.19385C1333.43 1.87529 1333.44 29.7996 1333.4 57.7814" stroke="#90CEE6" stroke-width="1.79959" stroke-linecap="round" stroke-linejoin="round"/>
<path d="M1139.39 899.947V899.546C1139.39 833.998 1192.53 780.861 1258.08 780.861H1258.08" stroke="#90CEE6" stroke-width="1.79959" stroke-linecap="round" stroke-linejoin="round"/>
<path d="M1258.38 885.518C1256.96 885.897 1140.21 885.518 1140.21 885.518" stroke="#90CEE6" stroke-width="1.79959" stroke-linecap="round" stroke-linejoin="round"/>
<path d="M1258.38 870.435C1257.1 870.777 1162.09 870.502 1143.39 870.445" stroke="#90CEE6" stroke-width="1.79959" stroke-linecap="round" stroke-linejoin="round"/>
<path d="M1258.38 855.355C1257.18 855.674 1174.51 855.457 1148.18 855.38" stroke="#90CEE6" stroke-width="1.79959" stroke-linecap="round" stroke-linejoin="round"/>
<path d="M1258.38 840.276C1257.28 840.569 1187.4 840.41 1155.63 840.322" stroke="#90CEE6" stroke-width="1.79959" stroke-linecap="round" stroke-linejoin="round"/>
<path d="M1258.38 825.193C1257.39 825.458 1199.99 825.353 1165.56 825.265" stroke="#90CEE6" stroke-width="1.79959" stroke-linecap="round" stroke-linejoin="round"/>
<path d="M1258.39 810.11C1257.52 810.34 1214.26 810.291 1180.33 810.217" stroke="#90CEE6" stroke-width="1.79959" stroke-linecap="round" stroke-linejoin="round"/>
<path d="M1258.38 795.035C1257.7 795.216 1229.78 795.224 1201.8 795.183" stroke="#90CEE6" stroke-width="1.79959" stroke-linecap="round" stroke-linejoin="round"/>
<path d="M500.184 196.044C501.719 196.037 539.09 196.044 539.09 196.044" stroke="#90CEE6" stroke-width="1.79959" stroke-linecap="round" stroke-linejoin="round"/>
<path d="M517.182 211.03C527.659 211.031 539.089 211.033 539.089 211.033" stroke="#90CEE6" stroke-width="1.79959" stroke-linecap="round" stroke-linejoin="round"/>
<path d="M528.021 226.023C534.27 226.024 539.09 226.025 539.09 226.025" stroke="#90CEE6" stroke-width="1.79959" stroke-linecap="round" stroke-linejoin="round"/>
<path d="M534.924 241.013C537.484 241.013 539.09 241.013 539.09 241.013" stroke="#90CEE6" stroke-width="1.79959" stroke-linecap="round" stroke-linejoin="round"/>
<path d="M579.513 346.289C577.978 346.296 540.607 346.289 540.607 346.289" stroke="#90CEE6" stroke-width="1.79959" stroke-linecap="round" stroke-linejoin="round"/>
<path d="M562.515 331.295C552.037 331.295 540.607 331.292 540.607 331.292" stroke="#90CEE6" stroke-width="1.79959" stroke-linecap="round" stroke-linejoin="round"/>
<path d="M551.676 316.309C545.427 316.308 540.607 316.307 540.607 316.307" stroke="#90CEE6" stroke-width="1.79959" stroke-linecap="round" stroke-linejoin="round"/>
<path d="M544.774 301.31C542.214 301.309 540.607 301.309 540.607 301.309" stroke="#90CEE6" stroke-width="1.79959" stroke-linecap="round" stroke-linejoin="round"/>
<path d="M688.746 481.275C687.211 481.268 630.154 481.275 630.154 481.275" stroke="#90CEE6" stroke-width="1.79959" stroke-linecap="round" stroke-linejoin="round"/>
<path d="M704.128 465.974C702.593 465.967 630.154 465.974 630.154 465.974" stroke="#90CEE6" stroke-width="1.79959" stroke-linecap="round" stroke-linejoin="round"/>
<path d="M673.544 496.265C663.067 496.266 630.154 496.268 630.154 496.268" stroke="#90CEE6" stroke-width="1.79959" stroke-linecap="round" stroke-linejoin="round"/>
<path d="M658.556 511.258C652.308 511.259 630.154 511.26 630.154 511.26" stroke="#90CEE6" stroke-width="1.79959" stroke-linecap="round" stroke-linejoin="round"/>
<path d="M643.246 526.256C640.687 526.257 630.154 526.257 630.154 526.257" stroke="#90CEE6" stroke-width="1.79959" stroke-linecap="round" stroke-linejoin="round"/>
<path d="M1168.76 360.76H1169.07C1218.68 360.76 1258.89 320.506 1258.89 270.851V270.851C1258.89 221.195 1299.11 180.942 1348.72 180.942H1349.03" stroke="#90CEE6" stroke-width="1.79959" stroke-linecap="round" stroke-linejoin="round"/>
<path d="M1298.34 196.044C1296.8 196.037 1259.43 196.044 1259.43 196.044" stroke="#90CEE6" stroke-width="1.79959" stroke-linecap="round" stroke-linejoin="round"/>
<path d="M1281.34 211.03C1270.86 211.031 1259.43 211.033 1259.43 211.033" stroke="#90CEE6" stroke-width="1.79959" stroke-linecap="round" stroke-linejoin="round"/>
<path d="M1270.5 226.023C1264.25 226.024 1259.43 226.025 1259.43 226.025" stroke="#90CEE6" stroke-width="1.79959" stroke-linecap="round" stroke-linejoin="round"/>
<path d="M1263.6 241.013C1261.04 241.013 1259.43 241.013 1259.43 241.013" stroke="#90CEE6" stroke-width="1.79959" stroke-linecap="round" stroke-linejoin="round"/>
<path d="M1219 346.289C1220.54 346.296 1257.91 346.289 1257.91 346.289" stroke="#90CEE6" stroke-width="1.79959" stroke-linecap="round" stroke-linejoin="round"/>
<path d="M1236 331.295C1246.48 331.295 1257.91 331.292 1257.91 331.292" stroke="#90CEE6" stroke-width="1.79959" stroke-linecap="round" stroke-linejoin="round"/>
<path d="M1246.84 316.309C1253.09 316.308 1257.91 316.307 1257.91 316.307" stroke="#90CEE6" stroke-width="1.79959" stroke-linecap="round" stroke-linejoin="round"/>
<path d="M1253.74 301.31C1256.3 301.309 1257.91 301.309 1257.91 301.309" stroke="#90CEE6" stroke-width="1.79959" stroke-linecap="round" stroke-linejoin="round"/>
<path d="M809.414 900.191H809.717C859.328 900.191 899.546 859.937 899.546 810.282V810.282C899.546 760.626 939.764 720.373 989.375 720.373H989.678" stroke="#90CEE6" stroke-width="1.79959" stroke-linecap="round" stroke-linejoin="round"/>
<path d="M938.984 735.471C937.449 735.464 900.078 735.471 900.078 735.471" stroke="#90CEE6" stroke-width="1.79959" stroke-linecap="round" stroke-linejoin="round"/>
<path d="M921.985 750.465C911.508 750.466 900.078 750.468 900.078 750.468" stroke="#90CEE6" stroke-width="1.79959" stroke-linecap="round" stroke-linejoin="round"/>
<path d="M911.146 765.454C904.898 765.455 900.078 765.456 900.078 765.456" stroke="#90CEE6" stroke-width="1.79959" stroke-linecap="round" stroke-linejoin="round"/>
<path d="M904.244 780.448C901.684 780.448 900.078 780.448 900.078 780.448" stroke="#90CEE6" stroke-width="1.79959" stroke-linecap="round" stroke-linejoin="round"/>
<path d="M859.656 885.721C861.191 885.728 898.562 885.721 898.562 885.721" stroke="#90CEE6" stroke-width="1.79959" stroke-linecap="round" stroke-linejoin="round"/>
<path d="M876.656 870.726C887.133 870.725 898.563 870.723 898.563 870.723" stroke="#90CEE6" stroke-width="1.79959" stroke-linecap="round" stroke-linejoin="round"/>
<path d="M887.496 855.736C893.745 855.735 898.564 855.734 898.564 855.734" stroke="#90CEE6" stroke-width="1.79959" stroke-linecap="round" stroke-linejoin="round"/>
<path d="M894.395 840.75C896.955 840.749 898.561 840.749 898.561 840.749" stroke="#90CEE6" stroke-width="1.79959" stroke-linecap="round" stroke-linejoin="round"/>
<path d="M270.407 900.191H270.103C220.492 900.191 180.275 859.937 180.275 810.282V810.282C180.275 760.626 140.057 720.373 90.4459 720.373H90.1426" stroke="#90CEE6" stroke-width="1.79959" stroke-linecap="round" stroke-linejoin="round"/>
<path d="M140.834 735.471C142.369 735.464 179.74 735.471 179.74 735.471" stroke="#90CEE6" stroke-width="1.79959" stroke-linecap="round" stroke-linejoin="round"/>
<path d="M157.832 750.465C168.309 750.466 179.739 750.468 179.739 750.468" stroke="#90CEE6" stroke-width="1.79959" stroke-linecap="round" stroke-linejoin="round"/>
<path d="M168.674 765.454C174.922 765.455 179.742 765.456 179.742 765.456" stroke="#90CEE6" stroke-width="1.79959" stroke-linecap="round" stroke-linejoin="round"/>
<path d="M175.574 780.448C178.134 780.448 179.741 780.448 179.741 780.448" stroke="#90CEE6" stroke-width="1.79959" stroke-linecap="round" stroke-linejoin="round"/>
<path d="M220.166 885.721C218.631 885.728 181.26 885.721 181.26 885.721" stroke="#90CEE6" stroke-width="1.79959" stroke-linecap="round" stroke-linejoin="round"/>
<path d="M203.167 870.726C192.69 870.725 181.26 870.723 181.26 870.723" stroke="#90CEE6" stroke-width="1.79959" stroke-linecap="round" stroke-linejoin="round"/>
<path d="M192.328 855.736C186.079 855.735 181.26 855.734 181.26 855.734" stroke="#90CEE6" stroke-width="1.79959" stroke-linecap="round" stroke-linejoin="round"/>
<path d="M185.426 840.75C182.866 840.749 181.26 840.749 181.26 840.749" stroke="#90CEE6" stroke-width="1.79959" stroke-linecap="round" stroke-linejoin="round"/>
<path d="M718.939 270.592H1169.09" stroke="#90CEE6" stroke-width="1.79959" stroke-linecap="round" stroke-linejoin="round"/>
<path d="M1274.27 577.042V705.369H1402.6L1274.27 577.042Z" stroke="#90CEE6" stroke-width="1.79959" stroke-linecap="round" stroke-linejoin="round"/>
<path d="M1289.22 613.124V690.42H1366.52L1289.22 613.124Z" stroke="#90CEE6" stroke-width="1.79959" stroke-linecap="round" stroke-linejoin="round"/>
<path d="M809.172 540.225C858.543 540.225 898.567 500.201 898.567 450.83C898.567 401.459 858.543 361.435 809.172 361.435C759.801 361.435 719.777 401.459 719.777 450.83C719.777 500.201 759.801 540.225 809.172 540.225Z" stroke="#90CEE6" stroke-width="1.79959" stroke-linecap="round" stroke-linejoin="round"/>
<path d="M1168.99 481.368C1185.84 481.368 1199.49 467.716 1199.49 450.874C1199.49 434.033 1185.84 420.381 1168.99 420.381C1152.15 420.381 1138.5 434.033 1138.5 450.874C1138.5 467.716 1152.15 481.368 1168.99 481.368Z" stroke="#90CEE6" stroke-width="1.79959" stroke-linecap="round" stroke-linejoin="round"/>
<path d="M1079.16 421.232C1013.27 421.232 959.813 474.453 959.434 540.251" stroke="#90CEE6" stroke-width="1.79959" stroke-linecap="round" stroke-linejoin="round"/>
<path d="M1259.37 720.464C1259.37 696.56 1249.88 673.635 1232.98 656.732C1216.07 639.83 1193.15 630.334 1169.24 630.334H1169.24C1145.34 630.334 1122.41 639.83 1105.51 656.732C1088.61 673.635 1079.11 696.56 1079.11 720.464" stroke="#90CEE6" stroke-width="1.79959" stroke-linecap="round" stroke-linejoin="round"/>
<path d="M1349.37 721.216V900.08" stroke="#90CEE6" stroke-width="1.79959" stroke-linecap="round" stroke-linejoin="round"/>
<path d="M1169 481.373V630.338" stroke="#90CEE6" stroke-width="1.79959" stroke-linecap="round" stroke-linejoin="round"/>
<path d="M179.986 450.579C179.986 450.647 450.066 450.579 450.066 450.579" stroke="#90CEE6" stroke-width="1.79959" stroke-linecap="round" stroke-linejoin="round"/>
<path d="M450.07 361.435V540.537" stroke="#90CEE6" stroke-width="1.79959" stroke-linecap="round" stroke-linejoin="round"/>
<path d="M479.161 600.344H419.475V660.031H479.161V600.344Z" stroke="#90CEE6" stroke-width="1.79959" stroke-linecap="round" stroke-linejoin="round"/>
<path d="M719.777 450.832H629.918V540.227L719.777 450.832Z" stroke="#90CEE6" stroke-width="1.79959" stroke-linecap="round" stroke-linejoin="round"/>
<path d="M90.1494 540.851C107.918 540.851 125.287 546.12 140.061 555.992C154.835 565.864 166.35 579.894 173.15 596.31C179.949 612.726 181.728 630.79 178.262 648.217C174.795 665.644 166.239 681.652 153.675 694.216C141.111 706.78 125.103 715.336 107.676 718.803C90.249 722.269 72.1854 720.49 55.7695 713.69C39.3536 706.891 25.3227 695.376 15.4511 680.602C5.5795 665.828 0.310547 648.459 0.310547 630.69H90.1494V540.851Z" stroke="#90CEE6" stroke-width="1.79959" stroke-linecap="round" stroke-linejoin="round"/>
<path d="M629.428 720.572H629.428C653.267 720.572 676.129 730.042 692.986 746.898C709.842 763.755 719.312 786.617 719.312 810.456V899.995H539.543V810.456C539.543 798.653 541.868 786.964 546.385 776.059C550.902 765.154 557.523 755.245 565.87 746.898C574.216 738.552 584.125 731.931 595.03 727.414C605.935 722.897 617.624 720.572 629.428 720.572Z" stroke="#90CEE6" stroke-width="1.79959" stroke-linecap="round" stroke-linejoin="round"/>
<path d="M704.208 884.921V810.428C704.208 790.595 696.329 771.574 682.305 757.55C668.281 743.526 649.26 735.647 629.427 735.647H629.427C609.594 735.647 590.573 743.526 576.549 757.55C562.525 771.574 554.646 790.595 554.646 810.428V884.921" stroke="#90CEE6" stroke-width="1.79959" stroke-linecap="round" stroke-linejoin="round"/>
<path d="M689.271 870.013V810.401C689.271 794.53 682.966 779.309 671.743 768.086C660.521 756.863 645.3 750.559 629.428 750.559H629.428C613.557 750.559 598.336 756.863 587.113 768.086C575.891 779.309 569.586 794.53 569.586 810.401V870.013" stroke="#90CEE6" stroke-width="1.79959" stroke-linecap="round" stroke-linejoin="round"/>
<path d="M674.305 855.072V810.367C674.305 798.465 669.576 787.05 661.16 778.634C652.744 770.217 641.329 765.489 629.427 765.489H629.427C617.524 765.489 606.109 770.217 597.693 778.634C589.277 787.05 584.549 798.465 584.549 810.367V855.072" stroke="#90CEE6" stroke-width="1.79959" stroke-linecap="round" stroke-linejoin="round"/>
<path d="M539.543 899.992L599.487 840.164V810.338C599.487 802.397 602.641 794.781 608.256 789.166C613.871 783.551 621.487 780.397 629.428 780.397H629.428C637.369 780.397 644.984 783.551 650.599 789.166C656.214 794.781 659.369 802.397 659.369 810.338V840.164L719.312 899.992" stroke="#90CEE6" stroke-width="1.79959" stroke-linecap="round" stroke-linejoin="round"/>
<path d="M539.537 630.233V630.537C539.537 680.148 579.791 720.365 629.446 720.365H629.446" stroke="#90CEE6" stroke-width="1.79959" stroke-linecap="round" stroke-linejoin="round"/>
<path d="M359.806 540.578V720.003H270.049V630.462C270.049 606.645 279.501 583.802 296.33 566.949C313.16 550.096 335.99 540.611 359.806 540.578V540.578Z" stroke="#90CEE6" stroke-width="1.79959" stroke-linecap="round" stroke-linejoin="round"/>
<path d="M359.805 555.649V704.926H285.152V630.434C285.152 610.623 293.013 591.621 307.009 577.599C321.006 563.578 339.994 555.684 359.805 555.649V555.649Z" stroke="#90CEE6" stroke-width="1.79959" stroke-linecap="round" stroke-linejoin="round"/>
<path d="M359.804 570.565V690.016H300.088V630.407C300.087 614.557 306.374 599.355 317.57 588.136C328.765 576.917 343.955 570.597 359.804 570.565V570.565Z" stroke="#90CEE6" stroke-width="1.79959" stroke-linecap="round" stroke-linejoin="round"/>
<path d="M359.807 585.499V675.083H315.057V630.375C315.056 618.495 319.766 607.099 328.155 598.687C336.544 590.274 347.926 585.532 359.807 585.499V585.499Z" stroke="#90CEE6" stroke-width="1.79959" stroke-linecap="round" stroke-linejoin="round"/>
<path d="M359.807 600.407V660.171H329.994V630.346C329.994 622.427 333.131 614.831 338.719 609.22C344.306 603.609 351.889 600.44 359.807 600.407V600.407Z" stroke="#90CEE6" stroke-width="1.79959" stroke-linecap="round" stroke-linejoin="round"/>
<path d="M899.715 540.578V720.003H989.472V630.462C989.473 606.645 980.02 583.802 963.191 566.949C946.362 550.096 923.532 540.611 899.715 540.578Z" stroke="#90CEE6" stroke-width="1.79959" stroke-linecap="round" stroke-linejoin="round"/>
<path d="M899.715 555.649V704.926H974.368V630.434C974.369 610.623 966.508 591.621 952.511 577.599C938.515 563.578 919.526 555.684 899.715 555.649Z" stroke="#90CEE6" stroke-width="1.79959" stroke-linecap="round" stroke-linejoin="round"/>
<path d="M899.715 570.565V690.016H959.431V630.407C959.432 614.557 953.145 599.355 941.949 588.136C930.754 576.917 915.564 570.597 899.715 570.565V570.565Z" stroke="#90CEE6" stroke-width="1.79959" stroke-linecap="round" stroke-linejoin="round"/>
<path d="M899.715 585.499V675.083H944.465V630.375C944.465 618.495 939.755 607.099 931.366 598.687C922.977 590.274 911.595 585.532 899.715 585.499V585.499Z" stroke="#90CEE6" stroke-width="1.79959" stroke-linecap="round" stroke-linejoin="round"/>
<path d="M899.715 600.407V660.171H929.528V630.346C929.528 622.427 926.391 614.831 920.804 609.22C915.216 603.609 907.633 600.44 899.715 600.407V600.407Z" stroke="#90CEE6" stroke-width="1.79959" stroke-linecap="round" stroke-linejoin="round"/>
<path d="M269.873 180.625H269.873C258.069 180.625 246.381 178.301 235.476 173.783C224.57 169.266 214.662 162.645 206.315 154.299C197.968 145.952 191.348 136.044 186.83 125.138C182.313 114.233 179.988 102.545 179.988 90.7409L179.988 1.20182L359.758 1.20182V90.7409C359.758 102.545 357.433 114.233 352.916 125.138C348.399 136.044 341.778 145.952 333.431 154.299C325.085 162.645 315.176 169.266 304.271 173.783C293.365 178.301 281.677 180.625 269.873 180.625V180.625Z" stroke="#90CEE6" stroke-width="1.79959" stroke-linecap="round" stroke-linejoin="round"/>
<path d="M195.09 16.269V90.7623C195.09 110.595 202.969 129.616 216.993 143.64C231.017 157.664 250.038 165.543 269.871 165.543H269.871C289.704 165.543 308.725 157.664 322.749 143.64C336.773 129.616 344.651 110.595 344.651 90.7623V16.269" stroke="#90CEE6" stroke-width="1.79959" stroke-linecap="round" stroke-linejoin="round"/>
<path d="M210.031 31.1846V90.7969C210.031 106.668 216.336 121.889 227.559 133.112C238.781 144.334 254.002 150.639 269.874 150.639H269.874C285.745 150.639 300.966 144.334 312.189 133.112C323.411 121.889 329.716 106.668 329.716 90.7969V31.1846" stroke="#90CEE6" stroke-width="1.79959" stroke-linecap="round" stroke-linejoin="round"/>
<path d="M224.994 46.1191V90.8245C224.994 102.727 229.722 114.142 238.139 122.558C246.555 130.974 257.97 135.702 269.872 135.702H269.872C281.774 135.702 293.189 130.974 301.606 122.558C310.022 114.142 314.75 102.727 314.75 90.8245V46.1191" stroke="#90CEE6" stroke-width="1.79959" stroke-linecap="round" stroke-linejoin="round"/>
<path d="M359.756 1.19775L299.812 61.026V90.852C299.812 98.7929 296.658 106.409 291.043 112.024C285.428 117.639 277.812 120.793 269.871 120.793H269.871C261.93 120.793 254.314 117.639 248.699 112.024C243.084 106.409 239.93 98.7929 239.93 90.852V61.026L179.986 1.19775" stroke="#90CEE6" stroke-width="1.79959" stroke-linecap="round" stroke-linejoin="round"/>
<path d="M479.762 631.241H809.174" stroke="#90CEE6" stroke-width="1.79959" stroke-linecap="round" stroke-linejoin="round"/>
<path d="M539.624 91.0591H359.758" stroke="#90CEE6" stroke-width="1.79959" stroke-linecap="round" stroke-linejoin="round"/>
</g>
</g>
<defs>
<clipPath id="clip0">
<rect y="0.634766" width="1438.71" height="899.11" fill="white"/>
</clipPath>
</defs>
</svg>
