<svg width="414" height="1490" viewBox="0 0 414 1490" fill="none" xmlns="http://www.w3.org/2000/svg">
<g clip-path="url(#clip0)">
<rect y="0.634766" width="413.28" height="1488.92" fill="white"/>
<rect x="413.281" y="0.634766" width="1488.92" height="413.284" transform="rotate(90 413.281 0.634766)" fill="#FBFBFB"/>
<g opacity="0.65">
<path d="M413.281 661.841L413.281 0.662598L0.0878601 0.66258L0.0878313 661.841L413.281 661.841Z" stroke="#90CEE6" stroke-width="0.827121" stroke-linecap="round" stroke-linejoin="round"/>
<path d="M413.285 248.604L0.0902808 248.603" stroke="#90CEE6" stroke-width="0.827121" stroke-linecap="round" stroke-linejoin="round"/>
<path d="M413.285 331.252L0.0902808 331.252" stroke="#90CEE6" stroke-width="0.827121" stroke-linecap="round" stroke-linejoin="round"/>
<path d="M413.285 338.162L378.954 338.162" stroke="#90CEE6" stroke-width="0.827121" stroke-linecap="round" stroke-linejoin="round"/>
<path d="M413.285 345.072L385.838 345.072" stroke="#90CEE6" stroke-width="0.827121" stroke-linecap="round" stroke-linejoin="round"/>
<path d="M413.285 351.986L392.685 351.986" stroke="#90CEE6" stroke-width="0.827121" stroke-linecap="round" stroke-linejoin="round"/>
<path d="M413.285 358.896L399.553 358.896" stroke="#90CEE6" stroke-width="0.827121" stroke-linecap="round" stroke-linejoin="round"/>
<path d="M413.285 365.807L406.491 365.807" stroke="#90CEE6" stroke-width="0.827121" stroke-linecap="round" stroke-linejoin="round"/>
<path d="M413.285 413.9L0.0902808 413.9" stroke="#90CEE6" stroke-width="0.827121" stroke-linecap="round" stroke-linejoin="round"/>
<path d="M413.285 496.545L0.0902808 496.545" stroke="#90CEE6" stroke-width="0.827121" stroke-linecap="round" stroke-linejoin="round"/>
<path d="M413.285 579.193L0.0902808 579.193" stroke="#90CEE6" stroke-width="0.827121" stroke-linecap="round" stroke-linejoin="round"/>
<path d="M247.969 1.00977L247.969 661.5L165.008 579.533L82.6747 661.5L82.6747 1.00976" stroke="#90CEE6" stroke-width="0.827121" stroke-linecap="round" stroke-linejoin="round"/>
<path d="M330.617 661.5L330.617 1.00977" stroke="#90CEE6" stroke-width="0.827121" stroke-linecap="round" stroke-linejoin="round"/>
<path d="M165.324 661.5L165.324 1.00977" stroke="#90CEE6" stroke-width="0.827121" stroke-linecap="round" stroke-linejoin="round"/>
<path d="M358.005 42.019C358.005 49.7086 364.239 55.9422 371.928 55.9422C379.618 55.9422 385.852 49.7086 385.852 42.019C385.852 34.3294 379.618 28.0957 371.928 28.0957C364.239 28.0957 358.005 34.3294 358.005 42.019Z" stroke="#90CEE6" stroke-width="0.827121" stroke-linecap="round" stroke-linejoin="round"/>
<path d="M247.97 290.03L247.97 289.89C247.97 267.088 266.471 248.604 289.294 248.604L289.294 248.604C312.116 248.604 330.617 230.119 330.617 207.317L330.617 207.178" stroke="#90CEE6" stroke-width="0.827121" stroke-linecap="round" stroke-linejoin="round"/>
<path d="M358.54 661.591L358.54 661.407C358.54 631.28 382.963 606.857 413.09 606.857L413.09 606.857" stroke="#90CEE6" stroke-width="0.827121" stroke-linecap="round" stroke-linejoin="round"/>
<path d="M413.285 496.663C402.96 496.229 393.177 491.926 385.88 484.609C382.04 480.779 378.995 476.229 376.92 471.219C374.845 466.208 373.78 460.837 373.787 455.415L373.787 455.274C373.788 444.634 377.896 434.405 385.255 426.719C392.613 419.034 402.655 414.487 413.285 414.025L413.285 496.663Z" stroke="#90CEE6" stroke-width="0.827121" stroke-linecap="round" stroke-linejoin="round"/>
<path d="M82.7578 165.959C82.2968 176.589 77.7495 186.631 70.0643 193.99C62.3792 201.349 52.1496 205.457 41.5093 205.457L41.3687 205.457C30.7286 205.456 20.4993 201.348 12.8143 193.99C5.12924 186.631 0.581753 176.589 0.120184 165.959L82.7578 165.959Z" stroke="#90CEE6" stroke-width="0.827121" stroke-linecap="round" stroke-linejoin="round"/>
<path d="M413.129 248.861L413.129 248.861C402.211 248.861 391.74 253.198 384.02 260.918C376.3 268.639 371.963 279.109 371.963 290.027L371.963 331.199L413.09 372.629" stroke="#90CEE6" stroke-width="0.827121" stroke-linecap="round" stroke-linejoin="round"/>
<path d="M371.963 578.998L413.09 537.568" stroke="#90CEE6" stroke-width="0.827121" stroke-linecap="round" stroke-linejoin="round"/>
<path d="M413.285 83.3105L0.0902808 83.3105" stroke="#90CEE6" stroke-width="0.827121" stroke-linecap="round" stroke-linejoin="round"/>
<path d="M0.0902808 165.959L413.285 165.959" stroke="#90CEE6" stroke-width="0.827121" stroke-linecap="round" stroke-linejoin="round"/>
<path d="M247.908 138.219C278.35 138.219 303.027 113.541 303.027 83.0996" stroke="#90CEE6" stroke-width="0.827121" stroke-linecap="round" stroke-linejoin="round"/>
<path d="M206.657 83.3099L247.809 42.1582L206.657 1.00647L165.505 42.1582L206.657 83.3099Z" stroke="#90CEE6" stroke-width="0.827121" stroke-linecap="round" stroke-linejoin="round"/>
<path d="M247.809 0.729004L206.657 41.8807L165.505 0.729" stroke="#90CEE6" stroke-width="0.827121" stroke-linecap="round" stroke-linejoin="round"/>
<path d="M235.969 0.729004L206.656 30.0416L177.344 0.729001" stroke="#90CEE6" stroke-width="0.827121" stroke-linecap="round" stroke-linejoin="round"/>
<path d="M224.27 0.587891L206.655 18.202L189.253 0.800183" stroke="#90CEE6" stroke-width="0.827121" stroke-linecap="round" stroke-linejoin="round"/>
<path d="M247.804 42.1582L358 42.1582" stroke="#90CEE6" stroke-width="0.827121" stroke-linecap="round" stroke-linejoin="round"/>
<path d="M413.285 83.3105L0.0902808 83.3105" stroke="#90CEE6" stroke-width="0.827121" stroke-linecap="round" stroke-linejoin="round"/>
<path d="M0.0902808 165.959L413.285 165.959" stroke="#90CEE6" stroke-width="0.827121" stroke-linecap="round" stroke-linejoin="round"/>
<path d="M413.23 654.959C412.574 655.133 358.917 654.959 358.917 654.959" stroke="#90CEE6" stroke-width="0.827121" stroke-linecap="round" stroke-linejoin="round"/>
<path d="M413.23 648.025C412.639 648.183 368.971 648.056 360.376 648.03" stroke="#90CEE6" stroke-width="0.827121" stroke-linecap="round" stroke-linejoin="round"/>
<path d="M413.23 641.096C412.679 641.242 374.681 641.142 362.577 641.107" stroke="#90CEE6" stroke-width="0.827121" stroke-linecap="round" stroke-linejoin="round"/>
<path d="M413.23 634.162C412.724 634.297 380.605 634.223 366.004 634.183" stroke="#90CEE6" stroke-width="0.827121" stroke-linecap="round" stroke-linejoin="round"/>
<path d="M413.23 627.232C412.771 627.354 386.39 627.306 370.568 627.265" stroke="#90CEE6" stroke-width="0.827121" stroke-linecap="round" stroke-linejoin="round"/>
<path d="M413.23 620.299C412.832 620.405 392.947 620.382 377.353 620.348" stroke="#90CEE6" stroke-width="0.827121" stroke-linecap="round" stroke-linejoin="round"/>
<path d="M413.23 613.369C412.917 613.452 400.083 613.456 387.222 613.437" stroke="#90CEE6" stroke-width="0.827121" stroke-linecap="round" stroke-linejoin="round"/>
<path d="M0.153113 524.268L0.337344 524.268C30.4641 524.268 54.8867 548.69 54.8867 578.817L54.8867 578.817" stroke="#90CEE6" stroke-width="0.827121" stroke-linecap="round" stroke-linejoin="round"/>
<path d="M6.78515 578.96C6.6108 578.304 6.78516 524.646 6.78516 524.646" stroke="#90CEE6" stroke-width="0.827121" stroke-linecap="round" stroke-linejoin="round"/>
<path d="M13.7187 578.962C13.5616 578.37 13.6878 534.703 13.7142 526.107" stroke="#90CEE6" stroke-width="0.827121" stroke-linecap="round" stroke-linejoin="round"/>
<path d="M20.6484 578.96C20.5019 578.408 20.6017 540.411 20.6373 528.307" stroke="#90CEE6" stroke-width="0.827121" stroke-linecap="round" stroke-linejoin="round"/>
<path d="M27.5781 578.959C27.4435 578.452 27.5168 546.334 27.5572 531.732" stroke="#90CEE6" stroke-width="0.827121" stroke-linecap="round" stroke-linejoin="round"/>
<path d="M34.5078 578.957C34.3859 578.498 34.4345 552.117 34.4747 536.295" stroke="#90CEE6" stroke-width="0.827121" stroke-linecap="round" stroke-linejoin="round"/>
<path d="M41.4414 578.961C41.3357 578.563 41.3582 558.678 41.3923 543.084" stroke="#90CEE6" stroke-width="0.827121" stroke-linecap="round" stroke-linejoin="round"/>
<path d="M48.375 578.96C48.2918 578.647 48.288 565.812 48.3068 552.951" stroke="#90CEE6" stroke-width="0.827121" stroke-linecap="round" stroke-linejoin="round"/>
<path d="M323.674 230.479C323.678 231.184 323.674 248.36 323.674 248.36" stroke="#90CEE6" stroke-width="0.827121" stroke-linecap="round" stroke-linejoin="round"/>
<path d="M316.785 238.291C316.785 243.106 316.784 248.36 316.784 248.36" stroke="#90CEE6" stroke-width="0.827121" stroke-linecap="round" stroke-linejoin="round"/>
<path d="M309.898 243.271C309.898 246.143 309.898 248.358 309.898 248.358" stroke="#90CEE6" stroke-width="0.827121" stroke-linecap="round" stroke-linejoin="round"/>
<path d="M303.008 246.447C303.008 247.624 303.007 248.362 303.007 248.362" stroke="#90CEE6" stroke-width="0.827121" stroke-linecap="round" stroke-linejoin="round"/>
<path d="M254.625 266.942C254.622 266.237 254.625 249.061 254.625 249.061" stroke="#90CEE6" stroke-width="0.827121" stroke-linecap="round" stroke-linejoin="round"/>
<path d="M261.51 259.129C261.511 254.314 261.512 249.061 261.512 249.061" stroke="#90CEE6" stroke-width="0.827121" stroke-linecap="round" stroke-linejoin="round"/>
<path d="M268.402 254.148C268.402 251.276 268.402 249.061 268.402 249.061" stroke="#90CEE6" stroke-width="0.827121" stroke-linecap="round" stroke-linejoin="round"/>
<path d="M275.293 250.975C275.293 249.799 275.293 249.061 275.293 249.061" stroke="#90CEE6" stroke-width="0.827121" stroke-linecap="round" stroke-linejoin="round"/>
<path d="M192.577 317.143C192.58 316.437 192.577 290.213 192.577 290.213" stroke="#90CEE6" stroke-width="0.827121" stroke-linecap="round" stroke-linejoin="round"/>
<path d="M199.612 324.212C199.615 323.507 199.612 290.213 199.612 290.213" stroke="#90CEE6" stroke-width="0.827121" stroke-linecap="round" stroke-linejoin="round"/>
<path d="M185.687 310.156C185.687 305.34 185.686 290.213 185.686 290.213" stroke="#90CEE6" stroke-width="0.827121" stroke-linecap="round" stroke-linejoin="round"/>
<path d="M178.801 303.267C178.8 300.395 178.8 290.213 178.8 290.213" stroke="#90CEE6" stroke-width="0.827121" stroke-linecap="round" stroke-linejoin="round"/>
<path d="M171.91 296.231C171.91 295.054 171.91 290.213 171.91 290.213" stroke="#90CEE6" stroke-width="0.827121" stroke-linecap="round" stroke-linejoin="round"/>
<path d="M247.97 537.768L247.97 537.907C247.97 560.709 266.471 579.194 289.294 579.194L289.294 579.194C312.116 579.194 330.617 597.678 330.617 620.48L330.617 620.62" stroke="#90CEE6" stroke-width="0.827121" stroke-linecap="round" stroke-linejoin="round"/>
<path d="M323.674 597.321C323.678 596.616 323.674 579.439 323.674 579.439" stroke="#90CEE6" stroke-width="0.827121" stroke-linecap="round" stroke-linejoin="round"/>
<path d="M316.785 589.508C316.785 584.693 316.784 579.439 316.784 579.439" stroke="#90CEE6" stroke-width="0.827121" stroke-linecap="round" stroke-linejoin="round"/>
<path d="M309.898 584.527C309.898 581.655 309.898 579.439 309.898 579.439" stroke="#90CEE6" stroke-width="0.827121" stroke-linecap="round" stroke-linejoin="round"/>
<path d="M303.008 581.354C303.008 580.178 303.007 579.439 303.007 579.439" stroke="#90CEE6" stroke-width="0.827121" stroke-linecap="round" stroke-linejoin="round"/>
<path d="M254.625 560.857C254.622 561.563 254.625 578.739 254.625 578.739" stroke="#90CEE6" stroke-width="0.827121" stroke-linecap="round" stroke-linejoin="round"/>
<path d="M261.51 568.67C261.511 573.485 261.512 578.739 261.512 578.739" stroke="#90CEE6" stroke-width="0.827121" stroke-linecap="round" stroke-linejoin="round"/>
<path d="M268.402 573.654C268.402 576.526 268.402 578.741 268.402 578.741" stroke="#90CEE6" stroke-width="0.827121" stroke-linecap="round" stroke-linejoin="round"/>
<path d="M275.293 576.826C275.293 578.003 275.293 578.741 275.293 578.741" stroke="#90CEE6" stroke-width="0.827121" stroke-linecap="round" stroke-linejoin="round"/>
<path d="M0.0403803 372.607L0.0403802 372.747C0.0403792 395.549 18.5416 414.033 41.3639 414.033L41.364 414.033C64.1863 414.033 82.6875 432.518 82.6875 455.32L82.6875 455.46" stroke="#90CEE6" stroke-width="0.827121" stroke-linecap="round" stroke-linejoin="round"/>
<path d="M75.7447 432.157C75.7479 431.452 75.7447 414.275 75.7447 414.275" stroke="#90CEE6" stroke-width="0.827121" stroke-linecap="round" stroke-linejoin="round"/>
<path d="M68.8594 424.344C68.859 419.529 68.8581 414.275 68.8581 414.275" stroke="#90CEE6" stroke-width="0.827121" stroke-linecap="round" stroke-linejoin="round"/>
<path d="M61.9648 419.362C61.9645 416.49 61.9641 414.275 61.9641 414.275" stroke="#90CEE6" stroke-width="0.827121" stroke-linecap="round" stroke-linejoin="round"/>
<path d="M55.0742 416.19C55.074 415.013 55.0739 414.275 55.0739 414.275" stroke="#90CEE6" stroke-width="0.827121" stroke-linecap="round" stroke-linejoin="round"/>
<path d="M6.69141 395.697C6.68822 396.403 6.69141 413.579 6.69141 413.579" stroke="#90CEE6" stroke-width="0.827121" stroke-linecap="round" stroke-linejoin="round"/>
<path d="M13.5807 403.51C13.5811 408.325 13.582 413.579 13.582 413.579" stroke="#90CEE6" stroke-width="0.827121" stroke-linecap="round" stroke-linejoin="round"/>
<path d="M20.4718 408.49C20.4722 411.362 20.4727 413.577 20.4727 413.577" stroke="#90CEE6" stroke-width="0.827121" stroke-linecap="round" stroke-linejoin="round"/>
<path d="M27.359 411.662C27.3592 412.839 27.3594 413.577 27.3594 413.577" stroke="#90CEE6" stroke-width="0.827121" stroke-linecap="round" stroke-linejoin="round"/>
<path d="M0.0364704 124.87L0.0364704 124.73C0.0364714 101.928 18.5377 83.4436 41.36 83.4437L41.3601 83.4437C64.1824 83.4437 82.6836 64.959 82.6836 42.157L82.6836 42.0176" stroke="#90CEE6" stroke-width="0.827121" stroke-linecap="round" stroke-linejoin="round"/>
<path d="M75.7447 65.3145C75.7479 66.02 75.7447 83.1963 75.7447 83.1963" stroke="#90CEE6" stroke-width="0.827121" stroke-linecap="round" stroke-linejoin="round"/>
<path d="M68.8594 73.1309C68.859 77.9463 68.8581 83.1997 68.8581 83.1997" stroke="#90CEE6" stroke-width="0.827121" stroke-linecap="round" stroke-linejoin="round"/>
<path d="M61.9648 78.1113C61.9645 80.9832 61.9641 83.1983 61.9641 83.1983" stroke="#90CEE6" stroke-width="0.827121" stroke-linecap="round" stroke-linejoin="round"/>
<path d="M55.0742 81.2832C55.074 82.4596 55.0739 83.1977 55.0739 83.1977" stroke="#90CEE6" stroke-width="0.827121" stroke-linecap="round" stroke-linejoin="round"/>
<path d="M6.69141 101.778C6.68822 101.073 6.69141 83.8965 6.69141 83.8965" stroke="#90CEE6" stroke-width="0.827121" stroke-linecap="round" stroke-linejoin="round"/>
<path d="M13.5807 93.9654C13.5811 89.1499 13.582 83.8965 13.582 83.8965" stroke="#90CEE6" stroke-width="0.827121" stroke-linecap="round" stroke-linejoin="round"/>
<path d="M20.4679 88.9835C20.4683 86.1116 20.4688 83.8965 20.4688 83.8965" stroke="#90CEE6" stroke-width="0.827121" stroke-linecap="round" stroke-linejoin="round"/>
<path d="M27.359 85.811C27.3592 84.6345 27.3594 83.8965 27.3594 83.8965" stroke="#90CEE6" stroke-width="0.827121" stroke-linecap="round" stroke-linejoin="round"/>
<path d="M289.414 331.021L289.414 537.92" stroke="#90CEE6" stroke-width="0.827121" stroke-linecap="round" stroke-linejoin="round"/>
<path d="M148.562 586.264L89.5814 586.264L89.5813 645.245L148.562 586.264Z" stroke="#90CEE6" stroke-width="0.827121" stroke-linecap="round" stroke-linejoin="round"/>
<path d="M131.98 593.131L96.4537 593.131L96.4537 628.658L131.98 593.131Z" stroke="#90CEE6" stroke-width="0.827121" stroke-linecap="round" stroke-linejoin="round"/>
<path d="M165.486 372.495C165.486 395.187 183.881 413.583 206.573 413.583C229.265 413.583 247.66 395.187 247.66 372.495C247.66 349.804 229.265 331.408 206.573 331.408C183.881 331.408 165.486 349.804 165.486 372.495Z" stroke="#90CEE6" stroke-width="0.827121" stroke-linecap="round" stroke-linejoin="round"/>
<path d="M192.536 537.873C192.536 545.613 198.81 551.888 206.551 551.888C214.291 551.888 220.566 545.613 220.566 537.873C220.566 530.132 214.291 523.857 206.551 523.857C198.81 523.857 192.536 530.132 192.536 537.873Z" stroke="#90CEE6" stroke-width="0.827121" stroke-linecap="round" stroke-linejoin="round"/>
<path d="M220.176 496.583C220.176 466.3 195.714 441.731 165.473 441.557" stroke="#90CEE6" stroke-width="0.827121" stroke-linecap="round" stroke-linejoin="round"/>
<path d="M82.6451 579.415C93.6318 579.415 104.168 575.05 111.937 567.282C119.706 559.513 124.07 548.976 124.07 537.99L124.07 537.99C124.07 527.003 119.706 516.466 111.937 508.698C104.168 500.929 93.6318 496.564 82.6451 496.564" stroke="#90CEE6" stroke-width="0.827121" stroke-linecap="round" stroke-linejoin="round"/>
<path d="M82.3008 620.779L0.0920686 620.779" stroke="#90CEE6" stroke-width="0.827121" stroke-linecap="round" stroke-linejoin="round"/>
<path d="M192.535 537.877L124.069 537.877" stroke="#90CEE6" stroke-width="0.827121" stroke-linecap="round" stroke-linejoin="round"/>
<path d="M206.688 83.3105C206.656 83.3105 206.687 207.444 206.687 207.444" stroke="#90CEE6" stroke-width="0.827121" stroke-linecap="round" stroke-linejoin="round"/>
<path d="M247.66 207.447L165.342 207.447" stroke="#90CEE6" stroke-width="0.827121" stroke-linecap="round" stroke-linejoin="round"/>
<path d="M137.852 220.818L137.852 193.385L110.419 193.385L110.419 220.818L137.852 220.818Z" stroke="#90CEE6" stroke-width="0.827121" stroke-linecap="round" stroke-linejoin="round"/>
<path d="M206.574 331.408L206.574 290.107L165.487 290.107L206.574 331.408Z" stroke="#90CEE6" stroke-width="0.827121" stroke-linecap="round" stroke-linejoin="round"/>
<path d="M165.199 42.0199C165.199 50.1865 162.778 58.1698 158.24 64.9601C153.703 71.7504 147.254 77.0428 139.709 80.1681C132.164 83.2933 123.862 84.111 115.852 82.5178C107.843 80.9245 100.485 76.9919 94.7105 71.2172C88.9358 65.4425 85.0032 58.0851 83.41 50.0754C81.8167 42.0657 82.6344 33.7633 85.7597 26.2183C88.8849 18.6733 94.1773 12.2245 100.968 7.68736C107.758 3.15021 115.741 0.728513 123.908 0.728514L123.908 42.0199L165.199 42.0199Z" stroke="#90CEE6" stroke-width="0.827121" stroke-linecap="round" stroke-linejoin="round"/>
<path d="M82.5937 289.881L82.5937 289.881C82.5937 300.838 78.2412 311.346 70.4936 319.093C62.7461 326.841 52.2381 331.193 41.2814 331.193L0.12777 331.193L0.127774 248.568L41.2814 248.568C46.7066 248.568 52.0787 249.637 57.0909 251.713C62.1032 253.789 66.6574 256.832 70.4936 260.668C74.3299 264.505 77.3729 269.059 79.449 274.071C81.5252 279.083 82.5937 284.456 82.5937 289.881Z" stroke="#90CEE6" stroke-width="0.827121" stroke-linecap="round" stroke-linejoin="round"/>
<path d="M7.05535 324.251L41.2937 324.251C50.4093 324.251 59.1515 320.629 65.5972 314.184C72.0429 307.738 75.6641 298.996 75.6641 289.88L75.6641 289.88C75.6641 280.765 72.0429 272.022 65.5972 265.577C59.1515 259.131 50.4093 255.51 41.2937 255.51L7.05535 255.51" stroke="#90CEE6" stroke-width="0.827121" stroke-linecap="round" stroke-linejoin="round"/>
<path d="M13.9092 317.386L41.308 317.386C48.6027 317.386 55.5985 314.488 60.7566 309.33C65.9147 304.172 68.8125 297.176 68.8125 289.882L68.8125 289.881C68.8125 282.587 65.9147 275.591 60.7566 270.433C55.5985 265.275 48.6027 262.377 41.308 262.377L13.9092 262.377" stroke="#90CEE6" stroke-width="0.827121" stroke-linecap="round" stroke-linejoin="round"/>
<path d="M20.7754 310.509L41.3227 310.509C46.7932 310.509 52.0396 308.336 55.9078 304.468C59.7761 300.599 61.9492 295.353 61.9492 289.882L61.9492 289.882C61.9492 284.412 59.7761 279.165 55.9078 275.297C52.0396 271.429 46.7932 269.256 41.3227 269.256L20.7754 269.256" stroke="#90CEE6" stroke-width="0.827121" stroke-linecap="round" stroke-linejoin="round"/>
<path d="M0.129706 248.568L27.6277 276.119L41.3362 276.119C44.986 276.119 48.4863 277.569 51.067 280.15C53.6478 282.731 55.0977 286.231 55.0977 289.881L55.0977 289.881C55.0977 293.531 53.6478 297.031 51.067 299.612C48.4863 302.192 44.986 303.642 41.3362 303.642L27.6277 303.642L0.129703 331.193" stroke="#90CEE6" stroke-width="0.827121" stroke-linecap="round" stroke-linejoin="round"/>
<path d="M124.117 248.564L123.978 248.564C101.176 248.564 82.6911 267.066 82.6911 289.888L82.6911 289.888" stroke="#90CEE6" stroke-width="0.827121" stroke-linecap="round" stroke-linejoin="round"/>
<path d="M165.324 165.959L82.8576 165.959L82.8576 124.705L124.012 124.705C134.959 124.705 145.458 129.05 153.204 136.785C160.95 144.52 165.309 155.013 165.324 165.959V165.959Z" stroke="#90CEE6" stroke-width="0.827121" stroke-linecap="round" stroke-linejoin="round"/>
<path d="M158.395 165.958L89.7849 165.958L89.7849 131.646L124.022 131.646C133.128 131.646 141.862 135.259 148.306 141.692C154.75 148.125 158.379 156.853 158.395 165.958V165.958Z" stroke="#90CEE6" stroke-width="0.827121" stroke-linecap="round" stroke-linejoin="round"/>
<path d="M151.539 165.956L96.6375 165.956L96.6375 138.51L124.035 138.51C131.319 138.509 138.307 141.399 143.463 146.545C148.62 151.69 151.524 158.672 151.539 165.956V165.956Z" stroke="#90CEE6" stroke-width="0.827121" stroke-linecap="round" stroke-linejoin="round"/>
<path d="M144.68 165.96L103.506 165.96L103.506 145.393L124.054 145.393C129.514 145.392 134.752 147.557 138.618 151.413C142.485 155.268 144.665 160.5 144.68 165.96V165.96Z" stroke="#90CEE6" stroke-width="0.827121" stroke-linecap="round" stroke-linejoin="round"/>
<path d="M137.824 165.958L110.356 165.958L110.356 152.256L124.064 152.256C127.703 152.256 131.195 153.698 133.773 156.266C136.352 158.834 137.809 162.319 137.824 165.958V165.958Z" stroke="#90CEE6" stroke-width="0.827121" stroke-linecap="round" stroke-linejoin="round"/>
<path d="M165.324 414.107L82.8576 414.107L82.8576 455.361L124.012 455.361C134.959 455.362 145.458 451.017 153.204 443.282C160.95 435.547 165.309 425.054 165.324 414.107Z" stroke="#90CEE6" stroke-width="0.827121" stroke-linecap="round" stroke-linejoin="round"/>
<path d="M158.395 414.107L89.7849 414.107L89.7849 448.419L124.022 448.419C133.128 448.419 141.862 444.806 148.306 438.373C154.75 431.94 158.379 423.213 158.395 414.107Z" stroke="#90CEE6" stroke-width="0.827121" stroke-linecap="round" stroke-linejoin="round"/>
<path d="M151.539 414.107L96.6375 414.107L96.6375 441.554L124.035 441.554C131.319 441.554 138.307 438.665 143.463 433.519C148.62 428.373 151.524 421.392 151.539 414.107V414.107Z" stroke="#90CEE6" stroke-width="0.827121" stroke-linecap="round" stroke-linejoin="round"/>
<path d="M144.68 414.107L103.506 414.107L103.506 434.675L124.054 434.675C129.514 434.675 134.752 432.51 138.618 428.655C142.485 424.799 144.665 419.568 144.68 414.107V414.107Z" stroke="#90CEE6" stroke-width="0.827121" stroke-linecap="round" stroke-linejoin="round"/>
<path d="M137.824 414.107L110.356 414.107L110.356 427.81L124.064 427.81C127.703 427.81 131.195 426.368 133.773 423.8C136.352 421.232 137.809 417.747 137.824 414.107V414.107Z" stroke="#90CEE6" stroke-width="0.827121" stroke-linecap="round" stroke-linejoin="round"/>
<path d="M330.766 124.623L330.766 124.623C330.766 119.198 331.834 113.826 333.91 108.814C335.986 103.801 339.03 99.247 342.866 95.4108C346.702 91.5746 351.256 88.5316 356.268 86.4554C361.281 84.3793 366.653 83.3107 372.078 83.3107L413.232 83.3107L413.232 165.936L372.078 165.936C366.653 165.936 361.281 164.867 356.268 162.791C351.256 160.715 346.702 157.672 342.866 153.835C339.03 149.999 335.986 145.445 333.91 140.433C331.834 135.42 330.766 130.048 330.766 124.623V124.623Z" stroke="#90CEE6" stroke-width="0.827121" stroke-linecap="round" stroke-linejoin="round"/>
<path d="M406.305 90.252L372.066 90.252C362.951 90.252 354.209 93.8731 347.763 100.319C341.317 106.765 337.696 115.507 337.696 124.622L337.696 124.622C337.696 133.738 341.317 142.48 347.763 148.926C354.209 155.372 362.951 158.993 372.066 158.993L406.305 158.993" stroke="#90CEE6" stroke-width="0.827121" stroke-linecap="round" stroke-linejoin="round"/>
<path d="M399.449 97.1191L372.05 97.1191C364.756 97.1191 357.76 100.017 352.602 105.175C347.444 110.333 344.546 117.329 344.546 124.624L344.546 124.624C344.546 131.918 347.444 138.914 352.602 144.072C357.76 149.23 364.756 152.128 372.05 152.128L399.449 152.128" stroke="#90CEE6" stroke-width="0.827121" stroke-linecap="round" stroke-linejoin="round"/>
<path d="M392.582 103.998L372.035 103.998C366.564 103.998 361.318 106.171 357.45 110.039C353.581 113.908 351.408 119.154 351.408 124.625L351.408 124.625C351.408 130.095 353.581 135.342 357.45 139.21C361.318 143.078 366.564 145.251 372.035 145.251L392.582 145.251" stroke="#90CEE6" stroke-width="0.827121" stroke-linecap="round" stroke-linejoin="round"/>
<path d="M413.23 165.935L385.732 138.384L372.024 138.384C368.374 138.384 364.874 136.935 362.293 134.354C359.712 131.773 358.263 128.273 358.263 124.623L358.263 124.623C358.263 120.973 359.712 117.473 362.293 114.892C364.874 112.311 368.374 110.862 372.024 110.862L385.732 110.862L413.23 83.3105" stroke="#90CEE6" stroke-width="0.827121" stroke-linecap="round" stroke-linejoin="round"/>
<path d="M123.656 221.092L123.656 372.495" stroke="#90CEE6" stroke-width="0.827121" stroke-linecap="round" stroke-linejoin="round"/>
<path d="M371.93 248.605L371.93 165.936" stroke="#90CEE6" stroke-width="0.827121" stroke-linecap="round" stroke-linejoin="round"/>
</g>
<mask id="mask0" mask-type="alpha" maskUnits="userSpaceOnUse" x="-1" y="1323" width="415" height="167">
<rect width="165.677" height="413.284" transform="matrix(-4.37114e-08 -1 -1 4.37114e-08 413.281 1489.6)" fill="#146778"/>
</mask>
<g mask="url(#mask0)">
<g opacity="0.65">
<path d="M413.285 828.436L413.285 1489.61L0.0917664 1489.61L0.0917376 828.436L413.285 828.436Z" stroke="#90CEE6" stroke-width="0.827121" stroke-linecap="round" stroke-linejoin="round"/>
<path d="M247.973 1489.27L247.973 828.778L165.012 910.745L82.6786 828.778L82.6786 1489.27" stroke="#90CEE6" stroke-width="0.827121" stroke-linecap="round" stroke-linejoin="round"/>
<path d="M330.621 828.778L330.621 1489.27" stroke="#90CEE6" stroke-width="0.827121" stroke-linecap="round" stroke-linejoin="round"/>
<path d="M165.328 828.778L165.328 1489.27" stroke="#90CEE6" stroke-width="0.827121" stroke-linecap="round" stroke-linejoin="round"/>
<path d="M358.009 1448.26C358.009 1440.57 364.243 1434.34 371.932 1434.34C379.622 1434.34 385.855 1440.57 385.855 1448.26C385.855 1455.95 379.622 1462.18 371.932 1462.18C364.243 1462.18 358.009 1455.95 358.009 1448.26Z" stroke="#90CEE6" stroke-width="0.827121" stroke-linecap="round" stroke-linejoin="round"/>
<path d="M82.7617 1324.32C82.3007 1313.69 77.7534 1303.65 70.0682 1296.29C62.3831 1288.93 52.1535 1284.82 41.5132 1284.82L41.3726 1284.82C30.7325 1284.82 20.5032 1288.93 12.8182 1296.29C5.13315 1303.65 0.585659 1313.69 0.12409 1324.32L82.7617 1324.32Z" stroke="#90CEE6" stroke-width="0.827121" stroke-linecap="round" stroke-linejoin="round"/>
<path d="M413.289 1406.97L0.0941871 1406.97" stroke="#90CEE6" stroke-width="0.827121" stroke-linecap="round" stroke-linejoin="round"/>
<path d="M0.0941871 1324.32L413.289 1324.32" stroke="#90CEE6" stroke-width="0.827121" stroke-linecap="round" stroke-linejoin="round"/>
<path d="M247.912 1352.06C278.354 1352.06 303.031 1376.74 303.031 1407.18" stroke="#90CEE6" stroke-width="0.827121" stroke-linecap="round" stroke-linejoin="round"/>
<path d="M206.661 1406.97L247.812 1448.12L206.661 1489.27L165.509 1448.12L206.661 1406.97Z" stroke="#90CEE6" stroke-width="0.827121" stroke-linecap="round" stroke-linejoin="round"/>
<path d="M247.812 1489.55L206.661 1448.4L165.509 1489.55" stroke="#90CEE6" stroke-width="0.827121" stroke-linecap="round" stroke-linejoin="round"/>
<path d="M235.973 1489.55L206.66 1460.24L177.347 1489.55" stroke="#90CEE6" stroke-width="0.827121" stroke-linecap="round" stroke-linejoin="round"/>
<path d="M224.273 1489.69L206.659 1472.08L189.257 1489.48" stroke="#90CEE6" stroke-width="0.827121" stroke-linecap="round" stroke-linejoin="round"/>
<path d="M247.808 1448.12L358.004 1448.12" stroke="#90CEE6" stroke-width="0.827121" stroke-linecap="round" stroke-linejoin="round"/>
<path d="M413.289 1406.97L0.0941871 1406.97" stroke="#90CEE6" stroke-width="0.827121" stroke-linecap="round" stroke-linejoin="round"/>
<path d="M0.0941871 1324.32L413.289 1324.32" stroke="#90CEE6" stroke-width="0.827121" stroke-linecap="round" stroke-linejoin="round"/>
<path d="M0.0403766 1365.41L0.0403766 1365.55C0.0403776 1388.35 18.5416 1406.83 41.3639 1406.83L41.364 1406.83C64.1863 1406.83 82.6875 1425.32 82.6875 1448.12L82.6875 1448.26" stroke="#90CEE6" stroke-width="0.827121" stroke-linecap="round" stroke-linejoin="round"/>
<path d="M75.7486 1424.96C75.7518 1424.26 75.7486 1407.08 75.7486 1407.08" stroke="#90CEE6" stroke-width="0.827121" stroke-linecap="round" stroke-linejoin="round"/>
<path d="M68.8633 1417.15C68.8629 1412.33 68.862 1407.08 68.862 1407.08" stroke="#90CEE6" stroke-width="0.827121" stroke-linecap="round" stroke-linejoin="round"/>
<path d="M61.9688 1412.17C61.9684 1409.29 61.968 1407.08 61.968 1407.08" stroke="#90CEE6" stroke-width="0.827121" stroke-linecap="round" stroke-linejoin="round"/>
<path d="M55.0781 1408.99C55.0779 1407.82 55.0778 1407.08 55.0778 1407.08" stroke="#90CEE6" stroke-width="0.827121" stroke-linecap="round" stroke-linejoin="round"/>
<path d="M6.69531 1388.5C6.69212 1389.2 6.69531 1406.38 6.69531 1406.38" stroke="#90CEE6" stroke-width="0.827121" stroke-linecap="round" stroke-linejoin="round"/>
<path d="M13.5846 1396.31C13.585 1401.13 13.5859 1406.38 13.5859 1406.38" stroke="#90CEE6" stroke-width="0.827121" stroke-linecap="round" stroke-linejoin="round"/>
<path d="M20.4718 1401.29C20.4722 1404.17 20.4727 1406.38 20.4727 1406.38" stroke="#90CEE6" stroke-width="0.827121" stroke-linecap="round" stroke-linejoin="round"/>
<path d="M27.3629 1404.47C27.3631 1405.64 27.3633 1406.38 27.3633 1406.38" stroke="#90CEE6" stroke-width="0.827121" stroke-linecap="round" stroke-linejoin="round"/>
<path d="M206.691 1406.97C206.66 1406.97 206.691 1282.83 206.691 1282.83" stroke="#90CEE6" stroke-width="0.827121" stroke-linecap="round" stroke-linejoin="round"/>
<path d="M165.203 1448.26C165.203 1440.09 162.781 1432.11 158.244 1425.32C153.707 1418.53 147.258 1413.23 139.713 1410.11C132.168 1406.98 123.866 1406.17 115.856 1407.76C107.846 1409.35 100.489 1413.28 94.7144 1419.06C88.9397 1424.83 85.0071 1432.19 83.4139 1440.2C81.8206 1448.21 82.6383 1456.51 85.7636 1464.06C88.8888 1471.6 94.1812 1478.05 100.972 1482.59C107.762 1487.13 115.745 1489.55 123.912 1489.55L123.912 1448.26L165.203 1448.26Z" stroke="#90CEE6" stroke-width="0.827121" stroke-linecap="round" stroke-linejoin="round"/>
<path d="M165.328 1324.32L82.8615 1324.32L82.8615 1365.57L124.016 1365.57C134.963 1365.57 145.462 1361.23 153.208 1353.49C160.954 1345.76 165.313 1335.26 165.328 1324.32V1324.32Z" stroke="#90CEE6" stroke-width="0.827121" stroke-linecap="round" stroke-linejoin="round"/>
<path d="M158.398 1324.32L89.7888 1324.32L89.7888 1358.63L124.026 1358.63C133.132 1358.63 141.866 1355.02 148.31 1348.59C154.754 1342.15 158.383 1333.42 158.398 1324.32V1324.32Z" stroke="#90CEE6" stroke-width="0.827121" stroke-linecap="round" stroke-linejoin="round"/>
<path d="M151.543 1324.32L96.6414 1324.32L96.6414 1351.77L124.038 1351.77C131.323 1351.77 138.311 1348.88 143.467 1343.73C148.624 1338.59 151.528 1331.61 151.543 1324.32V1324.32Z" stroke="#90CEE6" stroke-width="0.827121" stroke-linecap="round" stroke-linejoin="round"/>
<path d="M144.684 1324.32L103.51 1324.32L103.51 1344.88L124.058 1344.88C129.518 1344.89 134.756 1342.72 138.622 1338.86C142.489 1335.01 144.669 1329.78 144.684 1324.32V1324.32Z" stroke="#90CEE6" stroke-width="0.827121" stroke-linecap="round" stroke-linejoin="round"/>
<path d="M137.828 1324.32L110.359 1324.32L110.359 1338.02L124.068 1338.02C127.707 1338.02 131.198 1336.58 133.777 1334.01C136.356 1331.44 137.813 1327.96 137.828 1324.32V1324.32Z" stroke="#90CEE6" stroke-width="0.827121" stroke-linecap="round" stroke-linejoin="round"/>
<path d="M330.77 1365.65L330.77 1365.65C330.77 1371.08 331.838 1376.45 333.914 1381.46C335.99 1386.48 339.033 1391.03 342.87 1394.87C346.706 1398.7 351.26 1401.75 356.272 1403.82C361.285 1405.9 366.657 1406.97 372.082 1406.97L413.236 1406.97L413.235 1324.34L372.082 1324.34C366.657 1324.34 361.285 1325.41 356.272 1327.49C351.26 1329.56 346.706 1332.61 342.87 1336.44C339.033 1340.28 335.99 1344.83 333.914 1349.84C331.838 1354.86 330.77 1360.23 330.77 1365.65V1365.65Z" stroke="#90CEE6" stroke-width="0.827121" stroke-linecap="round" stroke-linejoin="round"/>
<path d="M406.309 1400.03L372.07 1400.03C362.955 1400.03 354.212 1396.4 347.767 1389.96C341.321 1383.51 337.7 1374.77 337.7 1365.65L337.7 1365.65C337.7 1356.54 341.321 1347.8 347.767 1341.35C354.212 1334.91 362.955 1331.28 372.07 1331.28L406.309 1331.28" stroke="#90CEE6" stroke-width="0.827121" stroke-linecap="round" stroke-linejoin="round"/>
<path d="M399.453 1393.16L372.054 1393.16C364.76 1393.16 357.764 1390.26 352.606 1385.1C347.448 1379.94 344.55 1372.95 344.55 1365.65L344.55 1365.65C344.55 1358.36 347.448 1351.36 352.606 1346.21C357.764 1341.05 364.76 1338.15 372.054 1338.15L399.453 1338.15" stroke="#90CEE6" stroke-width="0.827121" stroke-linecap="round" stroke-linejoin="round"/>
<path d="M392.586 1386.28L372.039 1386.28C366.568 1386.28 361.322 1384.11 357.453 1380.24C353.585 1376.37 351.412 1371.12 351.412 1365.65L351.412 1365.65C351.412 1360.18 353.585 1354.94 357.453 1351.07C361.322 1347.2 366.568 1345.03 372.039 1345.03L392.586 1345.03" stroke="#90CEE6" stroke-width="0.827121" stroke-linecap="round" stroke-linejoin="round"/>
<path d="M413.234 1324.34L385.736 1351.89L372.028 1351.89C368.378 1351.89 364.878 1353.34 362.297 1355.92C359.716 1358.5 358.266 1362 358.266 1365.65L358.266 1365.65C358.266 1369.3 359.716 1372.8 362.297 1375.39C364.878 1377.97 368.378 1379.42 372.028 1379.42L385.736 1379.42L413.234 1406.97" stroke="#90CEE6" stroke-width="0.827121" stroke-linecap="round" stroke-linejoin="round"/>
<path d="M371.934 1241.67L371.934 1324.34" stroke="#90CEE6" stroke-width="0.827121" stroke-linecap="round" stroke-linejoin="round"/>
</g>
</g>
<g opacity="0.65">
<path d="M-0.00381955 662.671L-0.00390625 1323.85L413.189 1323.85L413.19 662.671L-0.00381955 662.671Z" stroke="#90CEE6" stroke-width="0.827121" stroke-linecap="round" stroke-linejoin="round"/>
<path d="M-0.0078125 1075.91L413.187 1075.91" stroke="#90CEE6" stroke-width="0.827121" stroke-linecap="round" stroke-linejoin="round"/>
<path d="M-0.0078125 993.26L413.187 993.26" stroke="#90CEE6" stroke-width="0.827121" stroke-linecap="round" stroke-linejoin="round"/>
<path d="M-0.0078125 986.35L34.3234 986.35" stroke="#90CEE6" stroke-width="0.827121" stroke-linecap="round" stroke-linejoin="round"/>
<path d="M-0.0078125 979.439L27.4392 979.439" stroke="#90CEE6" stroke-width="0.827121" stroke-linecap="round" stroke-linejoin="round"/>
<path d="M-0.0078125 972.525L20.5919 972.525" stroke="#90CEE6" stroke-width="0.827121" stroke-linecap="round" stroke-linejoin="round"/>
<path d="M-0.0078125 965.615L13.7239 965.615" stroke="#90CEE6" stroke-width="0.827121" stroke-linecap="round" stroke-linejoin="round"/>
<path d="M-0.0078125 958.705L6.78663 958.705" stroke="#90CEE6" stroke-width="0.827121" stroke-linecap="round" stroke-linejoin="round"/>
<path d="M-0.0078125 910.611L413.187 910.611" stroke="#90CEE6" stroke-width="0.827121" stroke-linecap="round" stroke-linejoin="round"/>
<path d="M-0.0078125 827.967L413.187 827.967" stroke="#90CEE6" stroke-width="0.827121" stroke-linecap="round" stroke-linejoin="round"/>
<path d="M-0.0078125 745.318L413.187 745.318" stroke="#90CEE6" stroke-width="0.827121" stroke-linecap="round" stroke-linejoin="round"/>
<path d="M165.309 1323.5L165.309 663.012L248.269 744.979L330.603 663.012L330.603 1323.5" stroke="#90CEE6" stroke-width="0.827121" stroke-linecap="round" stroke-linejoin="round"/>
<path d="M82.6602 663.012L82.6602 1323.5" stroke="#90CEE6" stroke-width="0.827121" stroke-linecap="round" stroke-linejoin="round"/>
<path d="M247.953 663.012L247.953 1323.5" stroke="#90CEE6" stroke-width="0.827121" stroke-linecap="round" stroke-linejoin="round"/>
<path d="M55.2723 1282.49C55.2723 1274.8 49.0386 1268.57 41.349 1268.57C33.6594 1268.57 27.4258 1274.8 27.4258 1282.49C27.4258 1290.18 33.6594 1296.42 41.349 1296.42C49.0386 1296.42 55.2723 1290.18 55.2723 1282.49Z" stroke="#90CEE6" stroke-width="0.827121" stroke-linecap="round" stroke-linejoin="round"/>
<path d="M165.307 1034.48L165.307 1034.62C165.307 1057.42 146.806 1075.91 123.984 1075.91L123.984 1075.91C101.161 1075.91 82.6602 1094.39 82.6602 1117.19L82.6602 1117.33" stroke="#90CEE6" stroke-width="0.827121" stroke-linecap="round" stroke-linejoin="round"/>
<path d="M54.737 662.921L54.737 663.105C54.737 693.232 30.3144 717.654 0.18761 717.654L0.1875 717.654" stroke="#90CEE6" stroke-width="0.827121" stroke-linecap="round" stroke-linejoin="round"/>
<path d="M-0.00780166 827.849C10.3169 828.283 20.1003 832.586 27.3975 839.903C31.237 843.732 34.2819 848.283 36.3571 853.293C38.4323 858.303 39.497 863.674 39.49 869.097L39.49 869.238C39.4896 879.878 35.3816 890.107 28.0227 897.792C20.6639 905.477 10.6223 910.025 -0.00780974 910.486L-0.00780166 827.849Z" stroke="#90CEE6" stroke-width="0.827121" stroke-linecap="round" stroke-linejoin="round"/>
<path d="M330.52 1158.55C330.981 1147.92 335.528 1137.88 343.213 1130.52C350.898 1123.16 361.128 1119.05 371.768 1119.05L371.909 1119.05C382.549 1119.06 392.778 1123.16 400.463 1130.52C408.148 1137.88 412.696 1147.92 413.157 1158.55L330.52 1158.55Z" stroke="#90CEE6" stroke-width="0.827121" stroke-linecap="round" stroke-linejoin="round"/>
<path d="M0.148438 1075.65L0.14852 1075.65C11.0663 1075.65 21.537 1071.31 29.2571 1063.59C36.9771 1055.87 41.3142 1045.4 41.3142 1034.48L41.3142 993.313L0.187135 951.883" stroke="#90CEE6" stroke-width="0.827121" stroke-linecap="round" stroke-linejoin="round"/>
<path d="M41.3146 745.514L0.1875 786.943" stroke="#90CEE6" stroke-width="0.827121" stroke-linecap="round" stroke-linejoin="round"/>
<path d="M-0.0078125 1241.2L413.187 1241.2" stroke="#90CEE6" stroke-width="0.827121" stroke-linecap="round" stroke-linejoin="round"/>
<path d="M413.187 1158.55L-0.0078125 1158.55" stroke="#90CEE6" stroke-width="0.827121" stroke-linecap="round" stroke-linejoin="round"/>
<path d="M165.369 1186.29C134.928 1186.29 110.25 1210.97 110.25 1241.41" stroke="#90CEE6" stroke-width="0.827121" stroke-linecap="round" stroke-linejoin="round"/>
<path d="M206.62 1241.2L165.469 1282.35L206.62 1323.51L247.772 1282.35L206.62 1241.2Z" stroke="#90CEE6" stroke-width="0.827121" stroke-linecap="round" stroke-linejoin="round"/>
<path d="M165.469 1323.78L206.62 1282.63L247.772 1323.78" stroke="#90CEE6" stroke-width="0.827121" stroke-linecap="round" stroke-linejoin="round"/>
<path d="M177.309 1323.78L206.621 1294.47L235.934 1323.78" stroke="#90CEE6" stroke-width="0.827121" stroke-linecap="round" stroke-linejoin="round"/>
<path d="M189.008 1323.92L206.622 1306.31L224.024 1323.71" stroke="#90CEE6" stroke-width="0.827121" stroke-linecap="round" stroke-linejoin="round"/>
<path d="M165.473 1282.35L55.2773 1282.35" stroke="#90CEE6" stroke-width="0.827121" stroke-linecap="round" stroke-linejoin="round"/>
<path d="M-0.0078125 1241.2L413.187 1241.2" stroke="#90CEE6" stroke-width="0.827121" stroke-linecap="round" stroke-linejoin="round"/>
<path d="M413.187 1158.55L-0.0078125 1158.55" stroke="#90CEE6" stroke-width="0.827121" stroke-linecap="round" stroke-linejoin="round"/>
<path d="M0.046875 669.553C0.703253 669.378 54.3608 669.553 54.3608 669.553" stroke="#90CEE6" stroke-width="0.827121" stroke-linecap="round" stroke-linejoin="round"/>
<path d="M0.046875 676.486C0.638608 676.329 44.306 676.455 52.9014 676.482" stroke="#90CEE6" stroke-width="0.827121" stroke-linecap="round" stroke-linejoin="round"/>
<path d="M0.046875 683.416C0.598587 683.269 38.5959 683.369 50.7001 683.405" stroke="#90CEE6" stroke-width="0.827121" stroke-linecap="round" stroke-linejoin="round"/>
<path d="M0.046875 690.35C0.553787 690.215 32.6721 690.288 47.2733 690.329" stroke="#90CEE6" stroke-width="0.827121" stroke-linecap="round" stroke-linejoin="round"/>
<path d="M0.046875 697.279C0.505927 697.157 26.8878 697.206 42.7094 697.246" stroke="#90CEE6" stroke-width="0.827121" stroke-linecap="round" stroke-linejoin="round"/>
<path d="M0.046875 704.213C0.444883 704.107 20.3306 704.13 35.9242 704.164" stroke="#90CEE6" stroke-width="0.827121" stroke-linecap="round" stroke-linejoin="round"/>
<path d="M0.046875 711.143C0.360078 711.059 13.1945 711.056 26.0554 711.074" stroke="#90CEE6" stroke-width="0.827121" stroke-linecap="round" stroke-linejoin="round"/>
<path d="M413.128 800.244L412.944 800.244C382.817 800.244 358.395 775.822 358.395 745.695L358.395 745.695" stroke="#90CEE6" stroke-width="0.827121" stroke-linecap="round" stroke-linejoin="round"/>
<path d="M406.492 745.551C406.667 746.208 406.492 799.865 406.492 799.865" stroke="#90CEE6" stroke-width="0.827121" stroke-linecap="round" stroke-linejoin="round"/>
<path d="M399.563 745.55C399.72 746.141 399.593 789.809 399.567 798.404" stroke="#90CEE6" stroke-width="0.827121" stroke-linecap="round" stroke-linejoin="round"/>
<path d="M392.629 745.552C392.775 746.104 392.676 784.101 392.64 796.205" stroke="#90CEE6" stroke-width="0.827121" stroke-linecap="round" stroke-linejoin="round"/>
<path d="M385.699 745.553C385.834 746.06 385.761 778.178 385.72 792.779" stroke="#90CEE6" stroke-width="0.827121" stroke-linecap="round" stroke-linejoin="round"/>
<path d="M378.77 745.554C378.891 746.013 378.843 772.395 378.803 788.217" stroke="#90CEE6" stroke-width="0.827121" stroke-linecap="round" stroke-linejoin="round"/>
<path d="M371.84 745.55C371.946 745.948 371.923 765.834 371.889 781.428" stroke="#90CEE6" stroke-width="0.827121" stroke-linecap="round" stroke-linejoin="round"/>
<path d="M364.906 745.552C364.989 745.865 364.993 758.7 364.974 771.561" stroke="#90CEE6" stroke-width="0.827121" stroke-linecap="round" stroke-linejoin="round"/>
<path d="M89.603 1094.03C89.5998 1093.33 89.603 1076.15 89.603 1076.15" stroke="#90CEE6" stroke-width="0.827121" stroke-linecap="round" stroke-linejoin="round"/>
<path d="M96.4922 1086.22C96.4925 1081.41 96.4935 1076.15 96.4935 1076.15" stroke="#90CEE6" stroke-width="0.827121" stroke-linecap="round" stroke-linejoin="round"/>
<path d="M103.379 1081.24C103.379 1078.37 103.38 1076.15 103.38 1076.15" stroke="#90CEE6" stroke-width="0.827121" stroke-linecap="round" stroke-linejoin="round"/>
<path d="M110.27 1078.06C110.27 1076.89 110.27 1076.15 110.27 1076.15" stroke="#90CEE6" stroke-width="0.827121" stroke-linecap="round" stroke-linejoin="round"/>
<path d="M158.656 1057.57C158.659 1058.27 158.656 1075.45 158.656 1075.45" stroke="#90CEE6" stroke-width="0.827121" stroke-linecap="round" stroke-linejoin="round"/>
<path d="M151.767 1065.38C151.767 1070.2 151.766 1075.45 151.766 1075.45" stroke="#90CEE6" stroke-width="0.827121" stroke-linecap="round" stroke-linejoin="round"/>
<path d="M144.876 1070.36C144.875 1073.24 144.875 1075.45 144.875 1075.45" stroke="#90CEE6" stroke-width="0.827121" stroke-linecap="round" stroke-linejoin="round"/>
<path d="M137.985 1073.54C137.985 1074.71 137.984 1075.45 137.984 1075.45" stroke="#90CEE6" stroke-width="0.827121" stroke-linecap="round" stroke-linejoin="round"/>
<path d="M220.701 1007.37C220.697 1008.07 220.701 1034.3 220.701 1034.3" stroke="#90CEE6" stroke-width="0.827121" stroke-linecap="round" stroke-linejoin="round"/>
<path d="M213.665 1000.3C213.662 1001 213.665 1034.3 213.665 1034.3" stroke="#90CEE6" stroke-width="0.827121" stroke-linecap="round" stroke-linejoin="round"/>
<path d="M227.59 1014.36C227.59 1019.17 227.591 1034.3 227.591 1034.3" stroke="#90CEE6" stroke-width="0.827121" stroke-linecap="round" stroke-linejoin="round"/>
<path d="M234.477 1021.24C234.477 1024.12 234.477 1034.3 234.477 1034.3" stroke="#90CEE6" stroke-width="0.827121" stroke-linecap="round" stroke-linejoin="round"/>
<path d="M241.367 1028.28C241.367 1029.46 241.368 1034.3 241.368 1034.3" stroke="#90CEE6" stroke-width="0.827121" stroke-linecap="round" stroke-linejoin="round"/>
<path d="M165.307 786.744L165.307 786.605C165.307 763.803 146.806 745.318 123.984 745.318L123.984 745.318C101.161 745.318 82.6602 726.833 82.6602 704.031L82.6602 703.892" stroke="#90CEE6" stroke-width="0.827121" stroke-linecap="round" stroke-linejoin="round"/>
<path d="M89.603 727.19C89.5998 727.896 89.603 745.072 89.603 745.072" stroke="#90CEE6" stroke-width="0.827121" stroke-linecap="round" stroke-linejoin="round"/>
<path d="M96.4922 735.003C96.4925 739.819 96.4935 745.072 96.4935 745.072" stroke="#90CEE6" stroke-width="0.827121" stroke-linecap="round" stroke-linejoin="round"/>
<path d="M103.379 739.985C103.379 742.857 103.38 745.072 103.38 745.072" stroke="#90CEE6" stroke-width="0.827121" stroke-linecap="round" stroke-linejoin="round"/>
<path d="M110.27 743.158C110.27 744.334 110.27 745.072 110.27 745.072" stroke="#90CEE6" stroke-width="0.827121" stroke-linecap="round" stroke-linejoin="round"/>
<path d="M158.652 763.654C158.656 762.949 158.652 745.772 158.652 745.772" stroke="#90CEE6" stroke-width="0.827121" stroke-linecap="round" stroke-linejoin="round"/>
<path d="M151.767 755.842C151.767 751.026 151.766 745.773 151.766 745.773" stroke="#90CEE6" stroke-width="0.827121" stroke-linecap="round" stroke-linejoin="round"/>
<path d="M144.876 750.857C144.875 747.985 144.875 745.77 144.875 745.77" stroke="#90CEE6" stroke-width="0.827121" stroke-linecap="round" stroke-linejoin="round"/>
<path d="M137.985 747.686C137.985 746.509 137.984 745.771 137.984 745.771" stroke="#90CEE6" stroke-width="0.827121" stroke-linecap="round" stroke-linejoin="round"/>
<path d="M413.237 951.904L413.237 951.765C413.237 928.963 394.736 910.478 371.913 910.478L371.913 910.478C349.091 910.478 330.59 891.994 330.59 869.192L330.59 869.052" stroke="#90CEE6" stroke-width="0.827121" stroke-linecap="round" stroke-linejoin="round"/>
<path d="M337.533 892.354C337.529 893.06 337.533 910.236 337.533 910.236" stroke="#90CEE6" stroke-width="0.827121" stroke-linecap="round" stroke-linejoin="round"/>
<path d="M344.418 900.167C344.418 904.983 344.419 910.236 344.419 910.236" stroke="#90CEE6" stroke-width="0.827121" stroke-linecap="round" stroke-linejoin="round"/>
<path d="M351.313 905.149C351.313 908.021 351.313 910.236 351.313 910.236" stroke="#90CEE6" stroke-width="0.827121" stroke-linecap="round" stroke-linejoin="round"/>
<path d="M358.203 908.322C358.203 909.498 358.203 910.236 358.203 910.236" stroke="#90CEE6" stroke-width="0.827121" stroke-linecap="round" stroke-linejoin="round"/>
<path d="M406.586 928.814C406.589 928.109 406.586 910.933 406.586 910.933" stroke="#90CEE6" stroke-width="0.827121" stroke-linecap="round" stroke-linejoin="round"/>
<path d="M399.697 921.002C399.696 916.186 399.695 910.933 399.695 910.933" stroke="#90CEE6" stroke-width="0.827121" stroke-linecap="round" stroke-linejoin="round"/>
<path d="M392.805 916.021C392.805 913.15 392.805 910.934 392.805 910.934" stroke="#90CEE6" stroke-width="0.827121" stroke-linecap="round" stroke-linejoin="round"/>
<path d="M385.918 912.85C385.918 911.673 385.918 910.935 385.918 910.935" stroke="#90CEE6" stroke-width="0.827121" stroke-linecap="round" stroke-linejoin="round"/>
<path d="M413.241 1199.64L413.241 1199.78C413.241 1222.58 394.74 1241.07 371.917 1241.07L371.917 1241.07C349.095 1241.07 330.594 1259.55 330.594 1282.35L330.594 1282.49" stroke="#90CEE6" stroke-width="0.827121" stroke-linecap="round" stroke-linejoin="round"/>
<path d="M337.533 1259.2C337.529 1258.49 337.533 1241.32 337.533 1241.32" stroke="#90CEE6" stroke-width="0.827121" stroke-linecap="round" stroke-linejoin="round"/>
<path d="M344.418 1251.38C344.418 1246.57 344.419 1241.31 344.419 1241.31" stroke="#90CEE6" stroke-width="0.827121" stroke-linecap="round" stroke-linejoin="round"/>
<path d="M351.312 1246.4C351.313 1243.53 351.313 1241.31 351.313 1241.31" stroke="#90CEE6" stroke-width="0.827121" stroke-linecap="round" stroke-linejoin="round"/>
<path d="M358.203 1243.23C358.203 1242.05 358.203 1241.31 358.203 1241.31" stroke="#90CEE6" stroke-width="0.827121" stroke-linecap="round" stroke-linejoin="round"/>
<path d="M406.586 1222.73C406.589 1223.44 406.586 1240.62 406.586 1240.62" stroke="#90CEE6" stroke-width="0.827121" stroke-linecap="round" stroke-linejoin="round"/>
<path d="M399.697 1230.55C399.696 1235.36 399.695 1240.62 399.695 1240.62" stroke="#90CEE6" stroke-width="0.827121" stroke-linecap="round" stroke-linejoin="round"/>
<path d="M392.809 1235.53C392.809 1238.4 392.809 1240.62 392.809 1240.62" stroke="#90CEE6" stroke-width="0.827121" stroke-linecap="round" stroke-linejoin="round"/>
<path d="M385.918 1238.7C385.918 1239.88 385.918 1240.62 385.918 1240.62" stroke="#90CEE6" stroke-width="0.827121" stroke-linecap="round" stroke-linejoin="round"/>
<path d="M123.863 993.49L123.863 786.592" stroke="#90CEE6" stroke-width="0.827121" stroke-linecap="round" stroke-linejoin="round"/>
<path d="M264.715 738.248L323.696 738.248L323.696 679.267L264.715 738.248Z" stroke="#90CEE6" stroke-width="0.827121" stroke-linecap="round" stroke-linejoin="round"/>
<path d="M281.297 731.381L316.824 731.381L316.824 695.854L281.297 731.381Z" stroke="#90CEE6" stroke-width="0.827121" stroke-linecap="round" stroke-linejoin="round"/>
<path d="M247.792 952.016C247.792 929.325 229.396 910.929 206.704 910.929C184.013 910.929 165.617 929.324 165.617 952.016C165.617 974.708 184.013 993.104 206.704 993.104C229.396 993.104 247.792 974.708 247.792 952.016Z" stroke="#90CEE6" stroke-width="0.827121" stroke-linecap="round" stroke-linejoin="round"/>
<path d="M220.742 786.639C220.742 778.898 214.467 772.623 206.726 772.623C198.986 772.623 192.711 778.898 192.711 786.639C192.711 794.379 198.986 800.654 206.726 800.654C214.467 800.654 220.742 794.379 220.742 786.639Z" stroke="#90CEE6" stroke-width="0.827121" stroke-linecap="round" stroke-linejoin="round"/>
<path d="M193.102 827.929C193.102 858.211 217.563 882.781 247.804 882.955" stroke="#90CEE6" stroke-width="0.827121" stroke-linecap="round" stroke-linejoin="round"/>
<path d="M330.632 745.097C319.646 745.097 309.109 749.461 301.34 757.23C293.571 764.999 289.207 775.535 289.207 786.522L289.207 786.522C289.207 797.509 293.571 808.045 301.34 815.814C309.109 823.583 319.646 827.947 330.632 827.947" stroke="#90CEE6" stroke-width="0.827121" stroke-linecap="round" stroke-linejoin="round"/>
<path d="M330.977 703.732L413.185 703.732" stroke="#90CEE6" stroke-width="0.827121" stroke-linecap="round" stroke-linejoin="round"/>
<path d="M220.742 786.635L289.209 786.635" stroke="#90CEE6" stroke-width="0.827121" stroke-linecap="round" stroke-linejoin="round"/>
<path d="M206.59 1241.2C206.621 1241.2 206.59 1117.07 206.59 1117.07" stroke="#90CEE6" stroke-width="0.827121" stroke-linecap="round" stroke-linejoin="round"/>
<path d="M165.617 1117.06L247.935 1117.06" stroke="#90CEE6" stroke-width="0.827121" stroke-linecap="round" stroke-linejoin="round"/>
<path d="M275.422 1103.69L275.422 1131.13L302.855 1131.13L302.855 1103.69L275.422 1103.69Z" stroke="#90CEE6" stroke-width="0.827121" stroke-linecap="round" stroke-linejoin="round"/>
<path d="M206.707 993.104L206.707 1034.4L247.794 1034.4L206.707 993.104Z" stroke="#90CEE6" stroke-width="0.827121" stroke-linecap="round" stroke-linejoin="round"/>
<path d="M248.078 1282.49C248.078 1274.33 250.5 1266.34 255.037 1259.55C259.574 1252.76 266.023 1247.47 273.568 1244.34C281.113 1241.22 289.415 1240.4 297.425 1241.99C305.435 1243.59 312.792 1247.52 318.567 1253.29C324.342 1259.07 328.274 1266.43 329.867 1274.44C331.461 1282.45 330.643 1290.75 327.518 1298.29C324.392 1305.84 319.1 1312.29 312.31 1316.82C305.519 1321.36 297.536 1323.78 289.369 1323.78L289.369 1282.49L248.078 1282.49Z" stroke="#90CEE6" stroke-width="0.827121" stroke-linecap="round" stroke-linejoin="round"/>
<path d="M330.684 1034.63L330.684 1034.63C330.684 1023.67 335.036 1013.17 342.784 1005.42C350.531 997.671 361.039 993.319 371.996 993.319L413.15 993.319L413.15 1075.94L371.996 1075.94C366.571 1075.94 361.199 1074.87 356.186 1072.8C351.174 1070.72 346.62 1067.68 342.784 1063.84C338.947 1060.01 335.904 1055.45 333.828 1050.44C331.752 1045.43 330.684 1040.06 330.684 1034.63Z" stroke="#90CEE6" stroke-width="0.827121" stroke-linecap="round" stroke-linejoin="round"/>
<path d="M406.222 1000.26L371.984 1000.26C362.868 1000.26 354.126 1003.88 347.68 1010.33C341.234 1016.77 337.613 1025.52 337.613 1034.63L337.613 1034.63C337.613 1043.75 341.234 1052.49 347.68 1058.94C354.126 1065.38 362.868 1069 371.984 1069L406.222 1069" stroke="#90CEE6" stroke-width="0.827121" stroke-linecap="round" stroke-linejoin="round"/>
<path d="M399.368 1007.13L371.969 1007.13C364.675 1007.13 357.679 1010.02 352.521 1015.18C347.363 1020.34 344.465 1027.34 344.465 1034.63L344.465 1034.63C344.465 1041.92 347.363 1048.92 352.521 1054.08C357.679 1059.24 364.675 1062.13 371.969 1062.13L399.368 1062.13" stroke="#90CEE6" stroke-width="0.827121" stroke-linecap="round" stroke-linejoin="round"/>
<path d="M392.502 1014L371.955 1014C366.484 1014 361.238 1016.18 357.37 1020.04C353.501 1023.91 351.328 1029.16 351.328 1034.63L351.328 1034.63C351.328 1040.1 353.501 1045.35 357.37 1049.21C361.238 1053.08 366.484 1055.26 371.955 1055.26L392.502 1055.26" stroke="#90CEE6" stroke-width="0.827121" stroke-linecap="round" stroke-linejoin="round"/>
<path d="M413.148 1075.94L385.65 1048.39L371.941 1048.39C368.291 1048.39 364.791 1046.94 362.21 1044.36C359.63 1041.78 358.18 1038.28 358.18 1034.63L358.18 1034.63C358.18 1030.98 359.63 1027.48 362.21 1024.9C364.791 1022.32 368.291 1020.87 371.941 1020.87L385.65 1020.87L413.148 993.319" stroke="#90CEE6" stroke-width="0.827121" stroke-linecap="round" stroke-linejoin="round"/>
<path d="M289.16 1075.95L289.3 1075.95C312.102 1075.95 330.586 1057.45 330.586 1034.62L330.586 1034.62" stroke="#90CEE6" stroke-width="0.827121" stroke-linecap="round" stroke-linejoin="round"/>
<path d="M247.953 1158.55L330.42 1158.55L330.42 1199.81L289.265 1199.81C278.318 1199.81 267.819 1195.46 260.073 1187.73C252.328 1179.99 247.968 1169.5 247.953 1158.55V1158.55Z" stroke="#90CEE6" stroke-width="0.827121" stroke-linecap="round" stroke-linejoin="round"/>
<path d="M254.883 1158.55L323.492 1158.55L323.492 1192.87L289.255 1192.87C280.149 1192.87 271.416 1189.25 264.971 1182.82C258.527 1176.39 254.899 1167.66 254.883 1158.55V1158.55Z" stroke="#90CEE6" stroke-width="0.827121" stroke-linecap="round" stroke-linejoin="round"/>
<path d="M261.738 1158.56L316.64 1158.56L316.64 1186L289.243 1186C281.958 1186 274.971 1183.11 269.814 1177.97C264.658 1172.82 261.753 1165.84 261.738 1158.56V1158.56Z" stroke="#90CEE6" stroke-width="0.827121" stroke-linecap="round" stroke-linejoin="round"/>
<path d="M268.598 1158.55L309.772 1158.55L309.772 1179.12L289.223 1179.12C283.763 1179.12 278.525 1176.95 274.659 1173.1C270.792 1169.24 268.613 1164.01 268.598 1158.55V1158.55Z" stroke="#90CEE6" stroke-width="0.827121" stroke-linecap="round" stroke-linejoin="round"/>
<path d="M275.453 1158.55L302.922 1158.55L302.922 1172.26L289.214 1172.26C285.574 1172.26 282.083 1170.81 279.504 1168.25C276.925 1165.68 275.468 1162.19 275.453 1158.55V1158.55Z" stroke="#90CEE6" stroke-width="0.827121" stroke-linecap="round" stroke-linejoin="round"/>
<path d="M247.953 910.404L330.42 910.404L330.42 869.15L289.265 869.15C278.318 869.15 267.819 873.495 260.073 881.23C252.328 888.965 247.968 899.458 247.953 910.404Z" stroke="#90CEE6" stroke-width="0.827121" stroke-linecap="round" stroke-linejoin="round"/>
<path d="M254.883 910.404L323.492 910.404L323.492 876.093L289.255 876.093C280.149 876.092 271.416 879.705 264.971 886.138C258.527 892.571 254.899 901.299 254.883 910.404Z" stroke="#90CEE6" stroke-width="0.827121" stroke-linecap="round" stroke-linejoin="round"/>
<path d="M261.738 910.404L316.64 910.404L316.64 882.958L289.243 882.958C281.958 882.957 274.971 885.847 269.814 890.993C264.658 896.138 261.753 903.12 261.738 910.404V910.404Z" stroke="#90CEE6" stroke-width="0.827121" stroke-linecap="round" stroke-linejoin="round"/>
<path d="M268.598 910.404L309.772 910.404L309.772 889.837L289.223 889.837C283.763 889.836 278.525 892.001 274.659 895.857C270.792 899.712 268.613 904.944 268.598 910.404V910.404Z" stroke="#90CEE6" stroke-width="0.827121" stroke-linecap="round" stroke-linejoin="round"/>
<path d="M275.453 910.404L302.922 910.404L302.922 896.702L289.214 896.702C285.574 896.702 282.083 898.143 279.504 900.712C276.925 903.28 275.468 906.765 275.453 910.404V910.404Z" stroke="#90CEE6" stroke-width="0.827121" stroke-linecap="round" stroke-linejoin="round"/>
<path d="M82.5117 1199.89L82.5117 1199.89C82.5117 1205.31 81.4431 1210.69 79.367 1215.7C77.2909 1220.71 74.2478 1225.26 70.4116 1229.1C66.5754 1232.94 62.0211 1235.98 57.0089 1238.06C51.9966 1240.13 46.6245 1241.2 41.1993 1241.2L0.0457396 1241.2L0.0457504 1158.58L41.1993 1158.58C46.6246 1158.58 51.9967 1159.64 57.0089 1161.72C62.0212 1163.8 66.5754 1166.84 70.4116 1170.68C74.2478 1174.51 77.2909 1179.07 79.367 1184.08C81.4431 1189.09 82.5117 1194.46 82.5117 1199.89V1199.89Z" stroke="#90CEE6" stroke-width="0.827121" stroke-linecap="round" stroke-linejoin="round"/>
<path d="M6.97266 1234.26L41.211 1234.26C50.3266 1234.26 59.0688 1230.64 65.5145 1224.19C71.9602 1217.75 75.5814 1209 75.5814 1199.89L75.5814 1199.89C75.5814 1190.77 71.9602 1182.03 65.5145 1175.59C59.0688 1169.14 50.3266 1165.52 41.211 1165.52L6.97267 1165.52" stroke="#90CEE6" stroke-width="0.827121" stroke-linecap="round" stroke-linejoin="round"/>
<path d="M13.8281 1227.39L41.2269 1227.39C48.5215 1227.39 55.5174 1224.49 60.6755 1219.34C65.8336 1214.18 68.7314 1207.18 68.7314 1199.89L68.7314 1199.89C68.7314 1192.59 65.8336 1185.6 60.6755 1180.44C55.5174 1175.28 48.5216 1172.38 41.2269 1172.38L13.8281 1172.38" stroke="#90CEE6" stroke-width="0.827121" stroke-linecap="round" stroke-linejoin="round"/>
<path d="M20.6953 1220.51L41.2426 1220.51C46.7131 1220.51 51.9595 1218.34 55.8278 1214.47C59.696 1210.6 61.8692 1205.36 61.8692 1199.89L61.8692 1199.89C61.8692 1194.42 59.696 1189.17 55.8278 1185.3C51.9596 1181.43 46.7131 1179.26 41.2426 1179.26L20.6953 1179.26" stroke="#90CEE6" stroke-width="0.827121" stroke-linecap="round" stroke-linejoin="round"/>
<path d="M0.0468858 1158.58L27.5449 1186.13L41.2534 1186.13C44.9032 1186.13 48.4034 1187.58 50.9842 1190.16C53.565 1192.74 55.0148 1196.24 55.0148 1199.89L55.0148 1199.89C55.0148 1203.54 53.565 1207.04 50.9842 1209.62C48.4034 1212.2 44.9032 1213.65 41.2534 1213.65L27.5449 1213.65L0.046875 1241.2" stroke="#90CEE6" stroke-width="0.827121" stroke-linecap="round" stroke-linejoin="round"/>
<path d="M289.621 1103.42L289.621 952.017" stroke="#90CEE6" stroke-width="0.827121" stroke-linecap="round" stroke-linejoin="round"/>
<path d="M41.3477 1075.91L41.3477 1158.58" stroke="#90CEE6" stroke-width="0.827121" stroke-linecap="round" stroke-linejoin="round"/>
</g>
</g>
<defs>
<clipPath id="clip0">
<rect y="0.634766" width="413.28" height="1488.92" fill="white"/>
</clipPath>
</defs>
</svg>
