<svg xmlns="http://www.w3.org/2000/svg" viewBox="0 0 1200 1200"><g id="artwork"><path d="M269.893,301.19372a14.93583,14.93583,0,0,1-9.57135-2.83348L141.16675,212.03509a15.00046,15.00046,0,0,1-1.63693-22.9205L245.20749,86.73184a15.0001,15.0001,0,0,1,20.87473,21.54664l-92.84184,89.9473,104.68213,75.84008a15.00065,15.00065,0,0,1-8.02952,27.12786Z"/><path d="M690.24277,1119.74518a14.99423,14.99423,0,0,1-9.32617-3.25l-54.96582-43.62012a613.10246,613.10246,0,0,1-173.66211-220.0332,63.70271,63.70271,0,0,1-1.94727-48.6123,61.50444,61.50444,0,0,1,64.49121-40.15528l-82.2705-176.4292a63.70781,63.70781,0,0,1-1.94629-48.61425A61.87283,61.87283,0,0,1,544.773,534.4l45.38379,97.32617a15,15,0,1,1-27.18945,12.67822l-45.38379-97.32568a32.09975,32.09975,0,0,0-42.44043-15.62744,31.38786,31.38786,0,0,0-16.374,17.94238,33.51191,33.51191,0,0,0,.98242,25.57275L564.49863,799.59772h0a14.99993,14.99993,0,0,1-27.18945,12.67774h0a32.1005,32.1005,0,0,0-42.44043-15.626,31.3881,31.3881,0,0,0-16.374,17.94238,33.50825,33.50825,0,0,0,.9834,25.57129,582.94953,582.94953,0,0,0,165.1211,209.21191l47.7041,37.85743L970.068,957.70905c-5.19825-18.916-10.3252-38.03027-15.3125-56.62109-26.44434-98.58692-53.79-200.5293-96.95411-293.09668L851.527,594.5362a32.09987,32.09987,0,0,0-58.18457,27.13232,15,15,0,0,1-27.18945,12.67822h0l-.00684-.01562L753.6207,607.47077a32.1,32.1,0,0,0-58.18457,27.13281,14.99993,14.99993,0,1,1-27.18945,12.67773,62.127,62.127,0,0,1,100.334-70.05712,62.08326,62.08326,0,0,1,110.13574,4.6333l6.27442,13.45507c44.27148,94.94239,71.96191,198.17188,98.74023,298.00293,6.04981,22.55176,12.30469,45.8711,18.626,68.60938a15.00084,15.00084,0,0,1-8.11231,17.6123l-297.665,138.80274A14.98835,14.98835,0,0,1,690.24277,1119.74518Z"/><path d="M692.60019,678.99714a15.00172,15.00172,0,0,1-13.60449-8.665l-19.90527-42.68653a32.09977,32.09977,0,0,0-58.18457,27.13184,14.99993,14.99993,0,0,1-27.18946,12.67773,62.09983,62.09983,0,0,1,112.56348-52.48828l19.90527,42.6875a15.00766,15.00766,0,0,1-13.585,21.34278Z"/><path d="M636.28965,781.13385a15.00171,15.00171,0,0,1-13.6045-8.665L562.96738,644.40436a15,15,0,0,1,27.18945-12.67822l59.71778,128.06494a15.00766,15.00766,0,0,1-13.585,21.34277Z"/><path d="M721.66562,741.32233a15.00171,15.00171,0,0,1-13.60449-8.665l-47.07227-100.9458a15.00014,15.00014,0,0,1,27.18946-12.67871l47.07226,100.94678a15.00766,15.00766,0,0,1-13.585,21.34277Z"/><path d="M807.0416,701.51081a15.00243,15.00243,0,0,1-13.60449-8.66407l-27.28028-58.50195a15.00014,15.00014,0,1,1,27.18946-12.67871l27.28027,58.501a15.00727,15.00727,0,0,1-13.585,21.34375Z"/><path d="M570.8209,863.63092a15.00246,15.00246,0,0,1-13.6045-8.66406l-19.90722-42.6914a15.00013,15.00013,0,0,1,27.18945-12.67872l19.90723,42.69043a15.00727,15.00727,0,0,1-13.585,21.34375Z"/><path d="M444.027,488.253a15.00561,15.00561,0,0,1-14.708-12.14062,207.46606,207.46606,0,0,1-3.13574-23.59229,14.99983,14.99983,0,0,1,29.9082-2.34082,177.83115,177.83115,0,0,0,2.67676,20.2085A15.01311,15.01311,0,0,1,444.027,488.253Zm-1.83887-92.59765q-.397,0-.79785-.021a15.00037,15.00037,0,0,1-14.19433-15.76465c.34179-6.52441.71972-14.20752.92871-21.72412a14.99994,14.99994,0,1,1,29.98828.834c-.21778,7.84082-.60645,15.7539-.958,22.46045A15.00182,15.00182,0,0,1,442.18808,395.65534Zm-5.7539-92.23584A15.00618,15.00618,0,0,1,422.023,292.55378a119.27851,119.27851,0,0,0-6.90722-18.34522,14.99985,14.99985,0,1,1,27.082-12.90527,149.2599,149.2599,0,0,1,8.66113,22.97412,15.01183,15.01183,0,0,1-14.4248,19.14209Zm-53.51661-73.60156a14.93147,14.93147,0,0,1-8.63671-2.7461,120.37284,120.37284,0,0,0-16.8877-10,14.99993,14.99993,0,0,1,13.07031-27.00293,150.53722,150.53722,0,0,1,21.11621,12.49219,15.00117,15.00117,0,0,1-8.66211,27.25684ZM273.108,207.91755a15.001,15.001,0,0,1-2.04785-29.85889c8.32227-1.15723,15.96192-1.88965,23.3545-2.23877a15.00007,15.00007,0,1,1,1.41406,29.9668c-6.47461.30566-13.22461.95507-20.63574,1.98584A15.11122,15.11122,0,0,1,273.108,207.91755Z"/></g></svg>