<svg xmlns="http://www.w3.org/2000/svg" viewBox="0 0 1200 1200"><defs><style>.cls-1{fill:#fff;}.cls-2,.cls-3{fill:#32b2ae;}.cls-3{opacity:0.44;}.cls-4{fill:none;stroke:#000;stroke-miterlimit:10;stroke-width:15px;}</style></defs><g id="shadows"><path class="cls-1" d="M1035.57025,441.97644,800.48846,415.24279c-13.25318-13.116-41.59546-18.31347-63.49487-18.31347,0,0-131.78028-69.95728-221.2605-42.29981-89.48047,27.65772-109.00366,87.85352-172.45337,95.98828q-6.27667.80457-11.96143,1.44312L265.85272,453.954l-3.91895-.08252s.25.06762.78711.17309l-.87891.02539a28.16994,28.16994,0,0,0-3.31-.2c-36.37989,0-65.85987,71.55005-65.85987,159.82007s29.48,159.81982,65.85987,159.81982a28.32258,28.32258,0,0,0,3.33007-.19995l63.69593.19995s76.62341,43.68018,125.26526,55.76709c46.58935,11.57715,181.19067,33.88086,232.39184,14.92432q7.03417,1.56372,14.147,2.73877c25.8501,5.0498,50.81983-15.40015,56.16993-45.82007a65.93622,65.93622,0,0,0,.41992-20.33008c-.17163-1.27246-.38526-2.531-.6294-3.77783.42017-.84277.6294-1.3042.6294-1.3042l-1.12012-9.31958A68.43832,68.43832,0,0,0,808.402,706.9801c.02-.17017.04-.33008.04981-.5a67.10645,67.10645,0,0,0-1.48-23.14014,68.20884,68.20884,0,0,0-6.63965-17.10986A68.44373,68.44373,0,0,0,851.52166,601.16c.01026-.38013.01026-.75.01026-1.13013q0-.97485-.02979-1.94995c-.02-.65991-.05029-1.31006-.09033-1.96a68.89873,68.89873,0,0,0-47.83008-61.38769l.06567-1.08155,224.46924,15.59717c35.18824,2.44507,65.39575-19.58423,67.45362-49.20264C1097.62908,470.41662,1070.75848,444.4215,1035.57025,441.97644Z"/><path class="cls-2" d="M569.21191,460.69c3.7,1.87,8,3.75,12.79,5.6,61.55,23.69,204.73,41.15,220.78039-44.88207a4.43986,4.43986,0,0,1,.59942-1.99135c4.19107,7.11445,2.62873,18.971.2606,26.44446-6.24873,19.72005-24.63058,32.855-42.40582,41.52018C761.2365,487.38122,692.90638,516.66085,569.21191,460.69Z"/><path class="cls-2" d="M753.95181,780.79a68.20719,68.20719,0,0,1-20.25,1A436.35187,436.35187,0,0,1,575.94205,739.5l-50.16016-24.24c.3999-1.13.8501-2.24,1.3501-3.34a39.28488,39.28488,0,0,1,4.96973-8.21l43.84033,21.19c1.5498.75,3.1001,1.48,4.6499,2.21q2.14454,1.005,4.29,1.99c1.20019.54,2.41016,1.09,3.60986,1.62.77979.35,1.56006.7,2.3501,1.04,1.27979.56,2.54981,1.11,3.83008,1.65,1.38965.6,2.79,1.18,4.18994,1.76,1.96.82,3.93018,1.61,5.8999,2.39,1.39014.56,2.79,1.11,4.18994,1.64q2.40015.93,4.8003,1.81995c1.59961.6,3.21,1.18005,4.81982,1.76s3.23,1.15,4.83984,1.7q2.43018.84,4.85987,1.65c1.61035.53,3.22021,1.06,4.83008,1.57a.56738.56738,0,0,0,.12011.04c1.4502.46,2.91016.92,4.37012,1.37l.6001.18q7.28979,2.235,14.64013,4.2c1.64991.44,3.29981.88,4.96,1.3q2.45946.63,4.92968,1.23a.09026.09026,0,0,0,.04981.01c1.58008.39,3.16015.76,4.75,1.13a1.90823,1.90823,0,0,1,.23047.05q2.44482.57,4.90966,1.1a3.289,3.289,0,0,0,.43018.09c1.16016.26,2.31982.51,3.48.74.87988.19,1.76025.37,2.64014.55,1.85986.38,3.71972.75,5.58984,1.09,1.66992.32,3.33985.62,5.02.92q7.53,1.33494,15.10986,2.39a.19042.19042,0,0,0,.12989.02,258.02278,258.02278,0,0,0,33.20019,3.73,41.08465,41.08465,0,0,0,12.21-.89A63.07823,63.07823,0,0,1,753.95181,780.79Z"/><path class="cls-2" d="M806.97183,683.34a68.70367,68.70367,0,0,1-20.35009,3.07,436.31263,436.31263,0,0,1-161.15967-26.56L561.80191,636.5c-23.53027-7.49-40.39014-25.22-45.28027-44.9,1.40039-.26,2.81054-.47,4.24023-.63.25.38.5.76.78028,1.14.13964.22.2998.44.46.66.13965.2.29.41.43994.61.23974.33.48.65.73.97.13965.18.27978.37.42969.55.14013.19.28027.37.44043.56.01953.03.0498.06.07959.1.25.31.5.63.76025.93.08008.1.16016.2.25.3.23.28.46973.55.71973.83.29.34.58007.67.89013,1a.17.17,0,0,0,.06006.06q.375.42.78027.84a1.741,1.741,0,0,0,.18946.2c0,.01.02051.03.04.04.32031.34.65039.68.98047,1,.32959.34.65966.67,1,.99.0498.05.09961.11.15966.16.18018.17.37012.35.56006.52.25977.25.53028.5.79981.74.13037.12.26025.24.40039.35.06982.07.13965.13.21.19q.12012.105.27.24c.16992.15.3501.31.52978.46.08985.08.18018.16.28028.24.43994.37.87988.74,1.33984,1.1.31982.26.64014.52.96.76a1.24289,1.24289,0,0,0,.18994.15q.36036.285.72022.54c.25976.19995.52.4.79.59.1499.11.2998.22.4497.32.06983.06.14991.11.22022.16.31006.23.62988.45.94971.67q.13549.09.27.18c.12011.09.25.18.37988.26.40039.27.81054.54,1.22021.8.33008.22.68018.43,1.02.64.29.19.58985.37.87989.54l.30029.18c.31006.19.62988.37.93994.55.12012.07.25.14.37012.21.12988.08.26953.15.40966.22.2002.12.41016.24.62012.35.1001.06.21.11.31006.17.16016.09.31982.17.48.25.08984.05.18018.1.27.14.29.16.58984.31.89014.46.50976.26,1.02978.52,1.5498.76.2002.1.39014.19.58985.28.09033.05.18994.09.28027.13.25.12.50976.24.77.35.98974.45,2,.88,3.02,1.28.29.12.58984.23.87988.34.02979.01.04981.02.08008.03.08984.04.18017.07.27.11.29.11.56982.21.84961.31l.75.27c.75.26,1.51025.52,2.27051.76l63.65966,23.36A436.06615,436.06615,0,0,0,783.112,668.42c.73975,0,1.48-.01,2.22021-.04.55958-.01,1.10987-.04,1.66993-.08q.53979-.015,1.08007-.06c1.29981-.09,2.57959-.22,3.85987-.39.68994-.08,1.36963-.18,2.06006-.3.51953-.07,1.04-.16,1.5498-.26.29981-.05.6001-.11.8999-.17.60987-.12,1.21-.25,1.81006-.39.68994-.15,1.39014-.32,2.07031-.5A68.21345,68.21345,0,0,1,806.97183,683.34Z"/><path class="cls-3" d="M289.62046,745.82312h63.62416c3.92457,0,12.76539,6.78944,16.77757,8.88293q10.96686,5.72233,22.04141,11.23515c14.20717,7.04478,28.57763,13.76993,43.18437,19.94775,60.63981,25.64718,124.34593,36.49056,189.16429,37.637,24.13526,11.24536,47.16846,19.26025,68.62549,22.66125-5.41113.82007-10.8529,1.4159-16.30235,1.91046-92.16861,8.36463-183.7163,1.62182-269.17414-34.522-14.60674-6.17782-28.9772-12.903-43.18437-19.94775q-11.08246-5.49537-22.04141-11.23514c-4.01218-2.0935-12.853-8.88294-16.77757-8.88294H261.93375Z"/><path class="cls-3" d="M632.71207,492.46q1.75488-4.81494,3.27978-9.74l-3,9.77Z"/><path class="cls-3" d="M1095.57193,500.05c-2.06006,29.61-32.27,51.64-67.46,49.2L800.49185,533.43s-35.29-8.69-58.79,12.1c0,0-7.66992,8.39-17.25965,10.569,2.221-19.59734,10.6838-34.972,29.29287-42.92056,19.18951-8.19647,40.82951-5.82156,61.0238-4.02291,4.13522.36832,8.27075.73632,12.41324,1.01446,25.31981,1.7,50.62009,3.52,75.9399,5.28q62.28,4.33494,124.56982,8.66c.15039.01.29.02.43018.03,31.35986,2.17,58.77-15.09,65.81006-39.84A45.56736,45.56736,0,0,1,1095.57193,500.05Z"/><path class="cls-3" d="M394.11929,641.92725S445.4041,672.32133,477.32193,657.88l-3.60742-21.59173Q437.49185,645.83667,394.11929,641.92725Z"/><path class="cls-3" d="M793.862,465.65c6.33984-7.54,9.6499-13.48,11.37012-17.8-.48,4.24-.68018,8.54-1.89014,12.63-2.16016,7.29-6.6499,13.91-11.56006,19.61-9.81982,11.39-23.14013,19.2-37.06006,24.54q-2.81982,1.08-5.75,2.06c-38.67968,12.93-80.91992,8.69-116.6499-10.52l3.66992-9.84s57.81006,13.6,89.3003,8.42C756.79215,489.56,779.112,483.19,793.862,465.65Z"/></g><g id="artwork"><path d="M324.39176,613.69c0,85.56-27.71,155.41-62.52979,159.62-42.59033-116.18-45.96-223.37-.02-319.24C296.672,458.25,324.39176,528.11,324.39176,613.69Z"/><path class="cls-4" d="M473.71471,636.28825a230.60364,230.60364,0,0,1-79.59559,5.639"/><path class="cls-4" d="M635.98885,482.72144a226.95125,226.95125,0,0,1-17.07861,40.54183"/><path class="cls-4" d="M261.93375,773.50983h63.62416c3.92457,0,12.76539,6.78944,16.77757,8.88294q10.96686,5.72232,22.04141,11.23514c14.20717,7.04478,28.57763,13.76993,43.18437,19.94775,85.45784,36.1438,177.00553,42.88661,269.17414,34.522,5.44945-.49456,10.89134-1.09037,16.30224-1.91045"/><path class="cls-4" d="M803.19191,418.3c4.3,5.65,6,12.57,3.76,20.93-22.81,85.19-166.23,55.64-224.95,27.06-4.08-1.99-7.76-3.97-10.95-5.91"/><path class="cls-4" d="M800.4884,415.24266l235.08185,26.73385c35.1883,2.445,62.0588,28.44014,60.00009,58.06871-2.058,29.61859-32.26544,51.6477-67.45374,49.20267L800.4884,533.43136"/><path class="cls-4" d="M753.53189,801.12c-5.3501,30.42-30.31982,50.87-56.16992,45.82a270.62086,270.62086,0,0,1-107.8501-43.5L548.612,775.72c-20.72021-12.62-30.4502-39.03-22.83008-60.46.3999-1.13.8501-2.24,1.3501-3.34a39.28488,39.28488,0,0,1,4.96973-8.21l43.84033,21.19c1.5498.75,3.1001,1.48,4.6499,2.21q2.14454,1.005,4.29,1.99c1.20019.54,2.41016,1.09,3.60986,1.62.77979.35,1.56006.7,2.3501,1.04,1.27979.56,2.54981,1.11,3.83008,1.65,1.38965.6,2.79,1.18,4.18994,1.76,1.96.82,3.93018,1.61,5.8999,2.39,1.39014.56,2.79,1.11,4.18994,1.64q2.40015.93,4.8003,1.81995c1.59961.6,3.21,1.18005,4.81982,1.76s3.23,1.15,4.83984,1.7c1.62012.57,3.23,1.11,4.85987,1.65,1.6001.54,3.22021,1.06,4.83008,1.57a.56738.56738,0,0,0,.12011.04c1.4502.47,2.91016.93,4.37012,1.37l.6001.18q7.28979,2.235,14.64013,4.2c1.64991.44,3.29981.88,4.96,1.3q2.45946.63,4.92968,1.23a.09026.09026,0,0,0,.04981.01c1.58008.39,3.16015.76,4.75,1.13a1.90823,1.90823,0,0,1,.23047.05q2.44482.57,4.90966,1.1a3.289,3.289,0,0,0,.43018.09c1.16016.26,2.31982.51,3.48.74.87988.19,1.76025.37,2.64014.55,1.85986.38,3.71972.75,5.58984,1.09,1.66992.32,3.33985.62,5.02.92q7.53,1.31993,15.10986,2.39a.19042.19042,0,0,0,.12989.02,258.02278,258.02278,0,0,0,33.20019,3.73,41.08465,41.08465,0,0,0,12.21-.89,63.07823,63.07823,0,0,1,3.48,13.84A65.93532,65.93532,0,0,1,753.53189,801.12Z"/><path class="cls-4" d="M261.862,773.31a28.35078,28.35078,0,0,1-3.33008.2c-36.37988,0-65.85986-71.55-65.85986-159.82s29.48-159.82,65.85986-159.82a28.14217,28.14217,0,0,1,3.31006.2C215.902,549.94,219.27164,657.13,261.862,773.31Z"/><path class="cls-4" d="M851.53189,600.03c0,.38,0,.75-.01025,1.13a68.44343,68.44343,0,0,1-51.18946,65.07c-.68017.18-1.38037.35-2.07031.5-.6001.14-1.20019.27-1.81006.39-.2998.06-.60009.12-.8999.17-.50976.1-1.03027.19-1.5498.26-.69043.12-1.37012.22-2.06006.3-1.28028.17-2.56006.3-3.85987.39q-.54053.045-1.08007.06c-.56006.04-1.11035.07-1.66993.08-.74023.03-1.48046.04-2.22021.04a436.06615,436.06615,0,0,1-161.16016-26.55l-63.65966-23.36c-.76026-.24-1.52051-.5-2.27051-.76l-.75-.27c-.27979-.1-.55957-.2-.84961-.31-.08985-.04-.18018-.07-.27-.11-.03027-.01-.05029-.02-.08008-.03-.29-.11-.58984-.22-.87988-.34-1.02-.4-2.03028-.83-3.02-1.28-.26026-.11-.52-.23-.77-.35-.09033-.04-.18994-.08-.28027-.13-.19971-.09-.38965-.18-.58985-.28-.52-.24-1.04-.5-1.5498-.76-.3003-.15-.6001-.3-.89014-.46-.08984-.04-.18018-.09-.27-.14-.16016-.08-.31982-.16-.48-.25v-.01c-.1001-.05-.21-.11-.31006-.16-.21-.11-.41992-.23-.62012-.35-.14013-.06995-.27978-.14-.40966-.22-.12012-.07-.25-.14-.37012-.21-.31006-.18-.62988-.36-.93994-.55l-.30029-.18c-.29-.17-.58985-.35-.87989-.54-.33984-.21-.68994-.42005-1.02-.64-.40967-.26-.81982-.53-1.22021-.8-.12988-.08-.25977-.17-.37988-.26q-.13477-.09-.27-.18c-.31983-.22-.63965-.44-.94971-.67-.07031-.05-.15039-.1-.22022-.16-.1499-.1-.2998-.21-.4497-.32-.27-.19-.53028-.39-.79-.59q-.36036-.25506-.72022-.54a1.24289,1.24289,0,0,1-.18994-.15c-.31982-.24-.64014-.5-.96-.76-.46-.36-.8999-.73-1.33984-1.1-.1001-.07995-.19043-.16-.28028-.24-.17968-.15-.35986-.31-.52978-.46q-.15015-.135-.27-.24c-.07031-.06-.14014-.12-.21-.19-.14014-.11-.27-.23-.40039-.35-.26953-.24-.54-.49-.79981-.74-.18994-.17-.37988-.35-.56006-.52-.06005-.05-.10986-.11-.15966-.16-.34034-.32-.67041-.65-1-.99-.34034-.33-.66016-.66-.98047-1-.01953-.01-.04-.03-.04-.04a1.741,1.741,0,0,1-.18946-.2q-.40575-.42-.78027-.84a.17.17,0,0,1-.06006-.06c-.31006-.33-.60009-.66-.89013-1-.25-.28-.48975-.55-.71973-.83-.08984-.1-.16992-.2-.25-.3-.26025-.3-.51025-.62-.76025-.93-.02979-.04-.06006-.07-.07959-.1-.15039-.18-.3003-.37-.44043-.56-.14991-.18-.29-.37-.42969-.55-.25-.32-.49024-.64-.73-.97-.1499-.2-.30029-.41-.43994-.61-.15039-.22-.31006-.44-.46-.66-.28028-.38-.53028-.76-.78028-1.14-.18994-.27-.35986-.54-.52978-.81-.0503-.07-.1001-.15-.14014-.22-.20019-.31-.39014-.62-.58008-.93a56.31269,56.31269,0,0,1-2.7998-5.16c-.16992-.35-.34033-.7-.49024-1.05-.23-.49-.45019-.99-.6499-1.49-.16016-.36-.31006-.73-.45019-1.1a1.247,1.247,0,0,1-.06983-.17,47.82929,47.82929,0,0,1-1.35986-32.12c9-28.3,43.5498-42.57,77.16992-31.89l109.14014,34.69,11.2998,4.31A24.05535,24.05535,0,0,0,736.402,550a68.187,68.187,0,0,1,47.90967-18.41c35.84033.61,65.08008,29.26,67.10009,64.53.04.65.07032,1.3.09034,1.96Q851.53141,599.055,851.53189,600.03Z"/><path class="cls-4" d="M808.45181,706.48c-.00976.17-.02978.33-.0498.5a68.421,68.421,0,0,1-74.7002,60.21q-14.38476-1.065-28.64013-3.08a.19042.19042,0,0,1-.12989-.02q-7.59007-1.04994-15.10986-2.39c-1.68017-.30005-3.3501-.6-5.02-.92-1.87012-.34-3.73-.71-5.58984-1.09-.87989-.18-1.76026-.36-2.64014-.55-1.16016-.23-2.31982-.48-3.48-.74a3.289,3.289,0,0,1-.43018-.09q-2.46019-.52506-4.90966-1.1a1.90823,1.90823,0,0,0-.23047-.05c-1.58985-.37-3.16992-.74-4.75-1.13a.09026.09026,0,0,1-.04981-.01q-2.47485-.59994-4.92968-1.23c-1.66016-.42-3.31006-.86-4.96-1.3q-7.35059-1.965-14.64013-4.2l-.6001-.18c-1.46-.45-2.91992-.91-4.37012-1.37a.56738.56738,0,0,1-.12011-.04c-1.60987-.51-3.21973-1.04-4.83008-1.57q-2.42945-.81-4.85987-1.65c-1.60986-.55-3.23-1.12-4.83984-1.7s-3.22021-1.16-4.81982-1.76q-2.40015-.885-4.8003-1.81995c-1.3999-.53-2.7998-1.08-4.18994-1.64-1.96972-.78-3.93994-1.57-5.8999-2.39-1.3999-.58-2.80029-1.16-4.18994-1.76-1.28027-.54-2.55029-1.09-3.83008-1.65-.79-.34-1.57031-.69-2.3501-1.04-1.1997-.53-2.40967-1.08-3.60986-1.62q-2.14527-.99-4.29-1.99c-1.5498-.73-3.1001-1.46-4.6499-2.21l-43.84033-21.19-17.21-8.32c-.59961-.26-1.18995-.52-1.77-.79-.19971-.09-.38965-.18-.57959-.27-.6001-.28-1.2002-.58-1.8003-.87-.66992-.34-1.33984-.69-2-1.05-.62011-.33-1.23-.68-1.83008-1.02a.91626.91626,0,0,1-.12988-.08c-.6499-.37-1.27978-.75-1.91015-1.14-.5-.32-1-.63-1.48975-.96-.14014-.08-.27-.17-.3999-.26-.11035-.07-.23-.15-.34033-.23-.48975-.32-.96973-.65-1.44971-.99-.59033-.42-1.18018-.85-1.76026-1.28-.58007-.44-1.1499-.88-1.71-1.33-.93994-.75-1.85009-1.51-2.73974-2.3-.76026-.66-1.49024-1.35-2.21045-2.04-.46-.45-.91992-.9-1.36963-1.36-.5-.5-.98-1.01-1.4502-1.52a.11812.11812,0,0,1-.0498-.05c-.4502-.49-.8999-.99-1.34033-1.5-.44971-.52-.89991-1.05-1.32959-1.58-.43018-.53-.86035-1.06995-1.27-1.61-.40039-.52-.8003-1.05-1.18018-1.58a.21364.21364,0,0,1-.04-.06c-.3999-.55-.77978-1.11-1.15967-1.67-.26025-.39-.5205-.78-.76025-1.17-.06982-.11-.14014-.22-.21-.33-.1499-.23-.29-.46-.43018-.69-.25976-.41-.50976-.82-.75-1.24-.2998-.51-.58007-1.02-.85986-1.53-.05029-.1-.1001-.19-.16016-.29-.29-.55-.57959-1.1-.85009-1.65-.00977-.01-.00977-.02-.01953-.03-.29-.58-.57032-1.16-.83008-1.75-.2002-.42-.37989-.84-.56006-1.26a1.50115,1.50115,0,0,1-.08008-.19c-.06982-.17-.14014-.33-.21-.5-.18994-.45-.37012-.89-.54-1.34-.01025-.03-.02978-.07-.04-.1-.25-.68-.5-1.36-.73974-2.04-.16016-.48-.32032-.97-.47022-1.45-.02-.06-.02978-.11-.05029-.17-.02979-.12-.06983-.23-.10987-.35q-.25488-.85492-.48-1.71c-.12988-.47-.23974-.94-.34961-1.41-.05029-.22-.10009-.44995-.16015-.67q-.18018-.825-.33008-1.65c-.12012-.62-.23-1.25-.32031-1.87a46.89884,46.89884,0,0,1,3.19043-25.71c6.77-15.73,21.54-25.98,39.05957-29.15,1.40039-.26,2.81054-.47,4.24023-.63.25.38.5.76.78028,1.14.1499.22.30957.44.46.66.13965.2.29.41.43994.61.23974.33.48.65.73.97.13965.18.27978.37.42969.55.14013.19.29.38.44043.56.01953.03.0498.06.07959.1.25.31.5.63.76025.93.08008.1.16016.2.25.3.23.28.46973.55.71973.83.29.34.58007.67.89013,1a.17.17,0,0,0,.06006.06q.375.42.78027.84a1.741,1.741,0,0,0,.18946.2c0,.01.02051.03.04.04.32031.34.64013.67.98047,1,.32959.34.65966.67,1,.99.0498.05.09961.11.15966.16.18018.17.37012.35.56006.52.25977.25.53028.5.79981.74.13037.12.26025.24.40039.35.06982.07.13965.13.21.19q.12012.105.27.24c.16992.15.3501.31.52978.46.08985.08.18018.16.28028.24.43994.37.87988.74,1.33984,1.1.31982.26.64014.52.96.76a1.24289,1.24289,0,0,0,.18994.15q.36036.285.72022.54c.25976.19995.52.4.79.59.1499.11.2998.22.4497.32.06983.06.14991.11.22022.16.31006.23.62988.45.94971.67q.13549.09.27.18c.12011.09.25.18.37988.26.40039.27.81054.54,1.22021.8.33008.22.68018.43,1.02.64.29.19.58985.37.87989.54l.30029.18c.31006.19.62988.37.93994.55.12012.07.25.14.37012.21.12988.08.26953.15.40966.22q.46509.27008.93018.51c.16016.09.31982.18.48.26.08984.05.18018.1.27.14.29.16.58984.31.89014.46.50976.26,1.02978.52,1.5498.76.2002.1.39014.19.58985.28.09033.05.18994.09.28027.13.25.12.50976.24.77.35.98974.45,2,.88,3.02,1.28.29.12.58984.23.87988.34.02979.01.04981.02.08008.03.08984.04.18017.07.27.11.29.11.56982.21.84961.31l.75.27c.75.26,1.51025.52,2.27051.76l63.65966,23.36A436.06615,436.06615,0,0,0,783.112,668.42c.73975,0,1.48-.01,2.22021-.04.55958-.01,1.10987-.04,1.66993-.08q.53979-.015,1.08007-.06c1.29981-.09,2.57959-.22,3.85987-.39.68994-.08,1.36963-.18,2.06006-.3.51953-.07,1.04-.16,1.5498-.26.29981-.05.6001-.11.8999-.17.60987-.12,1.21-.25,1.81006-.39.68994-.15,1.39014-.32,2.07031-.5a68.21345,68.21345,0,0,1,6.63965,17.11A67.10556,67.10556,0,0,1,808.45181,706.48Z"/><path class="cls-4" d="M571.048,460.37921c32.63206,19.80549,115.1681,44.1508,174.09766,31.60988,29.82589-6.3473,53.60462-22.14358,61.8054-52.75981,8.326-31.08384-37.77775-42.29984-69.95743-42.29984,0,0-131.78027-69.95743-221.2607-42.29984s-109.00344,87.85351-172.4532,95.9881-81.346,3.25382-81.346,3.25382"/></g></svg>