<svg xmlns="http://www.w3.org/2000/svg" viewBox="0 0 3600 2400"><defs><style>.cls-1,.cls-3{fill:#32b2ae;}.cls-1,.cls-2{opacity:0.44;}.cls-4{fill:#606060;}.cls-10,.cls-11,.cls-12,.cls-5,.cls-6,.cls-7,.cls-9{fill:none;}.cls-10,.cls-11,.cls-5,.cls-6,.cls-7,.cls-9{stroke:#000;}.cls-10,.cls-11,.cls-5,.cls-7,.cls-9{stroke-linecap:round;}.cls-10,.cls-11,.cls-12,.cls-5,.cls-6{stroke-miterlimit:10;}.cls-12,.cls-5,.cls-6,.cls-7{stroke-width:5px;}.cls-7,.cls-9{stroke-linejoin:round;}.cls-8{fill:#fff;}.cls-10,.cls-9{stroke-width:5.37359px;}.cls-11{stroke-width:4.89129px;}.cls-12{stroke:#fff;}</style></defs><g id="Layer_4" data-name="Layer 4"><polygon class="cls-1" points="1111.736 1047.222 1109.232 1050.222 1108.46 1051.142 1105.956 1054.142 1091.038 1072.012 100 1072.012 100 1047.222 1111.736 1047.222"/><path class="cls-1" d="M1613.9361,1047.22164c-.05957,1-.11963,2-.16992,3q-.58448,10.905-.71973,21.79h-75.53027l-14.88965-17.87012-2.5-3-.77-.91992-2.5-3Z"/><path class="cls-1" d="M3499.99665,1047.22164v24.79H2682.23639q-.12012-10.92-.68017-21.79c-.04-1-.09961-2-.15967-3Z"/><path class="cls-1" d="M2682.42633,1076.10913c0,151.41992-62.85009,288.15991-163.87988,385.55982A533.66894,533.66894,0,0,0,2668.80622,1089.719c0-295.76978-239.77-535.5398-535.54-535.5398A533.66922,533.66922,0,0,0,1761.31647,704.439c97.3999-101.02979,234.14014-163.87989,385.56006-163.87989C2442.64655,540.55908,2682.42633,780.33887,2682.42633,1076.10913Z"/><path class="cls-1" d="M2532.84626,1447.36914c-97.43995,101.27-234.34961,164.27979-385.96973,164.27979-295.77,0-535.54-239.77-535.54-535.5398,0-151.62011,63.00977-288.53,164.27978-385.97a533.72317,533.72317,0,0,0-149.58007,371.25977c0,295.78,239.77,535.55,535.55029,535.55A533.72293,533.72293,0,0,0,2532.84626,1447.36914Z"/><polyline class="cls-1" points="2482.154 1495.869 2587.806 1622.379 2574.466 1633.579 2465.846 1511.919 2480.316 1493.669"/><path class="cls-1" d="M3009.11627,2183.219c-1.2998-.05-2.60986-.12989-3.91992-.24a79.33069,79.33069,0,0,1-54.23974-28.24l-48.44043-57.73-314.62989-374.97-.02978-.03v-.01l-12.10986-14.41993-8.5503-10.18994-28.41992-33.87012,21.71-18.21,1.29,2.16993.6001,1.01.85986,1.03,441.43994,528.37989,2.25,2.69018Z"/><polygon points="2294.633 1372.455 2334.775 1369.124 2332.499 1359.019 2292.277 1364.086 2294.633 1372.455"/><path class="cls-1" d="M1891.38629,1411.39893a23.0163,23.0163,0,1,1-29.56-33.7,23.014,23.014,0,0,0,29.56,33.7Z"/><path class="cls-1" d="M1934.06647,1380.78906a25.67635,25.67635,0,1,1-34.66016-34.66015,25.67842,25.67842,0,0,0,34.66016,34.66015Z"/><path class="cls-1" d="M1962.24012,1285.25535c-9.58856-1.14844-11.12274-5.74219-23.3961-5.74219-14.02671,0-14.02671,6-28.05341,6-12.98265,0-13.94734-5.14146-25.144-5.90553,0,0-22.23982,23.44029,3.43987,42.66584,0,0,20.81156,19.03746,38.29449,4.3106C1945.6939,1311.158,1962.24012,1285.25535,1962.24012,1285.25535Z"/><polygon points="2444.664 1363.924 2476.947 1365.737 2475.377 1356.901 2442.118 1355.152 2444.664 1363.924"/><path class="cls-1" d="M2406.25731,863.8829s14.6233,21.60161,24.07918,17.55607,21.76011-15.42969,21.76011-15.42969l3.70962,6.5498-31.925,20.51621-20.519-20.02453Z"/><path class="cls-1" d="M2274.55622,897.15918s-5.093,12.59535-10.15947,14.62988-20.98957-3.27316-20.98957-3.27316,14.60327,11.8684,21.47209,11.9815,18.41156-14.56092,18.41156-14.56092l-8.73461-8.7773"/><path class="cls-1" d="M2343.52985,1086.56537s-14.2343,40.29032-21.47209,58.14352-19.15135,46.77084-17.60735,55.19026,26.29269-53.50144,26.29269-53.50144l19.30076-46.80433-6.514-13.028"/><path class="cls-1" d="M1898.66657,934.719c-1.21,4.24-2.46,8.3601-3.65039,12.65991H1690.37653l3.66992-12.40991a1.17235,1.17235,0,0,1,.06982-.25Z"/><circle class="cls-1" cx="2325.12226" cy="904.24017" r="4.09584"/><circle class="cls-1" cx="2327.93176" cy="927.4485" r="4.09584"/><path class="cls-1" d="M1172.11627,1377.5791q2.625-3.24023,5.41016-6.33007-3.33031,4.72485-6.30029,9.69995C1171.50641,1379.81909,1171.80622,1378.699,1172.11627,1377.5791Z"/><path class="cls-1" d="M1461.7862,1416.999c0,1.79-.02979,3.58007-.1001,5.35009l-11.56983-4.99a147.505,147.505,0,0,0-256.33984-85.42016A147.50429,147.50429,0,0,1,1461.7862,1416.999Z"/><path class="cls-1" d="M1193.77643,1331.939a146.49292,146.49292,0,0,0-21.66016,45.64013,147.31547,147.31547,0,0,0-11.96,17.18994A146.94973,146.94973,0,0,1,1193.77643,1331.939Z"/><path class="cls-1" d="M215.47614,1871.489c-.01953.17993-.04.37011-.05957.56005,0,0-6.61035,23.43995-66.76026,15.47-60.14013-7.98-34.62988-44.65991-47.37988-68.58007-6.23-11.66993-.46-23.81983,10.81983-30.65992a20.16207,20.16207,0,0,0,.18017,19.3c12.75977,23.92993-12.75,60.60987,47.39014,68.58008C189.60651,1880.12891,206.27643,1876.31909,215.47614,1871.489Z"/><path class="cls-1" d="M327.54645,1766.33911c-10.37012,16.40992-13.87012,38.67993-26.37012,54.58985-16.31982,20.77-39.81006,15.54-61.58984,25.77-2.40039,1.13012-5.81006-2.85987-9.41992-9.10987,21.16992-8.97,43.65967-4.74,59.4497-24.83008,12.5-15.90991,16-38.16992,26.37012-54.58007,7.97022-12.58985,16.1001-20.82984,14.68018-36.47-.93018-10.29-6.41016-22.42994-14.57031-30.81006,14.30029,5.99023,24.80029,24.3501,26.12988,38.97021C343.64655,1745.519,335.51618,1753.749,327.54645,1766.33911Z"/><path class="cls-1" d="M3370.35278,1871.489c.01953.17993.04.37011.05957.56005,0,0,6.61035,23.43995,66.76025,15.47,60.14014-7.98,34.62989-44.65991,47.37989-68.58007,6.23-11.66993.46-23.81983-10.81983-30.65992a20.16207,20.16207,0,0,1-.18017,19.3c-12.75977,23.92993,12.75,60.60987-47.39014,68.58008C3396.22241,1880.12891,3379.55249,1876.31909,3370.35278,1871.489Z"/><path class="cls-1" d="M3258.28247,1766.33911c10.37011,16.40992,13.87011,38.67993,26.37011,54.58985,16.31983,20.77,39.81006,15.54,61.58985,25.77,2.40039,1.13012,5.81006-2.85987,9.41992-9.10987-21.16992-8.97-43.65967-4.74-59.44971-24.83008-12.5-15.90991-16-38.16992-26.37011-54.58007-7.97022-12.58985-16.1001-20.82984-14.68018-36.47.93018-10.29,6.41016-22.42994,14.57031-30.81006-14.30029,5.99023-24.80029,24.3501-26.12988,38.97021C3242.18237,1745.519,3250.31274,1753.749,3258.28247,1766.33911Z"/><path d="M327.27643,455.52594c.02.04.04981.09033.06983.13037v2.31982C327.34626,457.15631,327.32624,456.336,327.27643,455.52594Z"/><path class="cls-1" d="M327.27643,455.52594a42.67148,42.67148,0,0,0-79.89014,20.87011v8.52979c0,.41016.01026.81006.02,1.22021a38.19427,38.19427,0,0,1-5.3999-19.64013v-8.52979a42.67022,42.67022,0,0,1,85.27-2.45019Z"/><path class="cls-1" d="M400.07077,389.51125a42.758,42.758,0,0,1,12.0604,27.11883,42.34631,42.34631,0,0,0-60.14973-14.11914,41.725,41.725,0,0,0-14.85025,17.7745c-3.76292,8.39554-3.91733,16.70648-4.651,25.71105-.28066,3.44491-.27074,7.22332-1.61226,10.46539-1.824,4.408-4.0433,2.1459-4.87336-1.56335a27.24541,27.24541,0,0,1-.09539-7.97213c1.19521-15.5494-.38884-31.94279,6.32969-46.01665a42.03555,42.03555,0,0,1,62.84064-15.75352A40.68415,40.68415,0,0,1,400.07077,389.51125Z"/><path class="cls-1" d="M497.78,441.54188c-5.736-7.84985-13.41476-14.44045-22.47337-17.97083s-19.53524-3.80774-28.407.169c-13.47752,6.04129-21.07949,20.27378-32.20914,29.98341-3.432,2.994-3.89089-1.782-3.86565-4.31516.11068-11.10112,6.0386-24.38516,13.21094-32.70755,10.70629-12.423,29.32062-17.13839,44.81286-11.75826S495.92627,425.24713,497.78,441.54188Z"/><path d="M412.67633,445.17584V419.57623c0-.82031-.02-1.63037-.06982-2.44043a42.51554,42.51554,0,0,1,4.0498,10.03027A42.35546,42.35546,0,0,0,412.67633,445.17584Z"/><g class="cls-2"><path class="cls-3" d="M943.20661,242.46588a34.11485,34.11485,0,0,0-64.0503,16.36035V275.8858q0,.6753.02979,1.3501a30.61385,30.61385,0,0,1-4.13965-15.40967V244.76617a34.11921,34.11921,0,0,1,68.16016-2.30029Z"/><path class="cls-3" d="M1010.66044,221.039a33.89341,33.89341,0,0,0-61.3717,8.365c-.95888,3.26977-2.08959,6.74794-2.848,10.16951-.20239.91634-1.41062,9.14605-3.23408,6.18385-1.08546-1.76332.00668-3.70388-.41617-5.713-.96922-4.60518-.4517-4.71431-.36742-9.41983.18993-10.60481,3.3287-21.49928,10.5489-29.26888a33.37719,33.37719,0,0,1,57.68852,19.6834Z"/><path class="cls-3" d="M1079.41763,251.585a36.60075,36.60075,0,0,0-21.87016-15.26772,32.68183,32.68183,0,0,0-26.02077,5.0473c-4.38335,3.15013-7.82377,7.36-11.46,11.29806a56.59024,56.59024,0,0,1-5.92644,5.72256c-1.25359,1.01261-4.33442,3.99432-5.13378,1.111-1.11832-4.03378,1.22173-7.96351,1.88218-11.85525.5726-3.37415.55173-6.9233,1.98176-10.0326,1.61638-3.5145,4.86193-5.97384,8.1061-8.08091,7.002-4.54778,14.85923-8.23527,23.19921-8.63008a33.448,33.448,0,0,1,23.50551,8.4908A36.95274,36.95274,0,0,1,1079.41763,251.585Z"/></g><path d="M943.2862,244.76617c0-.77-.02979-1.54-.07959-2.30029a1.0504,1.0504,0,0,1,.07959.14014Z"/><path class="cls-1" d="M2977.63629,408.24615a42.528,42.528,0,0,1,10.78028,18.16016,40.282,40.282,0,0,0-2.78028-3.07031,42.70193,42.70193,0,0,0-72.88964,30.18994v26.47021a40.001,40.001,0,0,0,1.46,10.73975,39.80755,39.80755,0,0,1-9.47022-25.82959V438.43609a42.70918,42.70918,0,0,1,72.8999-30.18994Z"/><path class="cls-1" d="M3062.25883,363.60192a43.18446,43.18446,0,0,1,10.33508,16.46327,42.01044,42.01044,0,0,0-66.56416,4.86628c-8.27661,12.63594-7.71162,28.46062-12.93867,42.31908-.75663,2.00606-1.57677,4.08125-1.4091,6.21906.21332,2.71983-1.14031,6.49732-3.46128,2.30284-1.24428-2.24868,1.20093-4.69076,1.82575-7.26653.5528-2.27918-1.14929-4.10728-1.62988-6.70277-1.52273-8.22362.56918-11.71519.94291-20.07147.607-13.57158,4.11552-27.636,13.31345-37.63372a41.63176,41.63176,0,0,1,39.40651-11.92832A42.51514,42.51514,0,0,1,3062.25883,363.60192Z"/><path class="cls-1" d="M3148.0207,427.09185a42.62671,42.62671,0,0,1,10.80035,17.83289c-.85124-2.84-6.30383-6.27173-8.62946-7.86723a43.22656,43.22656,0,0,0-11.61006-5.63107c-19.23293-5.9718-42.58695,2.0031-55.8105,16.76467-2.20334,2.4596-3.5956,5.62644-6.11141,7.76538a.903.903,0,0,1-.81475.29674c-.3624-.1232-.42346-.60222-.41606-.98492.079-4.08835.64142-8.16827.79614-12.26023.19357-5.11235-.59278,2.73292-.83438-2.3774-.104-2.19879,7.79238-5.98777,8.50781-8.06951a13.99488,13.99488,0,0,1,3.39078-4.97749,43.4907,43.4907,0,0,1,40.74044-11.84928A42.86944,42.86944,0,0,1,3148.0207,427.09185Z"/><path class="cls-1" d="M3243.69422,455.787a42.24275,42.24275,0,0,0-39.92466-13.90942c-14.49032,2.95509-34.56274,7.72289-38.89136,21.86364-1.21629,3.97337-3.34093,4.99831-5.31209,1.28776-2.12223-3.99493,3.16081-4.536,2.85572-8.90713-.16965-2.43031,2.88993-4.14415,3.42186-6.5216.84208-3.76368,3.17693-7.02983,5.82574-9.83308a44.31781,44.31781,0,0,1,40.73069-12.77683A42.624,42.624,0,0,1,3243.69422,455.787Z"/><path class="cls-1" d="M2988.41657,426.40631c.56982.67969,1.10986,1.37988,1.62988,2.09961v7.12988A41.89552,41.89552,0,0,0,2988.41657,426.40631Z"/><path class="cls-1" d="M3160.73639,465.53619v-8.46a42.4497,42.4497,0,0,0-1.73-12.05029,42.45127,42.45127,0,0,1,4.79,7.18994A42.30817,42.30817,0,0,0,3160.73639,465.53619Z"/></g><g id="shadows"><polygon points="2591.397 1718.459 2587.857 1721.999 2587.857 1722.009 2544.986 1764.939 2445.976 1864.109 2225.247 2085.199 2212.466 2097.999 2167.226 2097.999 2229.726 2035.399 2484.966 1779.749 2530.357 1734.289 2567.196 1697.389 2568.966 1695.619 2570.736 1693.839 2575.747 1699.809 2591.397 1718.459"/><polygon points="2761.576 1547.999 2701.196 1608.479 2699.417 1610.259 2697.647 1612.039 2676.986 1587.419 2678.766 1585.639 2680.536 1583.859 2716.346 1547.999 2761.576 1547.999"/><rect x="1886.92205" y="1908.24904" width="200" height="39.75047"/><rect x="486.92205" y="1889.1704" width="200" height="58.82912"/><rect x="1247.70109" y="1697.99903" width="64.14183" height="375"/><rect x="1315.05418" y="1697.99903" width="61.0974" height="375"/><polygon points="463.736 1097.999 463.736 1547.999 448.747 1547.999 448.747 1112.999 178.747 1112.999 178.747 1547.999 163.736 1547.999 163.736 1097.999 463.736 1097.999"/><polygon points="3150 1097.999 3150 1547.999 3135.01 1547.999 3135.01 1112.999 2865.01 1112.999 2865.01 1547.999 2850 1547.999 2850 1097.999 3150 1097.999"/><rect x="814.29205" y="1598" width="200" height="32.47984"/><polygon points="300.196 2064.529 287.926 2097.009 191.256 2097.009 178.986 2064.529 300.196 2064.529"/><polygon points="3406.843 2064.529 3394.573 2097.009 3297.904 2097.009 3285.634 2064.529 3406.843 2064.529"/><rect x="1614.29363" y="1598" width="200" height="32.47984"/><line class="cls-4" x1="1275.89637" y1="1069.78406" x2="1257.98611" y2="1087.69432"/></g><g id="artwork"><polygon class="cls-5" points="1014.292 1257.999 1014.292 2098 814.292 2098 814.292 1497.999 1014.292 1257.999"/><polyline class="cls-5" points="1814.296 1497.999 1814.296 2097.999 1614.296 2097.999 1614.296 1257.999 1666.397 1320.519 1674.046 1329.699"/><line class="cls-6" x1="101.1874" y1="1547.01333" x2="813.10726" y2="1547.01333"/><line class="cls-5" x1="1014.29637" y1="1547.01333" x2="1614.29645" y2="1547.01333"/><polyline class="cls-5" points="101.186 2097.962 233.096 2097.962 243.306 2097.962 298.496 2097.962 383.566 2097.962 2902.516 2097.962 2905.776 2097.962 2909.046 2097.962"/><polyline class="cls-5" points="3086.766 2097.009 3089.296 2097.009 3091.776 2097.009 3499.996 2097.009"/><polyline class="cls-6" points="100 1047.999 1105.966 1047.999 1109.236 1047.999"/><rect class="cls-5" x="1111.92248" y="1672.99967" width="400" height="425.00033"/><rect class="cls-7" x="1861.92248" y="1672.99967" width="250" height="300"/><line class="cls-5" x1="1314.29693" y1="2072.99903" x2="1314.29693" y2="2098"/><rect class="cls-7" x="1861.92248" y="1672.99967" width="250" height="300"/><rect class="cls-7" x="1861.92205" y="1722.99951" width="250" height="200" transform="translate(3809.92157 -163.92254) rotate(90)"/><rect class="cls-7" x="461.92248" y="1672.99967" width="250" height="300"/><rect class="cls-7" x="461.92248" y="1672.99967" width="250" height="300"/><rect class="cls-5" x="461.92205" y="1722.99951" width="250" height="200" transform="translate(2409.92157 1236.07746) rotate(90)"/><rect class="cls-5" x="1111.92248" y="1672.99967" width="400" height="425.00033"/><polyline class="cls-5" points="1311.796 2073 1136.922 2073 1136.922 1698 1311.796 1698"/><polyline class="cls-5" points="1311.796 1698 1486.922 1698 1486.922 2073 1311.796 2073"/><line class="cls-5" x1="827.4326" y1="1398" x2="98.8126" y2="1398"/><line class="cls-5" x1="1890.82627" y1="1547.99904" x2="1814.29645" y2="1547.99904"/><polyline class="cls-5" points="2404.716 1547.999 2496.126 1547.999 2499.386 1547.999"/><polyline class="cls-5" points="2587.806 1547.999 2591.066 1547.999 2621.136 1547.999 2666.526 1547.999 2711.926 1547.999 2716.346 1547.999 2761.576 1547.999 2761.926 1547.999 2811.926 1547.999 2849.996 1547.999 2875.006 1547.999 2911.926 1547.999 3011.926 1547.999 3111.926 1547.999 3125.006 1547.999 3149.996 1547.999 3211.926 1547.999 3311.926 1547.999 3411.926 1547.999 3499.996 1547.999"/><line class="cls-7" x1="3411.92248" y1="1398" x2="3411.92248" y2="1548.00066"/><line class="cls-7" x1="3311.92248" y1="1398" x2="3311.92248" y2="1548.00066"/><line class="cls-7" x1="3211.92248" y1="1398" x2="3211.92248" y2="1548.00066"/><line class="cls-7" x1="3111.92248" y1="1398" x2="3111.92248" y2="1548.00066"/><line class="cls-7" x1="3011.92248" y1="1398" x2="3011.92248" y2="1548.00066"/><line class="cls-7" x1="2911.92248" y1="1398" x2="2911.92248" y2="1548.00066"/><line class="cls-7" x1="2811.92248" y1="1398" x2="2811.92248" y2="1548.00066"/><line class="cls-7" x1="2711.92248" y1="1398" x2="2711.92248" y2="1548.00066"/><line class="cls-6" x1="711.92248" y1="1398" x2="711.92248" y2="1548.00066"/><line class="cls-6" x1="611.92248" y1="1398" x2="611.92248" y2="1548.00066"/><line class="cls-6" x1="511.92248" y1="1398" x2="511.92248" y2="1548.00066"/><line class="cls-5" x1="408.33619" y1="1398" x2="408.33619" y2="1548.00066"/><line class="cls-5" x1="308.33619" y1="1398" x2="308.33619" y2="1548.00066"/><line class="cls-5" x1="208.33619" y1="1398" x2="208.33619" y2="1548.00066"/><polyline class="cls-5" points="2211.926 2097.999 2544.986 1764.939 2587.886 1722.039 2589.656 1720.269"/><polyline class="cls-5" points="2699.526 1610.399 2701.306 1608.619 2761.926 1547.999"/><polyline class="cls-7" points="2711.926 1547.999 2711.926 1397.999 2666.526 1443.399 2621.136 1488.789 2577.766 1532.149 2575.996 1533.929"/><polyline class="cls-5" points="2527.916 1581.999 2526.146 1583.779 2484.966 1624.959 2167.226 1942.689 2167.226 1965.969 2167.226 2097.999"/><line class="cls-5" x1="2212.61984" y1="1897.99976" x2="2212.61984" y2="2085.19898"/><line class="cls-5" x1="2258.01099" y1="1851.19983" x2="2258.01099" y2="2038.39905"/><line class="cls-5" x1="2303.40213" y1="1806.52034" x2="2303.40213" y2="1991.59912"/><line class="cls-5" x1="2348.79328" y1="1761.12919" x2="2348.79328" y2="1944.7992"/><line class="cls-5" x1="2394.18443" y1="1714.67758" x2="2394.18443" y2="1897.99927"/><line class="cls-5" x1="2439.57558" y1="1670.34689" x2="2439.57558" y2="1851.19934"/><line class="cls-5" x1="2484.96673" y1="1624.95575" x2="2484.96673" y2="1804.39942"/><polyline class="cls-5" points="2530.356 1757.599 2530.356 1734.289 2530.356 1588.789 2530.356 1584.899"/><polyline class="cls-5" points="2621.136 1488.599 2621.136 1488.789 2621.136 1547.999 2621.136 1583.829 2621.136 1587.719"/><polyline class="cls-7" points="2666.526 1571.059 2666.526 1567.159 2666.526 1547.999 2666.526 1443.399 2666.526 1443.279"/><line class="cls-7" x1="2711.92248" y1="1398" x2="3499.99812" y2="1398"/><path class="cls-5" d="M231.28183,1299.90961h0a10.72756,10.72756,0,0,1,10.72756,10.72756v24.72371a10.72757,10.72757,0,0,1-10.72757,10.72757h0a10.72757,10.72757,0,0,1-10.72757-10.72757v-24.72371a10.72757,10.72757,0,0,1,10.72757-10.72757Z"/><path class="cls-5" d="M2917.54519,1299.90961h0a10.72756,10.72756,0,0,1,10.72756,10.72756v24.72371a10.72757,10.72757,0,0,1-10.72757,10.72757h0a10.72757,10.72757,0,0,1-10.72757-10.72757v-24.72371A10.72757,10.72757,0,0,1,2917.54519,1299.90961Z"/><line class="cls-5" x1="914.29205" y1="1998" x2="914.29205" y2="1377.99903"/><line class="cls-5" x1="1714.29363" y1="1998" x2="1714.29363" y2="1393.4703"/><polyline class="cls-5" points="1519.356 1047.999 1522.626 1047.999 1610.675 1047.999"/><line class="cls-6" x1="3499.99637" y1="1047.99904" x2="2684.45997" y2="1047.99904"/><line class="cls-6" x1="3499.99637" y1="947.99904" x2="2670.42011" y2="947.99904"/><line class="cls-6" x1="1439.39655" y1="947.99904" x2="1624.12653" y2="947.99904"/><line class="cls-6" x1="100" y1="947.99904" x2="1189.29637" y2="947.99904"/><path d="M1620.40631,1165.3291q2.8799,17.09987,6.89014,34.04l-35.08984-42.11011-52.24024-62.68994-38.81006-46.57006-2.5-3-60.52-72.62012-20.21-24.25977-.10009-.12011-20.83985-25-41.66015-50-20.83985-25-20.18994-24.23-20.18994,24.23-20.84033,25-20.83008,25-20.82959,25-20.84033,25-.09961.12011-20.21,24.25977L1129.9361,1044.999l-2.5,3-38.80957,46.57006-237.52,285.02L752.44635,1497.999h-21.48l83.33008-100,252.85986-303.42994,38.81006-46.57006,2.5-3,60.50977-72.62012,20.22021-24.25977.1001-.12011,20.83008-25,20.83984-25,20.83008-25,20.83008-25,41.66992-50,41.66992,50,20.83008,25,20.83008,25,20.83984,25,20.83008,25,.1001.12011,20.21972,24.25977,60.51026,72.62012,2.5,3,38.80957,46.57006,52.86035,63.42994Z"/><line class="cls-5" x1="1314.2954" y1="1201.00043" x2="1314.2954" y2="1126.00049"/><line class="cls-5" x1="1201.79487" y1="1231.13992" x2="1164.2949" y2="1166.18807"/><line class="cls-5" x1="1119.4363" y1="1313.49175" x2="1054.48445" y2="1275.99178"/><line class="cls-5" x1="1509.1453" y1="1313.5077" x2="1574.09716" y2="1276.00773"/><line class="cls-5" x1="1426.79347" y1="1231.14913" x2="1464.29344" y2="1166.19727"/><path d="M2106.67633,1544.269a470.86112,470.86112,0,0,1-94.75-18.12988v5.21a471.84462,471.84462,0,0,0,73.78028,15.65991h26.21972V1544.699C2110.17633,1544.56909,2108.42633,1544.419,2106.67633,1544.269Zm0,0a470.86112,470.86112,0,0,1-94.75-18.12988v5.21a471.84462,471.84462,0,0,0,73.78028,15.65991h26.21972V1544.699C2110.17633,1544.56909,2108.42633,1544.419,2106.67633,1544.269ZM2601.70661,936.429a474.99878,474.99878,0,0,0-907.59034-1.71,1.17235,1.17235,0,0,0-.06982.25q-1.9497,6.18016-3.66992,12.40991a474.2767,474.2767,0,0,0,93.41992,434.02q5.23462,6.24022,10.66992,12.28c1.18994,1.34008,2.41016,2.68017,3.64014,4.01q6.81006,7.43994,13.90967,14.54,3.7954,3.81,7.68017,7.52c.93994.91015,1.89014,1.81005,2.83985,2.68994.95019.91015,1.8999,1.80005,2.86035,2.68017a469.70357,469.70357,0,0,0,86.52978,63.48q9.50978,5.42982,19.29981,10.42993a473.13991,473.13991,0,0,0,154.48047,47.98q4.03491.54017,8.09961.99,6.19482.705,12.43017,1.25,21.04468,1.845,41.98975,1.84008a471.74735,471.74735,0,0,0,53.99023-3.09008c2.68018-.30005,5.37012-.6399,8.04981-.99.55029-.07006,1.10009-.1499,1.66015-.23a472.84582,472.84582,0,0,0,75.37989-16.60009q12.45044-3.82507,24.62011-8.30982a472.06767,472.06767,0,0,0,141-81.93017q8.49024-7.125,16.60987-14.59986,2.89525-2.655,5.75-5.37011,5.14525-4.89,10.13037-9.91993,2.37012-2.3701,4.66992-4.78a469.23844,469.23844,0,0,0,46.41992-56.23c1.06983-1.51,2.12012-3.04,3.16992-4.57006a476.30363,476.30363,0,0,0,62.03028-408.04Zm14.08984,180.64013a469.48137,469.48137,0,0,1-79.41992,223.34986c-1.05029,1.55005-2.11035,3.10009-3.19043,4.63012a463.83807,463.83807,0,0,1-44.25,54.18995c-1.5,1.58007-3.00977,3.15991-4.53955,4.72q-7.96509,8.15991-16.37012,15.96-2.68506,2.50524-5.41992,4.97021-6.33033,5.71473-12.8999,11.22a467.20255,467.20255,0,0,1-137.78028,80.42993q-12.8701,4.815-26.08007,8.85987a468.23918,468.23918,0,0,1-173.91993,19.3c-1.75-.12989-3.5-.28-5.25-.42994a468.43333,468.43333,0,0,1-173.17968-49.68994q-10.96583-5.61-21.57032-11.75a463.83061,463.83061,0,0,1-79.14013-57.71c-.98-.89013-1.94971-1.78-2.91993-2.68017-.96972-.87989-1.93017-1.77979-2.89013-2.68994q-3.97485-3.69-7.85987-7.52-9-8.81983-17.5498-18.15992-1.83031-1.98009-3.6001-3.98-5.28-5.85021-10.33984-11.90014a468.51266,468.51266,0,0,1-108.16016-343.04,471.95131,471.95131,0,0,1,9.75-62.77q2.81983-12.59985,6.3501-25,1.79957-6.35963,3.79-12.65991a468.46521,468.46521,0,0,1,146.19971-218.61011,477.81208,477.81208,0,0,1,47.86035-35.33985,464.17734,464.17734,0,0,1,94.77978-46.87988q10.5-3.7954,21.22022-7.08008,11.80444-3.62988,23.71972-6.60986a466.71284,466.71284,0,0,1,113.89991-14.07031q20.71509,0,41.55029,1.82031a469.55439,469.55439,0,0,1,427.21,509.11987ZM2106.67633,1544.269a470.86112,470.86112,0,0,1-94.75-18.12988v5.21a471.84462,471.84462,0,0,0,73.78028,15.65991h26.21972V1544.699C2110.17633,1544.56909,2108.42633,1544.419,2106.67633,1544.269Zm0,0a470.86112,470.86112,0,0,1-94.75-18.12988v5.21a471.84462,471.84462,0,0,0,73.78028,15.65991h26.21972V1544.699C2110.17633,1544.56909,2108.42633,1544.419,2106.67633,1544.269Z"/><path class="cls-8" d="M3089.29645,2097.009a77.026,77.026,0,0,0-17.8501-43.38989l-371.91992-443.22021-.10986-.1399-20.65039-24.61987-12.23975-14.58008-5.6499-6.73-32.93018,27.61988-1.91015,1.6101-4.89991,4.10987-45.38964,38.10009-1.59034,1.33008-1.91992,1.60987-10.46,8.77-19.48,16.35009,26.66992,31.79,6.78028,8.06983,13.87988,16.54.02978.04,316.12012,376.74,47.08984,56.11988a77.40169,77.40169,0,0,0,136.43018-56.11988Zm-29,63.74a74.37749,74.37749,0,0,1-54.66992,17.25c-.32031-.03-.64014-.06006-.9502-.1001a74.27137,74.27137,0,0,1-49.89013-26.37989l-45.73975-54.51-317.62012-378.51-.02978-.04-15.6499-18.64991-5.01026-5.97-24.91992-29.69995,17.41992-14.62012,10.60987-8.8999,1.90039-1.59009v-.01l45.38964-38.08007,8.41993-7.06983,31.01025-26.02,5.96,7.09986,10.46,12.47,20.66016,24.62011.10986.12989L3069.5362,2055.229a74.51486,74.51486,0,0,1,17.23,41.78q.25488,3.15015.26025,6.3A74.77189,74.77189,0,0,1,3060.29645,2160.749Z"/><path d="M3092.30212,2097.009a79.4087,79.4087,0,0,0-18.41015-45l-372.06006-443.38989-.10987-.14013-20.66015-24.61988-14.00977-16.69995-3.73-4.44018-1.61035-1.90992-34.83984,29.23-1.91016,1.60987-1.91992,1.6001-1.37988,1.16015-45.38965,38.08985-1.28028,1.08007-1.91992,1.59986-1.91015,1.6101-10.14991,8.52-21.71,18.21,28.41992,33.87012,8.5503,10.18994,12.10986,14.41993v.01l.02979.03,314.62988,374.97,48.44043,57.73a79.33071,79.33071,0,0,0,54.23974,28.24c1.31006.1101,2.62012.18994,3.91993.24,1.06006.05,2.12011.07006,3.18017.07006a79.32239,79.32239,0,0,0,27.18994-4.78,80.07438,80.07438,0,0,0,52.29-81.5Zm-22.24023-41.78a74.51486,74.51486,0,0,1,17.23,41.78q.25488,3.15015.26025,6.3a74.88107,74.88107,0,0,1-81.3999,74.68995c-.32031-.03-.64014-.06006-.95019-.1001a74.27142,74.27142,0,0,1-49.89014-26.37989l-45.73975-54.51L2591.952,1718.499l-.02979-.04-15.6499-18.64991-5.01026-5.97-24.91992-29.69995,17.41992-14.62012,10.60987-8.8999,1.90039-1.59009v-.01L2621.662,1600.939l8.41992-7.06983,31.01025-26.02,5.96,7.09986,10.46,12.47"/><path d="M2627.94635,1591.949l-1.60009-1.90992-5.21-6.21-30.06982-35.83007-.83008-.99-12.47021-14.8601-56.21-66.98-1.60987-1.91992-1.39013-1.65992-4.17969,3.51h-.01026l-2.43994,2.04981-11.08984,9.3-20.52,17.22-13.22021,11.10009-.60987.52c-.02.02-.05029.03-.06982.05l-3.57031,3,1.39013,1.65992,1.60987,1.91992,29.45019,35.09008.83008.99,30.02,35.78,4.21,5.01,40.27978,48,1.6001,1.91993,1.60987,1.91015,1.90039-1.59009v-.01l45.38964-38.08007,8.41993-7.06983Zm-52.1997,40.56005-1.28028,1.07007-44.10986-52.56006-.66016-.79-27.0498-32.23-.83008-.99-31.93018-38.05.29981-.25,41.74023-35.04,5.75977-4.82984.25-.2102,56.29,67.07007,1.52051,1.82006,7.96972,9.49.83008.99,36.58984,43.6101,1.37989,1.6399-1.37989,1.16015-45.38964,38.08985Z"/><line class="cls-5" x1="815.59012" y1="1998" x2="1014.29205" y2="1998"/><line class="cls-5" x1="1613.69966" y1="1998" x2="1814.88444" y2="1998"/><path class="cls-7" d="M284.676,415.30464h.00008a42.66663,42.66663,0,0,1,42.66663,42.66663v-38.4a42.66662,42.66662,0,0,1,42.66662-42.66663h.00009a42.66663,42.66663,0,0,1,42.66662,42.66663v25.6a42.66663,42.66663,0,0,1,42.66662-42.66663h.00009a42.66663,42.66663,0,0,1,42.66662,42.66663v21.33337a38.4,38.4,0,0,1-38.4,38.4h-179.2a38.4,38.4,0,0,1-38.4-38.4v-8.53337A42.66663,42.66663,0,0,1,284.676,415.30464"/><path class="cls-7" d="M1045.63081,220.8879h-.00007a34.11594,34.11594,0,0,0-34.11594,34.11594V224.29946a34.11594,34.11594,0,0,0-34.11593-34.11594h-.00007a34.11594,34.11594,0,0,0-34.11594,34.11594V244.769a34.11594,34.11594,0,0,0-34.11594-34.11593h-.00007A34.11593,34.11593,0,0,0,875.05092,244.769v17.058a30.70437,30.70437,0,0,0,30.70437,30.70438h143.28708a30.70437,30.70437,0,0,0,30.70437-30.70438v-6.82323a34.11593,34.11593,0,0,0-34.11593-34.11593"/><path class="cls-7" d="M3246.04354,468.34488v0a36.55972,36.55972,0,0,1-36.55973,36.55973H2944.73964a40,40,0,0,1-40-40V438.441a42.698,42.698,0,0,1,85.3039-2.8082v-41.7582c0-23.65945,19.35638-43.62146,43.01519-43.44845a42.691,42.691,0,0,1,42.37661,42.70274v61.27188a42.6939,42.6939,0,0,1,85.3043,2.68008v8.45585a42.69784,42.69784,0,0,1,85.3039,2.80821Z"/><path class="cls-1" d="M1622.36627,1176.249q.84009,4.43994,1.76026,8.87988Q1623.19635,1180.704,1622.36627,1176.249Z"/><path class="cls-1" d="M1656.7901,1288.35986c-.14355-.33154-.28271-.66479-.42578-.99658C1656.50739,1287.69483,1656.64655,1288.02857,1656.7901,1288.35986Z"/><path class="cls-1" d="M1660.04645,1295.739q-1.65747-3.67347-3.25635-7.37916Q1658.39119,1292.06227,1660.04645,1295.739Z"/><path class="cls-1" d="M1656.36432,1287.36328q-1.42162-3.30175-2.7998-6.62573Q1654.94074,1284.06164,1656.36432,1287.36328Z"/><path class="cls-1" d="M1671.74738,1284.41809c-.10156-.24487-.20117-.49048-.30225-.73535C1671.54621,1283.92761,1671.64582,1284.17322,1671.74738,1284.41809Z"/><path class="cls-1" d="M2430.30622,1529.949c.65039-.39991,1.29-.8,1.93017-1.19995-.6499.41015-1.30029.82006-1.95019,1.22C2430.29645,1529.959,2430.29645,1529.949,2430.30622,1529.949Z"/><path class="cls-1" d="M2434.26618,1527.459q-.41969.27025-.83985.54c-.37011.24-.75.47-1.12011.69995C2432.95661,1528.28906,2433.61627,1527.86914,2434.26618,1527.459Z"/><path class="cls-1" d="M2439.17633,1524.28906c-.60986.40992-1.21972.8-1.83007,1.2-.83008.53-1.66993,1.07006-2.50977,1.60009C2436.29645,1526.15918,2437.73639,1525.229,2439.17633,1524.28906Z"/><path class="cls-1" d="M2448.23639,1518.249c-.87988.60009-1.76025,1.18994-2.64013,1.78-.87989.59986-1.75977,1.18995-2.64991,1.78Q2445.60138,1520.0542,2448.23639,1518.249Z"/><path class="cls-1" d="M2452.91657,1514.999c-.6001.41992-1.2002.85009-1.81006,1.27a2.18383,2.18383,0,0,1-.25.16993C2451.54645,1515.949,2452.22614,1515.479,2452.91657,1514.999Z"/><path class="cls-1" d="M2514.36627,1465.09912c-.3999.3899-.81005.77-1.21972,1.1399-.3999.38989-.81006.77-1.22022,1.15014a535.00093,535.00093,0,0,1-45.43994,37.8999c-.02.02-.05029.03-.06982.05-3.29,2.45-6.63037,4.83985-9.99024,7.2,1.54-1.09008,3.07032-2.17993,4.58985-3.29.40039-.29.80029-.58008,1.19043-.87012,1.63965-1.18994,3.26953-2.3999,4.88965-3.60987l13.22021-11.10009,20.52-17.22,11.08984-9.3Z"/><path class="cls-1" d="M2522.65631,1457.13916q-2.27782,2.23608-4.58838,4.44458C2519.60309,1460.10791,2521.13922,1458.6333,2522.65631,1457.13916Z"/><path class="cls-1" d="M2637.90631,862.54932q-2.655-6.09082-5.47021-12.12012Q2635.25666,856.44386,2637.90631,862.54932Z"/><path class="cls-1" d="M2658.73639,918.87891a532.83824,532.83824,0,0,0-20.83008-56.32959,530.207,530.207,0,0,1,33.23,104.53979Q2666.08113,942.78918,2658.73639,918.87891Z"/><path class="cls-1" d="M2672.69635,974.89893c-.5-2.59986-1.02-5.21-1.56006-7.80982C2671.6861,969.689,2672.19635,972.28906,2672.69635,974.89893Z"/><polyline class="cls-7" points="1014.292 1257.999 1314.296 901.919 1614.296 1257.999"/><path class="cls-5" d="M1461.7862,1416.999c0,1.79-.02979,3.58007-.1001,5.35009l-147.38965-63.54-147.41016,63.55005c-.06982-1.78-.10009-3.56006-.10009-5.3601a147.5,147.5,0,0,1,295,0Z"/><path class="cls-5" d="M3346.23848,1960.61046s26.68007-143.26769-40.30336-192.70784"/><path class="cls-5" d="M3346.23858,1846.70161c7.92235,3.72181,26.9671-48.44757,27.58842-53.37769,3.10975-24.67616-10.57461-41.94354-28.10667-57.26082-17.095-14.93544-35.09948-35.05553-55.73726-44.68223-23.75227-11.07947-44.4811,17.54189-46.38072,38.49017-1.41866,15.64447,6.71519,23.88006,14.67809,36.47266,10.37458,16.40648,13.87629,38.67123,26.37421,54.58273C3300.96989,1841.69787,3324.46347,1836.47246,3346.23858,1846.70161Z"/><path class="cls-5" d="M3351.48384,1908.249c3.00436-18.69038,12.64754-35.35551,29.28921-44.94343,10.99308-6.33355,23.632-8.42368,35.87928-10.98184,6.54139-1.36634,13.64014-2.02839,19.72293-4.94388"/><path class="cls-5" d="M3370.41592,1872.04907s6.60464,23.441,66.75254,15.46681,34.63039-44.65562,47.38914-68.57827-24.83043-49.821-57.07084-28.10018S3366.31846,1835.8493,3370.41592,1872.04907Z"/><path class="cls-5" d="M239.59069,1960.61046s-26.68006-143.26769,40.30337-192.70784"/><path class="cls-5" d="M239.5906,1846.70161c-7.92236,3.72181-26.9671-48.44757-27.58843-53.37769-3.10974-24.67616,10.57461-41.94354,28.10668-57.26082,17.095-14.93544,35.09947-35.05553,55.73725-44.68223,23.75228-11.07947,44.48111,17.54189,46.38073,38.49017,1.41866,15.64447-6.7152,23.88006-14.67809,36.47266-10.37459,16.40648-13.87629,38.67123-26.37422,54.58273C284.85928,1841.69787,261.3657,1836.47246,239.5906,1846.70161Z"/><path class="cls-5" d="M234.34534,1908.249c-3.00436-18.69038-12.64754-35.35551-29.28921-44.94343-10.99308-6.33355-23.632-8.42368-35.87929-10.98184-6.54138-1.36634-13.64014-2.02839-19.72293-4.94388"/><path class="cls-5" d="M215.41325,1872.04907s-6.60464,23.441-66.75253,15.46681-34.6304-44.65562-47.38914-68.57827,24.83043-49.821,57.07083-28.10018S219.51072,1835.8493,215.41325,1872.04907Z"/><polyline class="cls-5" points="1014.296 1488.139 1166.886 1422.359 1314.296 1358.809 1461.686 1422.349 1614.296 1488.139"/><polyline class="cls-7" points="814.292 1497.999 733.243 1497.999 1314.296 797.999 1614.296 1157.999"/></g><g id="Layer_5" data-name="Layer 5"><path class="cls-1" d="M1949.98775,993.04487c-.77353-23.1106,2.06049-44.7585,5.91387-67.40544,5.06707-29.7799,3.46225-60.91453-.91355-90.70658-3.55656-24.21441-10.12229-47.52922-11.29114-72.11561-1.46706-30.859-5.68576-74.742-3.73043-110.91489-4.19145,31.77166-8.02169,63.798-9.4805,95.82247-1.323,29.043,6.879,57.41131,14.3981,85.15136,4.95046,18.26351,2.19662,37.37.14315,55.83281-.966,8.68566-7.18092,104.43311.82931,104.43311Z"/><path class="cls-1" d="M2009.83511,1007.7451c.94045-28.098-4.79761-54.79553-5.85082-82.65-1.09816-29.04324,2.516-57.97845,3.93474-86.94422,1.49532-30.52893-4.71708-60.69595-7.664-90.95686-3.76924-38.70509-2.603-78.23314-12.7806-115.7659a677.26352,677.26352,0,0,1,.66322,75.2606c-.66548,14.21058-1.76534,28.42616-1.43971,42.66236.32618,14.26006,2.88248,28.10436,5.831,42.00465,8.12059,38.28416,2.47272,79.5096,1.63925,118.317-.45337,21.10879,4.10379,41.79489,7.07437,62.58116l5.21051,36.45868Z"/><path d="M2327.95661,774.499c-.01026-.29981-.02051-.58985-.04-.89014v-.00977c-.09033-1.89013-.26026-3.82031-.51026-5.77v-.01025c-.0498-.38965-.10009-.76953-.15966-1.15967-.0503-.35986-.1001-.72021-.16016-1.08008a76.84632,76.84632,0,0,0-2.12988-9.52c-7.2002-24.52-25.84034-40.48-45.33008-37.3999a35.02713,35.02713,0,0,0-11.26026,3.79981c-.89013.48-1.75.99023-2.58984,1.55029a38.38766,38.38766,0,0,0-12.39014,13.62988,49.25962,49.25962,0,0,0-4.96,13.46973,58.02586,58.02586,0,0,0-1.25,9.54s-.00976,0,0,.01025a67.98846,67.98846,0,0,0,.78028,14.14014c.21972,1.36963.46972,2.72949.75976,4.07959,2.64014,12.29,8.25977,23.30029,16.06006,31.37012,7.77,8.04,16.98,12.30029,26.3501,12.30029a31.79134,31.79134,0,0,0,4.84961-.38037,34.22661,34.22661,0,0,0,16.25-7.15967c9.96-8.02051,15.78027-21.7002,15.78027-37.98047C2328.00641,776.189,2327.98639,775.34912,2327.95661,774.499Zm-32.82032,42.35986c-18.60009,2.94043-37.12011-15.69971-41.67968-41.73975a.05967.05967,0,0,1-.01026-.04c-.06006-.37011-.12011-.75-.18017-1.12011a60.75739,60.75739,0,0,1-.19971-18.37989c-.01025-.02,0-.04.00977-.06006a45.01373,45.01373,0,0,1,5.01025-15.28027,34.70332,34.70332,0,0,1,5.73-7.68945c0-.01026,0-.01026.00977-.01026a30.7705,30.7705,0,0,1,4.95019-4.06982c.75-.49023,1.52979-.9502,2.31983-1.37012a29.42782,29.42782,0,0,1,9.37011-3.12988,25.78077,25.78077,0,0,1,4-.32031c8.71973,0,17.06006,4.47021,23.71973,12.05029a53.89675,53.89675,0,0,1,8.91016,14.35986c.36035.81006.68994,1.64014,1.01025,2.49024.65967,1.69971,1.25,3.46972,1.75976,5.27978a69.83538,69.83538,0,0,1,1.91016,8.58985C2325.90631,792.55908,2314.70661,813.769,2295.13629,816.85889Z"/><path d="M2267.55622,721.04932l-1.77979,2.96c.83984-.56006,1.69971-1.07031,2.58984-1.55029Zm0,0-1.77979,2.96c.83984-.56006,1.69971-1.07031,2.58984-1.55029Zm80.23,4.40967a57.64886,57.64886,0,0,0-21.50977-24.6001,54.4035,54.4035,0,0,0-37.62988-7.85986c-.13037.02-.25.04-.38037.06005a58.32183,58.32183,0,0,0-28.39991,14.1001c-6.77978,5.98-11.58984,12.64014-14.27978,19.79-2.8501,7.56006-3.6001,16.25977-2.30029,26.6001a180.10793,180.10793,0,0,0,3.75,18.81982c.51025,2.18018,1.03027,4.3501,1.51025,6.54l.16992-.03027,5.1001-1.00977c-.16016-.8999-.28027-1.81982-.35986-2.75a.05967.05967,0,0,1-.01026-.04c-.68994-7.09033.5503-14.85986,3.68018-23.12011a132.35711,132.35711,0,0,1,10.41992-20.43995c5.75977,8.78028,12.8501,15.6001,20.7002,19.87012,9.75976,5.31983,20.97949,6.66016,30.55957,3.77.34033.89014.70019,1.77979,1.06005,2.66992a144.72974,144.72974,0,0,0,8.09034,16.66993c.32959.60009.67968,1.18017,1.02978,1.77l.02.04c1.04,1.77979,2.12988,3.54,3.25,5.27979l1.04,1.61035,1.25977-.31006a11.16211,11.16211,0,0,0,2.77-.32031,11.00927,11.00927,0,0,0,2.57031-.98975l.2998-.06982-.02-.08008c3.18018-1.81006,5.89991-5.31006,8.12012-10.46A56.38651,56.38651,0,0,0,2347.7862,725.459Zm-9.92969,51.09033-2.10986.51953c-.64014-1.00977-1.25-2.02979-1.86036-3.04981l-.02-.03027q-2.3701-4.01954-4.46972-8.18945-2.41552-4.78565-4.43994-9.74024c-.72022-1.72021-1.39014-3.47021-2.03028-5.22021l-.93994-2.6001-2.56982,1.02051c-.76026.2998-1.53028.56982-2.32031.7998-8.17969,2.42969-17.81983,1.21973-26.29-3.39013-7.48975-4.06983-14.27-10.81006-19.71-19.56983q-.64453-1.03491-1.25977-2.10009l-1.47022-2.54-.81005-1.40967-1.77979,2.96-.56982.94971c-4.77051,7.95019-9.71,16.16015-13.1001,25.09033a71.07627,71.07627,0,0,0-2.62012,8.37988c-.33984-1.8501-.62988-3.71-.85986-5.56006-.08008-.59033-.14014-1.18017-.2002-1.76025-.91015-8.65967-.18994-15.96,2.18994-22.27,2.38038-6.31006,6.68995-12.25,12.81006-17.6499a53.04916,53.04916,0,0,1,25.75977-12.83985c.44043-.08008.89014-.1499,1.33008-.20019a48.83042,48.83042,0,0,1,27.35009,4.21c1.18995.55029,2.3501,1.16015,3.49024,1.81006a52.227,52.227,0,0,1,21.54,23.51025,51.68117,51.68117,0,0,1,.46972,41.15967C2341.69635,772.71924,2339.87653,775.269,2337.85651,776.54932Zm-70.30029-55.5-1.77979,2.96c.83984-.56006,1.69971-1.07031,2.58984-1.55029Zm0,0-1.77979,2.96c.83984-.56006,1.69971-1.07031,2.58984-1.55029Z"/><path d="M2271.77433,792.65307l-1.67085-.40722c-2.224-.54234-3.82974-.93382-2.53881-26.41851l5.36729.27183c-.41771,8.242-.56569,17.95379-.16267,21.26532l.27707.06769-.15848.651c.01785.07582.03674.14273.05563.20019a.95548.95548,0,0,0-.06822-.15034Z"/><path d="M2345.85123,821.21132a21.82763,21.82763,0,0,0-1.55331-6.94448L2325.419,767.40059l4.98527-2.00775,18.879,46.86651a27.19421,27.19421,0,0,1,1.93324,8.65232Z"/><path d="M2314.21839,834.37689c-1.14294-7.72035-6.05789-15.76631-7.67417-18.41008l4.58645-2.80172c3.04783,4.98973,7.23546,12.53559,8.40254,20.4257Z"/><path d="M2265.08253,923.54288c-4.49829,0-10.20354-2.43124-17.05277-7.278a112.65558,112.65558,0,0,1-13.00368-10.929l-1.09991-1.09965.40617-1.50135c9.60005-35.5245,28.86733-56.73892,58.89964-64.85546.35579-.10075,3.602-1.12352,16.9877-5.40613l1.63726,5.118c-16.51436,5.28386-17.01078,5.41794-17.22174,5.47514-27.60055,7.45954-45.50448,26.94381-54.69417,59.54484a108.3193,108.3193,0,0,0,11.24257,9.302c7.51359,5.30852,13.38886,7.36193,16.22154,5.69448l11.64349-14.97049,4.2422,3.29919-12.14517,15.61544-.30751.22329A9.52578,9.52578,0,0,1,2265.08253,923.54288Z"/><path d="M2424.66046,895.47214a5.9279,5.9279,0,0,1-4.3713-1.923c-3.33331-3.64344-14.56643-15.81458-19.12559-19.462l3.3564-4.196c4.72918,3.783,15.37562,15.26805,19.73432,20.03029a.51948.51948,0,0,0,.614.12883c12.72451-6.48636,21.80924-13.63943,27.03171-21.27818q-1.61365-1.58217-3.2441-3.14649c-4.96323-4.78874-10.09543-9.74043-14.35548-15.53908-1.26363-1.7194-2.49578-3.46923-3.72793-5.22037-3.99661-5.67769-7.77072-11.04053-12.651-15.52045a49.38172,49.38172,0,0,0-23.72358-12.44139c-8.47286-1.64724-15.489.0551-23.61338,2.02716l-2.15784.5211c-.56044.17894-3.8969,1.24946-8.86433,2.8437l-6.09777,1.95658-1.64146-5.11646,6.09777-1.95684c9.04695-2.90327,9.04695-2.90327,9.16345-2.93082l2.23235-.53919c8.37315-2.03268,16.28031-3.95227,25.90765-2.07991a54.73952,54.73952,0,0,1,26.33062,13.75724c5.30747,4.87192,9.42793,10.72541,13.41194,16.38632,1.21116,1.72123,2.42232,3.44141,3.66391,5.13141,3.99032,5.43054,8.73419,10.0078,13.7562,14.854,1.46934,1.41686,2.93973,2.83583,4.39123,4.27814a3.47232,3.47232,0,0,1,.50588,4.3162c-5.66327,9.0808-15.468,17.08976-29.97459,24.48475A5.82421,5.82421,0,0,1,2424.66046,895.47214Z"/><path d="M2402.54645,977.269c-9.41016-33.35986-12.16016-74.75,1.2002-116.49023l5.11962,1.64014c-12.65966,39.55029-10.46,78.77-1.8999,110.74023.52,1.96973,1.06983,3.8999,1.64014,5.80982l-.63037.59008c-1.23975,1.1399-2.5,2.31006-3.71973,3.49Q2403.35626,980.19886,2402.54645,977.269Z"/><path d="M2427.25641,1028.27905a9.55463,9.55463,0,0,1-5.95019,5.84009c-15.77979,5.36988-37.73975,8.3999-65.27979,9.02-3.52.06983-7.02.10987-10.48.10987a618.77059,618.77059,0,0,1-64.16016-3.58008l-3.23-.34986.93995-3.1101c15.57031-51.04,13.91015-101.72-4.54-139.04981l4.81005-2.38037c18.68018,37.77026,20.76026,88.6001,5.81006,139.88037,56.8501,5.79981,106.91993,3.71973,134.39991-5.63013a4.23445,4.23445,0,0,0,2.63037-2.58007,4.45066,4.45066,0,0,0-.39014-3.80982c-.60986-1-1.22021-2.03-1.81982-3.08008q-1.32057-2.28-2.6001-4.69995a3.60077,3.60077,0,0,0,2.16992-2.41015c.43994-1.86988-.35986-3.90992-1.29-6.28a25.38243,25.38243,0,0,1-1.62012-5.18994,163.40383,163.40383,0,0,0,7.35987,14.8c.79,1.3899,1.58008,2.75,2.38037,4.06006A9.77576,9.77576,0,0,1,2427.25641,1028.27905Z"/><path d="M2288.63923,1366.51077l-.657-2.06547c-2.08857-6.56193-6.01276-17.15641-10.55618-29.42385-14.345-38.73107-36.02407-97.2618-38.81163-131.63733-3.48234-42.95308,35.59167-153.57462,40.05847-166.047l5.05874,1.812c-1.76636,4.9307-43.21126,121.25171-39.7604,163.80045,2.72773,33.63771,24.25149,91.75073,38.49362,130.20552,4.28943,11.58,7.76547,20.96515,9.96529,27.59661l40.80573-3.88589-28.78546-156.9667.3264-.75015,43.0045-99.00953,4.9286,2.14078-42.6781,98.25912,29.54533,161.12021Z"/><path d="M2482.4413,1357.16287l-47.62034-1.76347-.5657-1.81569c-.29806-.9577-29.93995-96.04488-39.22409-119.25419-9.344-23.36149-53.08944-148.57255-53.53024-149.83435l5.07342-1.77187c.43976,1.26075,44.1464,126.359,53.44628,149.61054,8.75938,21.89819,34.518,104.12757,38.799,117.83627l37.24888,1.37961c-3.2399-19.48164-20.26223-120.79359-28.01931-146.453-4.323-14.29539-8.09818-50.30477-12.09374-88.42843-3.96407-37.81406-8.06354-76.91535-12.3981-88.58534l5.03775-1.87079c4.5707,12.30574,8.52113,49.99437,12.70456,89.89594,3.79405,36.19672,7.71825,73.62586,11.89223,87.43348,8.65232,28.61885,27.90071,145.42081,28.71619,150.37906Z"/><path d="M2259.85062,939.32965a6.39265,6.39265,0,0,1-3.37214-.96321L2226.8261,919.9771l7.63428-17.60981,4.9307,2.13737-5.78921,13.35186,25.70824,15.94342a1.03236,1.03236,0,0,0,1.50083-.48961l5.95608-14.716,4.98107,2.01615-5.95608,14.71573a6.41272,6.41272,0,0,1-5.94139,4.00343Z"/><path d="M2466.75641,875.64893l-9.98-9.60987-.02978-.02978-3.73047,3.86963,2.79,2.68017,6.93017,6.67969c-16.8999,13.82031-26.72021,21.06055-29.47021,22.48047-1.17969-.8501-3.44971-3.6001-5.79981-6.96V894.749c-.98-1.39991-1.98-2.89991-2.91015-4.41993l-4.56983,2.81006c.04.06983.08985.1499.14014.23,2.27,3.69971,8.62988,13.87989,13.10986,13.87989.56006,0,1.33985,0,4.41016-1.93995,1.13965-.71,2.57959-1.68994,4.43994-3.04,4.31982-3.10009,10.87012-8.1499,20.96973-16.35986,1.09033-.89014,2.23-1.81006,3.41015-2.78027a4.50111,4.50111,0,0,0,.71973-.73,4.98565,4.98565,0,0,0-.42969-6.75Z"/><path d="M2119.59979,1082.79467c-1.60473-.217-2.1148-1.3539-3.04154-3.41806-.20151-.45-.87111-1.95475-1.00335-2.42442a18.36128,18.36128,0,0,1-.88056-7.02608c.573-4.76145,4.96218-7.08643,6.40424-7.85022a41.16853,41.16853,0,0,1,10.25076-3.438,23.85612,23.85612,0,0,1,2.75922-.366,17.28753,17.28753,0,0,0,3.877-.64441c8.31543-6.53884,23.54516-29.14808,36.98335-49.096,8.518-12.646,16.56473-24.59076,21.74836-30.7166,12.81162-15.14053,35.29571-55.87149,35.52136-56.28106l4.70609,2.59234c-.93093,1.69158-22.96792,41.61046-36.12588,57.15978-4.99262,5.901-12.9596,17.72735-21.39363,30.24772-13.65858,20.2764-29.1402,43.25823-38.18716,50.367-1.45045,1.13979-3.65446,1.43156-6.60889,1.71939-.81863.07976-1.6656.16242-2.09486.25923a35.52475,35.52475,0,0,0-8.92,2.94472c-2.28378,1.20985-3.42252,2.39923-3.58414,3.74342a13.75866,13.75866,0,0,0,.69374,4.84463c.2141.55782,1.17337,2.74111,1.43155,3.17693a2.60048,2.60048,0,0,0-2.16308-1.14347l-.01049,2.67342,2.309,1.39745Z"/><path d="M2466.2862,916.75928c-1.38965.84961-15.28955,12.44971-31.42969,34.34985-7.51025,10.18994-16.74024,19.03-25.55029,27.22l-.69971.6399-.63037.59008c-1.23975,1.1399-2.5,2.31006-3.71973,3.49-1.41015,1.37989-2.78027,2.79-4.03027,4.26a55.46791,55.46791,0,0,0-5.69971,8.95c-.76025,1.38013-1.54,2.79-2.34033,4.13013-2.25,3.75-5.33984,8.88989-5.33984,13.50977a4.64581,4.64581,0,0,0,.24023,1.74023,6.46483,6.46483,0,0,0,2.52-1.02c.52978-.76,1.7998-2.59009,3.21-4.81006a.21915.21915,0,0,0,.02979-.05c.64013-1,1.30029-2.08007,1.93994-3.18994a.07417.07417,0,0,0,.02-.04c.48-.81.93017-1.63012,1.35009-2.43994l4.77,2.47c-.50976.98-1.06006,1.97-1.62988,2.92994-.56006.98-1.14014,1.93994-1.71,2.84008-2.01025,3.18994-3.78027,5.65992-3.90039,5.81006l-.25.34986-.33984.25a12.562,12.562,0,0,1-1.21973.78,10.27976,10.27976,0,0,1-4.83008,1.48,5.41875,5.41875,0,0,1-2.46-.56006c-1.41992-.73-3.11035-2.45-3.11035-6.54,0-6.10987,3.52051-11.98975,6.1001-16.27979.75-1.25,1.48-2.56006,2.24023-3.96a60.06418,60.06418,0,0,1,6.31006-9.83008,79.63947,79.63947,0,0,1,6.41992-6.56006c.6001-.56005,1.2002-1.10986,1.79-1.65991l1.31006-1.22q.65991-.61522,1.31982-1.23c8.50977-7.93017,16.68018-15.90015,23.56006-25.24023,15.93994-21.6399,31.31983-35.31983,33.75-36.12989l1.69971,5.1001A1.79766,1.79766,0,0,0,2466.2862,916.75928Z"/><rect x="2442.89857" y="899.02181" width="5.3738" height="25.16927" transform="translate(-66.83816 1618.46012) rotate(-36.15683)"/><path d="M2337.00641,1361.89893c-.37988-1-.77-1.96-1.18017-2.87989l-4.91993,2.16993c.18018.41015.35987.83007.52979,1.25,6.98047,16.76,8.07031,39.8601,7.37012,43.92016-1.92969,1.05005-9.58008,1.40991-14.23975,1.62989l-.16992.01c-1.91016.09008-5.68994-4.7-6.14014-8.60987l-5.3501.09986c-.33984,4.44995-5.83007,9.46-9.23,10.37011-2.2998.60987-4.71,1.28-7.16015,1.96-12.50977,3.46-26.68994,7.3899-33.08985,5.90992-6.25976-1.45-13.85009-7.99-16.2998-10.23.71973-10.72,25.33008-20.03,37.34961-24.58008q1.60546-.61488,3-1.1399c4.74023-1.82006,7.61035-4.58007,8.52051-8.17993a11.805,11.805,0,0,0-.9502-7.70019,18.32013,18.32013,0,0,0-2.46-4.02l-4.08984,3.49023a10.20272,10.20272,0,0,1,.76953,1.07984c.94043,1.4602,2.04,3.83007,1.51025,5.85009-.46,1.80005-2.22021,3.31006-5.23,4.46-.91992.36011-1.91016.73-2.98,1.13013-15.66016,5.92993-41.88037,15.84986-40.80029,30.98l.08008,1.02.73.71c.43017.41992,10.63037,10.29,19.64013,12.36988a20.45777,20.45777,0,0,0,4.49024.44018c8.07959,0,19.82959-3.25,31.23974-6.42016,2.43994-.66993,4.83008-1.32984,7.12012-1.93995,3.62988-.97,7.79-4.15014,10.46973-8.06005,2.13037,3.52,5.37011,6.56005,9.11035,6.38012l.17969-.01c10.47021-.5,16.5-.93017,18.56005-4.02C2346.06647,1405.30908,2343.37653,1378.58911,2337.00641,1361.89893Z"/><path d="M2489.5362,1402.219c-.18994-.98-.37989-1.97-.6001-2.98a127.0112,127.0112,0,0,0-5.73975-19.98c-4.60009-11.82006-5.10009-19.56005-5.12011-22.26-.00977-.68995.02-1.06006.02-1.07007l.28027-2.76978-40.81006-2.62012,1.06006,3.67994c.00976.02.13965.5.34961,1.33007.91015,3.62989,3.20019,14.07984,2.19043,23.52-1.3003,12.1399,7.98974,43.22,19.25976,45.47.66993.12989,1.39991.25,2.18018.3501,1.0498.12988,2.18994.23975,3.39014.30982,1.13964.07006,2.32959.1101,3.53955.14013q2.89525-2.655,5.75-5.37011-1.91969.045-3.65967.03c-1.28027-.01-2.48-.03-3.6001-.08008a42.33274,42.33274,0,0,1-6.55029-.64991c-6.32959-1.26-16.25977-27.56-14.96973-39.62988.9502-8.87012-.68017-18.24023-1.7998-23.25l28.01953,1.7898c.15039,3.90014,1.09033,11.78,5.46,23.02a129.26675,129.26675,0,0,1,6.21045,22.76c.18994,1.03.36963,2.04.52978,3.02.18018,1.05.33985,2.08007.49024,3.07006q2.37012-2.3701,4.66992-4.78C2489.91657,1404.269,2489.73639,1403.259,2489.5362,1402.219Z"/><rect x="2286.30711" y="1344.57452" width="47.82723" height="5.37364" transform="translate(-141.54333 279.0451) rotate(-6.70722)"/><path d="M2476.79377,1343.16135c-7.02975-.201-42.21945-1.22349-44.6722-1.632l.868-5.303c1.97417.28048,28.00986,1.108,43.95748,1.56353Z"/><path d="M2164.39164,1066.14754l-3.45505-4.11547a411.87088,411.87088,0,0,0,53.948-57.46834c25.53717-33.13708,39.5568-69.47838,39.69534-69.84152l5.021,1.91513c-.14169.37022-14.42264,37.42022-40.45939,71.2067A417.59919,417.59919,0,0,1,2164.39164,1066.14754Z"/><path d="M2152.4361,1066.489l-.12988,5.24v.13012h-.12012a54.15585,54.15585,0,0,0-7.58984.34986v.01a45.48953,45.48953,0,0,0-10.04981,2.32006c-12.89014,4.6001-27.54,24.08008-27.68994,24.28l-.08008.09986-5.91016,7.16015-.04.04-3.39014,4.09986-.02979.04-22.02978,26.67994-.82031.99-64.08985,77.6101-1.25976,1.53-4.14014-3.42016,3.85986-4.67993,61.41016-74.35987v-.01l7.5498-9.14013,14.9502-18.10987.23-.28,3.31982-4.01.16993-.21,6.03027-7.30005a122.64533,122.64533,0,0,1,14.23975-15.58007c1.37011-1.25,2.80029-2.47,4.26025-3.62989a42.86075,42.86075,0,0,1,11.6499-6.8601,54.64315,54.64315,0,0,1,17.35987-3C2150.92633,1066.469,2151.70661,1066.469,2152.4361,1066.489Z"/><path d="M2168.45661,1065.219a9.77683,9.77683,0,0,0-1.14014-1.61988,7.9716,7.9716,0,0,0-4.14014-2.60009,6.8066,6.8066,0,0,0-.85986-.15992c-3.8999-.55-7.1499,1.82007-9.80029,3.76l-.62989.46c-.63964.47-1.23.93995-1.79,1.41993a45.84846,45.84846,0,0,0-4.68995,4.82006c-.25976.30005-.52978.59986-.81005.90992v.01c-.69971.79-1.42969,1.58007-2.23975,2.40014-.25.25-.5.5-.75.75977a20.43136,20.43136,0,0,1-2.72022,2.47021,20.693,20.693,0,0,1-2.93994,1.56983l-.85009.39013c-9.84961,4.72-16.73975,12.79-23.39991,20.6001l-1.29,1.50977-6.23,7.55005-.02.02-3.4497,4.17993-.02051.03L2010.60651,1222.769l-5.30029,6.41993.31005.26,2.88038,2.37011.96.79,47.98974-58.12011,57.06983-69.11011,1.27-1.48975c4.12011-4.82007,8.09033-9.48,12.6499-13.33008a15.668,15.668,0,0,0,10.23047,4.28h.01953c12.36035,0,27.32031-7.32007,30.96045-19.58008A13.485,13.485,0,0,0,2168.45661,1065.219Zm-3.96,8.51c-2.89014,9.73-15.64014,15.74-25.81055,15.74h-.00977a9.81507,9.81507,0,0,1-5.83007-2.22,39.06428,39.06428,0,0,1,4.57031-2.58985l.7998-.37012a24.5832,24.5832,0,0,0,3.74024-2.03,23.57443,23.57443,0,0,0,3.48974-3.13012c.23975-.23975.47022-.48.71-.71,1.25-1.25,2.27979-2.43994,3.29-3.57984.93018-1.06006,1.8003-2.05,2.73975-2.98a1.5378,1.5378,0,0,1,.12012-.13012,23.57417,23.57417,0,0,1,2.73-2.31006l.66015-.48c2.23-1.6399,4.33985-3.17994,6.18994-2.72a3.26827,3.26827,0,0,1,1.89991,1.67016A8.04138,8.04138,0,0,1,2164.49665,1073.729Z"/><path d="M1872.67633,1419.749v5.37011h-47.27978c-.96045-.88012-1.91016-1.77-2.86035-2.68017-.94971-.87989-1.89991-1.77979-2.83985-2.68994Z"/><path d="M1879.73639,1315.34912c-.23974.29-.48.59986-.73974.90991-3.48047,4.27-9.63038,11.15992-18.27051,20.46-8.85987,9.54-15.52979,17.81005-21.40967,25.10009-10.98,13.62989-18.91992,23.48-31.31982,28.30005a21.92687,21.92687,0,0,0-6.43018,3.94995c-.63037.55005-1.23,1.12989-1.80029,1.73-.58008.61011-1.11963,1.24-1.65967,1.8899-1.23-1.32984-2.4502-2.66993-3.64014-4.01q.79542-.95985,1.68018-1.85987c.57959-.60009,1.18994-1.17993,1.81982-1.73a27.00514,27.00514,0,0,1,8.08985-4.97c11.05029-4.30005,18.22021-13.20019,29.08007-26.67016,5.93018-7.35987,12.66016-15.69995,21.64991-25.3899,15.38037-16.55005,19.35009-21.69995,20.36035-23.23a3.919,3.919,0,0,0,.32959-.54,2.1255,2.1255,0,0,0-.09961,1.15992,2.57344,2.57344,0,0,0,.41992,1.05005,2.73629,2.73629,0,0,0,.3999.44995,2.44869,2.44869,0,0,0,2.83008.38012l-2.77-4.6101a2.90086,2.90086,0,0,1,3.83008.56005C1883.63629,1310.199,1882.26618,1312.209,1879.73639,1315.34912Z"/><path d="M2010.46637,1215.53906a32.49842,32.49842,0,0,0-1.54-6.57006,33.35825,33.35825,0,0,0-56.62011-11.11988l-68.87989,78.66992a33.00334,33.00334,0,0,0-8.12011,24.96,34.07429,34.07429,0,0,0,1.84033,8.35009c.06982.21.1499.41993.23.61988.12988.3601.27.7.41992,1.05005a31.52067,31.52067,0,0,0,1.93994,3.85009,33.14755,33.14755,0,0,0,8.04,9.23l2.73975,2.17993a33.15454,33.15454,0,0,0,20.66015,7.15992,33.68232,33.68232,0,0,0,10.2002-1.57984,32.93743,32.93743,0,0,0,14.87012-9.67016c.25976-.29981.51953-.60987.77978-.91992l66.1499-80.83008c.1001-.11988.18994-.24.28028-.35987a33.29514,33.29514,0,0,0,5.04-8.74,32.90328,32.90328,0,0,0,2.0498-8.39013q.04469-.33.06006-.65992A31.78994,31.78994,0,0,0,2010.46637,1215.53906Zm-77.58984,102.81006c-.28027.34986-.57031.67993-.87012,1.01a28.10674,28.10674,0,0,1-38.1499,3.18994l-2.74024-2.17993a27.95277,27.95277,0,0,1-3.6499-40.31006l42.87989-48.96,3.77-4.31006,22.24024-25.3999a27.952,27.952,0,0,1,42.73975,36.02l-.08008.09985-21.30957,26.04-3.68018,4.5Z"/><path d="M1977.89011,1269.1915c-22.12934-5.966-38.27637-19.548-49.36465-41.522l4.79845-2.42074c10.35991,20.532,25.39443,33.20871,45.96418,38.75443Z"/><path d="M1938.66657,1365.09912c-.1001-.79-.25-1.56006-.41992-2.31006a26.39549,26.39549,0,0,0-1.01026-3.41992c-.12988-.37011-.27978-.74023-.43017-1.1001-.02979-.07006-.05957-.14013-.08985-.21-.12011-.30005-.25976-.60009-.3999-.8999-.12012-.26025-.24023-.52-.38037-.77a27.60416,27.60416,0,0,0-8.93945-10.24023c-.37012-.25-.75-.5-1.14014-.73975a27.92715,27.92715,0,0,0-3.1499-1.68017q-.42042-.19483-.84034-.35987c-.56982-.24023-1.14013-.45019-1.73-.65014a28.24617,28.24617,0,0,0-3.02978-.82984,22.82045,22.82045,0,0,0-2.34033-.39013,24.59023,24.59023,0,0,0-3.44971-.23,27.62948,27.62948,0,0,0-27.6001,27.6001,27.438,27.438,0,0,0,5.16992,16.05982,16.80245,16.80245,0,0,0,1.22022,1.59008,27.71744,27.71744,0,0,0,8.64014,6.92994,27.60331,27.60331,0,0,0,39.91992-28.34986Zm-27.3501,26a22.15986,22.15986,0,0,1-16.99023-7.92016,17.69686,17.69686,0,0,1-1.25-1.62989,22.02734,22.02734,0,0,1-3.98975-12.67993,22.25005,22.25005,0,0,1,22.23-22.22021,21.19479,21.19479,0,0,1,4.65967.5,20.983,20.983,0,0,1,3.08008.89013q.75.26991,1.47021.6001a21.348,21.348,0,0,1,4.04981,2.38989,21.0008,21.0008,0,0,1,2.37011,2.04,22.11763,22.11763,0,0,1,6.06006,10.89991v.02a21.733,21.733,0,0,1,.54981,4.88012A22.26079,22.26079,0,0,1,1911.31647,1391.09912Z"/><path d="M2071.60651,1179.34912c-.32031-.30005-.6499-.60009-1-.88012a17.99354,17.99354,0,0,0-4.28027-2.60987,17.7485,17.7485,0,0,0-8.87989-1.37011h-.02978a17.868,17.868,0,0,0-12.14014,6.51l-34.73,42.42993-4.93018,6.02-6.52,7.9602-.08008.09985-21.31983,26.04-3.68017,4.5-42.00977,51.31006-10.62988,12.98-4.05029,4.95a18.26181,18.26181,0,0,0-2.56006,4.21,16.28742,16.28742,0,0,0-.81983,2.28l-.79,2.77,2.81983.59986a20.983,20.983,0,0,1,3.08008.89013q.75.26991,1.47021.6001a21.348,21.348,0,0,1,4.04981,2.38989,21.0008,21.0008,0,0,1,2.37011,2.04,22.11763,22.11763,0,0,1,6.06006,10.89991v.02l.62988,2.78,2.75-.82006a16.4248,16.4248,0,0,0,2.28028-.84986,18.00334,18.00334,0,0,0,6.52978-5l127.93994-156.30005a18.00263,18.00263,0,0,0-1.52978-24.44995Zm-2.63037,21.04981-127.92969,156.29a12.79181,12.79181,0,0,1-3.66992,3.06006c-.04-.12989-.09033-.26-.14014-.37989-.12988-.37011-.27978-.74023-.43017-1.1001-.02979-.07006-.05957-.14013-.08985-.21-.12011-.30005-.25976-.60009-.3999-.8999-.12012-.26025-.24023-.52-.38037-.77a27.60416,27.60416,0,0,0-8.93945-10.24023c-.37012-.25-.75-.5-1.14014-.73975a27.92715,27.92715,0,0,0-3.1499-1.68017q-.42042-.19483-.84034-.35987c-.56982-.24023-1.14013-.45019-1.73-.65014a13.55178,13.55178,0,0,1,1.36036-2.03l14.75-18.02,67.21-82.10987,45.96972-56.16015a12.63859,12.63859,0,0,1,22.41016,8.01025A12.666,12.666,0,0,1,2068.97614,1200.39893Z"/><path d="M1898.74665,1393.449a26.27394,26.27394,0,0,0-4.42041-10.27c-.39991-.55982-.81983-1.09986-1.25-1.62989a26.82576,26.82576,0,0,0-8.73975-6.85009,26.55359,26.55359,0,0,0-34.41992,37.53c.30957.53.63965,1.04.98974,1.54a26.39079,26.39079,0,0,0,5.76026,5.98,25.14969,25.14969,0,0,0,4.3999,2.68994,25.983,25.983,0,0,0,8.3501,2.47021,24.59246,24.59246,0,0,0,3.25976.21,26.593,26.593,0,0,0,26.57032-26.56006A26.07936,26.07936,0,0,0,1898.74665,1393.449Zm-26.07032,26.30005a18.38457,18.38457,0,0,1-2.58984-.16993,21.18372,21.18372,0,1,1,18.7998-34.65014c.43018.51.83985,1.04,1.22022,1.59008a21.18236,21.18236,0,0,1-17.43018,33.23Z"/><path d="M1869.77643,1422.249v.18994H1822.5362c-.94971-.87989-1.89991-1.77979-2.83985-2.68994q-3.88476-3.705-7.68017-7.52h41.10009a23.77171,23.77171,0,0,0,8.56006,7.52A23.40736,23.40736,0,0,0,1869.77643,1422.249Z"/><path d="M2425.21637,1010.959l-.1499.28-1.76025,3.27-.62989,1.17994q.52515.28491,1.04981.60009c.30029.17994.61035.37012.91015.56006a35.96748,35.96748,0,0,1,9.06006,8.74l4.3003-3.23A39.70065,39.70065,0,0,0,2425.21637,1010.959Zm25.03028,36.12011-5.08008,1.74c1.55957,4.57007,3.0498,9.71,4.43994,15.25l5.21-1.30005C2453.39655,1057.0791,2451.85651,1051.79907,2450.24665,1047.0791Zm9.96972,42.22-5.2998.8899c.83008,4.93017,1.63965,10.27,2.41992,15.8601l5.33008-.74C2461.87653,1099.669,2461.05622,1094.27905,2460.21637,1089.29907Zm5.74024,42.75-5.34034.59986c.60987,5.4602,1.28028,10.87011,1.97022,16.08008l5.31982-.71C2467.22614,1142.84912,2466.56647,1137.469,2465.95661,1132.04907Zm5.96,42.47-5.3003.90992c.91993,5.37011,1.89991,10.73022,2.93018,15.94018l5.27-1.04C2473.79645,1185.169,2472.82624,1179.84912,2471.91657,1174.519Zm8.67969,41.94-5.21973,1.29c1.30957,5.3,2.69971,10.58007,4.13965,15.68994l5.16992-1.46C2483.26618,1226.929,2481.88629,1221.709,2480.59626,1216.459Zm12.08007,41-5.06982,1.77c1.81006,5.18994,3.71,10.31005,5.65967,15.22l4.99023-1.98C2496.33649,1267.62891,2494.46637,1262.5791,2492.67633,1257.459Zm16.39014,39.38012-4.81006,2.3899c2.4502,4.93994,5.02,9.78,7.64014,14.39013l4.66992-2.66015C2513.99665,1306.439,2511.47614,1301.689,2509.06647,1296.83911Zm28.93994,45.60987c-.5498-.66993-1.08984-1.33985-1.62988-2.03-1.8501-2.30982-3.66016-4.68994-5.43018-7.10987l-4.35009,3.15992c2.14013,2.94018,4.35009,5.81005,6.58984,8.58007.54.66993,1.09033,1.32984,1.63037,1.99.56006.66993,1.12988,1.33985,1.68994,2,1.06983-1.51,2.12012-3.04,3.16992-4.57006C2539.11627,1343.79907,2538.56647,1343.12891,2538.00641,1342.449Z"/><path d="M2276.80622,1268.15918a85.48444,85.48444,0,0,1-15.23,3.37988l.60009,4.76v.01l.07032.56006a.42762.42762,0,0,0,.10986-.02,90.19652,90.19652,0,0,0,16.08984-3.58008Zm-56.41993-1.04-1.70019,5.09986a105.43845,105.43845,0,0,0,16.02051,4.01l.88965-5.29A101.06344,101.06344,0,0,1,2220.38629,1267.11914Zm92.83985-19.38012-.00977-.01-.87011-.92994a105.86543,105.86543,0,0,1-12.25,9.82984l3.04,4.44018a111.24753,111.24753,0,0,0,10.9502-8.60009c.63965-.55982,1.27978-1.1399,1.91016-1.73Zm-129.30957-.98-3.41992,4.15015a123.37826,123.37826,0,0,0,13.37988,9.58985l2.83984-4.56006A117.89337,117.89337,0,0,1,2183.91657,1246.759Zm-27.01026-32-4.60009,2.78a161.23434,161.23434,0,0,0,9.15039,13.60987l4.29-3.23975A152.08863,152.08863,0,0,1,2156.90631,1214.759Zm180.46-1.41992a126.141,126.141,0,0,1-7.91992,13.6399l4.46,3a131.972,131.972,0,0,0,8.26026-14.22Zm-199.73-36.66015-4.8999,2.18017c2.44971,5.51,4.68018,10.32984,6.79,14.74l4.8501-2.33008C2142.27643,1186.90918,2140.07624,1182.13916,2137.63629,1176.679Zm214.48-3.10987c-1.48,5.35987-3.0498,10.5-4.66992,15.28l5.08985,1.73c1.6499-4.88012,3.25-10.12011,4.76025-15.58007Zm-285.23-9.39013c-.2998,4.69995-.46972,8.78-.56005,11.68017-.08985,2.8999-.10987,4.62989-.10987,4.66992l5.37012.04c0-.02,0-.44995.02-1.22.04-2.34009.18994-7.85009.64014-14.82007Zm53.41993-26.92993-4.87989,2.27c1.87012,4,3.89014,8.53,6.56006,14.66993l4.93018-2.1399C2124.22614,1145.85913,2122.1861,1141.29907,2120.30622,1137.249Zm243.66992-4.95-2.54-.47c-.38965,2.11988-.76953,4.15992-1.1499,6.14991v.01c-.64991,3.34008-1.28955,6.51-1.93994,9.6101l5.26025,1.09986c.06006-.27.10986-.5398.16992-.80982.68994-3.31006,1.37012-6.73,2.06006-10.34009v-.01c.29-1.54.58984-3.12011.88965-4.74Zm-290.40967-11.24a120.07911,120.07911,0,0,0-3.23,13.54v.01c-.15039.82984-.30029,1.66992-.4502,2.53l4.66993.7898.82031-.99c.75-4.23,1.58984-8.06983,2.50976-11.48q.39039-1.47.81006-2.81983Zm25.8501-16.22a23.1161,23.1161,0,0,0-2.86035-1.99c-.56983-.33008-1.13965-.62011-1.71-.88012a14.96146,14.96146,0,0,0-2.75-.95l-1.23,5.23c.2002.05.41993.10009.62012.16015a10.42011,10.42011,0,0,1,1.58008.65991,16.10265,16.10265,0,0,1,3.10986,2.05005c.41016.33985.83008.69995,1.25977,1.09986l3.39014-4.09986.04-.04C2100.38629,1105.62891,2099.89655,1105.219,2099.41657,1104.83911Zm4.75976,4.62989-.02.02-3.4497,4.17993c.35986.44018.72949.89013,1.09961,1.3601l4.22021-3.33007C2105.40631,1110.90918,2104.7862,1110.169,2104.17633,1109.469Zm264.37989-20.04q-.64453,3.96019-1.29981,7.99l-1.29,7.95019,5.31006.85987,1.29-7.95q.64527-4.03491,1.29-7.98Zm8.11035-42.48c-1.16016,4.67993-2.3003,9.88012-3.47022,15.90014l5.27979,1.02979c1.15039-5.92993,2.27051-11.04981,3.40039-15.62988Zm16.54-28.2898-2.19043-1.76025-1.46-1.17993a38.8744,38.8744,0,0,0-3.48975,5.19995.89242.89242,0,0,0-.08008.13012l4.68018,2.64991a33.5098,33.5098,0,0,1,2-3.15992q.52442-.765,1.08008-1.43994Z"/><path d="M2399.29645,1009.489a.00988.00988,0,0,1-.01025.01l-2.15967-1.58985Z"/><path d="M2490.02643,921.53906c-2.84033,13.52-12.75,25.89991-22.06982,36.24a193.091,193.091,0,0,1-25.33008,23.22c-1.79,1.37988-4.09033,2.78-6.52,4.27-5.84033,3.57007-13.12012,8.01-14.14014,12.87989-.37011,1.78.4502,3.8601,1.31006,6.05005,1.1001,2.81005,2.3501,5.99,1.50977,9.5a8.49741,8.49741,0,0,1-4.78955,5.8601c-3.61036,1.77-8.86036,2.1399-14.87012,2.56983-1.55029.11011-3.19043.22021-4.90039.37012-.52979.04-1.04.06005-1.51953.06005-3.3003,0-5.6001-1.01-6.83008-3.04a1.31267,1.31267,0,0,1-.12988-.2c-1.63038-2.89013-.3501-6.72,1.06982-9.51a.21915.21915,0,0,0,.02979-.05,25.33349,25.33349,0,0,1,1.93994-3.18994.07417.07417,0,0,0,.02-.04c.06005-.08007.11035-.13989.15039-.19995l4.32959,3.16993a20.60349,20.60349,0,0,0-1.69971,2.83007c-.98,1.92993-1.5,3.74-1.15039,4.35987.1001.18017.94043.65014,3.34033.45019,1.73975-.14013,3.3999-.26025,4.97022-.37012,6.10986-.42993,10.2998-.79,12.6499-1.90991a3.60077,3.60077,0,0,0,2.16992-2.41015c.43994-1.86988-.35986-3.90992-1.29-6.28a25.38243,25.38243,0,0,1-1.62012-5.18994v-.01a10.78573,10.78573,0,0,1,.0503-3.91993c1.5-7.15014,9.51953-12.04,16.59961-16.37011,2.30029-1.40992,4.48-2.74,6.03027-3.92993a187.67165,187.67165,0,0,0,24.62988-22.57007c8.83985-9.8,18.21973-21.48,20.81006-33.75,2.29-10.8899-15.24023-28.90992-22.18994-34.92993l3.52-4.06006C2468.90631,883.85889,2493.38629,905.59912,2490.02643,921.53906Z"/><path d="M2334.41325,780.19927c5.91923.16022,9.37268-5.54731,11.41726-10.293a53.9217,53.9217,0,0,0-26.82133-69.98074,51.33479,51.33479,0,0,0-30.28714-4.22368,55.9642,55.9642,0,0,0-27.075,13.47c-5.83513,5.14606-10.80451,11.44036-13.54757,18.7209-3.0159,8.0047-3.2156,16.8303-2.14409,25.31692s3.36247,16.76329,5.21734,25.11375c-1.58751-9.15229.14686-18.63347,3.44435-27.31744s8.10818-16.69875,12.89288-24.66061c5.33282,9.24424,12.6425,17.5849,22.01586,22.68735s20.95965,6.661,30.87994,2.72622a140.70993,140.70993,0,0,0,14.1105,28.37386l5.04161-1.23187Z"/><path d="M2328.9814,696.396c-2.39336,8.23977-15.40012,11.68854-24.68637,8.99122s-17.6272-6.846-15.23384-15.0858,13.31616-16.72883,22.60241-14.03151S2331.37476,688.15618,2328.9814,696.396Z"/><path class="cls-9" d="M2328.9814,696.396c-2.39336,8.23977-15.40012,11.68854-24.68637,8.99122s-17.6272-6.846-15.23384-15.0858,13.31616-16.72883,22.60241-14.03151S2331.37476,688.15618,2328.9814,696.396Z"/><line class="cls-10" x1="1869.7722" y1="1422.43408" x2="2469.55213" y2="1422.43408"/><path class="cls-11" d="M2356.16114,829.35655c2.048,3.31288,2.57646,7.68386,1.20268,9.94827l-6.787,11.187c-4.2096,6.93871-12.86157,4.73171-19.43372-4.95729h0l18.50946-25.2469q.37219-.13329.74906-.24764Z"/><path class="cls-11" d="M2313.244,831.344q.26934-.00741.53959.00092l17.29056,14.75369c1.6946,1.446-4.576,9.6535-6.63711,10.23333-4.43292,1.247-9.54359-4.96588-12.68229-7.40015-2.41312-1.8716-4.1296-5.9297-2.64577-9.00838Z"/><path class="cls-11" d="M2331.14312,845.53457c5.70273,30.30209,11.86416,61.71515,10.35781,92.70434"/><circle cx="2323.81852" cy="901.7014" r="4.09584"/><circle cx="2327.93176" cy="924.59324" r="4.09584"/><polygon class="cls-7" points="3246.392 1960.61 3297.903 2097.009 3394.574 2097.009 3446.084 1960.61 3246.392 1960.61"/><polygon class="cls-7" points="339.436 1960.609 300.196 2064.529 287.926 2097.009 191.256 2097.009 178.986 2064.529 139.747 1960.609 339.436 1960.609"/><path class="cls-5" d="M2032.81637,617.719c.1.83.21,1.65.32,2.48,5.72,43.04,23.54,84.54,21.53,129.26-1.73,38.27-10.28,75.94-11.42,114.28-2.03,68.2,17.96,68.79,15.93,136.99-18.19,4.7-38.16,8.67-57.01,7.89-23.03-.94-42.98-15.59-66.14-15.59a155.853,155.853,0,0,0-46.78,7.74,198.94107,198.94107,0,0,1,.87-28.39,152.66572,152.66572,0,0,1,4.9-25c1.19-4.3,2.44-8.42,3.65-12.66,3.94-13.84,7.42-28.97,6.51-56.04-2.03-60.71-22.02-60.04-24.05-120.74-1.36-40.61,7.13-54.35,12.29-77.17.25-1.11.5-2.25.73-3.41"/><line class="cls-5" x1="1687.4826" y1="972.38192" x2="1890.84103" y2="972.38192"/><polyline class="cls-5" points="1692.716 947.379 1695.566 947.379 1895.016 947.379 1895.206 947.379"/><path class="cls-5" d="M1889.24637,1000.769a198.94107,198.94107,0,0,1,.87-28.39,152.66572,152.66572,0,0,1,4.9-25c1.19-4.3,2.44-8.42,3.65-12.66,3.94-13.84,7.42-28.97,6.51-56.04-2.03-60.71-22.02-60.04-24.05-120.74-1.36-40.61,7.13-54.35,12.29-77.17.25-1.11.5-2.25.73-3.41"/><path class="cls-5" d="M1939.96651,651.90232c-1.95534,36.17294,2.26336,80.05595,3.73042,110.91492,1.16885,24.58639,7.73458,47.9012,11.29114,72.11561,4.3758,29.79205,5.98062,60.92668.91355,90.70658-3.85338,22.64694-6.6874,44.29484-5.91387,67.40544"/><path class="cls-5" d="M1987.7318,631.40827c4.76826,25.60507,10.48406,57.05728,10.1159,78.66633-.73492,43.1366,12.20459,84.523,10.07133,128.07627-1.41875,28.96576-5.0329,57.901-3.93474,86.94421,1.05321,27.85449,6.79127,54.552,5.85082,82.65"/><path d="M2663.51618,917.419A539.72529,539.72529,0,1,0,1883.86627,1547.009c.59034.34009,1.18018.66993,1.78028.99q7.97973,4.43994,16.11963,8.60009a537.88671,537.88671,0,0,0,198.84033,57.06006q23.90991,2.08483,47.71,2.08985a538.3516,538.3516,0,0,0,261.29-67.75c.58984-.33008,1.16992-.64991,1.75-.99a535.69347,535.69347,0,0,0,54.48975-35.09008c.68017-.48,1.35009-.98,2.02-1.48.78028-.56983,1.5503-1.1399,2.31983-1.73q12.375-9.22487,24.29-19.24,8.91064-7.485,17.45019-15.29c1.93994-1.76,3.85987-3.55005,5.75977-5.33985.69043-.63012,1.38037-1.28,2.06055-1.94018.60986-.55982,1.21-1.1399,1.80957-1.73a540.31273,540.31273,0,0,0,141.96-547.75Zm18.72021,163.90014q-.22485,20.64-2.04,41.37989a532.80984,532.80984,0,0,1-56.52978,197c-.86035,1.7102-1.75,3.41015-2.64014,5.10009-.33008.61988-.6499,1.24-.98,1.84986a528.22447,528.22447,0,0,1-89.86035,122.95019q-1.76953,1.79993-3.54981,3.58985c-1.31982,1.33007-2.63964,2.65014-3.98,3.95019q-2.28,2.23462-4.58984,4.43994c-1.22021,1.17993-2.46,2.34986-3.68994,3.52h-.01026c-.3999.3899-.81005.77-1.21972,1.1399-.3999.38989-.81006.77-1.22022,1.13989q-10.06494,9.375-20.66015,18.26025-11.84987,9.94482-24.16992,19.12988c-1.62012,1.21-3.25,2.41993-4.88965,3.60987-.39014.29-.79.58008-1.19043.87012-1.51953,1.1101-3.04981,2.19995-4.58985,3.29-.33984.25-.68994.5-1.0498.74-.81006.58008-1.62988,1.14991-2.46,1.72-.6001.41992-1.2002.85009-1.81006,1.27a2.18383,2.18383,0,0,1-.25.16993c-.87012.6101-1.75,1.21-2.62012,1.81006q-2.64037,1.79992-5.29,3.56005c-.89013.58985-1.77,1.16993-2.66015,1.75-.00977.01-.02.01-.02979.02a2.18932,2.18932,0,0,1-.18994.12989c-.29.20019-.59033.39013-.89014.58007-.60986.40992-1.21972.8-1.83007,1.2q-1.94972,1.27513-3.91993,2.51c-.37011.24-.75.47-1.12011.69995a.30316.30316,0,0,1-.06983.05005c-.6499.41015-1.30029.82006-1.95019,1.22-.13965.09008-.28955.17993-.42969.27-.23.13989-.4502.28-.68018.42016-.60009.36987-1.18994.75-1.79,1.11987a4.01139,4.01139,0,0,1-.35009.21c-1.18994.73-2.37989,1.46-3.56983,2.17993a.20941.20941,0,0,1-.06006.04q-3.18016,1.92-6.37988,3.79c-.01025.01-.02978.02-.04.03-2.45019,1.41993-4.91015,2.84009-7.37988,4.23-1.6499.92994-3.31006,1.86011-4.98,2.77-1.21.66993-2.43018,1.33008-3.65039,1.98q-.35963.1952-.71973.3899-.55518.3153-1.10986.6001c-.11035.06005-.22022.1101-.33008.16992-1.22021.66015-2.43994,1.31006-3.66992,1.94018-.43018.24-.8501.46-1.28028.66992-1.4497.76-2.8999,1.5-4.35009,2.24q-5.00978,2.565-10.09961,5-2.625,1.27515-5.26026,2.5-2.43016,1.14-4.87011,2.25c-.12989.07007-.25.12012-.37989.17994q-2.54955,1.155-5.12011,2.29c-1.63965.72-3.27979,1.43994-4.91993,2.13989a4.41557,4.41557,0,0,1-.58984.26025c-1.09033.47-2.16992.92993-3.26025,1.38989-.01953.01-.04.01-.05957.02-1.07032.46-2.14014.89991-3.22022,1.34009-.62012.25977-1.25.52-1.87988.77-1.14014.46973-2.29.92993-3.43018,1.37988-.2998.12012-.58984.24-.89013.35987-.06983.03-.13965.05-.21.08008-.54981.22-1.1001.43994-1.64991.6499-.25976.1001-.50976.20019-.77.30005-.81982.33007-1.65966.65014-2.48974.97-.21.08008-.41016.16015-.62012.24023-.76025.2898-1.53027.58985-2.29.86987-1.12988.42994-2.25976.8501-3.39014,1.27-.10986.04-.21.08008-.31982.11988-.41992.16015-.83008.32007-1.25.47021-1.06006.38989-2.12012.77-3.18018,1.15991-.10009.04-.1997.07007-.2998.11011-.59033.21-1.18018.42993-1.78027.62988-.32959.12989-.66993.24-1.00977.35987-.25.09009-.5.18017-.76025.26025q-1.01953.35962-2.04.72c-.12988.05005-.25977.08985-.38965.12989-.1001.05-.2002.07006-.30029.1101q-2.56494.89979-5.14991,1.75c-.77.27-1.54.52979-2.31982.77979-.43994.14013-.89014.29-1.33008.44018-.77.26-1.54.51-2.31982.75-1.62012.52-3.25,1.03-4.87012,1.53-.6499.19995-1.29.40991-1.93994.60987-.25.08007-.49024.15014-.74024.22-.89013.28-1.79.55005-2.68017.81006-.34961.1101-.69971.22-1.04981.32006-.1499.05005-.29.08985-.43994.12989-1.18994.3601-2.39013.71-3.58984,1.05005-.6499.18994-1.30029.38012-1.96.56005-1.05029.30005-2.1001.59986-3.14014.87989q-.70532.21019-1.41015.39013c-.42969.12989-.85987.24-1.29.35987-.40967.12011-.83008.23022-1.23975.34008-.05029.01-.10986.03-.16016.04-.6499.16993-1.2998.3501-1.9497.52-.01026,0-.02051.01-.03028.01-.35009.08985-.70019.18994-1.0498.28-.44043.11988-.89014.23-1.34033.34986-.79981.22-1.6001.42016-2.40967.63012-1.32031.32984-2.62988.65991-3.9502,1-.27978.06983-.56982.1399-.85009.21-.37989.08985-.75.17994-1.12989.27-.68994.16993-1.37011.33985-2.06982.5-.68018.16993-1.37012.33008-2.05029.49-.08985.02-.18995.04-.27979.05982-1.21.29-2.41992.56006-3.64014.84009-.04.01-.06982.02-.10986.03-1.74023.3999-3.48.8-5.23,1.16992-1.06006.24023-2.13037.47021-3.2002.69018q-3.29955.68994-6.60986,1.33985c-1.43994.29-2.89014.57006-4.33984.84008-1.5503.29-3.1001.58008-4.65039.85987-.23.04-.46973.08008-.71.13012-1.13965.2-2.27.3899-3.40967.59009-.82031.13989-1.6499.27979-2.48.40991q-3.3003.55482-6.62012,1.06006c-1.11035.17993-2.21.33985-3.32031.5a527.30592,527.30592,0,0,1-64.29981,5.49c-2.2998.06983-4.58984.10987-6.89013.12989-1.06983.02-2.13965.03-3.19971.03-1.24023.01-2.47022.01-3.71.01-1.74024,0-3.48-.01-5.21-.03-1.72022-.02-3.44043-.05005-5.16016-.07984-1.50976-.03-3.00976-.07007-4.52-.11011q-4.51537-.13512-9.05029-.34008c-1.50977-.06983-3.01953-.1399-4.51953-.23q-9.06006-.47975-18.13037-1.28a532.89145,532.89145,0,0,1-196.98975-56.53q-2.79053-1.42493-5.56006-2.87989c-.80029-.41992-1.6001-.85009-2.3999-1.27-.61035-.33008-1.23-.65992-1.83984-.99-.68018-.36987-1.37012-.74-2.0503-1.1101a528.93351,528.93351,0,0,1-87.77-59.73975q-18.0747-15.18018-34.83984-32c-.49023-.49023-.98-.98022-1.4502-1.47021q-15.62988-15.78-30.02978-32.94995a540.96184,540.96184,0,0,1-43.48-59.57007q-1.77027-2.81984-3.51026-5.66992-1.73949-2.83485-3.43994-5.7-1.48535-2.48987-2.93994-5.01-1.16967-2.01012-2.31006-4.03v-.01c-.60986-1.04-1.20019-2.08985-1.77978-3.1399-1.05029-1.88012-2.1001-3.77-3.12012-5.66015q-2.23534-4.11-4.39014-8.26c-.56-1.06006-1.12011-2.12989-1.6499-3.18994q-4.42529-8.64-8.55029-17.47c-.5-1.06005-.98975-2.13012-1.46973-3.2-.49023-1.03-.95019-2.06006-1.41992-3.09008q-1.65015-3.67494-3.26025-7.37989c-.13965-.33008-.27979-.66015-.41993-1q-1.42455-3.29993-2.7998-6.62011c-.1001-.25-.2002-.49-.30029-.74q-9.41969-22.845-16.73975-46.66993-7.33521-23.89525-12.3999-48.20019-.91552-4.43994-1.76026-8.87988-1.21508-6.345-2.25976-12.73a528.49887,528.49887,0,0,1-6.93994-73.60986c-.07031-2.30005-.11035-4.59009-.13037-6.89014-.02-1.07006-.02979-2.14013-.02979-3.19995-.00976-1.24-.00976-2.47-.00976-3.71,0-1.74.00976-3.48022.02978-5.2102q.22485-20.63966,2.04-41.37989a532.80967,532.80967,0,0,1,56.52979-197q1.53-2.98534,3.08984-5.95019,1.39526-2.6543,2.84033-5.29981a528.96636,528.96636,0,0,1,96.18018-127.29q2.56494-2.49024,5.15966-4.96973,12.1648-11.5503,25.13038-22.43018a539.32015,539.32015,0,0,1,66.12988-47.51025c.35986-.23.73-.44971,1.08984-.66992q4.71021-2.84985,9.46973-5.60987,2.88062-1.66479,5.78027-3.29,2.89527-1.63477,5.81983-3.22022,5.8352-3.17944,11.75-6.21,5.595-2.87988,11.26025-5.59961c.63965-.32031,1.27-.63037,1.91016-.91992q2.36939-1.14039,4.75-2.25c2.00976-.93018,4.01953-1.86035,6.04-2.77051a530.24762,530.24762,0,0,1,62.40966-23.51953,536.48814,536.48814,0,0,1,57.93995-14.33008c1.55029-.29,3.08984-.58008,4.64013-.86035.08008-.00977.16016-.02979.23975-.04,1.33008-.23975,2.66015-.46973,3.99023-.69971q1.18506-.19482,2.37012-.39013,5.45948-.91481,10.96-1.7002c1.87988-.27978,3.75977-.5498,5.63965-.78955a525.78059,525.78059,0,0,1,57.64014-4.56006c2.30029-.07031,4.59033-.11035,6.89013-.12988,1.06983-.02051,2.12989-.03027,3.18994-.03027,1.24024-.00977,2.48-.00977,3.72022-.00977q2.60961,0,5.21973.02979,20.625.22485,41.37988,2.04a532.72778,532.72778,0,0,1,196.84033,56.44971c1.8999.98047,3.81006,1.96045,5.69971,2.96045q2.86522,1.5,5.70019,3.04981a529.24429,529.24429,0,0,1,127.29,96.18017c.14014.1499.27979.29981.42969.43994q13.96583,14.35475,26.97021,29.8501a541.71094,541.71094,0,0,1,41.5,56.48c.09034.12988.18018.27.27.40967q2.63966,4.125,5.18994,8.30029a.15939.15939,0,0,1,.04.06983q1.74024,2.83519,3.43018,5.68994,1.48462,2.49023,2.93994,5.01025c.73975,1.25977,1.46,2.52979,2.18018,3.79981.6499,1.12011,1.27978,2.25,1.90966,3.37988,1.0503,1.87988,2.1001,3.76025,3.12012,5.66015q2.23463,4.11036,4.39014,8.25977c.55957,1.06006,1.10986,2.13037,1.6499,3.19043q4.48463,8.75976,8.65967,17.71,2.82056,6.03,5.47021,12.12012a532.83824,532.83824,0,0,1,20.83008,56.32959q7.33521,23.89526,12.3999,48.2102c.54,2.59986,1.06006,5.21,1.56006,7.80982.0503.25.1001.5.14014.75.1499.75.29,1.49023.41992,2.23q1.00488,5.40015,1.8999,10.82007a528.57185,528.57185,0,0,1,6.93995,73.6101c.07031,2.30005.11035,4.58985.12988,6.8899.02051,1.07006.03027,2.14013.03027,3.2.00977,1.24023.00977,2.47021.00977,3.7102C2682.26618,1077.84912,2682.25641,1079.58911,2682.23639,1081.31909Z"/><path class="cls-5" d="M3274.13642,1878.41387s80.43429-6.16514,75.34,59.82316"/><path class="cls-1" d="M3309.75641,1891.61914c-3.25976,9.44995-7.83984,8.8999-19.08984,9.33985-19.72022.77-65.04,28-68.06006-10.02-.98-12.31006,4.65967-24.18994,13.58984-32.51a38.699,38.699,0,0,0-6.66015,24.35009c3.02,38.02,48.34033,10.79,68.05029,10.01C3302.98639,1892.56909,3306.84626,1892.58911,3309.75641,1891.61914Z"/><path class="cls-12" d="M2327.91436,703.49218s-10.9608-15.5333-42.1778-9.92245"/><path class="cls-5" d="M3311.92248,1882.98563s-10.23425-35.58477-47.48354-36.09412c-22.50182-.30768-43.65846,21.12418-41.83484,44.04759,3.02482,38.02288,48.341,10.79355,68.05835,10.01576C3304.61056,1900.40486,3308.30582,1901.38431,3311.92248,1882.98563Z"/></g></svg>