<svg xmlns="http://www.w3.org/2000/svg" viewBox="0 0 1200 1200"><g id="artwork"><path d="M442.86375,712.56524q-13.88671,0-27.89063-1.22119a313.82792,313.82792,0,0,1-174.373-553.04,313.82795,313.82795,0,1,1,403.44921,480.8125A311.47788,311.47788,0,0,1,442.86375,712.56524Zm-1.02637-597.70752a283.84078,283.84078,0,0,0-24.25,566.60058A283.8281,283.8281,0,1,0,467.062,115.96221Q454.40867,114.85553,441.83738,114.85772Z"/><path d="M725.60105,751.29668a14.96562,14.96562,0,0,1-11.498-5.35888L622.91746,637.26787a14.99985,14.99985,0,1,1,22.98047-19.28418l91.18554,108.6709a15.00029,15.00029,0,0,1-11.48242,24.64209Z"/><path d="M979.99754,1110.91192a71.40278,71.40278,0,0,1-54.85059-25.51905L707.13523,825.576a71.52733,71.52733,0,1,1,109.58594-91.9541l218.01172,259.8164a71.60831,71.60831,0,0,1-8.81543,100.77051h0A71.2144,71.2144,0,0,1,979.99754,1110.91192Zm36.27832-28.19385h0ZM761.85691,738.06768a41.53236,41.53236,0,0,0-31.74121,68.2251l218.01172,259.8164a41.57749,41.57749,0,0,0,58.50684,5.11817h0a41.57531,41.57531,0,0,0,5.11816-58.50586L793.7407,752.90508a41.25843,41.25843,0,0,0-28.19336-14.67578Q763.69578,738.06744,761.85691,738.06768Z"/><path d="M604.18992,277.89629a14.96563,14.96563,0,0,1-11.49805-5.35889,196.29046,196.29046,0,0,0-276.54-24.19384,14.99991,14.99991,0,0,1-19.2832-22.98145A226.28887,226.28887,0,0,1,615.67234,253.2542a15.00029,15.00029,0,0,1-11.48242,24.64209Z"/><path d="M653.48484,406.29473a15.00019,15.00019,0,0,1-14.98144-14.4834,197.30972,197.30972,0,0,0-3.24219-29.436,14.99969,14.99969,0,1,1,29.48633-5.52442,227.34565,227.34565,0,0,1,3.73828,33.92725,15.00028,15.00028,0,0,1-14.47461,15.50781C653.83543,406.2918,653.65965,406.29473,653.48484,406.29473Z"/></g></svg>