<svg xmlns="http://www.w3.org/2000/svg" viewBox="0 0 1200 1200"><g id="artwork"><path d="M850.002,965.00355a115.003,115.003,0,0,1-115-115v-35h-135c-.082,0-.165-.00049-.24708-.00195H450.002a15.00012,15.00012,0,0,1-15-15v-50a85,85,0,0,0-170,0v50a15.00012,15.00012,0,0,1-15,15h-150a15.00012,15.00012,0,0,1-15-15v-500a15.00012,15.00012,0,0,1,15-15H800l300.002.002a15.00012,15.00012,0,0,1,15,15v150a15.00012,15.00012,0,0,1-15,15h-50a85,85,0,0,0,0,170h50a15.00012,15.00012,0,0,1,15,15v150a15.00012,15.00012,0,0,1-15,15h-135v35A115.13035,115.13035,0,0,1,850.002,965.00355Zm-235-180h135a15.00012,15.00012,0,0,1,15,15v50a85,85,0,0,0,170,0v-50a15.00012,15.00012,0,0,1,15-15h135v-120h-35a115,115,0,0,1,0-230h35v-120l-470-.002v120.002h35a115,115,0,0,1,0,230h-35Zm-150-.00195h120V650.00355a15.00012,15.00012,0,0,1,15-15h50a85,85,0,0,0,0-170h-50a15.00012,15.00012,0,0,1-15-15V315.0016h-470v470h120v-35a115,115,0,0,1,230,0Z"/></g></svg>