<svg xmlns="http://www.w3.org/2000/svg" viewBox="0 0 1200 1200"><g id="artwork"><path d="M927.89272,876.41631a15.00144,15.00144,0,0,1-7.832-27.80371c40.95215-25.00732,64.43945-61.07666,64.43945-98.959,0-38.14209-23.75293-74.37207-65.168-99.40088A15.00034,15.00034,0,0,1,934.84975,624.577c50.61914,30.59179,79.65039,76.18017,79.65039,125.07666,0,48.5791-28.72363,93.98046-78.80468,124.5625A14.93017,14.93017,0,0,1,927.89272,876.41631Z"/><path d="M836.9269,831.85918a15.00237,15.00237,0,0,1-4.25293-29.38672c30.7002-9.08984,51.32617-30.31591,51.32617-52.81884,0-22.48047-19.70019-43.07813-50.18847-52.47559a14.99985,14.99985,0,1,1,8.83593-28.66895c43.34473,13.35987,71.35254,45.21094,71.35254,81.14454,0,36.46484-28.5791,68.48828-72.80859,81.58447A15.01746,15.01746,0,0,1,836.9269,831.85918Z"/><path d="M1011.99819,919.49785a15.00059,15.00059,0,0,1-8.84668-27.12353c52.78125-38.46289,81.84863-89.14893,81.84863-142.7207,0-53.231-28.75-103.68409-80.95312-142.065a14.9999,14.9999,0,0,1,17.76953-24.17089c60.09082,44.17919,93.18359,103.2163,93.18359,166.23584,0,32.24169-8.627,63.45312-25.6416,92.76757-16.1875,27.88868-39.24707,52.853-68.53906,74.19825A14.93229,14.93229,0,0,1,1011.99819,919.49785Z"/><path d="M621.37417,1015.02129H296.91225a15.00023,15.00023,0,0,1-15-14.98584L281.75893,835.575c-53.01855-21.08252-98.65527-57.11963-132.47168-104.72851-33.31054-46.895-54.49609-103.59815-61.2666-163.9795-6.89941-61.5205,1.52734-122.95654,24.36719-177.66552,24.53613-58.77,65.07422-107.33741,117.23242-140.45215C278.72475,217.57256,333.508,198.513,388.047,193.63213c52.90234-4.73535,105.72851,3.74512,152.78222,24.52051A297.13234,297.13234,0,0,1,655.9894,308.7625c32.17481,41.86719,53.56641,91.82129,63.585,148.48389,2.16113,4.57373,14.249,15.66162,19.4668,20.44726,4.18848,3.84229,7.80566,7.16065,10.2666,9.91163,3.75293,4.20019,9.66016,9.74462,15.91406,15.61425,21.59864,20.272,48.47852,45.50049,49.73242,71.14063,1.042,21.28662-15.23632,37.50976-42.48339,42.33642l-.02051.00391c-2.26465.39746-5.51465.71875-11.541,1.29785-7.88769.75879-18.69043,1.79737-28.24121,3.34863-5.16992.83887-8.76855,1.63379-11.23926,2.293q.44385,5.1797.94532,10.71241c5.6748,63.36523,14.249,159.12353-56.05274,193.76269-1.17578.58057-3.543,1.75049-30.02441,11.875l.07715,160.02393a14.9997,14.9997,0,0,1-15,15.00732Zm-309.47559-30H606.36733L606.29214,829.66a15.163,15.163,0,0,1,10.13964-14.20117l1.37207-.523c28.66114-10.91064,34.24512-13.25732,35.31543-13.75976,51.78907-25.51758,44.61328-105.64307,39.375-164.14844-.64257-7.17383-1.249-13.9502-1.72168-20.33789a14.99784,14.99784,0,0,1,.85059-6.20069c4.09766-11.3496,17.4502-15.70556,36.23828-18.75439,10.51367-1.70752,21.87793-2.80078,30.17578-3.59863,3.7334-.35889,7.96094-.76514,9.20313-.98.76855-.13623,18.1416-3.314,17.749-11.32959-.66113-13.53028-25.47363-36.81836-40.29883-50.73242-6.748-6.3335-13.12109-12.31592-17.749-17.49512-1.4668-1.64014-4.87988-4.77-8.17969-7.79688-15.47656-14.19629-26.58984-25.145-28.63379-36.78857-9.13086-52.09082-28.61914-97.83643-57.92578-135.97022A263.39589,263.39589,0,0,0,528.71206,245.597c-42.42188-18.73-90.13477-26.36669-137.99024-22.08447-50.5039,4.52-99.2959,21.53223-145.02148,50.56348-46.94531,29.80517-83.4707,73.61133-105.62793,126.6831-20.88086,50.01563-28.57129,106.29883-22.23926,162.76514,6.20606,55.33887,25.54,107.19092,55.91211,149.94971,32.33105,45.51758,76.60645,79.26513,128.03906,97.59326a14.99973,14.99973,0,0,1,9.96485,14.11572ZM769.85464,601.92656h0Z"/><path d="M600.005,515.00371a15.0038,15.0038,0,0,1-13.90137-9.35742,39.12847,39.12847,0,0,0-72.28809-.5083,15.00033,15.00033,0,0,1-27.63086-11.68652,69.12874,69.12874,0,0,1,127.71192.90185,15.0089,15.0089,0,0,1-13.8916,20.65039Z"/></g></svg>