<svg xmlns="http://www.w3.org/2000/svg" viewBox="0 0 1200 1200"><defs><style>.cls-1,.cls-2,.cls-4{fill:#32b2ae;}.cls-1,.cls-5{opacity:0.44;}.cls-2,.cls-7{opacity:0.22;}.cls-3{fill:#6cb900;}.cls-6{fill:#fff;}</style></defs><g id="shadows"><polygon points="640.126 977.039 234.206 977.039 234.256 976.739 234.286 976.589 234.706 974.239 238.096 955.169 637.776 955.169 639.826 974.239 640.096 976.739 640.126 977.039"/><polygon points="673.666 977.039 648.306 977.039 648.276 976.739 648.006 974.239 645.946 955.169 671.306 955.169 673.366 974.239 673.636 976.739 673.666 977.039"/><polygon points="731.226 976.739 731.276 977.039 726.096 977.039 727.856 976.739 731.126 976.179 731.226 976.739"/><polygon points="779.206 976.739 779.336 977.039 732.036 977.039 731.996 976.739 731.646 974.239 729.006 955.169 769.826 955.169 778.126 974.239 779.206 976.739"/><polygon points="826.826 977.039 791.656 977.039 791.526 976.739 790.446 974.239 782.146 955.169 813.116 955.169 825.066 974.239 826.636 976.739 826.826 977.039"/><polygon points="836.886 958.049 837.736 962.979 823.366 965.439 822.516 960.509 836.886 958.049"/><polygon points="855.696 959.899 854.876 955.169 869.676 955.169 870.066 957.439 859.676 959.219 855.696 959.899"/><path d="M965.49643,977.03886h-123.73l1.75-.3,14.58984-2.5,7.98-1.37012,8.72-1.49a2.883,2.883,0,0,0,1.8-1.52,1.58465,1.58465,0,0,0,.23-1.21l-6.33007-13.48h90.17016l2.67993,12.16015,1.52,6.90992.53,2.38989.02.11011Z"/><path class="cls-1" d="M683.8653,651.54514s4.746,61.90517-40.0613,95.38521C643.804,746.93035,646.95249,687.13963,683.8653,651.54514Z"/><path class="cls-1" d="M327.84494,694.72871s32.02915,38.81179,17.95539,81.90618C345.80033,776.63489,319.98962,735.541,327.84494,694.72871Z"/><path class="cls-1" d="M853.07626,711.83867a9.8035,9.8035,0,0,0-.8,2.21c-2.73975,9.88013-8.60987,47.33008-27.7898,77.94019-.53.84008-1.07007,1.66992-1.61011,2.5-.56006.84008-1.12011,1.66992-1.69995,2.5h-7.8501c.03-.79.07007-1.63013.12012-2.5.05005-.80005.09985-1.64014.16992-2.5a137.84379,137.84379,0,0,1,5.3-28.97,1.35077,1.35077,0,0,1,.07007-.25c.57983-1.94,1.23-3.91016,1.92993-5.88013a.29639.29639,0,0,1,.04-.09986C826.62631,741.01885,836.37631,724.44878,853.07626,711.83867Z"/><path class="cls-1" d="M853.44638,711.55888q-.18018.13477-.36011.27Q853.28147,711.52862,853.44638,711.55888Z"/><path class="cls-2" d="M885.04623,703.87871v-.01c-1.97-5.34009-4.18994-10.57984-6.63989-15.66992v-.01a177.38755,177.38755,0,0,0-159.88989-100.51H481.13632a177.09726,177.09726,0,0,0-142.88989,72.28v.01c-.81006,1.09008-1.61011,2.18994-2.39014,3.30981a625.45857,625.45857,0,0,1,173.3501-27.11987c7.62988-1.42993,13.90991,4.58008,14.36987,12.33008a461.43993,461.43993,0,0,0,10.44019,75.77c.2.86987.3999,1.73.59985,2.58984.05.2.09009.40015.15015.6001.17993.77.35986,1.54.5498,2.3.08008.31982.16016.6499.24.97q15.91517,8.4298,31.26,17.88989a9.733,9.733,0,0,1,4.48,6.64014,9.54777,9.54777,0,0,1-2,7.6499q-4.37988,5.40015-8.36987,11.05005c-.45.63012-.88989,1.25-1.32007,1.88012-.44995.64991-.88989,1.2898-1.33007,1.94-.77979,1.15991-1.55982,2.32983-2.31983,3.50976-2.28,3.52-4.43994,7.1001-6.47,10.71021H534.08627c-1.99-1.02-9.40991-4.72-19.06982-8.7q-19.69519,4.56006-39.98,8.7c-.25.05981-.51025.10986-.77.15991-.97022.19995-1.94019.3999-2.92017.59009-.87988.18994-1.77.35986-2.6499.53979-1.64014.33008-3.28.66016-4.92993.99024-.37012.06982-.75.1499-1.12012.22H690.05624a.14016.14016,0,0,0-.05981-.02c-2.13013-.82007-4.25-1.65015-6.39014-2.48q-33.72-13.11-68.58984-27.64014c-7.15015-2.62988-10.12012-11.51-6.23-18.74a454.92505,454.92505,0,0,0,44.46-121.18994c1.71-8.03,9.71-12.87989,16.86987-10.26a598.5482,598.5482,0,0,1,204.94995,75.18994c7.47022,2.74,9.66016,11.86011,5.79,19.52-14.35986,28.38013-25.85009,56.11011-34.26,83.12012-.24.74-.46,1.47-.68994,2.19995l-.09009.30005h42.91016c1.26,0,2.5.03979,3.74.11987.25.01.49.03.73.05.40991.02.82007.06006,1.23.1001q.72.05969,1.43994.1499V765.02861A177.03615,177.03615,0,0,0,885.04623,703.87871ZM311.53647,794.06865c-.04-.68994-.09009-1.38989-.13013-2.07983a380.07154,380.07154,0,0,0-6.36987-48.06006c-.36011,3.04-.65015,6.09985-.8501,9.17993v.01c-.27,3.94018-.3999,7.90015-.3999,11.90991v29.92017c.48975-.06006.98975-.11011,1.48-.15992,1.46-.15014,2.93994-.24023,4.41992-.27q.795-.03,1.58985-.03h.29Q311.55124,794.27861,311.53647,794.06865Z"/><path d="M747.26645,211.29863l-8.74023-67.41992-308.48,39.97,15.61011,120.41016.38013,2.96,2.25976-1.95,7.04-6.05a.20121.20121,0,0,1,.08008-.04l18.1499-2.34009a.15917.15917,0,0,0,.14014-.17993l-3.55-27.42993a.15535.15535,0,0,1,.13989-.16993l13.68018-1.77,2.48-.32006-.32007-2.48-3.29-25.42994a.15952.15952,0,0,1,.14014-.18017l41.46-5.35986a.16472.16472,0,0,1,.17993.13989l5.89991,45.63012.44018,3.42994,1.82007-2.25,24.77978-30.87012a.13869.13869,0,0,1,.11011-.05982l23.67993-3.06a.15959.15959,0,0,1,.18018.12988l6.01977,46.57007a.15561.15561,0,0,0,.17017.13012l2.38989-.31,12.71-1.64014a.09149.09149,0,0,0,.07007-.02979l18.52-13.81a.10813.10813,0,0,1,.07007-.03l18.2-2.3501a.15941.15941,0,0,0,.13989-.17993l-2.82006-21.79a.15969.15969,0,0,1,.13012-.17993l17.97-2.32007a.1525.1525,0,0,0,.13013-.17993l-6.38013-49.40992a.248.248,0,0,1,.01-.08007l10.46-25.61011a.16186.16186,0,0,1,.28-.04l15.66016,22.12012a.09066.09066,0,0,1,.02978.07006l6.39014,49.47a.15929.15929,0,0,0,.17993.13989l17.46-2.26a.1557.1557,0,0,1,.17017.13989l1.86987,14.4502a.15942.15942,0,0,0,.17993.13989l18.98-2.45,2.44018-.32007a.14834.14834,0,0,0,.12988-.12988l.65015-4.37012.04-.26,5.27978-35.79981a.15953.15953,0,0,1,.14014-.13012l15.8999-2.06006,2.48-.32007Zm-29.57007-1.11987a3.395,3.395,0,1,1,3.3999-3.40015A3.39511,3.39511,0,0,1,717.69638,210.17876Zm-18.39014-28.8899a1.91,1.91,0,1,1,1.91016-1.91015A1.91,1.91,0,0,1,699.30624,181.28886Zm-17.30981-16.48a1.215,1.215,0,1,1,1.22,1.21A1.21627,1.21627,0,0,1,681.99643,164.80888Zm-87.27,46.48975a2.475,2.475,0,1,1,2.48,2.48A2.47954,2.47954,0,0,1,594.72641,211.29863Zm5.56006,44.38013a1.82,1.82,0,1,1,1.81982-1.82007A1.82031,1.82031,0,0,1,600.28647,255.67876Zm11.68994-77a3.395,3.395,0,1,1,3.3999,3.38989A3.395,3.395,0,0,1,611.97641,178.67876Zm6.79,56.06006a1.215,1.215,0,1,1,1.21-1.22A1.21643,1.21643,0,0,1,618.76645,234.73882Zm-42.81006-45.29a1.21009,1.21009,0,1,1,1.21-1.21A1.21638,1.21638,0,0,1,575.95639,189.44878Zm-20.37012,38.53a1.2151,1.2151,0,1,1,1.21-1.22A1.21638,1.21638,0,0,1,555.58627,227.97881Zm-30.49-10.81006a3.39,3.39,0,1,1,3.39014-3.39014A3.3865,3.3865,0,0,1,525.09628,217.16875Zm-71.19995,20.52a1.215,1.215,0,1,1,1.22,1.21A1.21638,1.21638,0,0,1,453.89633,237.68877Zm4.60987-34.3a3.39014,3.39014,0,1,1,3.39013,3.38989A3.39291,3.39291,0,0,1,458.5062,203.38872Zm52.33007-13.93994a1.2151,1.2151,0,1,1,1.22,1.21A1.21622,1.21622,0,0,1,510.83627,189.44878Z"/><path d="M747.26645,211.29863l-8.74023-67.41992-308.48,39.97,15.61011,120.41016.38013,2.96,2.25976-1.95,7.04-6.05a.20121.20121,0,0,1,.08008-.04l18.1499-2.34009a.15917.15917,0,0,0,.14014-.17993l-3.55-27.42993a.15535.15535,0,0,1,.13989-.16993l13.68018-1.77,2.48-.32006-.32007-2.48-3.29-25.42994a.15952.15952,0,0,1,.14014-.18017l41.46-5.35986a.16472.16472,0,0,1,.17993.13989l5.89991,45.63012.44018,3.42994,1.82007-2.25,24.77978-30.87012a.13869.13869,0,0,1,.11011-.05982l23.67993-3.06a.15959.15959,0,0,1,.18018.12988l6.01977,46.57007a.15561.15561,0,0,0,.17017.13012l2.38989-.31,12.71-1.64014a.09149.09149,0,0,0,.07007-.02979l18.52-13.81a.10813.10813,0,0,1,.07007-.03l18.2-2.3501a.15941.15941,0,0,0,.13989-.17993l-2.82006-21.79a.15969.15969,0,0,1,.13012-.17993l17.97-2.32007a.1525.1525,0,0,0,.13013-.17993l-6.38013-49.40992a.248.248,0,0,1,.01-.08007l10.46-25.61011a.16186.16186,0,0,1,.28-.04l15.66016,22.12012a.09066.09066,0,0,1,.02978.07006l6.39014,49.47a.15929.15929,0,0,0,.17993.13989l17.46-2.26a.1557.1557,0,0,1,.17017.13989l1.86987,14.4502a.15942.15942,0,0,0,.17993.13989l18.98-2.45,2.44018-.32007.78-4.5.04-.26,5.27978-35.79981a.15953.15953,0,0,1,.14014-.13012l15.8999-2.06006,2.48-.32007Zm-29.57007-1.11987a3.395,3.395,0,1,1,3.3999-3.40015A3.39511,3.39511,0,0,1,717.69638,210.17876Zm-18.39014-28.8899a1.91,1.91,0,1,1,1.91016-1.91015A1.91,1.91,0,0,1,699.30624,181.28886Zm-17.30981-16.48a1.215,1.215,0,1,1,1.22,1.21A1.21627,1.21627,0,0,1,681.99643,164.80888Zm-87.27,46.48975a2.475,2.475,0,1,1,2.48,2.48A2.47954,2.47954,0,0,1,594.72641,211.29863Zm5.56006,44.38013a1.82,1.82,0,1,1,1.81982-1.82007A1.82031,1.82031,0,0,1,600.28647,255.67876Zm11.68994-77a3.395,3.395,0,1,1,3.3999,3.38989A3.395,3.395,0,0,1,611.97641,178.67876Zm6.79,56.06006a1.215,1.215,0,1,1,1.21-1.22A1.21643,1.21643,0,0,1,618.76645,234.73882Zm-42.81006-45.29a1.21009,1.21009,0,1,1,1.21-1.21A1.21638,1.21638,0,0,1,575.95639,189.44878Zm-20.37012,38.53a1.2151,1.2151,0,1,1,1.21-1.22A1.21638,1.21638,0,0,1,555.58627,227.97881Zm-30.49-10.81006a3.39,3.39,0,1,1,3.39014-3.39014A3.3865,3.3865,0,0,1,525.09628,217.16875Zm-71.19995,20.52a1.215,1.215,0,1,1,1.22,1.21A1.21638,1.21638,0,0,1,453.89633,237.68877Zm4.60987-34.3a3.39014,3.39014,0,1,1,3.39013,3.38989A3.39291,3.39291,0,0,1,458.5062,203.38872Zm52.33007-13.93994a1.2151,1.2151,0,1,1,1.22,1.21A1.21622,1.21622,0,0,1,510.83627,189.44878Z"/><polygon class="cls-3" points="761.82 323.63 747.59 213.78 747.6 213.78 761.82 323.63"/><path class="cls-4" d="M1025.24023,996.74v101.49H985.5V996.74a20.00087,20.00087,0,0,0-20-20h39.74023A20.00087,20.00087,0,0,1,1025.24023,996.74Z"/><path class="cls-1" d="M1025.24023,996.74v101.49H922.23V996.74a19.99431,19.99431,0,0,0-20-20h103.01025A20.00087,20.00087,0,0,1,1025.24023,996.74Z"/><polygon class="cls-1" points="699.636 986.649 685.266 989.109 684.416 984.179 698.786 981.719 699.636 986.649"/><path class="cls-1" d="M731.64633,979.23882l-.37011-2.2-.04981-.3h-3.37012l-1.76.3-2.57983.43995-6.77,1.15991.09985.6001.75,4.32983,6.61011-1.13989,7.76-1.33008Zm0,0-.37011-2.2-.04981-.3h-3.37012l-1.76.3-2.57983.43995-6.77,1.15991.09985.6001.75,4.32983,6.61011-1.13989,7.76-1.33008Zm0,0-.37011-2.2-.04981-.3h-3.37012l-1.76.3-2.57983.43995-6.77,1.15991.09985.6001.75,4.32983,6.61011-1.13989,7.76-1.33008Zm0,0-.37011-2.2-.04981-.3h-3.37012l-1.76.3-2.57983.43995-6.77,1.15991.09985.6001.75,4.32983,6.61011-1.13989,7.76-1.33008Zm0,0-.37011-2.2-.04981-.3h-3.37012l-1.76.3-2.57983.43995-6.77,1.15991.09985.6001.75,4.32983,6.61011-1.13989,7.76-1.33008Zm273.59009-2.5h-161.72l-1.75.3-12.8501,2.2h-.71l-1.38013-2.2-.18994-.3h-35.1101l.13012.3.96,2.2,3.02,6.93994a4.99068,4.99068,0,0,0,5.58008,2.88012l57.32983-9.82006h10.53l.76,1.62988c1.08008,2.28-1.08007,5.79-3.86987,6.26l-74.44018,12.76a2.49039,2.49039,0,0,1-2.85987-1.40991l-8.37012-19.24-.96-2.2-.12988-.3h-47.21l.04.3.30981,2.2,2,14.42993a2.02559,2.02559,0,0,1-1.53,2.04l-6.60986,1.12988h-.01l-49.48,8.49023-2.81006-26.09008-.24-2.2-.03-.3h-25.3601l.03.3.24,2.2,2.88013,26.6499h51.61011l23.84985-4.09009.57007,4.09009h277.78a19.987,19.987,0,0,1,17.5,10.32007,19.78077,19.78077,0,0,1,2.5,9.67993v-29.1499A20.001,20.001,0,0,0,1005.23642,976.73882Zm-287.64014,6.82983,6.61011-1.13989,7.76-1.33008-.32007-1.85986-.37011-2.2-.04981-.3h-3.37012l-1.76.3-2.57983.43995-6.77,1.15991.09985.6001Zm14.05005-4.32983-.37011-2.2-.04981-.3h-3.37012l-1.76.3-2.57983.43995-6.77,1.15991.09985.6001.75,4.32983,6.61011-1.13989,7.76-1.33008Zm-91.28,0-.24-2.2-.03-.3H194.7562a20.001,20.001,0,0,0-20,20v29.1499a20.00136,20.00136,0,0,1,20-20H643.23642Zm91.28,0-.37011-2.2-.04981-.3h-3.37012l-1.76.3-2.57983.43995-6.77,1.15991.09985.6001.75,4.32983,6.61011-1.13989,7.76-1.33008Zm0,0-.37011-2.2-.04981-.3h-3.37012l-1.76.3-2.57983.43995-6.77,1.15991.09985.6001.75,4.32983,6.61011-1.13989,7.76-1.33008Zm0,0-.37011-2.2-.04981-.3h-3.37012l-1.76.3-2.57983.43995-6.77,1.15991.09985.6001.75,4.32983,6.61011-1.13989,7.76-1.33008Z"/><polygon class="cls-1" points="837.736 962.979 823.366 965.439 822.516 960.509 836.886 958.049 837.736 962.979"/><polygon class="cls-1" points="870.066 957.439 859.676 959.219 855.696 959.899 854.876 955.169 854.846 954.969 857.466 954.519 869.216 952.509 869.676 955.169 870.066 957.439"/><polygon class="cls-1" points="640.096 976.739 235.506 976.739 235.806 974.239 238.096 955.169 242.536 918.189 245.056 918.189 240.616 955.169 238.336 974.239 639.826 974.239 640.096 976.739"/><polygon class="cls-1" points="673.636 976.739 648.276 976.739 648.006 974.239 645.946 955.169 644.196 938.919 638.136 918.189 663.586 918.189 669.506 938.429 671.306 955.169 673.366 974.239 673.636 976.739"/><polygon class="cls-1" points="731.226 976.739 727.856 976.739 731.126 976.179 731.226 976.739"/><path class="cls-1" d="M825.06625,974.23882,813.1163,955.16875l-22.57983-36.03-1.02-.95H765.80624l.54.66992,15.80005,36.31006,8.3,19.07007,1.07984,2.5h35.1101Zm-88.36987,0-2.64014-19.07007-4.28979-30.8999-1.43018-6.08008h-5.12988l1.61987,6.87988,4.17994,30.1001,2.64013,19.07007.3501,2.5h47.21l-1.08008-2.5Z"/><path class="cls-1" d="M964.48642,976.73882h-120.97l14.58984-2.5,7.98-1.37012,8.72-1.49a2.883,2.883,0,0,0,1.8-1.52,1.58465,1.58465,0,0,0,.23-1.21l-6.33007-13.48-17.34986-36.98h5.52l17.34986,36.98,5.33007,11.3501a6.36974,6.36974,0,0,1-.31006,5.6499,8.75077,8.75077,0,0,1-1.52978,2.07007h82.1499l-2.28-19.07007-4.43994-36.98h2.51l4.43994,36.98,1.46,12.16015.83008,6.90992Z"/><polygon points="837.736 962.979 823.366 965.439 822.516 960.509 836.886 958.049 837.736 962.979"/><polygon points="870.066 957.439 859.676 959.219 855.696 959.899 854.876 955.169 869.676 955.169 870.066 957.439"/><polygon points="640.096 976.739 235.506 976.739 235.806 974.239 238.096 955.169 240.616 955.169 238.336 974.239 639.826 974.239 640.096 976.739"/><polygon points="673.636 976.739 648.276 976.739 648.006 974.239 645.946 955.169 671.306 955.169 673.366 974.239 673.636 976.739"/><polygon points="731.226 976.739 727.856 976.739 731.126 976.179 731.226 976.739"/><polygon points="778.126 974.239 779.206 976.739 731.996 976.739 731.646 974.239 729.006 955.169 734.056 955.169 736.696 974.239 778.126 974.239"/><polygon points="826.636 976.739 791.526 976.739 790.446 974.239 782.146 955.169 813.116 955.169 825.066 974.239 826.636 976.739"/><path d="M964.48642,976.73882h-120.97l14.58984-2.5,7.98-1.37012,8.72-1.49a2.883,2.883,0,0,0,1.8-1.52,1.58465,1.58465,0,0,0,.23-1.21l-6.33007-13.48h5.52l5.33007,11.3501a6.36974,6.36974,0,0,1-.31006,5.6499,8.75077,8.75077,0,0,1-1.52978,2.07007h82.1499l-2.28-19.07007h2.51l1.46,12.16015.83008,6.90992Z"/><polygon class="cls-1" points="805.7 357.44 419.53 407.48 386.17 150.03 398.66 148.41 430.3 392.64 803.99 344.23 805.7 357.44"/><path class="cls-1" d="M1000,511.92V976.74H981.21V511.92A11.67808,11.67808,0,0,0,969.79,500h18.77978A11.68655,11.68655,0,0,1,1000,511.92Z"/><path class="cls-1" d="M1000,511.92v18.1a11.68658,11.68658,0,0,0-11.43018-11.92H211.43018A11.68658,11.68658,0,0,0,200,530.02v-18.1A11.68655,11.68655,0,0,1,211.43018,500H988.56982A11.68655,11.68655,0,0,1,1000,511.92Z"/></g><g id="artwork"><path class="cls-4" d="M577.47641,769.70879a207.68724,207.68724,0,0,0-15.77,22.28c-.51.82983-1.02,1.65991-1.51,2.5-.02.03-.03.05-.05.07983l-6.37011-.02-2.73-.00977h-.2l-13.84985-.04-2.22021-.01-61.52-.19019-3.76978-.02-5.72-.00976-62.2002-.2002c.47022-.68994.93018-1.37988,1.40015-2.07983h18.09985c5.2002-4.13013,24.1001-18.04,44.79-20.08008l.99-.09009a42.139,42.139,0,0,1,4.39014-.10986c13.45.31982,30.67993,6.19995,43.78,11.58007,9.65991,3.98,17.07983,7.67994,19.06982,8.7h15.40015c2.03-3.61011,4.18994-7.19019,6.47-10.71021.76-1.17993,1.54-2.34985,2.31983-3.50976.44018-.65015.88012-1.29,1.33007-1.94.43018-.63012.87012-1.25,1.32007-1.88012q3.98986-5.64,8.36987-11.05005a9.54777,9.54777,0,0,0,2-7.6499,9.733,9.733,0,0,0-4.48-6.64014q-15.33-9.44971-31.26-17.88989-11.30969-6.015-22.8999-11.49-8.76013-4.14-17.65991-7.98h-.01q-3.015-1.30518-6.05-2.57007c2.01.78,4,1.59985,6,2.42993h.01q8.90991,3.68994,17.68994,7.68017,11.45985,5.22,22.67993,10.96,18.6753,9.53979,36.67017,20.51c.7898.48,1.58984.97,2.37988,1.46a11.597,11.597,0,0,1,1.49,1.09008A12.13453,12.13453,0,0,1,577.47641,769.70879Z"/><path d="M689.09555,796.79033c-23.12793-8.92969-47.65723-18.78027-74.98779-30.11426a14.588,14.588,0,0,1-8.49512-8.56347,16.51563,16.51563,0,0,1,.97315-13.68262,454.56191,454.56191,0,0,0,44.21679-120.53125A16.51375,16.51375,0,0,1,658.909,612.8333a14.60157,14.60157,0,0,1,11.84521-1.09863,603.58884,603.58884,0,0,1,205.4043,75.35253,13.83992,13.83992,0,0,1,7.95312,7.9668,18.336,18.336,0,0,1-1.02246,14.94043c-14.78125,29.2168-26.48877,57.79-34.79638,84.92578l-4.78125-1.46289c8.3916-27.40918,20.20605-56.249,35.11572-85.7207a13.52735,13.52735,0,0,0,.83252-10.84961,8.81426,8.81426,0,0,0-5.24854-5.19043l-.41308-.19629a598.63117,598.63117,0,0,0-204.10694-74.875l-.436-.11719a9.46476,9.46476,0,0,0-7.9292.70215,11.5181,11.5181,0,0,0-5.6333,7.73145,459.57983,459.57983,0,0,1-44.70264,121.85547,11.517,11.517,0,0,0-.70312,9.54,9.46207,9.46207,0,0,0,5.59472,5.66407l.0962.03711c27.31054,11.32617,51.8164,21.168,74.91845,30.08789Z"/><path d="M646.93344,750.07646l-3.28027-3.77344c26.73974-23.248,39.27978-54.34179,38.33642-95.05761l4.999-.11524C687.9686,693.42607,674.86655,725.79131,646.93344,750.07646Z"/><path d="M854.72641,711.93877c-.83008.7-1.64014,1.40991-2.45019,2.10986-15.29981,13.47022-25.61988,27.43018-31.31983,42.74023a.29639.29639,0,0,0-.04.09986q-1.08,2.91027-1.92993,5.88013a1.35077,1.35077,0,0,0-.07007.25,91.06978,91.06978,0,0,0-3.23,28.97c.03.82983.08008,1.65991.12988,2.5.05005.82983.11011,1.65991.19,2.5h-5c-.06983-.84009-.12989-1.67017-.16993-2.5-.06005-.84009-.09985-1.67017-.11987-2.5-1.2-32.54,11.98-59.46021,40.77-83.86011Z"/><path d="M309.05209,794.22783a380.58856,380.58856,0,0,0-20.77441-102.11231,14.63194,14.63194,0,0,1,10.91162-19.17675,634.52528,634.52528,0,0,1,209.78223-39.27832,13.90523,13.90523,0,0,1,11.06592,2.75879,16.25466,16.25466,0,0,1,6.042,11.92187,457.88289,457.88289,0,0,0,10.97217,77.92969l-4.86524,1.15234A462.88916,462.88916,0,0,1,521.08823,648.636a11.26194,11.26194,0,0,0-4.12891-8.27734,8.87045,8.87045,0,0,0-7.28613-1.74414l-.42285.043a629.50182,629.50182,0,0,0-208.522,39.042l-.4038.11133a9.63228,9.63228,0,0,0-7.32911,12.64843,385.60462,385.60462,0,0,1,21.04688,103.45411Z"/><path d="M573.17636,766.04863c-.74.91016-1.47,1.83008-2.2,2.76025a207.32516,207.32516,0,0,0-12.18994,17.33985c-.74024,1.16992-1.46021,2.3501-2.17017,3.54-.12988.2-.25.39013-.3601.58984-.16993.29-.33985.57007-.50977.86011-.17017.28-.34009.56006-.51.8501-.34009.59008-.68018,1.18994-1.02,1.78a.217.217,0,0,1-.05005.07983c-.12012.2102-.24.42017-.36011.64014,0,.02-.01977.03979-.03.05981-.21.38013-.42994.77-.6399,1.15015a.35537.35537,0,0,0-.05.07983l-2.24-1.23975-.09008-.05-2.0398-1.13013a.36182.36182,0,0,1,.05-.08008q.35963-.6449.72-1.28979c2.03-3.61011,4.18994-7.19019,6.47-10.71021.76-1.17993,1.54-2.34985,2.31983-3.50976.44018-.65015.88012-1.29,1.33007-1.94.43018-.63012.87012-1.25,1.32007-1.88012q3.98986-5.64,8.36987-11.05005a9.54777,9.54777,0,0,0,2-7.6499,9.733,9.733,0,0,0-4.48-6.64014q-15.33-9.44971-31.26-17.88989-11.30969-6.015-22.8999-11.49-8.76013-4.14-17.65991-7.98h-.01q-3.015-1.30518-6.05-2.57007l-.01-.01a2.206,2.206,0,0,0-.40014-.15991c-.15992-.07007-.31983-.13013-.48-.2q-18.23986-7.57506-37-13.84008a9.60865,9.60865,0,0,0-12.27,6.55981,305.2438,305.2438,0,0,1-42.57984,90.96021c-.45.65991-.90015,1.30981-1.36011,1.96-.11987.17993-.23.3601-.33984.54a.302.302,0,0,0-.04.07983,8.0696,8.0696,0,0,0-.53,1.01025l-2.29-1.01025-.17993-.07983-2.11011-.92994a13.77439,13.77439,0,0,1,.82007-1.57006,10.59928,10.59928,0,0,1,.58008-.90015,300.28253,300.28253,0,0,0,43.21-91.40991,14.60895,14.60895,0,0,1,18.66992-9.95q17.625,5.8949,34.8501,12.95,2.84985,1.155,5.67993,2.3601c.01,0,.01,0,.02.00977q9.56982,4.03529,18.99,8.44019,9.55518,4.455,18.93994,9.27,1.455.75,2.91016,1.5c.98.51,1.96,1.01977,2.92993,1.55q16.56006,8.71473,32.49,18.54981a14.64445,14.64445,0,0,1,6.41992,8.45019,12.36392,12.36392,0,0,1,.37012,1.59986A14.54705,14.54705,0,0,1,573.17636,766.04863Z"/><path d="M1002.49985,976.73662h-5V511.91826a9.19327,9.19327,0,0,0-8.92822-9.418H211.42856a9.19335,9.19335,0,0,0-8.92871,9.418V976.73662h-5V511.91826a14.19577,14.19577,0,0,1,13.92871-14.418H988.57163a14.19537,14.19537,0,0,1,13.92822,14.418Z"/><path d="M474.82626,792.7188l-1.57006,1.57983-.23.23-1.73,1.74024c-.56982-.57007-1.10986-1.15015-1.59985-1.74024a.07679.07679,0,0,1-.04-.03979c-.06006-.07007-.11987-.14014-.16992-.21021-.28-.32983-.54-.65991-.79-1-.13013-.16992-.25-.33984-.37012-.50976-.18994-.25-.36987-.52-.53-.78-3.79-5.82007-4.45-12.54-1.93994-20.08008l.99-.09009a42.139,42.139,0,0,1,4.39014-.10986c-3.28,8.12011-2.33008,14.6499,2.87988,20.28a2.0179,2.0179,0,0,1,.15015.15991C474.45639,792.33867,474.63632,792.52861,474.82626,792.7188Z"/><path d="M348.99106,779.638l-4.74414-1.58008c9.89892-29.73828,3.71045-57.5791-18.92041-85.11524l3.86279-3.17382C352.99985,718.73955,359.4769,748.136,348.99106,779.638Z"/><g class="cls-5"><path class="cls-4" d="M512.65634,719.22881q-8.76013-4.14-17.65991-7.98h-.01a.78456.78456,0,0,1-.05-.14014c-.11011-.31983-.21-.63989-.31006-.97-.18994-.59986-.37011-1.2-.55-1.80005a2.57366,2.57366,0,0,1-.07983-.25977c-.3-.99023-.58008-2.01025-.84009-3.04-3.40991-13.18017-4.42993-28.77,1.06006-44.88012,0,0,.25.42016.71,1.21,2.96,5.2102,14.36011,26.62012,17.24,52.12012.10987.93994.21,1.8999.29,2.85986.06983.81006.12988,1.62012.17993,2.44018C512.64633,718.92876,512.65634,719.0789,512.65634,719.22881Z"/></g><path d="M494.94638,711.10869c.02.05.03.09009.05.14014h-.01q-3.015-1.30518-6.05-2.57007l-.01-.01c-.29-1.01-.56006-2.03-.8-3.04-.24-.98-.46-1.96-.6499-2.94995-3.04-14.86011-1.82007-29.98,3.58984-45.56006l4.72022,1.63013c-.3.87988-.59009,1.75-.86011,2.61987-4.72,14.90991-5.31006,29.40015-1.75,43.67993.26,1.01025.53,2.03027.82984,3.04.02.08008.05.17017.07006.25.17994.6001.36011,1.20019.55,1.80005C494.73642,710.45879,494.83627,710.78886,494.94638,711.10869Z"/><path class="cls-6" d="M471.23642,771.70879c-3.28,8.12011-2.33008,14.6499,2.87988,20.28h.92017q20.29467-4.155,39.98-8.7C501.91635,777.90874,484.68637,772.02861,471.23642,771.70879Zm0,0c-3.28,8.12011-2.33008,14.6499,2.87988,20.28h.92017q20.29467-4.155,39.98-8.7C501.91635,777.90874,484.68637,772.02861,471.23642,771.70879Zm0,0c-3.28,8.12011-2.33008,14.6499,2.87988,20.28h.92017q20.29467-4.155,39.98-8.7C501.91635,777.90874,484.68637,772.02861,471.23642,771.70879Zm0,0c-3.28,8.12011-2.33008,14.6499,2.87988,20.28h.92017q20.29467-4.155,39.98-8.7C501.91635,777.90874,484.68637,772.02861,471.23642,771.70879Zm0,0c-3.28,8.12011-2.33008,14.6499,2.87988,20.28h.92017q20.29467-4.155,39.98-8.7C501.91635,777.90874,484.68637,772.02861,471.23642,771.70879Zm0,0c-3.28,8.12011-2.33008,14.6499,2.87988,20.28h.92017q20.29467-4.155,39.98-8.7C501.91635,777.90874,484.68637,772.02861,471.23642,771.70879Zm0,0c-3.28,8.12011-2.33008,14.6499,2.87988,20.28h.92017q20.29467-4.155,39.98-8.7C501.91635,777.90874,484.68637,772.02861,471.23642,771.70879Zm0,0c-3.28,8.12011-2.33008,14.6499,2.87988,20.28h.92017q20.29467-4.155,39.98-8.7C501.91635,777.90874,484.68637,772.02861,471.23642,771.70879Zm0,0c-3.28,8.12011-2.33008,14.6499,2.87988,20.28h.92017q20.29467-4.155,39.98-8.7C501.91635,777.90874,484.68637,772.02861,471.23642,771.70879Zm100.75-21.45a12.23446,12.23446,0,0,0-3.86011-3.78q-16.3949-10.11-33.35986-19.03c-.28-.1399-.56006-.29-.8501-.43994q-1.03491-.54016-2.07007-1.08008h-.01q-9.59985-4.9801-19.37988-9.58008-9.15015-4.28979-18.45019-8.26a.00957.00957,0,0,1-.00977-.00977q-2.9253-1.23009-5.87012-2.45019-17.84985-7.37988-36.29-13.53a12.11139,12.11139,0,0,0-15.47,8.25,301.39108,301.39108,0,0,1-43.21,91.64014c-.11987.17993-.25.34985-.36987.53a12.83565,12.83565,0,0,0-1.11011,1.97.302.302,0,0,0-.04.07983h2.82007l75.24-.04h3.32984l63.97021-.02978,13.75977-.01h.19018c.46-.84009.92993-1.67017,1.40991-2.5a208.0036,208.0036,0,0,1,18.88013-27.51A12.12127,12.12127,0,0,0,571.98642,750.25884Zm-2.69019,12.63989q-4.37988,5.40015-8.36987,11.05005c-.45.63012-.88989,1.25-1.32007,1.88012-.44995.64991-.88989,1.2898-1.33007,1.94-.77979,1.15991-1.55982,2.32983-2.31983,3.50976-2.28,3.52-4.43994,7.1001-6.47,10.71021H534.08627c-1.99-1.02-9.40991-4.72-19.06982-8.7-13.1001-5.38012-30.33008-11.26025-43.78-11.58007a42.139,42.139,0,0,0-4.39014.10986l-.99.09009c-20.68994,2.04-39.58984,15.95-44.79,20.08008H396.19638a305.2438,305.2438,0,0,0,42.57984-90.96021,9.60865,9.60865,0,0,1,12.27-6.55981q18.73536,6.2699,37,13.84008c.16016.06983.32007.12989.48.2a2.206,2.206,0,0,1,.40014.15991l.01.01q3.03,1.26013,6.05,2.57007h.01q8.8949,3.84008,17.65991,7.98,11.58,5.47485,22.8999,11.49,15.91517,8.4298,31.26,17.88989a9.733,9.733,0,0,1,4.48,6.64014A9.54777,9.54777,0,0,1,569.29623,762.89873Zm-98.05981,8.81006c-3.28,8.12011-2.33008,14.6499,2.87988,20.28h.92017q20.29467-4.155,39.98-8.7C501.91635,777.90874,484.68637,772.02861,471.23642,771.70879Zm0,0c-3.28,8.12011-2.33008,14.6499,2.87988,20.28h.92017q20.29467-4.155,39.98-8.7C501.91635,777.90874,484.68637,772.02861,471.23642,771.70879Zm0,0c-3.28,8.12011-2.33008,14.6499,2.87988,20.28h.92017q20.29467-4.155,39.98-8.7C501.91635,777.90874,484.68637,772.02861,471.23642,771.70879Zm0,0c-3.28,8.12011-2.33008,14.6499,2.87988,20.28h.92017q20.29467-4.155,39.98-8.7C501.91635,777.90874,484.68637,772.02861,471.23642,771.70879Zm0,0c-3.28,8.12011-2.33008,14.6499,2.87988,20.28h.92017q20.29467-4.155,39.98-8.7C501.91635,777.90874,484.68637,772.02861,471.23642,771.70879Zm0,0c-3.28,8.12011-2.33008,14.6499,2.87988,20.28h.92017q20.29467-4.155,39.98-8.7C501.91635,777.90874,484.68637,772.02861,471.23642,771.70879Zm0,0c-3.28,8.12011-2.33008,14.6499,2.87988,20.28h.92017q20.29467-4.155,39.98-8.7C501.91635,777.90874,484.68637,772.02861,471.23642,771.70879Zm0,0c-3.28,8.12011-2.33008,14.6499,2.87988,20.28h.92017q20.29467-4.155,39.98-8.7C501.91635,777.90874,484.68637,772.02861,471.23642,771.70879Zm0,0c-3.28,8.12011-2.33008,14.6499,2.87988,20.28h.92017q20.29467-4.155,39.98-8.7C501.91635,777.90874,484.68637,772.02861,471.23642,771.70879Zm0,0c-3.28,8.12011-2.33008,14.6499,2.87988,20.28h.92017q20.29467-4.155,39.98-8.7C501.91635,777.90874,484.68637,772.02861,471.23642,771.70879Z"/><path d="M573.17636,766.04863c-.74.91016-1.47,1.83008-2.2,2.76025a207.32516,207.32516,0,0,0-12.18994,17.33985c-.74024,1.16992-1.46021,2.3501-2.17017,3.54-.12988.2-.25.39013-.3601.58984-.16993.29-.33985.57007-.50977.86011-.17017.28-.34009.57007-.5.8501-.3501.59008-.69019,1.18994-1.03,1.78a.217.217,0,0,1-.05005.07983c-.11011.2102-.23.42993-.3501.64014h-.01c0,.02-.01977.03979-.03.05981-.21.38013-.42994.77-.6399,1.15015l-2.09009-1.15992-.08984-.05h-.01l-2.17993-1.21021q.35963-.6449.72-1.28979c2.03-3.61011,4.18994-7.19019,6.47-10.71021.76-1.17993,1.54-2.34985,2.31983-3.50976.44018-.65015.88012-1.29,1.33007-1.94.43018-.63012.87012-1.25,1.32007-1.88012q3.98986-5.64,8.36987-11.05005a9.54777,9.54777,0,0,0,2-7.6499,9.733,9.733,0,0,0-4.48-6.64014q-15.33-9.44971-31.26-17.88989-11.30969-6.015-22.8999-11.49-8.76013-4.14-17.65991-7.98h-.01q-3.015-1.30518-6.05-2.57007l-.01-.01a2.206,2.206,0,0,0-.40014-.15991c-.15992-.07007-.31983-.13013-.48-.2q-18.23986-7.57506-37-13.84008a9.60865,9.60865,0,0,0-12.27,6.55981,305.2438,305.2438,0,0,1-42.57984,90.96021c-.45.65991-.90015,1.30981-1.36011,1.96-.11987.17993-.23.3601-.33984.54a.302.302,0,0,0-.04.07983,8.0696,8.0696,0,0,0-.53,1.01025l-2.29-1.01025-.17993-.07983-2.11011-.92994a13.77439,13.77439,0,0,1,.82007-1.57006,10.59928,10.59928,0,0,1,.58008-.90015,300.28253,300.28253,0,0,0,43.21-91.40991,14.60895,14.60895,0,0,1,18.66992-9.95q17.625,5.8949,34.8501,12.95,2.84985,1.155,5.67993,2.3601c.01,0,.01,0,.02.00977q9.56982,4.03529,18.99,8.44019,9.55518,4.455,18.93994,9.27,1.455.75,2.91016,1.5c.98.51,1.96,1.01977,2.92993,1.55q16.56006,8.71473,32.49,18.54981a14.64445,14.64445,0,0,1,6.41992,8.45019,12.36392,12.36392,0,0,1,.37012,1.59986A14.54705,14.54705,0,0,1,573.17636,766.04863Z"/><path class="cls-6" d="M731.52622,955.16875l-4.23975-30.55005-1.51025-6.42993-9.42994-40.17993-3.60986-4.44019,10.47,44.62012,1.61987,6.87988,4.17994,30.1001,2.64013,19.07007h2.52Zm0,0-4.23975-30.55005-1.51025-6.42993-9.42994-40.17993-3.60986-4.44019,10.47,44.62012,1.61987,6.87988,4.17994,30.1001,2.64013,19.07007h2.52Zm105.3601,2.87988-14.36987,2.46021.84985,4.92993,14.37012-2.46Zm0,0-14.36987,2.46021.84985,4.92993,14.37012-2.46Zm-117.94995-105.52-.01-.00976-.01-.01-7.94995-9.79a2.80343,2.80343,0,0,0-4.89014,2.48l6.66016,28.3601v.00977l10.47,44.62012,1.61987,6.87988,4.17994,30.1001,2.64013,19.07007h2.52l-2.64013-19.07007-4.23975-30.55005-1.51025-6.42993h2.56005l-8.37988-35.73-6.84009-29.16016,52.68994,64.89014h23.71021Zm117.94995,105.52-14.36987,2.46021.84985,4.92993,14.37012-2.46Zm32.79-2.87988-.46-2.65991-11.75,2.01-2.62012.44995.03.2.82007,4.73,3.98-.67993,10.38989-1.78Zm-138.55005,21.01-3.27.56006h3.37012Zm93.93994-1.93994L813.1163,955.16875l-22.57983-36.03-1.02-.95-70.58008-65.66016-.01-.00976-.01-.01-7.94995-9.79a2.80343,2.80343,0,0,0-4.89014,2.48l6.66016,28.3601v.00977l10.47,44.62012,1.61987,6.87988,4.17994,30.1001,2.64013,19.07007.3501,2.5h47.21l-1.08008-2.5H736.69638l-2.64014-19.07007-4.28979-30.8999-1.43018-6.08008-8.37988-35.73,29.01,35.73h16.83984l.54.66992,15.80005,36.31006,8.3,19.07007,1.07984,2.5h35.1101Zm33.61011-56.05005-7.28-15.52-.14013-.30005L761.91635,796.98882H811.0062c-.06983-.84009-.12989-1.67017-.16993-2.5H730.95639l.01.01h.35986l3.86011,2.15991.19995.33008,11.02,18.34985,15.11011,1.62012,11.85986,1.27,2.34009,2.76,2.34985,2.77,68.9502,81.33984,6.13989,13.09009,17.34986,36.98h5.52ZM753.77622,807.06865l-.00977-.00977-17.99023-10.07006H755.3663l17.71,20.88989ZM858.67636,918.18877l-7.28-15.52-.14013-.30005L761.91635,796.98882H811.0062c-.06983-.84009-.12989-1.67017-.16993-2.5H730.95639l.01.01h.35986l3.86011,2.15991.19995.33008,11.02,18.34985,15.11011,1.62012,11.85986,1.27,2.34009,2.76,2.34985,2.77,68.9502,81.33984,6.13989,13.09009,17.34986,36.98h5.52ZM753.77622,807.06865l-.00977-.00977-17.99023-10.07006H755.3663l17.71,20.88989ZM858.67636,918.18877l-7.28-15.52-.14013-.30005L761.91635,796.98882H811.0062c-.06983-.84009-.12989-1.67017-.16993-2.5H730.95639l.01.01h.35986l3.86011,2.15991.19995.33008,11.02,18.34985,15.11011,1.62012,11.85986,1.27,2.34009,2.76,2.34985,2.77,68.9502,81.33984,6.13989,13.09009,17.34986,36.98h5.52ZM753.77622,807.06865l-.00977-.00977-17.99023-10.07006H755.3663l17.71,20.88989ZM964.18637,974.23882l-.83008-6.90992-1.46-12.16015-4.43994-36.98-8.41992-70.18994a60.76051,60.76051,0,0,0-53.17017-53.1001c-.48-.05005-.96-.1001-1.43994-.13989-.40991-.04-.82007-.08008-1.23-.1001-.24-.02-.48-.04-.73-.05-1.24-.08008-2.48-.11987-3.74-.11987H311.27622q-.79469,0-1.58985.03c-1.48.02978-2.96.11987-4.41992.27-.49023.04981-.99023.09986-1.48.15992a60.76422,60.76422,0,0,0-52.83008,53.05l-8.41992,70.18994-4.43018,36.98-2.29,19.07007-.2998,2.5H640.09628l-.27-2.5h-401.49l2.28-19.07007,4.43994-36.98,8.39014-69.89014a58.28377,58.28377,0,0,1,57.82984-51.30981H602.70639l35.42993,121.19995,6.06006,20.73,1.75,16.25,2.05982,19.07007.27,2.5h25.3601l-.27-2.5-2.06006-19.07007-1.8-16.74-5.91993-20.24-23.75-81.26,20.59009-18.57007-7.71-21.36987h76.82983l13.86011,23.05981,22.40991,2.40015,12.25,1.31006,68.9502,81.33984,6.13989,13.09009,17.34986,36.98,6.33007,13.48a1.58465,1.58465,0,0,1-.23,1.21,2.883,2.883,0,0,1-1.8,1.52l-8.72,1.49-7.98,1.37012-14.58984,2.5h120.97Zm-208.82007-177.25,17.71,20.88989-19.3-10.81006-.00977-.00977-17.99023-10.07006Zm-100.78,19.90991-16.2998,14.71-10.12012-34.61987h19.24ZM879.51645,974.23882a8.75077,8.75077,0,0,0,1.52978-2.07007,6.36974,6.36974,0,0,0,.31006-5.6499l-5.33007-11.3501-17.34986-36.98-7.28-15.52-.14013-.30005L761.91635,796.98882H888.72641a58.28377,58.28377,0,0,1,57.82983,51.30981l8.39014,69.89014,4.43994,36.98,2.28,19.07007Zm-20.84009-56.05005-7.28-15.52-.14013-.30005L761.91635,796.98882H811.0062c-.06983-.84009-.12989-1.67017-.16993-2.5H730.95639l.01.01h.35986l3.86011,2.15991.19995.33008,11.02,18.34985,15.11011,1.62012,11.85986,1.27,2.34009,2.76,2.34985,2.77,68.9502,81.33984,6.13989,13.09009,17.34986,36.98h5.52ZM753.77622,807.06865l-.00977-.00977-17.99023-10.07006H755.3663l17.71,20.88989ZM858.67636,918.18877l-7.28-15.52-.14013-.30005L761.91635,796.98882H811.0062c-.06983-.84009-.12989-1.67017-.16993-2.5H730.95639l.01.01h.35986l3.86011,2.15991.19995.33008,11.02,18.34985,15.11011,1.62012,11.85986,1.27,2.34009,2.76,2.34985,2.77,68.9502,81.33984,6.13989,13.09009,17.34986,36.98h5.52ZM753.77622,807.06865l-.00977-.00977-17.99023-10.07006H755.3663l17.71,20.88989ZM858.67636,918.18877l-7.28-15.52-.14013-.30005L761.91635,796.98882H811.0062c-.06983-.84009-.12989-1.67017-.16993-2.5H730.95639l.01.01h.35986l3.86011,2.15991.19995.33008,11.02,18.34985,15.11011,1.62012,11.85986,1.27,2.34009,2.76,2.34985,2.77,68.9502,81.33984,6.13989,13.09009,17.34986,36.98h5.52ZM753.77622,807.06865l-.00977-.00977-17.99023-10.07006H755.3663l17.71,20.88989Zm-34.83985,45.46-.01-.00976-.01-.01-7.94995-9.79a2.80343,2.80343,0,0,0-4.89014,2.48l6.66016,28.3601v.00977l10.47,44.62012,1.61987,6.87988,4.17994,30.1001,2.64013,19.07007h2.52l-2.64013-19.07007-4.23975-30.55005-1.51025-6.42993-9.42994-40.17993-7.84985-33.42994a.30818.30818,0,0,1,.52979-.29l7.40014,9.11988.01.01,52.06983,64.12988.28027.64014h20.73Zm117.94995,105.52-14.36987,2.46021.84985,4.92993,14.37012-2.46Zm32.79-2.87988-.46-2.65991-11.75,2.01-2.62012.44995.03.2.82007,4.73,3.98-.67993,10.38989-1.78Zm0,0-.46-2.65991-11.75,2.01-2.62012.44995.03.2.82007,4.73,3.98-.67993,10.38989-1.78Zm-32.79,2.87988-14.36987,2.46021.84985,4.92993,14.37012-2.46Zm-68.1101-39.85986-.27979-.64014-52.05005-64.09985-.01-.03-.01-.01-1.55005-3.81006a.31681.31681,0,0,1,.49-.38989l3.55,3.3-7.94995-9.79a2.80343,2.80343,0,0,0-4.89014,2.48l6.66016,28.3601v.00977l10.47,44.62012,1.61987,6.87988,4.17994,30.1001,2.64013,19.07007h2.52l-2.64013-19.07007-4.23975-30.55005-1.51025-6.42993h2.56005l-8.37988-35.73-6.84009-29.16016,52.68994,64.89014Zm-37.25,36.98-4.23975-30.55005-1.51025-6.42993h2.56005l-8.37988-35.73-3.61011-4.45-3.60986-4.44019,10.47,44.62012,1.61987,6.87988,4.17994,30.1001,2.64013,19.07007h2.52Zm0,0-4.23975-30.55005-1.51025-6.42993-9.42994-40.17993-3.60986-4.44019,10.47,44.62012,1.61987,6.87988,4.17994,30.1001,2.64013,19.07007h2.52Z"/><path d="M503.31625,264.93877a2.60715,2.60715,0,0,0-1.02-1.76,2.653,2.653,0,0,0-1.95-.53l-11.73,1.52-4.96.64013-13.66992,1.77a2.59476,2.59476,0,0,0-1.77,1.00977,2.56693,2.56693,0,0,0-.53,1.96l3.24,25.11011-15.82007,2.04-.83007.13012-6.35987,5.48-2.26,1.95-1.25,1.07006,1.63013,1.8899,1.62988,1.8999,1.02-.87988,7.75-6.67017,17.47-2.25a2.67713,2.67713,0,0,0,2.28-2.98l-3.24-25.09985,25.71-3.33008,5.33008,41.23,4.96-.63989Z"/><path d="M533.20639,283.92876l-.41992-3.46-.42017-3.48-5.26-43.64014a2.6516,2.6516,0,0,0-2.98-2.3l-41.48,5.3501a2.66811,2.66811,0,0,0-2.27,2.98l3.28,25.43017.32007,2.48,4.96-.64013-.32007-2.48-2.98-23.10987,36.79-4.75,6.90991,57.29981,4.96-.59985Z"/><path d="M774.49643,97.19878,383.37631,147.87871l34,262.3999,391.12012-50.67993Zm-4.31006,5.59985,31.31983,241.75,1.39013,10.74023-381.21,49.3899-32.71-252.49,10-1.3Z"/><path d="M740.68637,141.0789,427.24643,181.68877l23.93994,184.71L764.6163,325.78886ZM455.49643,360.79863l-6.81006-52.55981-.39014-2.97-.37988-2.96-15.07007-116.31,303.53-39.32007,8.41016,64.93994.31982,2.48.32007,2.48022,13.59009,104.89991Z"/><path d="M747.28647,211.29863h-.02l-2.48.32007-15.89014,2.06006a2.67326,2.67326,0,0,0-2.30005,2.25l-5.68994,38.66992-.76,5.14014-1.53,10.37988,4.94995.73,7.72022-52.43994,14.13989-1.82984,2.48-.32006h.02Z"/><path d="M722.9664,256.84868l-.32007-2.48-1.74.23-17.36011,2.24-1.55981-12.13989a2.67357,2.67357,0,0,0-2.98022-2.29l-15.12989,1.96-6.10009-47.16992-.10987-.67993-16.02-22.61011a2.663,2.663,0,0,0-4.62988.53l-10.46021,25.62988-.26.69019,6.17017,47.73-15.66016,2.02a2.67537,2.67537,0,0,0-2.28,2.98l2.52,19.47-15.82983,2.05-.75.09985-18.57007,13.8501-12.1001,1.56006-2.38989.31.32007,2.48.32983,2.48,2.39014-.31,12.74-1.64991.69995-.12011,18.53-13.82007,17.60987-2.27a2.66765,2.66765,0,0,0,2.28-2.98l-2.51977-19.47,15.62988-2.02a2.668,2.668,0,0,0,2.31006-2.98l-4.95019-38.26,7.24023-6.3-1.18018-25.1499.89014-.12012,5.90991,24.48,8.6001,4,4.98,38.52a2.60662,2.60662,0,0,0,1.02,1.76,2.66364,2.66364,0,0,0,1.95.53l15.13989-1.96,1.57007,12.14013a2.66331,2.66331,0,0,0,2.97,2.2898l18.28-2.35986,3.14014-.40992Z"/><path d="M590.44638,295.47881l-.33008-2.48-.32007-2.48-5.77978-44.23a2.6692,2.6692,0,0,0-2.97022-2.29l-23.66992,3.06a2.60671,2.60671,0,0,0-1.75.96973l-23.26,28.96021-1.84008,2.3-1.50977,1.86988,1.95,1.56006,1.94995,1.57006.29-.3601,25.73-32.03,20.42993-2.63989,7.71,59.07983,4.96021-.6499Z"/><circle cx="581.91206" cy="145.21671" r="5.95923"/><path class="cls-4" d="M836.88632,958.04863l-14.36987,2.46021.84985,4.92993,14.37012-2.46Zm20.8899-2.87988-.30982-.6499-2.62012.44995.03.2.82007,4.73,3.98-.67993Zm-20.8899,2.87988-14.36987,2.46021.84985,4.92993,14.37012-2.46Zm20.8899-2.87988-.30982-.6499-2.62012.44995.03.2.82007,4.73,3.98-.67993Zm10.51025,22.3999-.25-.52979-.14014-.3-.71-1.52-.46-.98-.64014-1.37012-7.98,1.37012-14.58984,2.5-1.75.3-12.8501,2.2h-.71l-1.38013-2.2-.18994-.3-1.57007-2.5L813.1163,955.16875l-22.57983-36.03-1.02-.95-70.58008-65.66016-.01-.00976-.01-.01-7.94995-9.79a2.80343,2.80343,0,0,0-4.89014,2.48l6.66016,28.3601v.00977l3.60986,4.44019,3.61011,4.45,29.01,35.73h16.83984l.54.66992,15.80005,36.31006,8.3,19.07007,1.07984,2.5.13012.3.96,2.2,3.02,6.93994a4.99068,4.99068,0,0,0,5.58008,2.88012l57.32983-9.82006h10.53Zm-10.51025-22.3999-.30982-.6499-2.62012.44995.03.2.82007,4.73,3.98-.67993Zm-20.8899,2.87988-14.36987,2.46021.84985,4.92993,14.37012-2.46ZM723.7562,979.23882l-.23975-1.76-6.77,1.15991.09985.6001.75,4.32983,6.61011-1.13989Zm39.91015-159.53-2.1499-2.75-7.74023-9.89014-.00977-.00977-17.99023-10.07006h10.10009l-1.94995-2.49h-152.49l.73,2.49h10.54l35.42993,121.19995,6.06006,20.73,1.75,16.25,2.05982,19.07007.27,2.5.03.3.24,2.2,2.88013,26.6499.3,2.8a5.50534,5.50534,0,0,0,2.12988,3.87988,5.4247,5.4247,0,0,0,3.30005,1.09009,7.03607,7.03607,0,0,0,1.02-.07984l44.86011-7.69018,23.84985-4.09009-.34009-2.46973-.33984-2.49023h-.01l-49.48,8.49023-2.81006-26.09008-.24-2.2-.03-.3-.27-2.5-2.06006-19.07007-1.8-16.74-5.91993-20.24-23.75-81.26,20.59009-18.57007-7.71-21.36987h76.82983l13.86011,23.05981,22.40991,2.40015Zm-109.08008-2.81006-16.2998,14.71-10.12012-34.61987h19.24Zm44.2002,164.82007-14.37012,2.46.8501,4.92993,14.36987-2.46Z"/><path class="cls-4" d="M865.9664,987.12871l-74.44018,12.76a2.49039,2.49039,0,0,1-2.85987-1.40991l-8.37012-19.24-.96-2.2-.12988-.3-1.08008-2.5-8.3-19.07007-10.57983-24.32007-10.28-12.65991h16.83984l.54.66992,15.80005,36.31006,8.3,19.07007,1.07984,2.5.13012.3.96,2.2,3.02,6.93994a4.99068,4.99068,0,0,0,5.58008,2.88012l57.32983-9.82006h10.53l.76,1.62988C870.91635,983.14873,868.7562,986.65874,865.9664,987.12871Z"/><path class="cls-4" d="M723.97641,1011.4688l-75.48,12.92993a2.9401,2.9401,0,0,1-3.55005-2.67993l-1.71-15.83008-2.87012-26.6499-.24-2.2-.03-.3-.27-2.5-2.05-19.07007-.36988-3.43994-9.81006-33.54L592.16635,796.98882h10.54l35.42993,121.19995,6.06006,20.73,1.75,16.25,2.05982,19.07007.27,2.5.03.3.24,2.2,2.88013,26.6499.3,2.8a5.50534,5.50534,0,0,0,2.12988,3.87988,5.4247,5.4247,0,0,0,3.30005,1.09009,7.03607,7.03607,0,0,0,1.02-.07984l44.86011-7.69018,23.84985-4.09009.57007,4.09009.09985.72A4.52026,4.52026,0,0,1,723.97641,1011.4688Z"/><path d="M731.27622,977.03886l-.04981-.3-.1001-.56006-3.27.56006-1.76.3-2.57983.43995.23975,1.76h7.89013Zm95.55,0-.18994-.3H796.97641l-1.09009-2.5h-5.43994l1.07984,2.5.13012.3.96,2.2h35.59009Zm-47.61987-.3-1.08008-2.5h-46.48l.3501,2.5.04.3.30981,2.2h47.95l-.96-2.2Zm194.86987,1.92993c-.17993-.08985-.36987-.16992-.55981-.25q-.28528-.12012-.57007-.24c-.33008-.13013-.65991-.26-1-.36988a.695.695,0,0,0-.13013-.05.18442.18442,0,0,0-.06982-.02c-.01,0-.02-.01-.03-.01-.30005-.1001-.59009-.18995-.90015-.27-.02-.01-.0498-.01-.06982-.02a2.69638,2.69638,0,0,0-.27-.07007,1.49955,1.49955,0,0,0-.20019-.05c-.25-.06982-.5-.11987-.75-.16992q-.405-.09009-.80982-.1499c-.07007-.01-.15015-.03-.23-.04-.31006-.04-.63013-.08008-.94995-.12012a.28287.28287,0,0,1-.09009-.00977c-.3-.03027-.61011-.05029-.92016-.06-.33985-.02-.68995-.03-1.02979-.03h-121.98l-1.75.3-12.8501,2.2h146.25C974.80624,979.03886,974.44638,978.84868,974.07626,978.66875Zm-242.8-1.62989-.04981-.3-.1001-.56006-3.27.56006-1.76.3-2.57983.43995.23975,1.76h7.89013Zm95.55,0-.18994-.3H796.97641l-1.09009-2.5h-5.43994l1.07984,2.5.13012.3.96,2.2h35.59009Zm-47.61987-.3-1.08008-2.5h-46.48l.3501,2.5.04.3.30981,2.2h47.95l-.96-2.2Zm194.86987,1.92993c-.17993-.08985-.36987-.16992-.55981-.25q-.28528-.12012-.57007-.24c-.33008-.13013-.65991-.26-1-.36988a.695.695,0,0,0-.13013-.05.18442.18442,0,0,0-.06982-.02c-.01,0-.02-.01-.03-.01-.30005-.1001-.59009-.18995-.90015-.27-.02-.01-.0498-.01-.06982-.02a2.69638,2.69638,0,0,0-.27-.07007,1.49955,1.49955,0,0,0-.20019-.05c-.25-.06982-.5-.11987-.75-.16992q-.405-.09009-.80982-.1499c-.07007-.01-.15015-.03-.23-.04-.31006-.04-.63013-.08008-.94995-.12012a.28287.28287,0,0,1-.09009-.00977c-.3-.03027-.61011-.05029-.92016-.06-.33985-.02-.68995-.03-1.02979-.03h-121.98l-1.75.3-12.8501,2.2h146.25C974.80624,979.03886,974.44638,978.84868,974.07626,978.66875Zm-242.8-1.62989-.04981-.3-.1001-.56006-3.27.56006-1.76.3-2.57983.43995.23975,1.76h7.89013Zm95.55,0-.18994-.3H796.97641l-1.09009-2.5h-5.43994l1.07984,2.5.13012.3.96,2.2h35.59009Zm-47.61987-.3-1.08008-2.5h-46.48l.3501,2.5.04.3.30981,2.2h47.95l-.96-2.2Zm194.86987,1.92993c-.17993-.08985-.36987-.16992-.55981-.25q-.28528-.12012-.57007-.24c-.33008-.13013-.65991-.26-1-.36988a.695.695,0,0,0-.13013-.05.18442.18442,0,0,0-.06982-.02c-.01,0-.02-.01-.03-.01-.30005-.1001-.59009-.18995-.90015-.27-.02-.01-.0498-.01-.06982-.02a2.69638,2.69638,0,0,0-.27-.07007,1.49955,1.49955,0,0,0-.20019-.05c-.25-.06982-.5-.11987-.75-.16992q-.405-.09009-.80982-.1499c-.07007-.01-.15015-.03-.23-.04-.31006-.04-.63013-.08008-.94995-.12012a.28287.28287,0,0,1-.09009-.00977c-.3-.03027-.61011-.05029-.92016-.06-.33985-.02-.68995-.03-1.02979-.03h-121.98l-1.75.3-12.8501,2.2h146.25C974.80624,979.03886,974.44638,978.84868,974.07626,978.66875Zm-242.8-1.62989-.04981-.3-.1001-.56006-3.27.56006-1.76.3-2.57983.43995.23975,1.76h7.89013Zm95.55,0-.18994-.3H796.97641l-1.09009-2.5h-5.43994l1.07984,2.5.13012.3.96,2.2h35.59009Zm-47.61987-.3-1.08008-2.5h-46.48l.3501,2.5.04.3.30981,2.2h47.95l-.96-2.2Zm194.86987,1.92993c-.17993-.08985-.36987-.16992-.55981-.25q-.28528-.12012-.57007-.24c-.33008-.13013-.65991-.26-1-.36988a.695.695,0,0,0-.13013-.05.18442.18442,0,0,0-.06982-.02c-.01,0-.02-.01-.03-.01-.30005-.1001-.59009-.18995-.90015-.27-.02-.01-.0498-.01-.06982-.02a2.69638,2.69638,0,0,0-.27-.07007,1.49955,1.49955,0,0,0-.20019-.05c-.25-.06982-.5-.11987-.75-.16992q-.405-.09009-.80982-.1499c-.07007-.01-.15015-.03-.23-.04-.31006-.04-.63013-.08008-.94995-.12012a.28287.28287,0,0,1-.09009-.00977c-.3-.03027-.61011-.05029-.92016-.06-.33985-.02-.68995-.03-1.02979-.03h-121.98l-1.75.3-12.8501,2.2h146.25C974.80624,979.03886,974.44638,978.84868,974.07626,978.66875Zm-242.8-1.62989-.04981-.3-.1001-.56006-3.27.56006-1.76.3-2.57983.43995.23975,1.76h7.89013Zm95.55,0-.18994-.3H796.97641l-1.09009-2.5h-5.43994l1.07984,2.5.13012.3.96,2.2h35.59009Zm-47.61987-.3-1.08008-2.5h-46.48l.3501,2.5.04.3.30981,2.2h47.95l-.96-2.2Zm194.86987,1.92993c-.17993-.08985-.36987-.16992-.55981-.25q-.28528-.12012-.57007-.24c-.33008-.13013-.65991-.26-1-.36988a.695.695,0,0,0-.13013-.05.18442.18442,0,0,0-.06982-.02c-.01,0-.02-.01-.03-.01-.30005-.1001-.59009-.18995-.90015-.27-.02-.01-.0498-.01-.06982-.02a2.69638,2.69638,0,0,0-.27-.07007,1.49955,1.49955,0,0,0-.20019-.05c-.25-.06982-.5-.11987-.75-.16992q-.405-.09009-.80982-.1499c-.07007-.01-.15015-.03-.23-.04-.31006-.04-.63013-.08008-.94995-.12012a.28287.28287,0,0,1-.09009-.00977c-.3-.03027-.61011-.05029-.92016-.06-.33985-.02-.68995-.03-1.02979-.03h-121.98l-1.75.3-12.8501,2.2h146.25C974.80624,979.03886,974.44638,978.84868,974.07626,978.66875Zm-242.8-1.62989-.04981-.3-.1001-.56006-3.27.56006-1.76.3-2.57983.43995.23975,1.76h7.89013Zm95.55,0-.18994-.3H796.97641l-1.09009-2.5h-5.43994l1.07984,2.5.13012.3.96,2.2h35.59009Zm-47.61987-.3-1.08008-2.5h-46.48l.3501,2.5.04.3.30981,2.2h47.95l-.96-2.2Zm194.86987,1.92993c-.17993-.08985-.36987-.16992-.55981-.25q-.28528-.12012-.57007-.24c-.33008-.13013-.65991-.26-1-.36988a.695.695,0,0,0-.13013-.05.18442.18442,0,0,0-.06982-.02c-.01,0-.02-.01-.03-.01-.30005-.1001-.59009-.18995-.90015-.27-.02-.01-.0498-.01-.06982-.02a2.69638,2.69638,0,0,0-.27-.07007,1.49955,1.49955,0,0,0-.20019-.05c-.25-.06982-.5-.11987-.75-.16992q-.405-.09009-.80982-.1499c-.07007-.01-.15015-.03-.23-.04-.31006-.04-.63013-.08008-.94995-.12012a.28287.28287,0,0,1-.09009-.00977c-.3-.03027-.61011-.05029-.92016-.06-.33985-.02-.68995-.03-1.02979-.03h-121.98l-1.75.3-12.8501,2.2h146.25C974.80624,979.03886,974.44638,978.84868,974.07626,978.66875Zm-242.8-1.62989-.04981-.3-.1001-.56006-3.27.56006-1.76.3-2.57983.43995-6.77,1.15991.09985.6001h14.80005Zm95.55,0-.18994-.3-1.57007-2.5H790.44638l1.07984,2.5.13012.3.96,2.2h35.59009Zm-47.61987-.3-1.08008-2.5h-46.48l.3501,2.5.04.3.30981,2.2h47.95l-.96-2.2Zm-47.93017.3-.04981-.3-.1001-.56006-3.27.56006-1.76.3-2.57983.43995-6.77,1.15991.09985.6001h14.80005Zm95.55,0-.18994-.3-1.57007-2.5H790.44638l1.07984,2.5.13012.3.96,2.2h35.59009Zm-47.61987-.3-1.08008-2.5h-46.48l.3501,2.5.04.3.30981,2.2h47.95l-.96-2.2Zm-47.93017.3-.04981-.3-.1001-.56006-3.27.56006-1.76.3-2.57983.43995-6.77,1.15991.09985.6001h14.80005Zm95.55,0-.18994-.3-1.57007-2.5H790.44638l1.07984,2.5.13012.3.96,2.2h35.59009Zm-47.61987-.3-1.08008-2.5h-46.48l.3501,2.5.04.3.30981,2.2h47.95l-.96-2.2Zm-47.93017.3-.04981-.3-.1001-.56006-3.27.56006-1.76.3-2.57983.43995-6.77,1.15991.09985.6001h14.80005Zm95.55,0-.18994-.3-1.57007-2.5H790.44638l1.07984,2.5.13012.3.96,2.2h35.59009Zm-47.61987-.3-1.08008-2.5h-46.48l.3501,2.5.04.3.30981,2.2h47.95l-.96-2.2Zm-47.93017.3-.04981-.3-.1001-.56006-3.27.56006-1.76.3-2.57983.43995-6.77,1.15991.09985.6001h14.80005Zm95.55,0-.18994-.3-1.57007-2.5H790.44638l1.07984,2.5.13012.3.96,2.2h35.59009Zm-47.61987-.3-1.08008-2.5h-46.48l.3501,2.5.04.3.30981,2.2h47.95l-.96-2.2Zm-105.54.3-.03-.3-.27-2.5H648.0062l.27,2.5.03.3.24,2.2h25.36011Zm57.60987,0-.04981-.3-.1001-.56006-3.27.56006-1.76.3-2.57983.43995-6.77,1.15991.09985.6001h14.80005Zm95.55,0-.18994-.3-1.57007-2.5H790.44638l1.07984,2.5.13012.3.96,2.2h35.59009Zm-47.61987-.3-1.08008-2.5h-46.48l.3501,2.5.04.3.30981,2.2h47.95l-.96-2.2Zm226.03-2.5H858.10629l-14.58984,2.5-1.75.3-12.8501,2.2h176.32007a17.51919,17.51919,0,0,1,17.5,17.5v98.99h-845.47v-98.99a17.519,17.519,0,0,1,17.5-17.5H640.3663l-.24-2.2-.03-.3-.27-2.5H194.76645a22.521,22.521,0,0,0-22.5,22.5v103.99h855.47v-103.99A22.52115,22.52115,0,0,0,1005.23642,974.23882Zm-213.58008,2.8.96,2.2h35.59009l-1.38013-2.2-.18994-.3-1.57007-2.5H790.44638l1.07984,2.5Zm-59.61987,0,.30981,2.2h47.95l-.96-2.2-.12988-.3-1.08008-2.5h-46.48l.3501,2.5Zm-.39014,2.2-.37011-2.2-.04981-.3-.1001-.56006-3.27.56006-1.76.3-2.57983.43995-6.77,1.15991.09985.6001Zm-78.07007,0h20.33008l-.24-2.2-.03-.3H653.30624l.03.3Zm173.25-2.2-.18994-.3-1.57007-2.5H790.44638l1.07984,2.5.13012.3.96,2.2h35.59009Zm-47.61987-.3-1.08008-2.5h-46.48l.3501,2.5.04.3.30981,2.2h47.95l-.96-2.2Zm-47.93017.3-.04981-.3-.1001-.56006-3.27.56006-1.76.3-2.57983.43995-6.77,1.15991.09985.6001h14.80005Zm-57.60987,0-.03-.3-.27-2.5H648.0062l.27,2.5.03.3.24,2.2h25.36011Zm153.15991,0-.18994-.3-1.57007-2.5H790.44638l1.07984,2.5.13012.3.96,2.2h35.59009Zm-47.61987-.3-1.08008-2.5h-46.48l.3501,2.5.04.3.30981,2.2h47.95l-.96-2.2Zm-47.93017.3-.04981-.3-.1001-.56006-3.27.56006-1.76.3-2.57983.43995-6.77,1.15991.09985.6001h14.80005Zm95.55,0-.18994-.3-1.57007-2.5H790.44638l1.07984,2.5.13012.3.96,2.2h35.59009Zm-47.61987-.3-1.08008-2.5h-46.48l.3501,2.5.04.3.30981,2.2h47.95l-.96-2.2Zm-47.93017.3-.04981-.3-.1001-.56006-3.27.56006-1.76.3-2.57983.43995-6.77,1.15991.09985.6001h14.80005Zm95.55,0-.18994-.3-1.57007-2.5H790.44638l1.07984,2.5.13012.3.96,2.2h35.59009Zm-47.61987-.3-1.08008-2.5h-46.48l.3501,2.5.04.3.30981,2.2h47.95l-.96-2.2Zm-47.93017.3-.04981-.3-.1001-.56006-3.27.56006-1.76.3-2.57983.43995-6.77,1.15991.09985.6001h14.80005Zm0,0-.04981-.3-.1001-.56006-3.27.56006-1.76.3-2.57983.43995-6.77,1.15991.09985.6001h14.80005Zm95.55,0-.18994-.3-1.57007-2.5H790.44638l1.07984,2.5.13012.3.96,2.2h35.59009Zm-47.61987-.3-1.08008-2.5h-46.48l.3501,2.5.04.3.30981,2.2h47.95l-.96-2.2Zm-47.93017.3-.04981-.3-.1001-.56006-3.27.56006-1.76.3-2.57983.43995.23975,1.76h7.89013Zm95.55,0-.18994-.3H796.97641l-1.09009-2.5h-5.43994l1.07984,2.5.13012.3.96,2.2h35.59009Zm-47.61987-.3-1.08008-2.5h-46.48l.3501,2.5.04.3.30981,2.2h47.95l-.96-2.2Zm194.86987,1.92993c-.17993-.08985-.36987-.16992-.55981-.25q-.28528-.12012-.57007-.24c-.33008-.13013-.65991-.26-1-.36988a.695.695,0,0,0-.13013-.05.18442.18442,0,0,0-.06982-.02c-.01,0-.02-.01-.03-.01-.30005-.1001-.59009-.18995-.90015-.27-.02-.01-.0498-.01-.06982-.02a2.69638,2.69638,0,0,0-.27-.07007,1.49955,1.49955,0,0,0-.20019-.05c-.25-.06982-.5-.11987-.75-.16992q-.405-.09009-.80982-.1499c-.07007-.01-.15015-.03-.23-.04-.31006-.04-.63013-.08008-.94995-.12012a.28287.28287,0,0,1-.09009-.00977c-.3-.03027-.61011-.05029-.92016-.06-.33985-.02-.68995-.03-1.02979-.03h-121.98l-1.75.3-12.8501,2.2h146.25C974.80624,979.03886,974.44638,978.84868,974.07626,978.66875Zm-242.8-1.62989-.04981-.3-.1001-.56006-3.27.56006-1.76.3-2.57983.43995.23975,1.76h7.89013Zm95.55,0-.18994-.3H796.97641l-1.09009-2.5h-5.43994l1.07984,2.5.13012.3.96,2.2h35.59009Zm-47.61987-.3-1.08008-2.5h-46.48l.3501,2.5.04.3.30981,2.2h47.95l-.96-2.2Zm194.86987,1.92993c-.17993-.08985-.36987-.16992-.55981-.25q-.28528-.12012-.57007-.24c-.33008-.13013-.65991-.26-1-.36988a.695.695,0,0,0-.13013-.05.18442.18442,0,0,0-.06982-.02c-.01,0-.02-.01-.03-.01-.30005-.1001-.59009-.18995-.90015-.27-.02-.01-.0498-.01-.06982-.02a2.69638,2.69638,0,0,0-.27-.07007,1.49955,1.49955,0,0,0-.20019-.05c-.25-.06982-.5-.11987-.75-.16992q-.405-.09009-.80982-.1499c-.07007-.01-.15015-.03-.23-.04-.31006-.04-.63013-.08008-.94995-.12012a.28287.28287,0,0,1-.09009-.00977c-.3-.03027-.61011-.05029-.92016-.06-.33985-.02-.68995-.03-1.02979-.03h-121.98l-1.75.3-12.8501,2.2h146.25C974.80624,979.03886,974.44638,978.84868,974.07626,978.66875Zm-242.8-1.62989-.04981-.3-.1001-.56006-3.27.56006-1.76.3-2.57983.43995.23975,1.76h7.89013Zm95.55,0-.18994-.3H796.97641l-1.09009-2.5h-5.43994l1.07984,2.5.13012.3.96,2.2h35.59009Zm-47.61987-.3-1.08008-2.5h-46.48l.3501,2.5.04.3.30981,2.2h47.95l-.96-2.2Zm194.86987,1.92993c-.17993-.08985-.36987-.16992-.55981-.25q-.28528-.12012-.57007-.24c-.33008-.13013-.65991-.26-1-.36988a.695.695,0,0,0-.13013-.05.18442.18442,0,0,0-.06982-.02c-.01,0-.02-.01-.03-.01-.30005-.1001-.59009-.18995-.90015-.27-.02-.01-.0498-.01-.06982-.02a2.69638,2.69638,0,0,0-.27-.07007,1.49955,1.49955,0,0,0-.20019-.05c-.25-.06982-.5-.11987-.75-.16992q-.405-.09009-.80982-.1499c-.07007-.01-.15015-.03-.23-.04-.31006-.04-.63013-.08008-.94995-.12012a.28287.28287,0,0,1-.09009-.00977c-.3-.03027-.61011-.05029-.92016-.06-.33985-.02-.68995-.03-1.02979-.03h-121.98l-1.75.3-12.8501,2.2h146.25C974.80624,979.03886,974.44638,978.84868,974.07626,978.66875Zm-242.8-1.62989-.04981-.3-.1001-.56006-3.27.56006-1.76.3-2.57983.43995.23975,1.76h7.89013Zm95.55,0-.18994-.3H796.97641l-1.09009-2.5h-5.43994l1.07984,2.5.13012.3.96,2.2h35.59009Zm-47.61987-.3-1.08008-2.5h-46.48l.3501,2.5.04.3.30981,2.2h47.95l-.96-2.2Zm194.86987,1.92993c-.17993-.08985-.36987-.16992-.55981-.25q-.28528-.12012-.57007-.24c-.33008-.13013-.65991-.26-1-.36988a.695.695,0,0,0-.13013-.05.18442.18442,0,0,0-.06982-.02c-.01,0-.02-.01-.03-.01-.30005-.1001-.59009-.18995-.90015-.27-.02-.01-.0498-.01-.06982-.02a2.69638,2.69638,0,0,0-.27-.07007,1.49955,1.49955,0,0,0-.20019-.05c-.25-.06982-.5-.11987-.75-.16992q-.405-.09009-.80982-.1499c-.07007-.01-.15015-.03-.23-.04-.31006-.04-.63013-.08008-.94995-.12012a.28287.28287,0,0,1-.09009-.00977c-.3-.03027-.61011-.05029-.92016-.06-.33985-.02-.68995-.03-1.02979-.03h-121.98l-1.75.3-12.8501,2.2h146.25C974.80624,979.03886,974.44638,978.84868,974.07626,978.66875Zm-242.8-1.62989-.04981-.3-.1001-.56006-3.27.56006-1.76.3-2.57983.43995.23975,1.76h7.89013Zm95.55,0-.18994-.3H796.97641l-1.09009-2.5h-5.43994l1.07984,2.5.13012.3.96,2.2h35.59009Zm-47.61987-.3-1.08008-2.5h-46.48l.3501,2.5.04.3.30981,2.2h47.95l-.96-2.2Zm194.86987,1.92993c-.17993-.08985-.36987-.16992-.55981-.25q-.28528-.12012-.57007-.24c-.33008-.13013-.65991-.26-1-.36988a.695.695,0,0,0-.13013-.05.18442.18442,0,0,0-.06982-.02c-.01,0-.02-.01-.03-.01-.30005-.1001-.59009-.18995-.90015-.27-.02-.01-.0498-.01-.06982-.02a2.69638,2.69638,0,0,0-.27-.07007,1.49955,1.49955,0,0,0-.20019-.05c-.25-.06982-.5-.11987-.75-.16992q-.405-.09009-.80982-.1499c-.07007-.01-.15015-.03-.23-.04-.31006-.04-.63013-.08008-.94995-.12012a.28287.28287,0,0,1-.09009-.00977c-.3-.03027-.61011-.05029-.92016-.06-.33985-.02-.68995-.03-1.02979-.03h-121.98l-1.75.3-12.8501,2.2h146.25C974.80624,979.03886,974.44638,978.84868,974.07626,978.66875Zm-242.8-1.62989-.04981-.3-.1001-.56006-3.27.56006-1.76.3-2.57983.43995.23975,1.76h7.89013Zm95.55,0-.18994-.3H796.97641l-1.09009-2.5h-5.43994l1.07984,2.5.13012.3.96,2.2h35.59009Zm-47.61987-.3-1.08008-2.5h-46.48l.3501,2.5.04.3.30981,2.2h47.95l-.96-2.2Zm194.86987,1.92993c-.17993-.08985-.36987-.16992-.55981-.25q-.28528-.12012-.57007-.24c-.33008-.13013-.65991-.26-1-.36988a.695.695,0,0,0-.13013-.05.18442.18442,0,0,0-.06982-.02c-.01,0-.02-.01-.03-.01-.30005-.1001-.59009-.18995-.90015-.27-.02-.01-.0498-.01-.06982-.02a2.69638,2.69638,0,0,0-.27-.07007,1.49955,1.49955,0,0,0-.20019-.05c-.25-.06982-.5-.11987-.75-.16992q-.405-.09009-.80982-.1499c-.07007-.01-.15015-.03-.23-.04-.31006-.04-.63013-.08008-.94995-.12012a.28287.28287,0,0,1-.09009-.00977c-.3-.03027-.61011-.05029-.92016-.06-.33985-.02-.68995-.03-1.02979-.03h-121.98l-1.75.3-12.8501,2.2h146.25C974.80624,979.03886,974.44638,978.84868,974.07626,978.66875Z"/><path class="cls-6" d="M731.52622,955.16875l-4.23975-30.55005-1.51025-6.42993-9.42994-40.17993-3.60986-4.44019,10.47,44.62012,1.61987,6.87988,4.17994,30.1001,2.64013,19.07007h2.52Zm0,0-4.23975-30.55005-1.51025-6.42993-9.42994-40.17993-3.60986-4.44019,10.47,44.62012,1.61987,6.87988,4.17994,30.1001,2.64013,19.07007h2.52Zm0,0-4.23975-30.55005-1.51025-6.42993-9.42994-40.17993-7.84985-33.42994a.30818.30818,0,0,1,.52979-.29l7.40014,9.11988-1.55005-3.81006a.31681.31681,0,0,1,.49-.38989l3.55,3.3-7.94995-9.79a2.80343,2.80343,0,0,0-4.89014,2.48l6.66016,28.3601v.00977l10.47,44.62012,1.61987,6.87988,4.17994,30.1001,2.64013,19.07007h2.52Zm105.3601,2.87988-14.36987,2.46021.84985,4.92993,14.37012-2.46Zm32.79-2.87988-.46-2.65991-11.75,2.01-2.62012.44995.03.2.82007,4.73,3.98-.67993,10.38989-1.78Zm0,0-.46-2.65991-11.75,2.01-2.62012.44995.03.2.82007,4.73,3.98-.67993,10.38989-1.78Zm-32.79,2.87988-14.36987,2.46021.84985,4.92993,14.37012-2.46Zm-117.94995-105.52-.01-.00976-.01-.01-7.94995-9.79a2.80343,2.80343,0,0,0-4.89014,2.48l6.66016,28.3601v.00977l10.47,44.62012,1.61987,6.87988,4.17994,30.1001,2.64013,19.07007h2.52l-2.64013-19.07007-4.23975-30.55005-1.51025-6.42993-9.42994-40.17993-7.84985-33.42994a.30818.30818,0,0,1,.52979-.29l7.40014,9.11988.01.01,52.06983,64.12988.28027.64014h20.73ZM698.78647,981.7188l-14.37012,2.46.8501,4.92993,14.36987-2.46Zm138.09985-23.67017-14.36987,2.46021.84985,4.92993,14.37012-2.46Zm32.79-2.87988-.46-2.65991-11.75,2.01-2.62012.44995.03.2.82007,4.73,3.98-.67993,10.38989-1.78Zm0,0-.46-2.65991-11.75,2.01-2.62012.44995.03.2.82007,4.73,3.98-.67993,10.38989-1.78Zm-32.79,2.87988-14.36987,2.46021.84985,4.92993,14.37012-2.46Zm-11.82007,16.19019L813.1163,955.16875l-22.57983-36.03-1.02-.95-70.58008-65.66016-.01-.00976-.01-.01-7.94995-9.79a2.80343,2.80343,0,0,0-4.89014,2.48l6.66016,28.3601v.00977l10.47,44.62012,1.61987,6.87988,4.17994,30.1001,2.64013,19.07007h2.52l-2.64013-19.07007-4.23975-30.55005-1.51025-6.42993-9.42994-40.17993-7.84985-33.42994a.30818.30818,0,0,1,.52979-.29l7.40014,9.11988.01.01,52.06983,64.12988.28027.64014,16.07983,36.98,5.69995,13.09009v.01977l1.13013,2.59009,1.47,3.37012h2.72l1.09009,2.5h29.65991Zm-126.27978,7.48-14.37012,2.46.8501,4.92993,14.36987-2.46Zm0,0-14.37012,2.46.8501,4.92993,14.36987-2.46Zm138.09985-23.67017-14.36987,2.46021.84985,4.92993,14.37012-2.46Zm32.79-2.87988-.46-2.65991-11.75,2.01-2.62012.44995.03.2.82007,4.73,3.98-.67993,10.38989-1.78Zm0,0-.46-2.65991-11.75,2.01-2.62012.44995.03.2.82007,4.73,3.98-.67993,10.38989-1.78Zm-32.79,2.87988-14.36987,2.46021.84985,4.92993,14.37012-2.46Zm-11.82007,16.19019L813.1163,955.16875l-22.57983-36.03-1.02-.95-70.58008-65.66016-.01-.00976-.01-.01-7.94995-9.79a2.80343,2.80343,0,0,0-4.89014,2.48l6.66016,28.3601v.00977l10.47,44.62012,1.61987,6.87988,4.17994,30.1001,2.64013,19.07007h2.52l-2.64013-19.07007-4.23975-30.55005-1.51025-6.42993-9.42994-40.17993-7.84985-33.42994a.30818.30818,0,0,1,.52979-.29l7.40014,9.11988.01.01,52.06983,64.12988.28027.64014,16.07983,36.98,5.69995,13.09009v.01977l1.13013,2.59009,1.47,3.37012h2.72l1.09009,2.5h29.65991Zm-49.34985-153.25-2.34009-2.76-11.85986-1.27-15.11011-1.62012-11.02-18.34985h-5.84009l13.86011,23.05981,22.40991,2.40015,12.25,1.31006Zm-44.07007,158.25H723.7562l-.23975-1.76-6.77,1.15991.09985.6001.75,4.32983,6.61011-1.13989,7.76-1.33008Zm-32.85986,2.48-14.37012,2.46.8501,4.92993,14.36987-2.46Zm-46.07007-184.73h-5.31006l7.17993,19.90991-16.2998,14.71,1.5498,5.32007,20.59009-18.57007Zm46.07007,184.73-14.37012,2.46.8501,4.92993,14.36987-2.46Zm32.85986-2.48-.37011-2.2-.04981-.3-.1001-.56006-3.27.56006-1.76.3-2.57983.43995-6.77,1.15991.09985.6001.75,4.32983,6.61011-1.13989,7.76-1.33008Zm105.24-21.19019-14.36987,2.46021.84985,4.92993,14.37012-2.46Zm32.79-2.87988-.46-2.65991-11.75,2.01-2.62012.44995.03.2.82007,4.73,3.98-.67993,10.38989-1.78Zm0,0-.46-2.65991-11.75,2.01-2.62012.44995.03.2.82007,4.73,3.98-.67993,10.38989-1.78Zm-32.79,2.87988-14.36987,2.46021.84985,4.92993,14.37012-2.46Zm-11.82007,16.19019L813.1163,955.16875l-22.57983-36.03-1.02-.95-70.58008-65.66016-.01-.00976-.01-.01-7.94995-9.79a2.80343,2.80343,0,0,0-4.89014,2.48l6.66016,28.3601v.00977l10.47,44.62012,1.61987,6.87988,4.17994,30.1001,2.64013,19.07007h2.52l-2.64013-19.07007-4.23975-30.55005-1.51025-6.42993-9.42994-40.17993-7.84985-33.42994a.30818.30818,0,0,1,.52979-.29l7.40014,9.11988.01.01,52.06983,64.12988.28027.64014,16.07983,36.98,5.69995,13.09009v.01977l1.13013,2.59009,1.47,3.37012h2.72l1.09009,2.5h29.65991Zm-49.34985-153.25-2.34009-2.76-11.85986-1.27-15.11011-1.62012-11.02-18.34985h-5.84009l13.86011,23.05981,22.40991,2.40015,12.25,1.31006Zm-44.07007,158.25-.37011-2.2-.04981-.3-.1001-.56006-3.27.56006-1.76.3-2.57983.43995-6.77,1.15991.09985.6001.75,4.32983,6.61011-1.13989,7.76-1.33008Zm-32.85986,2.48-14.37012,2.46.8501,4.92993,14.36987-2.46Zm-46.07007-184.73h-5.31006l7.17993,19.90991-16.2998,14.71,1.5498,5.32007,20.59009-18.57007Zm46.07007,184.73-14.37012,2.46.8501,4.92993,14.36987-2.46Zm32.85986-2.48-.37011-2.2-.04981-.3-.1001-.56006-3.27.56006-1.76.3-2.57983.43995-6.77,1.15991.09985.6001.75,4.32983,6.61011-1.13989,7.76-1.33008Zm105.24-21.19019-14.36987,2.46021.84985,4.92993,14.37012-2.46Zm32.79-2.87988-.46-2.65991-11.75,2.01-2.62012.44995.03.2.82007,4.73,3.98-.67993,10.38989-1.78Zm0,0-.46-2.65991-11.75,2.01-2.62012.44995.03.2.82007,4.73,3.98-.67993,10.38989-1.78Zm-32.79,2.87988-14.36987,2.46021.84985,4.92993,14.37012-2.46Zm-11.82007,16.19019L813.1163,955.16875l-22.57983-36.03-1.02-.95-70.58008-65.66016-.01-.00976-.01-.01-7.94995-9.79a2.80343,2.80343,0,0,0-4.89014,2.48l6.66016,28.3601v.00977l10.47,44.62012,1.61987,6.87988,4.17994,30.1001,2.64013,19.07007h2.52l-2.64013-19.07007-4.23975-30.55005-1.51025-6.42993-9.42994-40.17993-7.84985-33.42994a.30818.30818,0,0,1,.52979-.29l7.40014,9.11988.01.01,52.06983,64.12988.28027.64014,16.07983,36.98,5.69995,13.09009v.01977l1.13013,2.59009,1.47,3.37012h2.72l1.09009,2.5h29.65991Zm-49.34985-153.25-2.34009-2.76-11.85986-1.27-15.11011-1.62012-11.02-18.34985h-5.84009l13.86011,23.05981,22.40991,2.40015,12.25,1.31006Zm-44.07007,158.25-.37011-2.2-.04981-.3-.1001-.56006-3.27.56006-1.76.3-2.57983.43995-6.77,1.15991.09985.6001.75,4.32983,6.61011-1.13989,7.76-1.33008Zm-32.85986,2.48-14.37012,2.46.8501,4.92993,14.36987-2.46Zm-46.07007-184.73h-5.31006l7.17993,19.90991-16.2998,14.71,1.5498,5.32007,20.59009-18.57007Zm46.07007,184.73-14.37012,2.46.8501,4.92993,14.36987-2.46Zm32.85986-2.48-.37011-2.2-.04981-.3-.1001-.56006-3.27.56006-1.76.3-2.57983.43995-6.77,1.15991.09985.6001.75,4.32983,6.61011-1.13989,7.76-1.33008Zm105.24-21.19019-14.36987,2.46021.84985,4.92993,14.37012-2.46Zm32.79-2.87988-.46-2.65991-11.75,2.01-2.62012.44995.03.2.82007,4.73,3.98-.67993,10.38989-1.78Zm0,0-.46-2.65991-11.75,2.01-2.62012.44995.03.2.82007,4.73,3.98-.67993,10.38989-1.78Zm-47.15991,5.34009.84985,4.92993,14.37012-2.46-.8501-4.93018Zm-9.40015-5.34009-22.57983-36.03-1.02-.95-70.58008-65.66016-.01-.00976-.01-.01-7.94995-9.79a2.80343,2.80343,0,0,0-4.89014,2.48l6.66016,28.3601v.00977l10.47,44.62012,1.61987,6.87988,4.17994,30.1001,2.64013,19.07007h2.52l-2.64013-19.07007-4.23975-30.55005-1.51025-6.42993-9.42994-40.17993-7.84985-33.42994a.30818.30818,0,0,1,.52979-.29l7.40014,9.11988.01.01,52.06983,64.12988.28027.64014,16.07983,36.98,5.69995,13.09009v.01977l1.13013,2.59009,1.47,3.37012h2.72l1.09009,2.5h29.65991l-1.57007-2.5Zm-47.30005-132.72,12.25,1.31006-2.34985-2.77-2.34009-2.76-11.85986-1.27,2.1499,2.75Zm-34.54,154.59008-.04981-.3-.1001-.56006-3.27.56006-1.76.3-2.57983.43995-6.77,1.15991.09985.6001.75,4.32983,6.61011-1.13989,7.76-1.33008-.32007-1.85986Zm-46.85987,7.1399.8501,4.92993,14.36987-2.46-.84985-4.92993ZM879.09628,967.5789l-5.82006-12.41015-17.35987-36.98-6.78-14.46-69.81006-82.3501h-.01l-.01-.01-2.31982-2.75-18.34009-21.62988-2.12011-2.5H604.58627v.01l.73,2.49,9.64014,32.97.86987,2.99,24.92017,85.24,5.91992,20.24,1.80005,16.74,2.05982,19.07007.27,2.5.03.3.24,2.2,1.12012,10.46.17993,1.63012v.05982l.01.07007v.01l.01.02,1.55005,14.3999.27,2.54a2.94566,2.94566,0,0,0,3.54981,2.67993l19.23022-3.29981,11.24-1.92016,38.31982-6.55982,6.69019-1.15014a4.52025,4.52025,0,0,0,3.57983-4.86011l-1.94995-14.07983-.31006-2.2-.03979-.3-.3501-2.5-2.64013-19.07007-4.23975-30.55005-1.51025-6.42993-9.42994-40.17993-7.84985-33.42994a.30818.30818,0,0,1,.52979-.29l7.40014,9.11988.01.01,52.06983,64.12988.28027.64014,16.07983,36.98,5.69995,13.09009v.01977l1.13013,2.59009,1.47,3.37012,1.08008,2.5.12988.3.96,2.2,2.59009,5.94995a2.49055,2.49055,0,0,0,2.86011,1.40991l28.91992-4.96,14.02-2.3999,12.82983-2.2,1.75-.3,8.88013-1.52,5.71-.98,2.33008-.40015C878.01645,973.35869,880.17636,969.85869,879.09628,967.5789Zm-123.73-170.59008,17.71,20.88989-19.3-10.81006-.00977-.00977-17.99023-10.07006Zm-127.2,0h19.24l7.17993,19.90991-16.2998,14.71ZM876.60629,969.85869a2.883,2.883,0,0,1-1.8,1.52l-8.72,1.49-7.98,1.37012-14.58984,2.5-1.75.3-12.8501,2.2h-.71l-1.38013-2.2-.18994-.3-1.57007-2.5L813.1163,955.16875l-22.57983-36.03-1.02-.95-70.58008-65.66016-.01-.00976-.01-.01-7.94995-9.79a2.80343,2.80343,0,0,0-4.89014,2.48l6.66016,28.3601v.00977l10.47,44.62012,1.61987,6.87988,4.17994,30.1001,2.64013,19.07007.3501,2.5.04.3.30981,2.2,2,14.42993a2.02559,2.02559,0,0,1-1.53,2.04l-6.60986,1.12988h-.01l-49.48,8.49023-2.81006-26.09008-.24-2.2-.03-.3-.27-2.5-2.06006-19.07007-1.8-16.74-5.91993-20.24-23.75-81.26,20.59009-18.57007-7.71-21.36987h76.82983l13.86011,23.05981,22.40991,2.40015,12.25,1.31006,68.9502,81.33984,6.13989,13.09009,17.34986,36.98,6.33007,13.48A1.58465,1.58465,0,0,1,876.60629,969.85869Zm-7.38989-17.34985-11.75,2.01-2.62012.44995.03.2.82007,4.73,3.98-.67993,10.38989-1.78-.38989-2.27Zm-46.7,8,.84985,4.92993,14.37012-2.46-.8501-4.93018ZM717.59628,983.56865l6.61011-1.13989,7.76-1.33008-.32007-1.85986-.37011-2.2-.04981-.3-.1001-.56006-3.27.56006-1.76.3-2.57983.43995-6.77,1.15991.09985.6001Zm-33.17993.61011.8501,4.92993,14.36987-2.46-.84985-4.92993Zm14.37012-2.46-14.37012,2.46.8501,4.92993,14.36987-2.46Zm32.85986-2.48-.37011-2.2-.04981-.3-.1001-.56006-3.27.56006-1.76.3-2.57983.43995-6.77,1.15991.09985.6001.75,4.32983,6.61011-1.13989,7.76-1.33008Zm44.07007-158.25-2.34009-2.76-11.85986-1.27,2.1499,2.75,2.1499,2.74,12.25,1.31006Zm49.34985,153.25L813.1163,955.16875l-22.57983-36.03-1.02-.95-70.58008-65.66016-.01-.00976-.01-.01-7.94995-9.79a2.80343,2.80343,0,0,0-4.89014,2.48l6.66016,28.3601v.00977l10.47,44.62012,1.61987,6.87988,4.17994,30.1001,2.64013,19.07007h2.52l-2.64013-19.07007-4.23975-30.55005-1.51025-6.42993-9.42994-40.17993-7.84985-33.42994a.30818.30818,0,0,1,.52979-.29l7.40014,9.11988.01.01,52.06983,64.12988.28027.64014,16.07983,36.98,5.69995,13.09009v.01977l1.13013,2.59009,1.47,3.37012h2.72l1.09009,2.5h29.65991Zm11.82007-16.19019-14.36987,2.46021.84985,4.92993,14.37012-2.46Zm32.79-2.87988-.46-2.65991-11.75,2.01-2.62012.44995.03.2.82007,4.73,3.98-.67993,10.38989-1.78Zm0,0-.46-2.65991-11.75,2.01-2.62012.44995.03.2.82007,4.73,3.98-.67993,10.38989-1.78Zm-32.79,2.87988-14.36987,2.46021.84985,4.92993,14.37012-2.46Zm-105.24,21.19019-.37011-2.2-.04981-.3-.1001-.56006-3.27.56006-1.76.3-2.57983.43995-6.77,1.15991.09985.6001.75,4.32983,6.61011-1.13989,7.76-1.33008Zm-32.85986,2.48-14.37012,2.46.8501,4.92993,14.36987-2.46Zm-46.07007-184.73h-5.31006l7.17993,19.90991-16.2998,14.71,1.5498,5.32007,20.59009-18.57007Zm46.07007,184.73-14.37012,2.46.8501,4.92993,14.36987-2.46Zm32.85986-2.48-.37011-2.2-.04981-.3-.1001-.56006-3.27.56006-1.76.3-2.57983.43995-6.77,1.15991.09985.6001.75,4.32983,6.61011-1.13989,7.76-1.33008Zm44.07007-158.25-2.34009-2.76-11.85986-1.27-15.11011-1.62012-11.02-18.34985h-5.84009l13.86011,23.05981,22.40991,2.40015,12.25,1.31006Zm49.34985,153.25L813.1163,955.16875l-22.57983-36.03-1.02-.95-70.58008-65.66016-.01-.00976-.01-.01-7.94995-9.79a2.80343,2.80343,0,0,0-4.89014,2.48l6.66016,28.3601v.00977l10.47,44.62012,1.61987,6.87988,4.17994,30.1001,2.64013,19.07007h2.52l-2.64013-19.07007-4.23975-30.55005-1.51025-6.42993-9.42994-40.17993-7.84985-33.42994a.30818.30818,0,0,1,.52979-.29l7.40014,9.11988.01.01,52.06983,64.12988.28027.64014,16.07983,36.98,5.69995,13.09009v.01977l1.13013,2.59009,1.47,3.37012h2.72l1.09009,2.5h29.65991Zm11.82007-16.19019-14.36987,2.46021.84985,4.92993,14.37012-2.46Zm32.79-2.87988-.46-2.65991-11.75,2.01-2.62012.44995.03.2.82007,4.73,3.98-.67993,10.38989-1.78Zm0,0-.46-2.65991-11.75,2.01-2.62012.44995.03.2.82007,4.73,3.98-.67993,10.38989-1.78Zm-32.79,2.87988-14.36987,2.46021.84985,4.92993,14.37012-2.46Zm-105.24,21.19019-.37011-2.2-.04981-.3-.1001-.56006-3.27.56006-1.76.3-2.57983.43995-6.77,1.15991.09985.6001.75,4.32983,6.61011-1.13989,7.76-1.33008Zm-32.85986,2.48-14.37012,2.46.8501,4.92993,14.36987-2.46Zm-46.07007-184.73h-5.31006l7.17993,19.90991-16.2998,14.71,1.5498,5.32007,20.59009-18.57007Zm46.07007,184.73-14.37012,2.46.8501,4.92993,14.36987-2.46Zm32.85986-2.48-.37011-2.2-.04981-.3-.1001-.56006-3.27.56006-1.76.3-2.57983.43995-6.77,1.15991.09985.6001.75,4.32983,6.61011-1.13989,7.76-1.33008Zm44.07007-158.25-2.34009-2.76-11.85986-1.27-15.11011-1.62012-11.02-18.34985h-5.84009l13.86011,23.05981,22.40991,2.40015,12.25,1.31006Zm49.34985,153.25L813.1163,955.16875l-22.57983-36.03-1.02-.95-70.58008-65.66016-.01-.00976-.01-.01-7.94995-9.79a2.80343,2.80343,0,0,0-4.89014,2.48l6.66016,28.3601v.00977l10.47,44.62012,1.61987,6.87988,4.17994,30.1001,2.64013,19.07007h2.52l-2.64013-19.07007-4.23975-30.55005-1.51025-6.42993-9.42994-40.17993-7.84985-33.42994a.30818.30818,0,0,1,.52979-.29l7.40014,9.11988.01.01,52.06983,64.12988.28027.64014,16.07983,36.98,5.69995,13.09009v.01977l1.13013,2.59009,1.47,3.37012h2.72l1.09009,2.5h29.65991Zm11.82007-16.19019-14.36987,2.46021.84985,4.92993,14.37012-2.46Zm32.79-2.87988-.46-2.65991-11.75,2.01-2.62012.44995.03.2.82007,4.73,3.98-.67993,10.38989-1.78Zm0,0-.46-2.65991-11.75,2.01-2.62012.44995.03.2.82007,4.73,3.98-.67993,10.38989-1.78Zm-32.79,2.87988-14.36987,2.46021.84985,4.92993,14.37012-2.46Zm-105.24,21.19019-.37011-2.2-.04981-.3-.1001-.56006-3.27.56006-1.76.3-2.57983.43995-6.77,1.15991.09985.6001.75,4.32983,6.61011-1.13989,7.76-1.33008Zm-32.85986,2.48-14.37012,2.46.8501,4.92993,14.36987-2.46Zm-46.07007-184.73h-5.31006l7.17993,19.90991-16.2998,14.71,1.5498,5.32007,20.59009-18.57007Zm46.07007,184.73-14.37012,2.46.8501,4.92993,14.36987-2.46Zm32.85986-2.48H723.7562l-.23975-1.76-6.77,1.15991.09985.6001.75,4.32983,6.61011-1.13989,7.76-1.33008Zm93.41992-5L813.1163,955.16875l-22.57983-36.03-1.02-.95-70.58008-65.66016-.01-.00976-.01-.01-7.94995-9.79a2.80343,2.80343,0,0,0-4.89014,2.48l6.66016,28.3601v.00977l10.47,44.62012,1.61987,6.87988,4.17994,30.1001,2.64013,19.07007h2.52l-2.64013-19.07007-4.23975-30.55005-1.51025-6.42993-9.42994-40.17993-7.84985-33.42994a.30818.30818,0,0,1,.52979-.29l7.40014,9.11988.01.01,52.06983,64.12988.28027.64014,16.07983,36.98,5.69995,13.09009v.01977l1.13013,2.59009,1.47,3.37012h2.72l1.09009,2.5h29.65991Zm11.82007-16.19019-14.36987,2.46021.84985,4.92993,14.37012-2.46Zm32.79-2.87988-.46-2.65991-11.75,2.01-2.62012.44995.03.2.82007,4.73,3.98-.67993,10.38989-1.78Zm0,0-.46-2.65991-11.75,2.01-2.62012.44995.03.2.82007,4.73,3.98-.67993,10.38989-1.78Zm-32.79,2.87988-14.36987,2.46021.84985,4.92993,14.37012-2.46ZM698.78647,981.7188l-14.37012,2.46.8501,4.92993,14.36987-2.46Zm126.27978-7.48L813.1163,955.16875l-22.57983-36.03-1.02-.95-70.58008-65.66016-.01-.00976-.01-.01-7.94995-9.79a2.80343,2.80343,0,0,0-4.89014,2.48l6.66016,28.3601v.00977l10.47,44.62012,1.61987,6.87988,4.17994,30.1001,2.64013,19.07007h2.52l-2.64013-19.07007-4.23975-30.55005-1.51025-6.42993-9.42994-40.17993-7.84985-33.42994a.30818.30818,0,0,1,.52979-.29l7.40014,9.11988.01.01,52.06983,64.12988.28027.64014,16.07983,36.98,5.69995,13.09009v.01977l1.13013,2.59009,1.47,3.37012h2.72l1.09009,2.5h29.65991Zm11.82007-16.19019-14.36987,2.46021.84985,4.92993,14.37012-2.46Zm32.79-2.87988-.46-2.65991-11.75,2.01-2.62012.44995.03.2.82007,4.73,3.98-.67993,10.38989-1.78Zm0,0-.46-2.65991-11.75,2.01-2.62012.44995.03.2.82007,4.73,3.98-.67993,10.38989-1.78Zm-32.79,2.87988-14.36987,2.46021.84985,4.92993,14.37012-2.46Zm-117.94995-105.52-.01-.00976-.01-.01-7.94995-9.79a2.80343,2.80343,0,0,0-4.89014,2.48l6.66016,28.3601v.00977l10.47,44.62012,1.61987,6.87988,4.17994,30.1001,2.64013,19.07007h2.52l-2.64013-19.07007-4.23975-30.55005-1.51025-6.42993-9.42994-40.17993-7.84985-33.42994a.30818.30818,0,0,1,.52979-.29l7.40014,9.11988.01.01,52.06983,64.12988.28027.64014h20.73Zm117.94995,105.52-14.36987,2.46021.84985,4.92993,14.37012-2.46Zm0,0-14.36987,2.46021.84985,4.92993,14.37012-2.46Zm-105.3601-2.87988-4.23975-30.55005-1.51025-6.42993-9.42994-40.17993-3.60986-4.44019,10.47,44.62012,1.61987,6.87988,4.17994,30.1001,2.64013,19.07007h2.52Zm0,0-4.23975-30.55005-1.51025-6.42993-9.42994-40.17993-3.60986-4.44019,10.47,44.62012,1.61987,6.87988,4.17994,30.1001,2.64013,19.07007h2.52Z"/><g class="cls-5"><path class="cls-4" d="M829.70639,981.63872l-28.91992,4.96a2.49055,2.49055,0,0,1-2.86011-1.40991l-2.59009-5.94995-.96-2.2-.12988-.3-1.08008-2.5-1.47-3.37012-1.13013-2.59009v-.01977l-5.69995-13.09009-16.09008-36.98-.27979-.64014-52.05005-64.09985-.01-.03-.01-.01-1.55005-3.81006a.31681.31681,0,0,1,.49-.38989l3.55,3.3.01.01.01.00976,70.58008,65.66016,1.02.95,22.57983,36.03,11.94995,19.07007,1.57007,2.5.18994.3,1.38013,2.2.06983.10986Z"/></g><g class="cls-5"><path class="cls-4" d="M676.98642,1007.80888l-19.23022,3.29981a2.94566,2.94566,0,0,1-3.54981-2.67993l-.27-2.54-1.56006-14.41992v-.01l-.01-.07007v-.05982l-.01-.01025-.16992-1.61987-1.13013-10.46-.24-2.2-.02978-.3-.27-2.5-2.05-19.07007-1.81006-16.74-5.90991-20.24h-.01l-24.91016-85.24-.86987-2.99-9.64014-32.97-.73-2.49v-.01h22.8501v.01l.73,2.49,10.12012,34.61987,1.5498,5.32007,23.75,81.26,5.91993,20.24,1.8,16.74,2.06006,19.07007.27,2.5.03.3.24,2.2,2.81006,26.09008.05982.55982Z"/></g><g class="cls-5"><polygon class="cls-4" points="779.316 821.379 775.716 820.989 763.666 819.709 744.906 817.699 732.456 796.989 730.966 794.499 730.956 794.489 730.776 794.189 731.316 794.489 731.326 794.499 735.186 796.659 735.776 796.989 753.766 807.059 753.776 807.069 773.076 817.879 773.786 818.279 773.796 818.279 779.306 821.369 779.316 821.379"/></g><polygon points="660.426 818.359 639.836 836.929 639.316 837.399 618.586 833.479 618.586 833.469 615.826 832.949 614.436 832.689 614.956 829.959 615.366 827.779 617.006 828.089 637.816 832.029 638.286 831.609 654.586 816.899 647.406 796.989 646.806 795.339 649.146 794.499 649.176 794.489 651.516 793.649 651.816 794.489 651.826 794.499 652.716 796.989 660.426 818.359"/><polygon points="779.586 818.899 779.326 821.379 779.056 823.869 778.066 823.759 765.816 822.449 743.406 820.049 729.546 796.989 728.636 795.479 730.266 794.499 730.286 794.489 730.776 794.189 732.926 792.899 733.886 794.489 733.886 794.499 735.186 796.659 735.386 796.989 746.406 815.339 761.516 816.959 773.376 818.229 773.786 818.279 773.796 818.279 776.986 818.619 779.586 818.899"/><path d="M794.22641,970.42876l-2.05-4.72-4.59009-10.54-16.08007-36.98-.84986-1.94995-51.72-63.71021-.01-.00976-.01-.01-7.94995-9.79a2.80343,2.80343,0,0,0-4.89014,2.48l6.66016,28.3601v.00977l10.47,44.62012,1.61987,6.87988,4.17994,30.1001h2.52l-4.23975-30.55005-1.51025-6.42993h2.56005l-8.37988-35.73-6.84009-29.16016,52.68994,64.89014.54.66992,15.80005,36.31006h2.72l5.69995,13.09009v.01977l1.13013,2.59009,1.47,3.37012h2.72Zm0,0-2.05-4.72-4.59009-10.54-16.08007-36.98-.84986-1.94995-51.72-63.71021-.01-.00976-.01-.01-7.94995-9.79a2.80343,2.80343,0,0,0-4.89014,2.48l6.66016,28.3601v.00977l10.47,44.62012,1.61987,6.87988,4.17994,30.1001,2.64013,19.07007h2.52l-2.64013-19.07007-4.23975-30.55005-1.51025-6.42993h2.56005l-8.37988-35.73-6.84009-29.16016,52.68994,64.89014.54.66992,15.80005,36.31006h2.72l5.69995,13.09009v.01977l1.13013,2.59009,1.47,3.37012h2.72Zm0,0-2.05-4.72-4.59009-10.54-16.08007-36.98-.84986-1.94995-51.72-63.71021-.01-.00976-.01-.01-7.94995-9.79a2.80343,2.80343,0,0,0-4.89014,2.48l6.66016,28.3601v.00977l10.47,44.62012,1.61987,6.87988,4.17994,30.1001,2.64013,19.07007h2.52l-2.64013-19.07007-4.23975-30.55005-1.51025-6.42993h2.56005l-8.37988-35.73-6.84009-29.16016,52.68994,64.89014.54.66992,15.80005,36.31006h2.72l5.69995,13.09009v.01977l1.13013,2.59009,1.47,3.37012h2.72Zm0,0-2.05-4.72-4.59009-10.54-16.08007-36.98-.84986-1.94995-51.72-63.71021-.01-.00976-.01-.01-7.94995-9.79a2.80343,2.80343,0,0,0-4.89014,2.48l6.66016,28.3601v.00977l10.47,44.62012,1.61987,6.87988,4.17994,30.1001,2.64013,19.07007h2.52l-2.64013-19.07007-4.23975-30.55005-1.51025-6.42993h2.56005l-8.37988-35.73-6.84009-29.16016,52.68994,64.89014.54.66992,15.80005,36.31006h2.72l5.69995,13.09009v.01977l1.13013,2.59009,1.47,3.37012h2.72Zm0,0-2.05-4.72-4.59009-10.54-16.08007-36.98-.84986-1.94995-51.72-63.71021-.01-.00976-.01-.01-7.94995-9.79a2.80343,2.80343,0,0,0-4.89014,2.48l6.66016,28.3601v.00977l10.47,44.62012,1.61987,6.87988,4.17994,30.1001,2.64013,19.07007h2.52l-2.64013-19.07007-4.23975-30.55005-1.51025-6.42993h2.56005l-8.37988-35.73-6.84009-29.16016,52.68994,64.89014.54.66992,15.80005,36.31006h2.72l5.69995,13.09009v.01977l1.13013,2.59009,1.47,3.37012h2.72Zm0,0-2.05-4.72-4.59009-10.54-16.08007-36.98-.84986-1.94995-51.72-63.71021-.01-.00976-.01-.01-7.94995-9.79a2.80343,2.80343,0,0,0-4.89014,2.48l6.66016,28.3601v.00977l10.47,44.62012,1.61987,6.87988,4.17994,30.1001,2.64013,19.07007h2.52l-2.64013-19.07007-4.23975-30.55005-1.51025-6.42993h2.56005l-8.37988-35.73-6.84009-29.16016,52.68994,64.89014.54.66992,15.80005,36.31006h2.72l5.69995,13.09009v.01977l1.13013,2.59009,1.47,3.37012h2.72Zm0,0-2.05-4.72-4.59009-10.54-16.08007-36.98-.84986-1.94995-51.72-63.71021-.01-.00976-.01-.01-7.94995-9.79a2.80343,2.80343,0,0,0-4.89014,2.48l6.66016,28.3601v.00977l10.47,44.62012,1.61987,6.87988,4.17994,30.1001,2.64013,19.07007h2.52l-2.64013-19.07007-4.23975-30.55005-1.51025-6.42993h2.56005l-8.37988-35.73-6.84009-29.16016,52.68994,64.89014.54.66992,15.80005,36.31006h2.72l5.69995,13.09009v.01977l1.13013,2.59009,1.47,3.37012h2.72Zm0,0-2.05-4.72-4.59009-10.54-16.08007-36.98-.84986-1.94995-51.72-63.71021-.01-.00976-.01-.01-7.94995-9.79a2.80343,2.80343,0,0,0-4.89014,2.48l6.66016,28.3601v.00977l10.47,44.62012,1.61987,6.87988,4.17994,30.1001,2.64013,19.07007h2.52l-2.64013-19.07007-4.23975-30.55005-1.51025-6.42993h2.56005l-8.37988-35.73-6.84009-29.16016,52.68994,64.89014.54.66992,15.80005,36.31006h2.72l5.69995,13.09009v.01977l1.13013,2.59009,1.47,3.37012h2.72Zm0,0-2.05-4.72-4.59009-10.54-16.08007-36.98-.84986-1.94995-51.72-63.71021-.01-.00976-.01-.01-7.94995-9.79a2.80343,2.80343,0,0,0-4.89014,2.48l6.66016,28.3601v.00977l10.47,44.62012,1.61987,6.87988,4.17994,30.1001,2.64013,19.07007h2.52l-2.64013-19.07007-4.23975-30.55005-1.51025-6.42993h2.56005l-8.37988-35.73-6.84009-29.16016,52.68994,64.89014.54.66992,15.80005,36.31006h2.72l5.69995,13.09009v.01977l1.13013,2.59009,1.47,3.37012h2.72Zm0,0-2.05-4.72-4.59009-10.54-16.08007-36.98-.84986-1.94995-51.72-63.71021-.01-.00976-.01-.01-7.94995-9.79a2.80343,2.80343,0,0,0-4.89014,2.48l6.66016,28.3601v.00977l10.47,44.62012,1.61987,6.87988,4.17994,30.1001,2.64013,19.07007h2.52l-2.64013-19.07007-4.23975-30.55005-1.51025-6.42993h2.56005l-8.37988-35.73-6.84009-29.16016,52.68994,64.89014.54.66992,15.80005,36.31006h2.72l5.69995,13.09009v.01977l1.13013,2.59009,1.47,3.37012h2.72Zm0,0-2.05-4.72-4.59009-10.54-16.08007-36.98-.84986-1.94995-51.72-63.71021-.01-.00976-.01-.01-7.94995-9.79a2.80343,2.80343,0,0,0-4.89014,2.48l6.66016,28.3601v.00977l10.47,44.62012,1.61987,6.87988,4.17994,30.1001,2.64013,19.07007h2.52l-2.64013-19.07007-4.23975-30.55005-1.51025-6.42993h2.56005l-8.37988-35.73-6.84009-29.16016,52.68994,64.89014.54.66992,15.80005,36.31006h2.72l5.69995,13.09009v.01977l1.13013,2.59009,1.47,3.37012h2.72Zm0,0-2.05-4.72-4.59009-10.54-16.08007-36.98-.84986-1.94995-51.72-63.71021-.01-.00976-.01-.01-7.94995-9.79a2.80343,2.80343,0,0,0-4.89014,2.48l6.66016,28.3601v.00977l10.47,44.62012,1.61987,6.87988,4.17994,30.1001,2.64013,19.07007h2.52l-2.64013-19.07007-4.23975-30.55005-1.51025-6.42993h2.56005l-8.37988-35.73-6.84009-29.16016,52.68994,64.89014.54.66992,15.80005,36.31006h2.72l5.69995,13.09009v.01977l1.13013,2.59009,1.47,3.37012h2.72Zm0,0-2.05-4.72-4.59009-10.54-16.08007-36.98-.84986-1.94995-51.72-63.71021-.01-.00976-.01-.01-7.94995-9.79a2.80343,2.80343,0,0,0-4.89014,2.48l6.66016,28.3601v.00977l10.47,44.62012,1.61987,6.87988,4.17994,30.1001,2.64013,19.07007h2.52l-2.64013-19.07007-4.23975-30.55005-1.51025-6.42993h2.56005l-8.37988-35.73-6.84009-29.16016,52.68994,64.89014.54.66992,15.80005,36.31006h2.72l5.69995,13.09009v.01977l1.13013,2.59009,1.47,3.37012h2.72Zm87.12988-3.90991-5.33007-11.3501-17.34986-36.98-7.28-15.52-.14013-.30005L761.91635,796.98882l-2.12012-2.5-1.35986-1.61011-.75-.88989H601.24643l.73,2.5v.01l.73,2.49,35.42993,121.19995,6.06006,20.73,1.75,16.25,2.05982,19.07007.27,2.5.03.3.24,2.2,2.88013,26.6499.3,2.8a5.50534,5.50534,0,0,0,2.12988,3.87988,5.4247,5.4247,0,0,0,3.30005,1.09009,7.03607,7.03607,0,0,0,1.02-.07984l44.86011-7.69018,23.84985-4.09009,6.77-1.15991a7.05178,7.05178,0,0,0,5.63989-7.65991l-1.90991-13.74-.3-2.2-.04-.3-.34985-2.5-2.64014-19.07007-4.28979-30.8999-1.43018-6.08008-8.37988-35.73-6.84009-29.16016,52.68994,64.89014.54.66992,15.80005,36.31006,8.3,19.07007,1.07984,2.5.13012.3.96,2.2,3.02,6.93994a4.99068,4.99068,0,0,0,5.58008,2.88012l57.32983-9.82006,9.74024-1.67017,3.09985-.52979,1.75-.3,2.51-.42994a7.33277,7.33277,0,0,0,3.87012-2.07006,8.75077,8.75077,0,0,0,1.52978-2.07007A6.36974,6.36974,0,0,0,881.35629,966.51885Zm-15.27,6.34985-7.98,1.37012-14.58984,2.5-1.75.3-12.8501,2.2-.64013.10986-27.90992,4.78a.58747.58747,0,0,1-.16992.02l-2.14014-4.90991-.95-2.2-.12988-.3-1.09009-2.5-1.65991-3.81006-2.05-4.72-4.59009-10.54-16.08007-36.98-.84986-1.94995-51.72-63.71021-.01-.00976-.01-.01-7.94995-9.79a2.80343,2.80343,0,0,0-4.89014,2.48l6.66016,28.3601v.00977l10.47,44.62012,1.61987,6.87988,4.17994,30.1001,2.64013,19.07007.3501,2.5.04.3.30981,2.2,2,14.42993a2.02559,2.02559,0,0,1-1.53,2.04l-6.60986,1.12988h-.01l-49.48,8.49023-3.28.55982-16.1001,2.76a.47422.47422,0,0,1-.63989-.49l-.24-2.27-1.26-11.62988-.54-4.98023-1.08008-10.03979-.24-2.2-.03-.3-.26977-2.5-2.06006-19.07007-1.83008-17-.02-.22-5.78-19.76-24.76-84.71v-.01l-1.58007-5.38013-9.08985-31.09985h147.45l17.71,20.88989.3.3501,2.34009,2.76,2.34985,2.77,68.9502,81.33984,6.13989,13.09009,17.34986,36.98,6.33007,13.48a1.58465,1.58465,0,0,1-.23,1.21,2.883,2.883,0,0,1-1.8,1.52Zm-71.85986-2.43994-2.05-4.72-4.59009-10.54-16.08007-36.98-.84986-1.94995-51.72-63.71021-.01-.00976-.01-.01-7.94995-9.79a2.80343,2.80343,0,0,0-4.89014,2.48l6.66016,28.3601v.00977l10.47,44.62012,1.61987,6.87988,4.17994,30.1001,2.64013,19.07007h2.52l-2.64013-19.07007-4.23975-30.55005-1.51025-6.42993h2.56005l-8.37988-35.73-6.84009-29.16016,52.68994,64.89014.54.66992,15.80005,36.31006h2.72l5.69995,13.09009v.01977l1.13013,2.59009,1.47,3.37012h2.72Zm0,0-2.05-4.72-4.59009-10.54-16.08007-36.98-.84986-1.94995-51.72-63.71021-.01-.00976-.01-.01-7.94995-9.79a2.80343,2.80343,0,0,0-4.89014,2.48l6.66016,28.3601v.00977l10.47,44.62012,1.61987,6.87988,4.17994,30.1001,2.64013,19.07007h2.52l-2.64013-19.07007-4.23975-30.55005-1.51025-6.42993h2.56005l-8.37988-35.73-6.84009-29.16016,52.68994,64.89014.54.66992,15.80005,36.31006h2.72l5.69995,13.09009v.01977l1.13013,2.59009,1.47,3.37012h2.72Zm0,0-2.05-4.72-4.59009-10.54-16.08007-36.98-.84986-1.94995-51.72-63.71021-.01-.00976-.01-.01-7.94995-9.79a2.80343,2.80343,0,0,0-4.89014,2.48l6.66016,28.3601v.00977l10.47,44.62012,1.61987,6.87988,4.17994,30.1001,2.64013,19.07007h2.52l-2.64013-19.07007-4.23975-30.55005-1.51025-6.42993h2.56005l-8.37988-35.73-6.84009-29.16016,52.68994,64.89014.54.66992,15.80005,36.31006h2.72l5.69995,13.09009v.01977l1.13013,2.59009,1.47,3.37012h2.72Zm0,0-2.05-4.72-4.59009-10.54-16.08007-36.98-.84986-1.94995-51.72-63.71021-.01-.00976-.01-.01-7.94995-9.79a2.80343,2.80343,0,0,0-4.89014,2.48l6.66016,28.3601v.00977l10.47,44.62012,1.61987,6.87988,4.17994,30.1001,2.64013,19.07007h2.52l-2.64013-19.07007-4.23975-30.55005-1.51025-6.42993h2.56005l-8.37988-35.73-6.84009-29.16016,52.68994,64.89014.54.66992,15.80005,36.31006h2.72l5.69995,13.09009v.01977l1.13013,2.59009,1.47,3.37012h2.72Zm0,0-2.05-4.72-4.59009-10.54-16.08007-36.98-.84986-1.94995-51.72-63.71021-.01-.00976-.01-.01-7.94995-9.79a2.80343,2.80343,0,0,0-4.89014,2.48l6.66016,28.3601v.00977l10.47,44.62012,1.61987,6.87988,4.17994,30.1001,2.64013,19.07007h2.52l-2.64013-19.07007-4.23975-30.55005-1.51025-6.42993h2.56005l-8.37988-35.73-6.84009-29.16016,52.68994,64.89014.54.66992,15.80005,36.31006h2.72l5.69995,13.09009v.01977l1.13013,2.59009,1.47,3.37012h2.72Zm0,0-2.05-4.72-4.59009-10.54-16.08007-36.98-.84986-1.94995-51.72-63.71021-.01-.00976-.01-.01-7.94995-9.79a2.80343,2.80343,0,0,0-4.89014,2.48l6.66016,28.3601v.00977l10.47,44.62012,1.61987,6.87988,4.17994,30.1001,2.64013,19.07007h2.52l-2.64013-19.07007-4.23975-30.55005-1.51025-6.42993h2.56005l-8.37988-35.73-6.84009-29.16016,52.68994,64.89014.54.66992,15.80005,36.31006h2.72l5.69995,13.09009v.01977l1.13013,2.59009,1.47,3.37012h2.72Zm0,0-2.05-4.72-4.59009-10.54-16.08007-36.98-.84986-1.94995-51.72-63.71021-.01-.00976-.01-.01-7.94995-9.79a2.80343,2.80343,0,0,0-4.89014,2.48l6.66016,28.3601v.00977l10.47,44.62012,1.61987,6.87988,4.17994,30.1001,2.64013,19.07007h2.52l-2.64013-19.07007-4.23975-30.55005-1.51025-6.42993h2.56005l-8.37988-35.73-6.84009-29.16016,52.68994,64.89014.54.66992,15.80005,36.31006h2.72l5.69995,13.09009v.01977l1.13013,2.59009,1.47,3.37012h2.72Zm0,0-2.05-4.72-4.59009-10.54-16.08007-36.98-.84986-1.94995-51.72-63.71021-.01-.00976-.01-.01-7.94995-9.79a2.80343,2.80343,0,0,0-4.89014,2.48l6.66016,28.3601v.00977l10.47,44.62012,1.61987,6.87988,4.17994,30.1001,2.64013,19.07007h2.52l-2.64013-19.07007-4.23975-30.55005-1.51025-6.42993h2.56005l-8.37988-35.73-6.84009-29.16016,52.68994,64.89014.54.66992,15.80005,36.31006h2.72l5.69995,13.09009v.01977l1.13013,2.59009,1.47,3.37012h2.72Zm0,0-2.05-4.72-4.59009-10.54-16.08007-36.98-.84986-1.94995-51.72-63.71021-.01-.00976-.01-.01-7.94995-9.79a2.80343,2.80343,0,0,0-4.89014,2.48l6.66016,28.3601v.00977l10.47,44.62012,1.61987,6.87988,4.17994,30.1001,2.64013,19.07007h2.52l-2.64013-19.07007-4.23975-30.55005-1.51025-6.42993h2.56005l-8.37988-35.73-6.84009-29.16016,52.68994,64.89014.54.66992,15.80005,36.31006h2.72l5.69995,13.09009v.01977l1.13013,2.59009,1.47,3.37012h2.72Zm0,0-2.05-4.72-4.59009-10.54-16.08007-36.98-.84986-1.94995-51.72-63.71021-.01-.00976-.01-.01-7.94995-9.79a2.80343,2.80343,0,0,0-4.89014,2.48l6.66016,28.3601v.00977l10.47,44.62012,1.61987,6.87988,4.17994,30.1001,2.64013,19.07007h2.52l-2.64013-19.07007-4.23975-30.55005-1.51025-6.42993h2.56005l-8.37988-35.73-6.84009-29.16016,52.68994,64.89014.54.66992,15.80005,36.31006h2.72l5.69995,13.09009v.01977l1.13013,2.59009,1.47,3.37012h2.72Zm0,0-2.05-4.72-4.59009-10.54-16.08007-36.98-.84986-1.94995-51.72-63.71021-.01-.00976-.01-.01-7.94995-9.79a2.80343,2.80343,0,0,0-4.89014,2.48l6.66016,28.3601v.00977l10.47,44.62012,1.61987,6.87988,4.17994,30.1001,2.64013,19.07007h2.52l-2.64013-19.07007-4.23975-30.55005-1.51025-6.42993h2.56005l-8.37988-35.73-6.84009-29.16016,52.68994,64.89014.54.66992,15.80005,36.31006h2.72l5.69995,13.09009v.01977l1.13013,2.59009,1.47,3.37012h2.72Zm0,0-2.05-4.72-4.59009-10.54-16.08007-36.98-.84986-1.94995-51.72-63.71021-.01-.00976-.01-.01-7.94995-9.79a2.80343,2.80343,0,0,0-4.89014,2.48l6.66016,28.3601v.00977l10.47,44.62012,1.61987,6.87988,4.17994,30.1001,2.64013,19.07007h2.52l-2.64013-19.07007-4.23975-30.55005-1.51025-6.42993h2.56005l-8.37988-35.73-6.84009-29.16016,52.68994,64.89014.54.66992,15.80005,36.31006h2.72l5.69995,13.09009v.01977l1.13013,2.59009,1.47,3.37012h2.72Z"/><path d="M666.45639,987.25884l-11.80005,2.01977-2.47.42017-.1001.02.27,1.59985.01.01025v.05982l.01.07007v.01l.01.02.54,3.15991,2.27-.38989,12.09985-2.07007Zm32.33008-5.54-14.37012,2.46.8501,4.92993,14.36987-2.46Zm32.85986-2.48-.37011-2.2-.04981-.3-.1001-.56006-3.27.56006-1.76.3-2.57983.43995-6.77,1.15991.09985.6001.75,4.32983,6.61011-1.13989,7.76-1.33008Z"/><path d="M804.55624,963.58867l-12.37988,2.12012-1.99.33984.37988,2.21021v.01977l.46,2.7002.67016-.11011,2.53-.43994,11.16992-1.90991Zm32.33008-5.54-14.36987,2.46021.84985,4.92993,14.37012-2.46Zm32.79-2.87988-.46-2.65991-11.75,2.01-2.62012.44995.03.2.82007,4.73,3.98-.67993,10.38989-1.78Z"/><g class="cls-7"><path class="cls-4" d="M534.6163,792.25884l-59.79.46-3.48.02-3.02.03-48.66992.36987s.49-.41992,1.40991-1.1499c5.2002-4.13013,24.1001-18.04,44.79-20.08008l.99-.09009a42.139,42.139,0,0,1,4.39014-.10986c13.45.31982,30.67993,6.19995,43.78,11.58007,9.65991,3.98,17.07983,7.67994,19.06982,8.7C534.43637,792.15874,534.6163,792.25884,534.6163,792.25884Z"/></g><path d="M966.9664,976.43877l-1.56006.18994-.91992.11011-2.48022.3-.0398-.3-.30005-2.5-2.28-19.07007-4.43994-36.98-8.39014-69.89014a58.28377,58.28377,0,0,0-57.82983-51.30981H311.27622a58.28377,58.28377,0,0,0-57.82984,51.30981l-8.39014,69.89014-4.43994,36.98-2.28,19.07007-.2998,2.5-.04.3-2.48-.3h-.01025l-1.21973-.15015-1.26025-.1499.26025-2.19995,15.18994-126.53a63.30308,63.30308,0,0,1,55.31006-55.28c1.68994-.2,3.38989-.33008,5.11987-.3899.79-.04,1.58008-.05,2.36988-.05H888.72641a64.87088,64.87088,0,0,1,7.13989.3999,63.30082,63.30082,0,0,1,55.65992,55.32007l15.18017,126.53Z"/></g></svg>