<svg xmlns="http://www.w3.org/2000/svg" viewBox="0 0 1200 1200"><g id="artwork"><path d="M1100,1115.00006H350.41018a15.00012,15.00012,0,0,1-15-15V403.9527a68.62,68.62,0,0,1,68.542-68.54248H1046.458A68.62,68.62,0,0,1,1115,403.9527v696.04736A15.00012,15.00012,0,0,1,1100,1115.00006Zm-734.58984-30H1085V403.9527a38.586,38.586,0,0,0-38.542-38.54248H403.95217a38.586,38.586,0,0,0-38.542,38.54248Z"/><path d="M514.38283,742.21686a85.37052,85.37052,0,0,1-85.27343-85.27344V512.37116a85.27393,85.27393,0,1,1,170.54785,0V656.94342A85.37074,85.37074,0,0,1,514.38283,742.21686Zm0-285.12012a55.33668,55.33668,0,0,0-55.27343,55.27442V656.94342a55.27393,55.27393,0,0,0,110.54785,0V512.37116A55.33689,55.33689,0,0,0,514.38283,457.09674Z"/><circle cx="514.3831" cy="508.36407" r="17.62634"/><path d="M514.38283,622.21105a37.554,37.554,0,1,1,37.55421-37.5538A37.59666,37.59666,0,0,1,514.38283,622.21105Zm0-49.7198a12.1658,12.1658,0,1,0,12.166,12.166A12.18,12.18,0,0,0,514.38283,572.49125Z"/><circle cx="514.3831" cy="660.95019" r="17.62634"/><path d="M261.55959,291.77057a14.9513,14.9513,0,0,1-10.60644-4.39355l-80.09668-80.09668a14.99978,14.99978,0,0,1,21.21289-21.21289L272.166,266.16413a15,15,0,0,1-10.60645,25.60644Z"/><path d="M206.40334,387.3238a15.00248,15.00248,0,0,1-3.8916-.51514L93.09768,357.49128a14.99977,14.99977,0,1,1,7.76367-28.97754l109.41406,29.31738a15.00211,15.00211,0,0,1-3.87207,29.49268Z"/><path d="M96.96975,526.97223a15.0021,15.0021,0,0,1-3.87207-29.49267l109.41406-29.31739a14.99977,14.99977,0,1,1,7.76367,28.97754L100.86135,526.4571A15.00791,15.00791,0,0,1,96.96975,526.97223Z"/><path d="M467.44924,236.609a15.01442,15.01442,0,0,1-14.499-18.88623L482.2676,108.30915a15.00037,15.00037,0,0,1,28.97852,7.76465L481.92873,225.48737A15.008,15.008,0,0,1,467.44924,236.609Z"/><path d="M357.09865,236.609a15.00664,15.00664,0,0,1-14.47949-11.12158L313.30178,116.0738a15.00037,15.00037,0,0,1,28.97852-7.76465l29.31738,109.41357a15.01442,15.01442,0,0,1-14.499,18.88623Z"/></g></svg>