<svg xmlns="http://www.w3.org/2000/svg" viewBox="0 0 1200 1200"><g id="artwork"><path d="M200.419,802.75127a14.99872,14.99872,0,0,1-11.48926-5.35644L88.51076,677.75274a15,15,0,1,1,22.97852-19.28711L200.419,764.41924l88.92968-105.95361a15,15,0,1,1,22.97852,19.28711L211.90823,797.39483A14.99873,14.99873,0,0,1,200.419,802.75127Z"/><path d="M300.84573,543.37139a14.96478,14.96478,0,0,1-11.49708-5.35693L200.419,432.06084,111.48928,538.01446a15,15,0,0,1-22.97852-19.28711l100.419-119.64209a15.00011,15.00011,0,0,1,22.97852,0L312.32717,518.72735a15.00055,15.00055,0,0,1-11.48144,24.644Z"/><path d="M200.419,802.75127a15.00012,15.00012,0,0,1-15-15V408.72881a15,15,0,0,1,30,0V787.75127A15.00012,15.00012,0,0,1,200.419,802.75127Z"/><path d="M1050,314.99981H250a65.07369,65.07369,0,0,1-65-65V150.00127a65.07369,65.07369,0,0,1,65-65h800a65.07369,65.07369,0,0,1,65,65v99.99854A65.07369,65.07369,0,0,1,1050,314.99981ZM250,115.00127a35.03963,35.03963,0,0,0-35,35v99.99854a35.03963,35.03963,0,0,0,35,35h800a35.03963,35.03963,0,0,0,35-35V150.00127a35.03963,35.03963,0,0,0-35-35Z"/><path d="M1050,814.99981H450a65.07369,65.07369,0,0,1-65-65v-300a65.07369,65.07369,0,0,1,65-65h600a65.07369,65.07369,0,0,1,65,65v300A65.07369,65.07369,0,0,1,1050,814.99981Zm-600-400a35.03963,35.03963,0,0,0-35,35v300a35.03963,35.03963,0,0,0,35,35h600a35.03963,35.03963,0,0,0,35-35v-300a35.03963,35.03963,0,0,0-35-35Z"/><path d="M1050,1114.99932H250a65.07369,65.07369,0,0,1-65-65V950.00078a65.07369,65.07369,0,0,1,65-65h800a65.07369,65.07369,0,0,1,65,65v99.99854A65.07369,65.07369,0,0,1,1050,1114.99932ZM250,915.00078a35.03963,35.03963,0,0,0-35,35v99.99854a35.03963,35.03963,0,0,0,35,35h800a35.03963,35.03963,0,0,0,35-35V950.00078a35.03963,35.03963,0,0,0-35-35Z"/><path d="M876.99905,214.99981H300a15,15,0,0,1,0-30h576.999a15,15,0,0,1,0,30Z"/><path d="M813.26662,1015.00127H300a15,15,0,1,1,0-30h513.2666a15,15,0,1,1,0,30Z"/><path d="M1000,514.99981H500a15,15,0,1,1,0-30h500a15,15,0,0,1,0,30Z"/><path d="M876.99905,615.0003H500a15,15,0,0,1,0-30h376.999a15,15,0,0,1,0,30Z"/><path d="M750,715.00078H500a15,15,0,0,1,0-30H750a15,15,0,0,1,0,30Z"/></g></svg>