<svg xmlns="http://www.w3.org/2000/svg" viewBox="0 0 1200 1200"><g id="artwork"><path d="M349.99863,1015.00127a14.9997,14.9997,0,0,1-14.999-15V880.77178a327.53661,327.53661,0,0,1,77.5-645.77051h375a327.5,327.5,0,1,1,0,655H542.0416l-183.72168,122.481A14.99471,14.99471,0,0,1,349.99863,1015.00127Zm62.501-750A297.53869,297.53869,0,0,0,352.983,854.05108a14.99935,14.99935,0,0,1,12.01661,14.70019V971.97344L529.17929,862.52031a15.00076,15.00076,0,0,1,8.32032-2.519h250a297.5,297.5,0,0,0,0-595Z"/><path d="M350.00254,611.62822a49.12866,49.12866,0,1,1,49.1289-49.12841A49.18414,49.18414,0,0,1,350.00254,611.62822Zm0-68.25732a19.12866,19.12866,0,1,0,19.1289,19.12891A19.15019,19.15019,0,0,0,350.00254,543.3709Z"/><path d="M599.99961,611.62822a49.12866,49.12866,0,1,1,49.1289-49.12841A49.18414,49.18414,0,0,1,599.99961,611.62822Zm0-68.25732a19.12866,19.12866,0,1,0,19.1289,19.12891A19.15019,19.15019,0,0,0,599.99961,543.3709Z"/><path d="M849.99668,611.62822a49.12866,49.12866,0,1,1,49.1289-49.12841A49.18414,49.18414,0,0,1,849.99668,611.62822Zm0-68.25732a19.12866,19.12866,0,1,0,19.1289,19.12891A19.15019,19.15019,0,0,0,849.99668,543.3709Z"/></g></svg>