<svg xmlns="http://www.w3.org/2000/svg" viewBox="0 0 1200 1200"><defs><style>.cls-1,.cls-2{fill:#32b2ae;}.cls-1{opacity:0.44;}.cls-3{fill:none;}</style></defs><g id="shadows"><path class="cls-1" d="M708.56,399.99883l-.36,2.5-2.32,16.27-91.19,638.2998a50.02077,50.02077,0,0,1-33.85,40.43018.14177.14177,0,0,0-.06.02,50.03108,50.03108,0,0,1-15.58,2.48H751.63c.55,0,1.09-.01,1.63-.03.13,0,.27-.01.4-.01h.04c.55-.02,1.1-.06006,1.65-.1001.62-.04,1.23-.09985,1.84-.16992q.825-.09009,1.65-.21c.12994-.02.26-.04.37994-.06006.35-.05005.7-.10987,1.05005-.16992.37-.07007.73-.13013,1.1-.21.54-.10009,1.07-.21,1.59-.34008.46-.1001.92-.21,1.38-.34009q.825-.20983,1.62-.44995c.09-.03.18-.05005.26-.07984,1.06006-.32006,2.11005-.68017,3.14-1.08007.17-.06006.33-.12012.49-.18995.29-.10009.57-.22021.84-.34008q.36-.13514.72-.30005c.34-.14014.68006-.29,1.01-.44995.31-.1399.61005-.28.91-.42994.37-.18017.73-.3601,1.09-.54a44.15575,44.15575,0,0,0,3.9-2.23c.28-.17017.55-.3501.83-.53q1.305-.85511,2.55-1.80005c.25-.18994.5-.37989.74-.57007.33-.26.66-.52.98-.7898.62-.5,1.22-1.02,1.81-1.57006.26-.23023.52-.47.77-.71021.71-.65991,1.4-1.34985,2.06-2.06982a.79933.79933,0,0,0,.13-.13013c.01-.01.02-.01978.02-.03.33-.34985.65-.69995.96-1.05981.2-.22.39-.44019.58-.67017.34-.38989.66-.77979.99-1.18994.33-.41992.67-.8501.99-1.29l.09-.11987c.28-.37012.56-.76.83-1.15015.37-.54.74-1.08984,1.1-1.6499.27-.41016.52-.83008.77-1.25q.165-.25488.3-.51c.22-.36011.43-.73.63-1.09986.07-.12011.14-.25.2-.37011.12-.22.24-.44995.36-.66993.06-.1101.11-.23.17-.34008a.3532.3532,0,0,0,.04-.09009q.18009-.36.36005-.72c.2-.3999.38995-.80982.58-1.22.36005-.81006.71-1.62989,1.04-2.46l-1.98-1.89991v-.01025l-18.47-17.77978,13.72-23.67017,12.02-1.98,2.58-.42993,1.79-12.57007.09-.59985.3-2.13013.39-2.72-2.63.78-7.19,2.13989-9.26-48.24-3.02-15.74,5.38-.79,23.53-3.47,2.58-.37988.35-2.46.02-.12012.37-2.59009,73.54-514.77978,2.68-18.77Z"/><path class="cls-2" d="M774.61,1048.9688l22.55,21.69995a50.01347,50.01347,0,0,1-45.53,29.33008H338.35a50.03042,50.03042,0,0,1-15.58-2.48H720.84a56.2895,56.2895,0,0,0,33.56-11.06006l29.46-143.82007,13.03,67.88013Z"/><polygon class="cls-2" points="894.99 399.999 892.31 418.769 818.38 936.259 784.03 941.779 810.5 812.549 869.44 399.999 894.99 399.999"/><path class="cls-2" d="M720.84,1097.51885a56.2895,56.2895,0,0,0,33.56-11.06006l-2.77,13.54H366.37a50.03108,50.03108,0,0,1-15.58-2.48Z"/><path class="cls-2" d="M810.5,812.54863l-17.84,124.8501-.37,2.58008-.06.48-.31,2.10986-5.38.79,3.02,15.74-1.08,7.59009v.01l-1.09,7.6101-9.03,63.18995-.95,6.62988v.01l-.7,4.92016c-.08.55982-.17,1.11988-.26,1.67994-.17.98-.37,1.94995-.59,2.8999a56.33068,56.33068,0,0,1-21.46,32.82007l28.14-137.41993.76-3.68017.32-1.52979.24-1.18017v-.01l.17-.86011.12994-.63989.56-2.72Z"/><polygon class="cls-2" points="894.99 399.999 810.5 812.549 869.44 399.999 894.99 399.999"/><path class="cls-1" d="M493.56621,301.05946l91.28907,32.02186a6.28264,6.28264,0,0,0,7.00992-2.03451l44.36486-56.17258a6.28263,6.28263,0,0,1,7.0532-2.01914l7.7965,2.799a6.28263,6.28263,0,0,1,2.85317,9.74858l-42.30565,54.88611a25.5632,25.5632,0,0,1-29.40809,8.2592l-92.98413-35.6947a6.28264,6.28264,0,0,1-1.32182-11.03275h0A6.28262,6.28262,0,0,1,493.56621,301.05946Z"/><path class="cls-1" d="M744.83161,298.62124v15.66132l-31.17683,48.33205s-15.91631,3.4171-13.65478,0S744.83161,298.62124,744.83161,298.62124Z"/><path class="cls-1" d="M240.53763,360.55329l49.46923-51.9646L322.23329,300l22.05436,4.83983-51.875,17.80344-35.78056,39.97134Z"/><path class="cls-1" d="M894.99,400l-2.68,18.77-5.34,37.39H345.5c-73.52,0-129.99,65.11-119.6,137.89l11.12,77.87,57.45,402.05a49.99083,49.99083,0,0,1-5.61-16.8999L197.67,418.77,194.99,400Z"/><polygon class="cls-2" points="784.03 941.779 783.86 942.639 783.7 941.829 784.03 941.779"/></g><g id="artwork"><path class="cls-2" d="M910.35,1029.39873c-.6-.05-1.46-.08008-2.53-.1001-9.86-.23975-37.05.32007-37.05.32007l-44.08-10.59009-18.03,2.98023-2.59.42993-2.58.42993-12.02,1.98-.76.13013,5.65-8.57007,2.57-3.88989.1-.15015.33-.5,5.95-1.8,2.64-.7998,2.64-.80005,24.18-7.32007s11.04,4.24,24.73,9.44995C879.44,1018.19878,905.02,1027.8289,910.35,1029.39873Z"/><path class="cls-2" d="M911.35,1029.59868c-.03.05-.38-.01978-1-.2C911.04,1029.44878,911.39,1029.51885,911.35,1029.59868Z"/><path d="M808.64,1004.41875l-2.63.78-.39,2.73-.31,2.13989,2.64-.7998,2.64-.80005.3-2.11011.39-2.73ZM192.11,397.49883l94.27,659.92993a52.76262,52.76262,0,0,0,51.97,45.07007H751.63a52.8,52.8,0,0,0,46.22-27.68995c.42-.76025.81-1.54,1.19-2.32006q.57-1.20008,1.08-2.42994l-1.92-1.85009-1.98-1.89991c-.31.84986-.63995,1.67994-1,2.5-.35.80982-.72,1.60987-1.12,2.3899a47.76449,47.76449,0,0,1-42.47,26.30005H338.35a47.73173,47.73173,0,0,1-47.02-40.78L200.14,418.41875l-2.27-15.91992H892.11L816.19,933.92876l-.37,2.59009-.02.1499v.01l-.35,2.41992,2.58-.37988,2.58-.38013.37-2.57983.37-2.59009,76.52-535.66992Z"/><path d="M900.114,402.50029H189.8562a21.19287,21.19287,0,1,1,0-42.38574H900.114a21.19287,21.19287,0,0,1,0,42.38574ZM189.8562,365.11455a16.19287,16.19287,0,1,0,0,32.38574H900.114a16.19287,16.19287,0,0,0,0-32.38574Z"/><path d="M544.98511,1042.5501a20.38817,20.38817,0,0,1-20.365-20.36524V480.96513a20.365,20.365,0,1,1,40.73,0v541.21973A20.38817,20.38817,0,0,1,544.98511,1042.5501Zm0-576.9502a15.38228,15.38228,0,0,0-15.365,15.36523v541.21973a15.365,15.365,0,1,0,30.73,0V480.96513A15.38228,15.38228,0,0,0,544.98511,465.5999Z"/><path d="M394.69922,1042.34892a20.25775,20.25775,0,0,1-20.03687-17.53906L302.38184,483.69267a20.21611,20.21611,0,0,1,19.92334-22.8916h.11572a20.25774,20.25774,0,0,1,20.03686,17.53906l72.28052,541.11719a20.21645,20.21645,0,0,1-19.92334,22.8916h-.11572ZM322.42065,465.80107h-.08715a15.2153,15.2153,0,0,0-14.99561,17.22949l72.28052,541.11719a15.24815,15.24815,0,0,0,15.08081,13.20117h.0874a15.21566,15.21566,0,0,0,14.99561-17.22949L337.50171,479.00224A15.24822,15.24822,0,0,0,322.42065,465.80107Z"/><path d="M706.83423,1042.5501a20.21539,20.21539,0,0,1-20.05274-22.7793l69.21167-541.51856a20.21581,20.21581,0,0,1,40.10523,5.127l-2.47974-.31739,2.47974.31739L726.887,1024.89775A20.25791,20.25791,0,0,1,706.83423,1042.5501Zm69.21142-576.9502a15.24776,15.24776,0,0,0-15.093,13.28711l-69.21143,541.51855a15.21587,15.21587,0,0,0,30.18628,3.85743l69.21118-541.51856a15.21581,15.21581,0,0,0-15.093-17.14453Z"/><polygon points="401.422 364.671 398.578 360.558 489.556 297.645 639.136 268.762 745.419 298.518 702.085 363.994 697.915 361.235 737.461 301.483 638.925 273.895 491.536 302.356 401.422 364.671"/><polygon points="852.194 363.812 847.806 361.417 869.226 322.171 749.884 257.345 712.511 273.775 712.123 273.815 659.082 279.356 658.563 274.383 711.215 268.882 750.116 251.781 876.015 320.169 852.194 363.812"/><polygon points="589.942 337.515 489.719 302.36 491.373 297.641 588.23 331.617 637.069 269.779 640.992 272.878 589.942 337.515"/><polygon points="240.386 364.338 236.764 360.891 288.682 306.355 322.176 297.428 322.769 297.559 450.536 325.596 449.464 330.481 322.291 302.573 291.332 310.824 240.386 364.338"/><polygon points="329.369 364.62 326.385 360.609 357.826 337.224 425.208 342.835 424.792 347.818 359.294 342.363 329.369 364.62"/><path d="M562.85,480.96v541.23a17.88334,17.88334,0,0,1-13.28,17.27V463.69A17.88329,17.88329,0,0,1,562.85,480.96Z"/><path d="M547.07007,1042.71123V460.43877l3.14209.835a20.39138,20.39138,0,0,1,15.13794,19.68652v541.22949a20.39139,20.39139,0,0,1-15.13794,19.68653Zm5-575.3877v568.50293a15.39057,15.39057,0,0,0,8.28-13.63672V480.96025A15.39059,15.39059,0,0,0,552.07007,467.32353Z"/><polygon points="894.99 400 892.31 418.77 197.67 418.77 194.99 400 894.99 400"/><path d="M894.47852,421.26982H195.50146l-3.39379-23.76953H897.87231Zm-694.64014-5H890.1416l1.96607-13.76953H197.87231Z"/><path d="M405.14,1036.43994,330.21,465.1a17.7038,17.7038,0,0,1,9.77,13.57l72.28,541.12A17.6747,17.6747,0,0,1,405.14,1036.43994Z"/><path d="M403.20947,1040.94365l-76.084-580.13672,4.18359,2.04785a20.18226,20.18226,0,0,1,11.14893,15.4834l72.28,541.12109a20.18861,20.18861,0,0,1-8.12427,19ZM333.44189,470.51689l73.52393,560.61719a15.17891,15.17891,0,0,0,2.81641-11.01172L337.502,479.00127A15.21419,15.21419,0,0,0,333.44189,470.51689Z"/><path d="M770.31,464.06l-75.13,571.61993a17.70645,17.70645,0,0,1-6.06-13.31994,17.50083,17.50083,0,0,1,.14-2.27l69.21-541.52A17.71735,17.71735,0,0,1,770.31,464.06Z"/><path d="M697.04907,1040.64385l-3.51733-3.084a20.22972,20.22972,0,0,1-6.91162-15.20019,19.91111,19.91111,0,0,1,.16064-2.5918l69.20947-541.51563a20.344,20.344,0,0,1,13.51221-16.55859l3.811-1.30078Zm70.16358-572.20313a15.33158,15.33158,0,0,0-6.26319,10.44727l-69.20971,541.51953a14.982,14.982,0,0,0-.11963,1.95215,15.14817,15.14817,0,0,0,1.83935,7.22656Z"/><polygon points="874.08 1075.869 874.28 1076.299 873.75 1076.019 874.08 1075.869"/><polygon points="913.14 1025.899 912.3 1028.239 912.3 1028.249 911.45 1030.599 907.82 1029.299 859.46 1011.959 859.5 1010.599 859.54 1009.329 859.63 1006.709 910.82 1025.069 913.14 1025.899"/><path d="M988.55,991.02861l-.2,1.8501-2.69,1.62012-30.17,18.16992-1.29-2.1499-1.29-2.14014,31.95-19.23-20.74-30.21a3.51624,3.51624,0,0,1-.4-.77l-16.03-41.46-46.75-14.02-35.92,41.87988,21.26,22.09009-1.80005,1.73-1.8,1.74-21.15-21.97.11-3.49,1.64-1.90991,36.39-42.44019a1.21112,1.21112,0,0,1,1.16-.27l48.19,14.4502a1.20811,1.20811,0,0,1,.77.71l16.26,42.06982a1.41915,1.41915,0,0,0,.13.24024L987,987.85869l1.42,2.06006.09.16015A1.16389,1.16389,0,0,1,988.55,991.02861Z"/><path d="M988.51,990.0789l-.09-.16015-1.29-2.14014-.13.08008-20.82-30.33984a1.41915,1.41915,0,0,1-.13-.24024l-16.26-42.06982a1.20811,1.20811,0,0,0-.77-.71l-48.19-14.4502a1.21112,1.21112,0,0,0-1.16.27L863.28,942.75884l-1.75-1.81006-1.63,1.90991-.16.18017,1.9,1.62989.03.03,1.86005,1.59985,1.49-1.73,35.92-41.87988,46.75,14.02,16.03,41.46a3.51624,3.51624,0,0,0,.4.77l20.74,30.21,1.19,1.73-.05.5-.34,3.12012,2.69-1.62012,1.36-.81983Zm-113.39,88.06983-.84-1.8501-.2-.42993-.33.15015-2.85-1.52,2.13,1.84985-2.14.97,2.79,1.49023,2.3,1.23Z"/><path d="M991.01,991.52861l-5.7,53.09009a3.71339,3.71339,0,0,1-1.21,2.36011l-60.77,54.47a3.72125,3.72125,0,0,1-3.11005,1.68994,3.88193,3.88193,0,0,1-1.11-.16992l-.42-.17994-42.71-22.75-.86-1.89013-.84-1.8501-.2-.42993-.33.15015-2.85-1.52,2.13,1.84985-2.14.97-14.4-7.66992,1.17-2.19995,1.18006-2.21,3.51,1.86987,57.58,30.66992,60.46-54.18994,5.27-49.08984,2.69-1.62012,1.36-.81983-1.2-1.98-.09-.16015-1.29-2.14014-.13.08008-20.82-30.33984a1.41915,1.41915,0,0,1-.13-.24024l-16.26-42.06982a1.20811,1.20811,0,0,0-.77-.71l-48.19-14.4502a1.21112,1.21112,0,0,0-1.16.27L863.28,942.75884l-1.75-1.81006,36.43994-42.45a3.67437,3.67437,0,0,1,3.58-.84009l48.19,14.45a3.65064,3.65064,0,0,1,2.38,2.20019l16.21,41.91993,22.15,32.27A3.66959,3.66959,0,0,1,991.01,991.52861Z"/><path d="M875.12,1078.14873l-1.44.66015-45.45,20.73a1.19616,1.19616,0,0,1-1.32-.23l-27.87-26.82006-1.88-1.82007-1.94-1.85987-18.77-18.07006-1.84-1.77,2.8-4.83008v-.01l17.65-30.44995,1.83-3.15015v-.00976l.03.02,1.9,1.6399.21.18994.11.09009-.21.06006-.38.11987-2.19,3.77-4.89,8.43994-13.72,23.67017,18.47,17.77978v.01025l1.98,1.89991,1.92,1.85009L828,1096.89873l42.89-19.58008,2.14-.97Z"/><path d="M876.16,1080.41875,829.27,1101.80888a3.66716,3.66716,0,0,1-4.09-.69018l-27.33-26.30982-1.84-1.77-.01-.01025-1.9-1.82983-18.24-17.56006-4.4-4.23,6.9-11.90991,15.89-27.41993.47-.81,2.17,1.25976.03.01025,2.13,1.23975-.23.40015-.27.46-2.19,3.77-4.89,8.43994-13.72,23.67017,18.47,17.77978v.01025l1.98,1.89991,1.92,1.85009L828,1096.89873l42.89-19.58008,2.14-.97.72-.32983.33-.15015.2.42993.84,1.8501.86,1.89013Z"/><path d="M912.3,1028.23882v.01l-52.76-18.91993-26.59-9.53027-22.06,6.56006-2.64.78-2.63.79-8.73,2.59009-8.41-43.82007v-.01l-4.62-24.04v-.01l-.16-.80982a1.19123,1.19123,0,0,1,1.63-.82006l6.96-1.03,23.53-3.46,2.58-.38013,2.58-.37988,27.71-4.08008a1.14187,1.14187,0,0,1,.79.3601l10.42,10.81983,1.74,1.81006.03.03,22.81,23.68994-1.8,1.74-21.15-21.97L848.16,934.27861l-27.55,4.06006-2.58.38013-2.58.37988-23.53,3.47-5.38.79,3.02,15.74,9.26,48.24,7.19-2.13989,2.63-.78,2.64-.79,21.74-6.46,26.61,9.54,51.19,18.35986Z"/><path d="M913.14,1025.89873l-.84,2.34009v.01l-.85,2.34985-3.63-1.30005-48.36-17.33984-26.58-9.53-25.02,7.43994-8.72,2.59009-.21.06006-.38.11987-3.49,1.04-.11.03-.7-3.62989-6.86-35.77-4.84-25.26025-.01-.00977-1.39-7.27.12-.52a3.6985,3.6985,0,0,1,1.94-2.43995,3.35668,3.35668,0,0,1,1.51-.39013,3.77163,3.77163,0,0,1,.75.04l7.19-1.06006,23.53-3.47,2.58-.38013,2.58-.37988,27.23-4.01.26.02a3.75364,3.75364,0,0,1,2.44,1.11987l10.25,10.65015,1.75,1.81006,1.74,1.80981,21.26,22.09009-1.80005,1.73-1.8,1.74-21.15-21.97L848.16,934.27861l-27.55,4.06006-2.58.38013-2.58.37988-23.53,3.47-5.38.79,3.02,15.74,9.26,48.24,7.19-2.13989,2.63-.78,2.64-.79,21.74-6.46,26.61,9.54,51.19,18.35986Z"/><line class="cls-3" x1="988.42274" y1="989.91698" x2="954.19901" y2="1010.52237"/><polygon points="989.71 992.059 988.35 992.879 985.66 994.499 955.49 1012.669 954.2 1010.519 952.91 1008.379 984.86 989.149 987 987.859 987.13 987.779 988.42 989.919 988.51 990.079 989.71 992.059"/><polygon class="cls-2" points="886.138 966.835 900 914.15 931.638 910.915 900 902.02 864.884 944.443 886.138 966.835"/><path d="M623.46509,236.88994l-4.78955-1.43555c.72265-2.41015,1.50537-4.84375,2.32666-7.23437l4.72851,1.625C624.93091,232.17314,624.1687,234.54326,623.46509,236.88994Z"/><path d="M635.48169,206.65654l-4.46875-2.24219c2.30688-4.59668,4.8313-9.16015,7.50342-13.56445l4.2749,2.59375C640.188,197.73467,637.72876,202.18,635.48169,206.65654Zm21.75854-33.80078-3.89306-3.13867c3.23-4.00684,6.66113-7.93262,10.198-11.668l3.63086,3.4375C663.72974,165.12627,660.387,168.95146,657.24023,172.85576Zm28.39917-28.44922-3.14453-3.88672c3.99732-3.23437,8.17749-6.34863,12.42408-9.25781l2.82568,4.125C693.60693,138.221,689.53418,141.25615,685.6394,144.40654ZM719.39355,122.595l-2.251-4.46485c4.58764-2.3125,9.33179-4.46972,14.10083-6.41308l1.88623,4.63086C728.48364,118.24052,723.86206,120.34209,719.39355,122.595Zm37.60572-14.13965-1.24756-4.8418c4.98169-1.28418,10.07934-2.38086,15.15137-3.25879l.85351,4.92578C766.81665,106.137,761.85156,107.20537,756.99927,108.45537Z"/><path d="M796.8103,102.64287l-.19433-4.9961c2.50024-.09765,5.05639-.14648,7.59741-.14648v5C801.73682,102.50029,799.24609,102.54814,796.8103,102.64287Z"/><path d="M420.10107,241.21513a113.55275,113.55275,0,0,0-8.56274-11.90332l3.86084-3.17773a118.76591,118.76591,0,0,1,8.94116,12.42871Zm-26.0166-28.96582a114.15338,114.15338,0,0,0-12.09155-8.29492l2.55713-4.29687a119.0815,119.0815,0,0,1,12.62329,8.66015Zm-34.28711-18.46679a114.95316,114.95316,0,0,0-14.18042-3.752l.9668-4.90625a120.15624,120.15624,0,0,1,14.79907,3.916Zm-53.11255-4.6211-.751-4.94336a118.04873,118.04873,0,0,1,15.25854-1.30957l.103,4.99805A113.254,113.254,0,0,0,306.68481,189.16142Z"/></g></svg>