<svg xmlns="http://www.w3.org/2000/svg" viewBox="0 0 1200 1200"><g id="artwork"><path d="M629.91465,1114.12562a15.00038,15.00038,0,0,1-.8711-29.97461c8.0332-.47461,16.16113-1.15869,24.15918-2.03369a15.00006,15.00006,0,0,1,3.26172,29.82227c-8.49121.92871-17.12207,1.65527-25.65137,2.15918Q630.36191,1114.12586,629.91465,1114.12562Zm-79.85938-1.64355a15.13845,15.13845,0,0,1-1.5166-.07617c-8.50293-.854-17.0957-1.9336-25.54-3.208a15,15,0,0,1,4.47656-29.66407c7.95606,1.20069,16.05078,2.21778,24.0625,3.02247a15.00052,15.00052,0,0,1-1.48242,29.92578Zm183.25-15.46387a15.00219,15.00219,0,0,1-3.98242-29.46289c7.75781-2.14209,15.56055-4.5083,23.1914-7.03369a14.99986,14.99986,0,1,1,9.42579,28.48047c-8.10547,2.68261-16.39356,5.19629-24.63477,7.47168A15.03251,15.03251,0,0,1,733.30527,1097.0182Zm-285.87793-5.81982a14.98217,14.98217,0,0,1-4.56738-.71485c-8.14063-2.59961-16.3252-5.44092-24.3252-8.44433a15.00013,15.00013,0,0,1,10.54492-28.08594c7.53321,2.82812,15.24024,5.5039,22.90723,7.95215a15.00241,15.00241,0,0,1-4.55957,29.293Zm383.39258-32.56153a15.00206,15.00206,0,0,1-6.94922-28.30273c7.12793-3.71778,14.25879-7.668,21.19531-11.7417a14.99993,14.99993,0,1,1,15.19141,25.86914c-7.36719,4.32666-14.94141,8.523-22.51367,12.47217A14.93552,14.93552,0,0,1,830.81992,1058.63685Zm-479.3457-9.62988a14.931,14.931,0,0,1-7.43555-1.98291c-7.416-4.24316-14.82617-8.73584-22.02735-13.35352a14.99987,14.99987,0,1,1,16.19336-25.2539c6.77832,4.34668,13.75391,8.57519,20.73243,12.56836a15.00169,15.00169,0,0,1-7.46289,28.022ZM266.52207,987.63a14.94432,14.94432,0,0,1-10.01075-3.8335c-6.35546-5.70068-12.66015-11.648-18.73925-17.67627a15.00026,15.00026,0,0,1,21.125-21.30176c5.72461,5.67774,11.66211,11.27783,17.6455,16.645A15.00024,15.00024,0,0,1,266.52207,987.63Zm-70.28418-77.73487a14.98,14.98,0,0,1-12.11914-6.14453c-5.05078-6.90478-9.98731-14.01514-14.6709-21.1333a14.99966,14.99966,0,1,1,25.06055-16.49023c4.41308,6.70556,9.06347,13.40429,13.82324,19.91064a15.00123,15.00123,0,0,1-12.09375,23.85742Zm-52.68653-90.55273a15.002,15.002,0,0,1-13.69531-8.86621c-3.49414-7.79-6.83691-15.7793-9.93848-23.7461a15.00009,15.00009,0,1,1,27.957-10.88183c2.91894,7.49951,6.0664,15.01953,9.35449,22.35254a15.00815,15.00815,0,0,1-13.67774,21.1416Zm-32.56543-99.59961a15.00431,15.00431,0,0,1-14.65527-11.87256c-1.78125-8.34961-3.376-16.86279-4.73926-25.30273a15.0004,15.0004,0,0,1,29.61719-4.78223c1.2832,7.94678,2.78418,15.9624,4.46191,23.82422a15.01364,15.01364,0,0,1-14.68457,18.1333ZM99.99961,615.5265a15.00012,15.00012,0,0,1-15-15v-.2251c0-8.457.21191-17.03711.6289-25.50146a14.99963,14.99963,0,1,1,29.96289,1.47656c-.39258,7.9751-.59179,16.05811-.59179,24.0249v.2251A15.00012,15.00012,0,0,1,99.99961,615.5265Zm10.88867-104.23242a15.01233,15.01233,0,0,1-14.69043-18.10547c1.76855-8.36621,3.77051-16.793,5.95019-25.04736a15,15,0,0,1,29.00586,7.65918c-2.05273,7.77441-3.93847,15.7124-5.60449,23.59326A15.00584,15.00584,0,0,1,110.88828,511.29408ZM143.14121,411.588a15.00826,15.00826,0,0,1-13.7002-21.09423c3.46875-7.80664,7.1836-15.63379,11.04395-23.26416a14.9995,14.9995,0,1,1,26.76953,13.54c-3.63379,7.18506-7.13184,14.55469-10.39746,21.90479A15.0037,15.0037,0,0,1,143.14121,411.588Zm52.4082-90.75976a15.00129,15.00129,0,0,1-12.11133-23.833c5.03614-6.91357,10.31348-13.78809,15.68457-20.43213a14.99974,14.99974,0,0,1,23.33008,18.85938c-5.05664,6.25537-10.02441,12.72754-14.7666,19.23681A14.979,14.979,0,0,1,195.54941,320.82826Zm70.30469-77.76611a15.00024,15.00024,0,0,1-10.02051-26.16651c6.34766-5.69336,12.93262-11.313,19.57031-16.70312a15.00017,15.00017,0,0,1,18.91016,23.29c-6.25879,5.08154-12.46582,10.37939-18.44922,15.74609A14.94613,14.94613,0,0,1,265.8541,243.06215Z"/><path d="M956.6207,965.49867a14.99975,14.99975,0,0,1-10.68359-25.52735A484.801,484.801,0,0,0,691.7584,123.76381c-110.43848-21.21778-225.3125-3.43311-323.458,50.07861a15.0003,15.0003,0,0,1-14.36133-26.33985c104.24219-56.83349,226.22754-75.728,343.47949-53.1997A515.04146,515.04146,0,0,1,967.30625,961.026,14.95234,14.95234,0,0,1,956.6207,965.49867Z"/><path d="M940.4625,984.32875a14.99977,14.99977,0,0,1-14.999-15.16944L926.95761,836.9a15.0005,15.0005,0,0,1,14.99512-14.83057c.05859,0,.11524.00049.17285.001a15.00012,15.00012,0,0,1,14.83008,15.16845l-1.292,114.38916L1068.54355,933.068a15,15,0,0,1,4.86719,29.60254L942.89609,984.13A14.99167,14.99167,0,0,1,940.4625,984.32875Z"/><path d="M513.88828,818.90736a14.99869,14.99869,0,0,1-11.48926-5.35645L332.33164,610.92738a15,15,0,1,1,22.97851-19.28711L513.88828,780.57533,844.68906,386.44886A15,15,0,1,1,867.66757,405.736l-342.29,407.81494A14.99871,14.99871,0,0,1,513.88828,818.90736Z"/></g></svg>