<svg xmlns="http://www.w3.org/2000/svg" viewBox="0 0 1200 1200"><defs><style>.cls-1{fill:#fff;}</style></defs><g id="artwork"><path d="M882.38063,338.49086a414.63768,414.63768,0,0,0-377.75-253.43018c-1.54-.02-3.08984-.02978-4.62988-.02978s-3.09033.00976-4.62988.02978a415.1026,415.1026,0,0,0-156.91016,797.3501,414.65689,414.65689,0,0,0,429.97021-65.85q7.34986-6.24,14.43995-12.86,5.36939-5.01013,10.57959-10.22c1.28027-1.28,2.54-2.56006,3.80029-3.8501l-1.8999-42.59q-6.88551,8.235-14.29,16.11-4.31983,4.62012-8.82031,9.12c-1.83008,1.83-3.67969,3.65-5.54981,5.43006A385.00166,385.00166,0,1,1,350.14089,145.2809a379.69726,379.69726,0,0,1,54.38964-18.34009,384.21936,384.21936,0,0,1,91.53028-11.8899c1.31006-.01025,2.62988-.02,3.93994-.02s2.62988.00976,3.93994.02a384.22246,384.22246,0,0,1,91.53027,11.8899A384.74929,384.74929,0,0,1,885.00075,500.0309a383.66356,383.66356,0,0,1-59.31006,205.46q-3.99024,6.345-8.25977,12.51989-4.2451,6.195-8.75,12.21009l25.33985,16.17993q4.48461-6.045,8.71-12.24,4.25976-6.195,8.25-12.53a415.84785,415.84785,0,0,0,31.3999-383.13989Z"/><path d="M654.84059,210.41078c-17.36963-34.75-37.43017-62.79-59.36963-83.47-27.81054-26.23-58.63037-40.63013-90.84033-41.88013-1.54-.06982-3.08008-.09985-4.62988-.09985-1.55029,0-3.09033.03-4.62988.09985-32.21045,1.25-63.03028,15.65015-90.84034,41.88013-21.93994,20.67993-42,48.72-59.37011,83.47-38.78955,77.6001-60.15967,180.42993-60.15967,289.55005,0,109.12988,21.37012,211.96,60.15967,289.55993,17.43017,34.86,37.56054,62.9701,59.59033,83.67005,29.08008,27.35,61.44971,41.77,95.25,41.77,33.7998,0,66.16992-14.42,95.25-41.77,22.02978-20.7,42.15967-48.81006,59.58984-83.67005,38.79-77.6,60.16016-180.43005,60.16016-289.55993C715.00075,390.84071,693.63063,288.01088,654.84059,210.41078ZM628.00075,776.10072c-17.4502,34.91-37.58008,62.15015-59.84033,80.98-21.86963,18.5-44.80957,27.88013-68.15967,27.88013-23.35986,0-46.29-9.38013-68.16016-27.88013-22.25976-18.82983-42.39013-46.06995-59.85009-80.98-36.75-73.51-56.98975-171.56982-56.98975-276.13989,0-104.56006,20.23975-202.62012,56.98975-276.13013,17.46-34.90991,37.59033-62.1499,59.85009-80.98,20.64014-17.46,42.22022-26.79981,64.22022-27.79981,1.31006-.06005,2.62011-.09008,3.93994-.09008s2.62988.03,3.93994.09008c21.99023,1,43.58008,10.33985,64.21973,27.79981,22.26025,18.83008,42.39013,46.07007,59.84033,80.98,36.75976,73.51,57,171.57007,57,276.13013C685.00075,604.5309,664.76051,702.59071,628.00075,776.10072Z"/><path d="M870.96608,365.30238H129.03444a15,15,0,1,1,0-30H870.96608a15,15,0,0,1,0,30Z"/><path d="M870.96608,664.76673H129.03444a15,15,0,1,1,0-30H870.96608a15,15,0,0,1,0,30Z"/><path class="cls-1" d="M1099.50075,898.13075l-256.77-163.97-25.29981-16.15-39.5205-25.24,3.15039,70.38,1.81006,40.55005,12.08984,270.26,100.58984-111.6001,79.26026,137.29,57.00976-32.91992-79.1499-137.08008Zm-88.16992,163.11011-31.03028,17.91992-71.75976-124.3a15.022,15.022,0,0,0-11.41992-7.41992c-.53028-.05005-1.0503-.08008-1.57032-.08008a14.96639,14.96639,0,0,0-11.14013,4.96l-76.09961,84.42017L797.25075,789.63075l-1.8999-42.59-1.16993-26.08,14.5,9.26,25.33985,16.17993,226.63965,144.72L949.53053,914.98085a15.013,15.013,0,0,0-9.84961,22.16992Z"/><path d="M1107.57057,885.48085,850.98073,721.63075l-25.29-16.13989-39.71-25.36011a15.00157,15.00157,0,0,0-23.06006,13.31006l3.77,84.26,1.74023,38.86,11.54,258.07a14.99975,14.99975,0,0,0,26.12989,9.37012l86.77-96.27,68.9497,119.41992a14.985,14.985,0,0,0,9.11035,6.98,14.67108,14.67108,0,0,0,3.87989.52,15.08311,15.08311,0,0,0,7.5-2.01l57.00976-32.91992a15.00381,15.00381,0,0,0,5.49024-20.49l-68.83985-119.24,126.67969-27.20008a15.001,15.001,0,0,0,4.91992-27.30993Zm-158.04,29.5a15.013,15.013,0,0,0-9.84961,22.16992l71.64991,124.09009-31.03028,17.91992-71.75976-124.3a15.022,15.022,0,0,0-11.41992-7.41992c-.53028-.05005-1.0503-.08008-1.57032-.08008a14.96639,14.96639,0,0,0-11.14013,4.96l-76.09961,84.42017L797.25075,789.63075l-1.8999-42.59-1.16993-26.08,14.5,9.26,25.33985,16.17993,226.63965,144.72Z"/></g></svg>